M48
;GenerationSoftware,Autodesk,EAGLE,9.2.1*%
;CreationDate,2018-12-18T20:59:26Z*%
FMAT,2
ICI,OFF
METRIC,TZ,000.000
T4C0.800
T3C0.813
T2C1.000
T1C3.200
%
G90
M71
T1
X3000Y3000
X3000Y37000
X60000Y3000
T2
X17463Y31432
X22542Y31432
X20003Y31432
X25082Y31432
T3
X9525Y22860
X9525Y20320
X9525Y17780
X9525Y15240
X9525Y12700
X9525Y10160
X9525Y7620
X9525Y5080
X9525Y2540
X17145Y2540
X17145Y5080
X17145Y7620
X17145Y10160
X17145Y12700
X17145Y15240
X17145Y17780
X17145Y20320
X24447Y21590
X26987Y21590
X17145Y22860
X27305Y15240
X19685Y15240
X27305Y17780
X19685Y17780
X27305Y2540
X19685Y2540
X27305Y5080
X19685Y5080
X27305Y7620
X19685Y7620
X27305Y12700
X19685Y12700
X27305Y10160
X19685Y10160
X24447Y25400
X26987Y25400
T4
X46990Y4168
X44450Y4168
X44450Y34648
X46990Y34648
X36830Y4168
X36830Y34648
X39370Y4168
X41910Y4168
X39370Y34648
X41910Y34648
M30