G04 EAGLE Gerber RS-274X export*
G75*
%MOMM*%
%FSLAX34Y34*%
%LPD*%
%INSilkscreen Top*%
%IPPOS*%
%AMOC8*
5,1,8,0,0,1.08239X$1,22.5*%
G01*
%ADD10C,0.177800*%
%ADD11C,0.101600*%
%ADD12C,0.152400*%
%ADD13C,0.254000*%
%ADD14R,0.381000X0.508000*%
%ADD15C,0.076200*%


D10*
X331089Y367030D02*
X337778Y387096D01*
X344466Y367030D01*
X342794Y372047D02*
X332761Y372047D01*
X351742Y367030D02*
X351742Y383752D01*
X351744Y383866D01*
X351750Y383980D01*
X351760Y384094D01*
X351773Y384207D01*
X351791Y384320D01*
X351812Y384432D01*
X351837Y384544D01*
X351866Y384654D01*
X351899Y384764D01*
X351935Y384872D01*
X351975Y384979D01*
X352019Y385084D01*
X352066Y385188D01*
X352117Y385290D01*
X352171Y385391D01*
X352229Y385489D01*
X352290Y385586D01*
X352354Y385680D01*
X352421Y385773D01*
X352492Y385862D01*
X352566Y385950D01*
X352642Y386034D01*
X352721Y386117D01*
X352804Y386196D01*
X352888Y386272D01*
X352976Y386346D01*
X353065Y386417D01*
X353158Y386484D01*
X353252Y386548D01*
X353349Y386609D01*
X353447Y386667D01*
X353548Y386721D01*
X353650Y386772D01*
X353754Y386819D01*
X353859Y386863D01*
X353966Y386903D01*
X354074Y386939D01*
X354184Y386972D01*
X354294Y387001D01*
X354406Y387026D01*
X354518Y387047D01*
X354631Y387065D01*
X354744Y387078D01*
X354858Y387088D01*
X354972Y387094D01*
X355086Y387096D01*
X356201Y387096D01*
X356201Y380407D02*
X349512Y380407D01*
X362247Y383752D02*
X362247Y367030D01*
X362247Y383752D02*
X362249Y383866D01*
X362255Y383980D01*
X362265Y384094D01*
X362278Y384207D01*
X362296Y384320D01*
X362317Y384432D01*
X362342Y384544D01*
X362371Y384654D01*
X362404Y384764D01*
X362440Y384872D01*
X362480Y384979D01*
X362524Y385084D01*
X362571Y385188D01*
X362622Y385290D01*
X362676Y385391D01*
X362734Y385489D01*
X362795Y385586D01*
X362859Y385680D01*
X362926Y385773D01*
X362997Y385862D01*
X363071Y385950D01*
X363147Y386034D01*
X363226Y386117D01*
X363309Y386196D01*
X363393Y386272D01*
X363481Y386346D01*
X363570Y386417D01*
X363663Y386484D01*
X363757Y386548D01*
X363854Y386609D01*
X363952Y386667D01*
X364053Y386721D01*
X364155Y386772D01*
X364259Y386819D01*
X364364Y386863D01*
X364471Y386903D01*
X364579Y386939D01*
X364689Y386972D01*
X364799Y387001D01*
X364911Y387026D01*
X365023Y387047D01*
X365136Y387065D01*
X365249Y387078D01*
X365363Y387088D01*
X365477Y387094D01*
X365591Y387096D01*
X366706Y387096D01*
X366706Y380407D02*
X360017Y380407D01*
X371765Y380407D02*
X371765Y367030D01*
X371207Y385981D02*
X371207Y387096D01*
X372322Y387096D01*
X372322Y385981D01*
X371207Y385981D01*
X382408Y367030D02*
X386867Y367030D01*
X382408Y367030D02*
X382294Y367032D01*
X382180Y367038D01*
X382066Y367048D01*
X381953Y367061D01*
X381840Y367079D01*
X381728Y367100D01*
X381616Y367125D01*
X381506Y367154D01*
X381396Y367187D01*
X381288Y367223D01*
X381181Y367263D01*
X381076Y367307D01*
X380972Y367354D01*
X380870Y367405D01*
X380769Y367459D01*
X380671Y367517D01*
X380574Y367578D01*
X380480Y367642D01*
X380387Y367709D01*
X380298Y367780D01*
X380210Y367854D01*
X380126Y367930D01*
X380043Y368009D01*
X379964Y368092D01*
X379888Y368176D01*
X379814Y368264D01*
X379743Y368353D01*
X379676Y368446D01*
X379612Y368540D01*
X379551Y368637D01*
X379493Y368735D01*
X379439Y368836D01*
X379388Y368938D01*
X379341Y369042D01*
X379297Y369147D01*
X379257Y369254D01*
X379221Y369362D01*
X379188Y369472D01*
X379159Y369582D01*
X379134Y369694D01*
X379113Y369806D01*
X379095Y369919D01*
X379082Y370032D01*
X379072Y370146D01*
X379066Y370260D01*
X379064Y370374D01*
X379063Y370374D02*
X379063Y377063D01*
X379064Y377063D02*
X379066Y377177D01*
X379072Y377291D01*
X379082Y377405D01*
X379095Y377518D01*
X379113Y377631D01*
X379134Y377743D01*
X379159Y377855D01*
X379188Y377965D01*
X379221Y378075D01*
X379257Y378183D01*
X379297Y378290D01*
X379341Y378395D01*
X379388Y378499D01*
X379439Y378601D01*
X379493Y378702D01*
X379551Y378800D01*
X379612Y378897D01*
X379676Y378991D01*
X379743Y379084D01*
X379814Y379173D01*
X379888Y379261D01*
X379964Y379345D01*
X380043Y379428D01*
X380126Y379507D01*
X380210Y379583D01*
X380298Y379657D01*
X380387Y379728D01*
X380480Y379795D01*
X380574Y379859D01*
X380671Y379920D01*
X380769Y379978D01*
X380870Y380032D01*
X380972Y380083D01*
X381076Y380130D01*
X381181Y380174D01*
X381288Y380214D01*
X381396Y380250D01*
X381506Y380283D01*
X381616Y380312D01*
X381728Y380337D01*
X381840Y380358D01*
X381953Y380376D01*
X382066Y380389D01*
X382180Y380399D01*
X382294Y380405D01*
X382408Y380407D01*
X386867Y380407D01*
X393877Y387096D02*
X393877Y367030D01*
X393877Y380407D02*
X399451Y380407D01*
X399565Y380405D01*
X399679Y380399D01*
X399793Y380389D01*
X399906Y380376D01*
X400019Y380358D01*
X400131Y380337D01*
X400243Y380312D01*
X400353Y380283D01*
X400463Y380250D01*
X400571Y380214D01*
X400678Y380174D01*
X400783Y380130D01*
X400887Y380083D01*
X400989Y380032D01*
X401090Y379978D01*
X401188Y379920D01*
X401285Y379859D01*
X401379Y379795D01*
X401472Y379728D01*
X401561Y379657D01*
X401649Y379583D01*
X401733Y379507D01*
X401816Y379428D01*
X401895Y379345D01*
X401971Y379261D01*
X402045Y379173D01*
X402116Y379084D01*
X402183Y378991D01*
X402247Y378897D01*
X402308Y378801D01*
X402366Y378702D01*
X402420Y378601D01*
X402471Y378499D01*
X402518Y378395D01*
X402562Y378290D01*
X402602Y378183D01*
X402638Y378075D01*
X402671Y377965D01*
X402700Y377855D01*
X402725Y377743D01*
X402746Y377631D01*
X402764Y377518D01*
X402777Y377405D01*
X402787Y377291D01*
X402793Y377177D01*
X402795Y377063D01*
X402795Y367030D01*
X413906Y367030D02*
X419480Y367030D01*
X413906Y367030D02*
X413792Y367032D01*
X413678Y367038D01*
X413564Y367048D01*
X413451Y367061D01*
X413338Y367079D01*
X413226Y367100D01*
X413114Y367125D01*
X413004Y367154D01*
X412894Y367187D01*
X412786Y367223D01*
X412679Y367263D01*
X412574Y367307D01*
X412470Y367354D01*
X412368Y367405D01*
X412267Y367459D01*
X412169Y367517D01*
X412072Y367578D01*
X411978Y367642D01*
X411885Y367709D01*
X411796Y367780D01*
X411708Y367854D01*
X411624Y367930D01*
X411541Y368009D01*
X411462Y368092D01*
X411386Y368176D01*
X411312Y368264D01*
X411241Y368353D01*
X411174Y368446D01*
X411110Y368540D01*
X411049Y368637D01*
X410991Y368735D01*
X410937Y368836D01*
X410886Y368938D01*
X410839Y369042D01*
X410795Y369147D01*
X410755Y369254D01*
X410719Y369362D01*
X410686Y369472D01*
X410657Y369582D01*
X410632Y369694D01*
X410611Y369806D01*
X410593Y369919D01*
X410580Y370032D01*
X410570Y370146D01*
X410564Y370260D01*
X410562Y370374D01*
X410562Y375948D01*
X410564Y376080D01*
X410570Y376212D01*
X410580Y376344D01*
X410593Y376475D01*
X410611Y376606D01*
X410632Y376737D01*
X410658Y376866D01*
X410687Y376995D01*
X410720Y377123D01*
X410756Y377250D01*
X410797Y377376D01*
X410841Y377501D01*
X410889Y377624D01*
X410940Y377746D01*
X410995Y377866D01*
X411054Y377984D01*
X411116Y378101D01*
X411182Y378216D01*
X411250Y378328D01*
X411323Y378439D01*
X411398Y378548D01*
X411477Y378654D01*
X411558Y378758D01*
X411643Y378859D01*
X411731Y378958D01*
X411822Y379054D01*
X411915Y379147D01*
X412011Y379238D01*
X412110Y379326D01*
X412211Y379411D01*
X412315Y379492D01*
X412421Y379571D01*
X412530Y379646D01*
X412641Y379719D01*
X412753Y379787D01*
X412868Y379853D01*
X412985Y379915D01*
X413103Y379974D01*
X413223Y380029D01*
X413345Y380080D01*
X413468Y380128D01*
X413593Y380172D01*
X413719Y380213D01*
X413846Y380249D01*
X413974Y380282D01*
X414103Y380311D01*
X414232Y380337D01*
X414363Y380358D01*
X414494Y380376D01*
X414625Y380389D01*
X414757Y380399D01*
X414889Y380405D01*
X415021Y380407D01*
X415153Y380405D01*
X415285Y380399D01*
X415417Y380389D01*
X415548Y380376D01*
X415679Y380358D01*
X415810Y380337D01*
X415939Y380311D01*
X416068Y380282D01*
X416196Y380249D01*
X416323Y380213D01*
X416449Y380172D01*
X416574Y380128D01*
X416697Y380080D01*
X416819Y380029D01*
X416939Y379974D01*
X417057Y379915D01*
X417174Y379853D01*
X417289Y379787D01*
X417401Y379719D01*
X417512Y379646D01*
X417621Y379571D01*
X417727Y379492D01*
X417831Y379411D01*
X417932Y379326D01*
X418031Y379238D01*
X418127Y379147D01*
X418220Y379054D01*
X418311Y378958D01*
X418399Y378859D01*
X418484Y378758D01*
X418565Y378654D01*
X418644Y378548D01*
X418719Y378439D01*
X418792Y378328D01*
X418860Y378216D01*
X418926Y378101D01*
X418988Y377984D01*
X419047Y377866D01*
X419102Y377746D01*
X419153Y377624D01*
X419201Y377501D01*
X419245Y377376D01*
X419286Y377250D01*
X419322Y377123D01*
X419355Y376995D01*
X419384Y376866D01*
X419410Y376737D01*
X419431Y376606D01*
X419449Y376475D01*
X419462Y376344D01*
X419472Y376212D01*
X419478Y376080D01*
X419480Y375948D01*
X419480Y373719D01*
X410562Y373719D01*
X427246Y370374D02*
X427246Y380407D01*
X427246Y370374D02*
X427248Y370260D01*
X427254Y370146D01*
X427264Y370032D01*
X427277Y369919D01*
X427295Y369806D01*
X427316Y369694D01*
X427341Y369582D01*
X427370Y369472D01*
X427403Y369362D01*
X427439Y369254D01*
X427479Y369147D01*
X427523Y369042D01*
X427570Y368938D01*
X427621Y368836D01*
X427675Y368735D01*
X427733Y368637D01*
X427794Y368540D01*
X427858Y368446D01*
X427925Y368353D01*
X427996Y368264D01*
X428070Y368176D01*
X428146Y368092D01*
X428225Y368009D01*
X428308Y367930D01*
X428392Y367854D01*
X428480Y367780D01*
X428569Y367709D01*
X428662Y367642D01*
X428756Y367578D01*
X428853Y367517D01*
X428951Y367459D01*
X429052Y367405D01*
X429154Y367354D01*
X429258Y367307D01*
X429363Y367263D01*
X429470Y367223D01*
X429578Y367187D01*
X429688Y367154D01*
X429798Y367125D01*
X429910Y367100D01*
X430022Y367079D01*
X430135Y367061D01*
X430248Y367048D01*
X430362Y367038D01*
X430476Y367032D01*
X430590Y367030D01*
X436164Y367030D01*
X436164Y380407D01*
X444627Y380407D02*
X444627Y367030D01*
X444627Y380407D02*
X451316Y380407D01*
X451316Y378178D01*
X466916Y367030D02*
X472490Y367030D01*
X472638Y367032D01*
X472787Y367038D01*
X472935Y367048D01*
X473082Y367062D01*
X473230Y367079D01*
X473377Y367101D01*
X473523Y367127D01*
X473668Y367156D01*
X473813Y367189D01*
X473957Y367226D01*
X474099Y367267D01*
X474241Y367312D01*
X474381Y367361D01*
X474520Y367413D01*
X474657Y367469D01*
X474793Y367528D01*
X474928Y367591D01*
X475060Y367658D01*
X475191Y367728D01*
X475320Y367802D01*
X475447Y367879D01*
X475571Y367959D01*
X475694Y368043D01*
X475814Y368130D01*
X475932Y368220D01*
X476048Y368313D01*
X476161Y368409D01*
X476271Y368508D01*
X476379Y368610D01*
X476484Y368715D01*
X476586Y368823D01*
X476685Y368933D01*
X476781Y369046D01*
X476874Y369162D01*
X476964Y369280D01*
X477051Y369400D01*
X477135Y369523D01*
X477215Y369647D01*
X477292Y369774D01*
X477366Y369903D01*
X477436Y370034D01*
X477503Y370166D01*
X477566Y370301D01*
X477625Y370437D01*
X477681Y370574D01*
X477733Y370713D01*
X477782Y370853D01*
X477827Y370995D01*
X477868Y371137D01*
X477905Y371281D01*
X477938Y371426D01*
X477967Y371571D01*
X477993Y371717D01*
X478015Y371864D01*
X478032Y372012D01*
X478046Y372159D01*
X478056Y372307D01*
X478062Y372456D01*
X478064Y372604D01*
X478062Y372752D01*
X478056Y372901D01*
X478046Y373049D01*
X478032Y373196D01*
X478015Y373344D01*
X477993Y373491D01*
X477967Y373637D01*
X477938Y373782D01*
X477905Y373927D01*
X477868Y374071D01*
X477827Y374213D01*
X477782Y374355D01*
X477733Y374495D01*
X477681Y374634D01*
X477625Y374771D01*
X477566Y374907D01*
X477503Y375042D01*
X477436Y375174D01*
X477366Y375305D01*
X477292Y375434D01*
X477215Y375561D01*
X477135Y375685D01*
X477051Y375808D01*
X476964Y375928D01*
X476874Y376046D01*
X476781Y376162D01*
X476685Y376275D01*
X476586Y376385D01*
X476484Y376493D01*
X476379Y376598D01*
X476271Y376700D01*
X476161Y376799D01*
X476048Y376895D01*
X475932Y376988D01*
X475814Y377078D01*
X475694Y377165D01*
X475571Y377249D01*
X475447Y377329D01*
X475320Y377406D01*
X475191Y377480D01*
X475060Y377550D01*
X474928Y377617D01*
X474793Y377680D01*
X474657Y377739D01*
X474520Y377795D01*
X474381Y377847D01*
X474241Y377896D01*
X474099Y377941D01*
X473957Y377982D01*
X473813Y378019D01*
X473668Y378052D01*
X473523Y378081D01*
X473377Y378107D01*
X473230Y378129D01*
X473082Y378146D01*
X472935Y378160D01*
X472787Y378170D01*
X472638Y378176D01*
X472490Y378178D01*
X473604Y387096D02*
X466916Y387096D01*
X473604Y387096D02*
X473736Y387094D01*
X473868Y387088D01*
X474000Y387078D01*
X474131Y387065D01*
X474262Y387047D01*
X474393Y387026D01*
X474522Y387000D01*
X474651Y386971D01*
X474779Y386938D01*
X474906Y386902D01*
X475032Y386861D01*
X475157Y386817D01*
X475280Y386769D01*
X475402Y386718D01*
X475522Y386663D01*
X475640Y386604D01*
X475757Y386542D01*
X475872Y386476D01*
X475984Y386408D01*
X476095Y386335D01*
X476204Y386260D01*
X476310Y386181D01*
X476414Y386100D01*
X476515Y386015D01*
X476614Y385927D01*
X476710Y385836D01*
X476803Y385743D01*
X476894Y385647D01*
X476982Y385548D01*
X477067Y385447D01*
X477148Y385343D01*
X477227Y385237D01*
X477302Y385128D01*
X477375Y385017D01*
X477443Y384905D01*
X477509Y384790D01*
X477571Y384673D01*
X477630Y384555D01*
X477685Y384435D01*
X477736Y384313D01*
X477784Y384190D01*
X477828Y384065D01*
X477869Y383939D01*
X477905Y383812D01*
X477938Y383684D01*
X477967Y383555D01*
X477993Y383426D01*
X478014Y383295D01*
X478032Y383164D01*
X478045Y383033D01*
X478055Y382901D01*
X478061Y382769D01*
X478063Y382637D01*
X478061Y382505D01*
X478055Y382373D01*
X478045Y382241D01*
X478032Y382110D01*
X478014Y381979D01*
X477993Y381848D01*
X477967Y381719D01*
X477938Y381590D01*
X477905Y381462D01*
X477869Y381335D01*
X477828Y381209D01*
X477784Y381084D01*
X477736Y380961D01*
X477685Y380839D01*
X477630Y380719D01*
X477571Y380601D01*
X477509Y380484D01*
X477443Y380369D01*
X477375Y380257D01*
X477302Y380146D01*
X477227Y380037D01*
X477148Y379931D01*
X477067Y379827D01*
X476982Y379726D01*
X476894Y379627D01*
X476803Y379531D01*
X476710Y379438D01*
X476614Y379347D01*
X476515Y379259D01*
X476414Y379174D01*
X476310Y379093D01*
X476204Y379014D01*
X476095Y378939D01*
X475984Y378866D01*
X475872Y378798D01*
X475757Y378732D01*
X475640Y378670D01*
X475522Y378611D01*
X475402Y378556D01*
X475280Y378505D01*
X475157Y378457D01*
X475032Y378413D01*
X474906Y378372D01*
X474779Y378336D01*
X474651Y378303D01*
X474522Y378274D01*
X474393Y378248D01*
X474262Y378227D01*
X474131Y378209D01*
X474000Y378196D01*
X473868Y378186D01*
X473736Y378180D01*
X473604Y378178D01*
X469145Y378178D01*
X504073Y387096D02*
X504073Y367030D01*
X498499Y367030D01*
X498385Y367032D01*
X498271Y367038D01*
X498157Y367048D01*
X498044Y367061D01*
X497931Y367079D01*
X497819Y367100D01*
X497707Y367125D01*
X497597Y367154D01*
X497487Y367187D01*
X497379Y367223D01*
X497272Y367263D01*
X497167Y367307D01*
X497063Y367354D01*
X496961Y367405D01*
X496860Y367459D01*
X496762Y367517D01*
X496665Y367578D01*
X496571Y367642D01*
X496478Y367709D01*
X496389Y367780D01*
X496301Y367854D01*
X496217Y367930D01*
X496134Y368009D01*
X496055Y368092D01*
X495979Y368176D01*
X495905Y368264D01*
X495834Y368353D01*
X495767Y368446D01*
X495703Y368540D01*
X495642Y368637D01*
X495584Y368735D01*
X495530Y368836D01*
X495479Y368938D01*
X495432Y369042D01*
X495388Y369147D01*
X495348Y369254D01*
X495312Y369362D01*
X495279Y369472D01*
X495250Y369582D01*
X495225Y369694D01*
X495204Y369806D01*
X495186Y369919D01*
X495173Y370032D01*
X495163Y370146D01*
X495157Y370260D01*
X495155Y370374D01*
X495155Y377063D01*
X495157Y377177D01*
X495163Y377291D01*
X495173Y377405D01*
X495186Y377518D01*
X495204Y377631D01*
X495225Y377743D01*
X495250Y377855D01*
X495279Y377965D01*
X495312Y378075D01*
X495348Y378183D01*
X495388Y378290D01*
X495432Y378395D01*
X495479Y378499D01*
X495530Y378601D01*
X495584Y378702D01*
X495642Y378800D01*
X495703Y378897D01*
X495767Y378991D01*
X495834Y379084D01*
X495905Y379173D01*
X495979Y379261D01*
X496055Y379345D01*
X496134Y379428D01*
X496217Y379507D01*
X496301Y379583D01*
X496389Y379657D01*
X496478Y379728D01*
X496571Y379795D01*
X496665Y379859D01*
X496762Y379920D01*
X496860Y379978D01*
X496961Y380032D01*
X497063Y380083D01*
X497167Y380130D01*
X497272Y380174D01*
X497379Y380214D01*
X497487Y380250D01*
X497597Y380283D01*
X497707Y380312D01*
X497819Y380337D01*
X497931Y380358D01*
X498044Y380376D01*
X498157Y380389D01*
X498271Y380399D01*
X498385Y380405D01*
X498499Y380407D01*
X504073Y380407D01*
X512038Y380407D02*
X512038Y367030D01*
X511481Y385981D02*
X511481Y387096D01*
X512595Y387096D01*
X512595Y385981D01*
X511481Y385981D01*
X522599Y367030D02*
X528173Y367030D01*
X522599Y367030D02*
X522485Y367032D01*
X522371Y367038D01*
X522257Y367048D01*
X522144Y367061D01*
X522031Y367079D01*
X521919Y367100D01*
X521807Y367125D01*
X521697Y367154D01*
X521587Y367187D01*
X521479Y367223D01*
X521372Y367263D01*
X521267Y367307D01*
X521163Y367354D01*
X521061Y367405D01*
X520960Y367459D01*
X520862Y367517D01*
X520765Y367578D01*
X520671Y367642D01*
X520578Y367709D01*
X520489Y367780D01*
X520401Y367854D01*
X520317Y367930D01*
X520234Y368009D01*
X520155Y368092D01*
X520079Y368176D01*
X520005Y368264D01*
X519934Y368353D01*
X519867Y368446D01*
X519803Y368540D01*
X519742Y368637D01*
X519684Y368735D01*
X519630Y368836D01*
X519579Y368938D01*
X519532Y369042D01*
X519488Y369147D01*
X519448Y369254D01*
X519412Y369362D01*
X519379Y369472D01*
X519350Y369582D01*
X519325Y369694D01*
X519304Y369806D01*
X519286Y369919D01*
X519273Y370032D01*
X519263Y370146D01*
X519257Y370260D01*
X519255Y370374D01*
X519255Y377063D01*
X519257Y377177D01*
X519263Y377291D01*
X519273Y377405D01*
X519286Y377518D01*
X519304Y377631D01*
X519325Y377743D01*
X519350Y377855D01*
X519379Y377965D01*
X519412Y378075D01*
X519448Y378183D01*
X519488Y378290D01*
X519532Y378395D01*
X519579Y378499D01*
X519630Y378601D01*
X519684Y378702D01*
X519742Y378800D01*
X519803Y378897D01*
X519867Y378991D01*
X519934Y379084D01*
X520005Y379173D01*
X520079Y379261D01*
X520155Y379345D01*
X520234Y379428D01*
X520317Y379507D01*
X520401Y379583D01*
X520489Y379657D01*
X520578Y379728D01*
X520671Y379795D01*
X520765Y379859D01*
X520862Y379920D01*
X520960Y379978D01*
X521061Y380032D01*
X521163Y380083D01*
X521267Y380130D01*
X521372Y380174D01*
X521479Y380214D01*
X521587Y380250D01*
X521697Y380283D01*
X521807Y380312D01*
X521919Y380337D01*
X522031Y380358D01*
X522144Y380376D01*
X522257Y380389D01*
X522371Y380399D01*
X522485Y380405D01*
X522599Y380407D01*
X528173Y380407D01*
X528173Y363686D01*
X528171Y363572D01*
X528165Y363458D01*
X528155Y363344D01*
X528142Y363231D01*
X528124Y363118D01*
X528103Y363006D01*
X528078Y362894D01*
X528049Y362784D01*
X528016Y362674D01*
X527980Y362566D01*
X527940Y362459D01*
X527896Y362354D01*
X527849Y362250D01*
X527798Y362148D01*
X527744Y362047D01*
X527686Y361949D01*
X527625Y361852D01*
X527561Y361758D01*
X527494Y361665D01*
X527423Y361576D01*
X527349Y361488D01*
X527273Y361404D01*
X527194Y361321D01*
X527111Y361242D01*
X527027Y361166D01*
X526939Y361092D01*
X526850Y361021D01*
X526757Y360954D01*
X526663Y360890D01*
X526567Y360829D01*
X526468Y360771D01*
X526367Y360717D01*
X526265Y360666D01*
X526161Y360619D01*
X526056Y360575D01*
X525949Y360535D01*
X525841Y360499D01*
X525731Y360466D01*
X525621Y360437D01*
X525509Y360412D01*
X525397Y360391D01*
X525284Y360373D01*
X525171Y360360D01*
X525057Y360350D01*
X524943Y360344D01*
X524829Y360342D01*
X524829Y360341D02*
X520370Y360341D01*
X536138Y367030D02*
X536138Y380407D01*
X535580Y385981D02*
X535580Y387096D01*
X536695Y387096D01*
X536695Y385981D01*
X535580Y385981D01*
X541958Y380407D02*
X548646Y380407D01*
X544187Y387096D02*
X544187Y370374D01*
X544188Y370374D02*
X544190Y370260D01*
X544196Y370146D01*
X544206Y370032D01*
X544219Y369919D01*
X544237Y369806D01*
X544258Y369694D01*
X544283Y369582D01*
X544312Y369472D01*
X544345Y369362D01*
X544381Y369254D01*
X544421Y369147D01*
X544465Y369042D01*
X544512Y368938D01*
X544563Y368836D01*
X544617Y368735D01*
X544675Y368637D01*
X544736Y368540D01*
X544800Y368446D01*
X544867Y368353D01*
X544938Y368264D01*
X545012Y368176D01*
X545088Y368092D01*
X545167Y368009D01*
X545250Y367930D01*
X545334Y367854D01*
X545422Y367780D01*
X545511Y367709D01*
X545604Y367642D01*
X545698Y367578D01*
X545795Y367517D01*
X545893Y367459D01*
X545994Y367405D01*
X546096Y367354D01*
X546200Y367307D01*
X546305Y367263D01*
X546412Y367223D01*
X546520Y367187D01*
X546630Y367154D01*
X546740Y367125D01*
X546852Y367100D01*
X546964Y367079D01*
X547077Y367061D01*
X547190Y367048D01*
X547304Y367038D01*
X547418Y367032D01*
X547532Y367030D01*
X548646Y367030D01*
X556833Y374833D02*
X562407Y372604D01*
X556833Y374834D02*
X556734Y374875D01*
X556637Y374920D01*
X556542Y374969D01*
X556449Y375021D01*
X556357Y375077D01*
X556268Y375136D01*
X556181Y375198D01*
X556097Y375264D01*
X556014Y375332D01*
X555935Y375404D01*
X555858Y375478D01*
X555784Y375555D01*
X555713Y375635D01*
X555645Y375717D01*
X555580Y375802D01*
X555518Y375889D01*
X555459Y375979D01*
X555404Y376070D01*
X555352Y376164D01*
X555304Y376259D01*
X555259Y376357D01*
X555218Y376455D01*
X555181Y376555D01*
X555147Y376657D01*
X555117Y376760D01*
X555091Y376863D01*
X555069Y376968D01*
X555050Y377073D01*
X555036Y377179D01*
X555025Y377286D01*
X555019Y377392D01*
X555016Y377499D01*
X555017Y377606D01*
X555023Y377713D01*
X555032Y377820D01*
X555045Y377926D01*
X555062Y378031D01*
X555083Y378136D01*
X555108Y378240D01*
X555137Y378343D01*
X555169Y378445D01*
X555205Y378546D01*
X555245Y378645D01*
X555289Y378743D01*
X555336Y378839D01*
X555387Y378933D01*
X555441Y379025D01*
X555498Y379115D01*
X555559Y379203D01*
X555623Y379289D01*
X555690Y379372D01*
X555760Y379453D01*
X555833Y379531D01*
X555909Y379606D01*
X555988Y379679D01*
X556069Y379748D01*
X556153Y379815D01*
X556239Y379878D01*
X556328Y379938D01*
X556418Y379995D01*
X556511Y380048D01*
X556605Y380098D01*
X556702Y380144D01*
X556800Y380187D01*
X556899Y380226D01*
X557000Y380261D01*
X557102Y380293D01*
X557206Y380321D01*
X557310Y380345D01*
X557415Y380365D01*
X557521Y380381D01*
X557627Y380393D01*
X557733Y380402D01*
X557840Y380406D01*
X557947Y380407D01*
X557948Y380407D02*
X558252Y380399D01*
X558556Y380383D01*
X558860Y380361D01*
X559163Y380331D01*
X559465Y380294D01*
X559766Y380249D01*
X560066Y380198D01*
X560364Y380139D01*
X560662Y380073D01*
X560957Y379999D01*
X561251Y379919D01*
X561542Y379832D01*
X561832Y379738D01*
X562119Y379637D01*
X562403Y379528D01*
X562685Y379414D01*
X562964Y379292D01*
X562406Y372603D02*
X562505Y372562D01*
X562602Y372517D01*
X562697Y372468D01*
X562790Y372416D01*
X562882Y372360D01*
X562971Y372301D01*
X563058Y372239D01*
X563142Y372173D01*
X563225Y372105D01*
X563304Y372033D01*
X563381Y371959D01*
X563455Y371882D01*
X563526Y371802D01*
X563594Y371720D01*
X563659Y371635D01*
X563721Y371548D01*
X563780Y371458D01*
X563835Y371367D01*
X563887Y371273D01*
X563935Y371178D01*
X563980Y371080D01*
X564021Y370982D01*
X564058Y370882D01*
X564092Y370780D01*
X564122Y370677D01*
X564148Y370574D01*
X564170Y370469D01*
X564189Y370364D01*
X564203Y370258D01*
X564214Y370151D01*
X564220Y370045D01*
X564223Y369938D01*
X564222Y369831D01*
X564216Y369724D01*
X564207Y369617D01*
X564194Y369511D01*
X564177Y369406D01*
X564156Y369301D01*
X564131Y369197D01*
X564102Y369094D01*
X564070Y368992D01*
X564034Y368891D01*
X563994Y368792D01*
X563950Y368694D01*
X563903Y368598D01*
X563852Y368504D01*
X563798Y368412D01*
X563741Y368322D01*
X563680Y368234D01*
X563616Y368148D01*
X563549Y368065D01*
X563479Y367984D01*
X563406Y367906D01*
X563330Y367831D01*
X563251Y367758D01*
X563170Y367689D01*
X563086Y367622D01*
X563000Y367559D01*
X562911Y367499D01*
X562821Y367442D01*
X562728Y367389D01*
X562634Y367339D01*
X562537Y367293D01*
X562439Y367250D01*
X562340Y367211D01*
X562239Y367176D01*
X562137Y367144D01*
X562033Y367116D01*
X561929Y367092D01*
X561824Y367072D01*
X561718Y367056D01*
X561612Y367044D01*
X561506Y367035D01*
X561399Y367031D01*
X561292Y367030D01*
X560845Y367042D01*
X560398Y367064D01*
X559952Y367097D01*
X559507Y367140D01*
X559063Y367194D01*
X558621Y367258D01*
X558180Y367333D01*
X557741Y367418D01*
X557304Y367514D01*
X556870Y367620D01*
X556438Y367736D01*
X556009Y367862D01*
X555583Y367998D01*
X555161Y368145D01*
X331089Y348756D02*
X331089Y339838D01*
X331089Y348756D02*
X331091Y348904D01*
X331097Y349053D01*
X331107Y349201D01*
X331121Y349348D01*
X331138Y349496D01*
X331160Y349643D01*
X331186Y349789D01*
X331215Y349934D01*
X331248Y350079D01*
X331285Y350223D01*
X331326Y350365D01*
X331371Y350507D01*
X331420Y350647D01*
X331472Y350786D01*
X331528Y350923D01*
X331587Y351059D01*
X331650Y351194D01*
X331717Y351326D01*
X331787Y351457D01*
X331861Y351586D01*
X331938Y351713D01*
X332018Y351837D01*
X332102Y351960D01*
X332189Y352080D01*
X332279Y352198D01*
X332372Y352314D01*
X332468Y352427D01*
X332567Y352537D01*
X332669Y352645D01*
X332774Y352750D01*
X332882Y352852D01*
X332992Y352951D01*
X333105Y353047D01*
X333221Y353140D01*
X333339Y353230D01*
X333459Y353317D01*
X333582Y353401D01*
X333706Y353481D01*
X333833Y353558D01*
X333962Y353632D01*
X334093Y353702D01*
X334225Y353769D01*
X334360Y353832D01*
X334496Y353891D01*
X334633Y353947D01*
X334772Y353999D01*
X334912Y354048D01*
X335054Y354093D01*
X335196Y354134D01*
X335340Y354171D01*
X335485Y354204D01*
X335630Y354233D01*
X335776Y354259D01*
X335923Y354281D01*
X336071Y354298D01*
X336218Y354312D01*
X336366Y354322D01*
X336515Y354328D01*
X336663Y354330D01*
X336811Y354328D01*
X336960Y354322D01*
X337108Y354312D01*
X337255Y354298D01*
X337403Y354281D01*
X337550Y354259D01*
X337696Y354233D01*
X337841Y354204D01*
X337986Y354171D01*
X338130Y354134D01*
X338272Y354093D01*
X338414Y354048D01*
X338554Y353999D01*
X338693Y353947D01*
X338830Y353891D01*
X338966Y353832D01*
X339101Y353769D01*
X339233Y353702D01*
X339364Y353632D01*
X339493Y353558D01*
X339620Y353481D01*
X339744Y353401D01*
X339867Y353317D01*
X339987Y353230D01*
X340105Y353140D01*
X340221Y353047D01*
X340334Y352951D01*
X340444Y352852D01*
X340552Y352750D01*
X340657Y352645D01*
X340759Y352537D01*
X340858Y352427D01*
X340954Y352314D01*
X341047Y352198D01*
X341137Y352080D01*
X341224Y351960D01*
X341308Y351837D01*
X341388Y351713D01*
X341465Y351586D01*
X341539Y351457D01*
X341609Y351326D01*
X341676Y351194D01*
X341739Y351059D01*
X341798Y350923D01*
X341854Y350786D01*
X341906Y350647D01*
X341955Y350507D01*
X342000Y350365D01*
X342041Y350223D01*
X342078Y350079D01*
X342111Y349934D01*
X342140Y349789D01*
X342166Y349643D01*
X342188Y349496D01*
X342205Y349348D01*
X342219Y349201D01*
X342229Y349053D01*
X342235Y348904D01*
X342237Y348756D01*
X342237Y339838D01*
X342235Y339690D01*
X342229Y339541D01*
X342219Y339393D01*
X342205Y339246D01*
X342188Y339098D01*
X342166Y338951D01*
X342140Y338805D01*
X342111Y338660D01*
X342078Y338515D01*
X342041Y338371D01*
X342000Y338229D01*
X341955Y338087D01*
X341906Y337947D01*
X341854Y337808D01*
X341798Y337671D01*
X341739Y337535D01*
X341676Y337400D01*
X341609Y337268D01*
X341539Y337137D01*
X341465Y337008D01*
X341388Y336881D01*
X341308Y336757D01*
X341224Y336634D01*
X341137Y336514D01*
X341047Y336396D01*
X340954Y336280D01*
X340858Y336167D01*
X340759Y336057D01*
X340657Y335949D01*
X340552Y335844D01*
X340444Y335742D01*
X340334Y335643D01*
X340221Y335547D01*
X340105Y335454D01*
X339987Y335364D01*
X339867Y335277D01*
X339744Y335193D01*
X339620Y335113D01*
X339493Y335036D01*
X339364Y334962D01*
X339233Y334892D01*
X339101Y334825D01*
X338966Y334762D01*
X338830Y334703D01*
X338693Y334647D01*
X338554Y334595D01*
X338414Y334546D01*
X338272Y334501D01*
X338130Y334460D01*
X337986Y334423D01*
X337841Y334390D01*
X337696Y334361D01*
X337550Y334335D01*
X337403Y334313D01*
X337255Y334296D01*
X337108Y334282D01*
X336960Y334272D01*
X336811Y334266D01*
X336663Y334264D01*
X336515Y334266D01*
X336366Y334272D01*
X336218Y334282D01*
X336071Y334296D01*
X335923Y334313D01*
X335776Y334335D01*
X335630Y334361D01*
X335485Y334390D01*
X335340Y334423D01*
X335196Y334460D01*
X335054Y334501D01*
X334912Y334546D01*
X334772Y334595D01*
X334633Y334647D01*
X334496Y334703D01*
X334360Y334762D01*
X334225Y334825D01*
X334093Y334892D01*
X333962Y334962D01*
X333833Y335036D01*
X333706Y335113D01*
X333582Y335193D01*
X333459Y335277D01*
X333339Y335364D01*
X333221Y335454D01*
X333105Y335547D01*
X332992Y335643D01*
X332882Y335742D01*
X332774Y335844D01*
X332669Y335949D01*
X332567Y336057D01*
X332468Y336167D01*
X332372Y336280D01*
X332279Y336396D01*
X332189Y336514D01*
X332102Y336634D01*
X332018Y336757D01*
X331938Y336881D01*
X331861Y337008D01*
X331787Y337137D01*
X331717Y337268D01*
X331650Y337400D01*
X331587Y337535D01*
X331528Y337671D01*
X331472Y337808D01*
X331420Y337947D01*
X331371Y338087D01*
X331326Y338229D01*
X331285Y338371D01*
X331248Y338515D01*
X331215Y338660D01*
X331186Y338805D01*
X331160Y338951D01*
X331138Y339098D01*
X331121Y339246D01*
X331107Y339393D01*
X331097Y339541D01*
X331091Y339690D01*
X331089Y339838D01*
X350189Y347641D02*
X350189Y327575D01*
X350189Y347641D02*
X355763Y347641D01*
X355877Y347639D01*
X355991Y347633D01*
X356105Y347623D01*
X356218Y347610D01*
X356331Y347592D01*
X356443Y347571D01*
X356555Y347546D01*
X356665Y347517D01*
X356775Y347484D01*
X356883Y347448D01*
X356990Y347408D01*
X357095Y347364D01*
X357199Y347317D01*
X357301Y347266D01*
X357402Y347212D01*
X357500Y347154D01*
X357597Y347093D01*
X357691Y347029D01*
X357784Y346962D01*
X357873Y346891D01*
X357961Y346817D01*
X358045Y346741D01*
X358128Y346662D01*
X358207Y346579D01*
X358283Y346495D01*
X358357Y346407D01*
X358428Y346318D01*
X358495Y346225D01*
X358559Y346131D01*
X358620Y346035D01*
X358678Y345936D01*
X358732Y345835D01*
X358783Y345733D01*
X358830Y345629D01*
X358874Y345524D01*
X358914Y345417D01*
X358950Y345309D01*
X358983Y345199D01*
X359012Y345089D01*
X359037Y344977D01*
X359058Y344865D01*
X359076Y344752D01*
X359089Y344639D01*
X359099Y344525D01*
X359105Y344411D01*
X359107Y344297D01*
X359107Y337608D01*
X359105Y337494D01*
X359099Y337380D01*
X359089Y337266D01*
X359076Y337153D01*
X359058Y337040D01*
X359037Y336928D01*
X359012Y336816D01*
X358983Y336706D01*
X358950Y336596D01*
X358914Y336488D01*
X358874Y336381D01*
X358830Y336276D01*
X358783Y336172D01*
X358732Y336070D01*
X358678Y335969D01*
X358620Y335871D01*
X358559Y335774D01*
X358495Y335680D01*
X358428Y335587D01*
X358357Y335498D01*
X358283Y335410D01*
X358207Y335326D01*
X358128Y335243D01*
X358045Y335164D01*
X357961Y335088D01*
X357873Y335014D01*
X357784Y334943D01*
X357691Y334876D01*
X357597Y334812D01*
X357500Y334751D01*
X357402Y334693D01*
X357301Y334639D01*
X357199Y334588D01*
X357095Y334541D01*
X356990Y334497D01*
X356883Y334457D01*
X356775Y334421D01*
X356665Y334388D01*
X356555Y334359D01*
X356443Y334334D01*
X356331Y334313D01*
X356218Y334295D01*
X356105Y334282D01*
X355991Y334272D01*
X355877Y334266D01*
X355763Y334264D01*
X350189Y334264D01*
X364729Y347641D02*
X371418Y347641D01*
X366958Y354330D02*
X366958Y337608D01*
X366959Y337608D02*
X366961Y337494D01*
X366967Y337380D01*
X366977Y337266D01*
X366990Y337153D01*
X367008Y337040D01*
X367029Y336928D01*
X367054Y336816D01*
X367083Y336706D01*
X367116Y336596D01*
X367152Y336488D01*
X367192Y336381D01*
X367236Y336276D01*
X367283Y336172D01*
X367334Y336070D01*
X367388Y335969D01*
X367446Y335871D01*
X367507Y335774D01*
X367571Y335680D01*
X367638Y335587D01*
X367709Y335498D01*
X367783Y335410D01*
X367859Y335326D01*
X367938Y335243D01*
X368021Y335164D01*
X368105Y335088D01*
X368193Y335014D01*
X368282Y334943D01*
X368375Y334876D01*
X368469Y334812D01*
X368566Y334751D01*
X368664Y334693D01*
X368765Y334639D01*
X368867Y334588D01*
X368971Y334541D01*
X369076Y334497D01*
X369183Y334457D01*
X369291Y334421D01*
X369401Y334388D01*
X369511Y334359D01*
X369623Y334334D01*
X369735Y334313D01*
X369848Y334295D01*
X369961Y334282D01*
X370075Y334272D01*
X370189Y334266D01*
X370303Y334264D01*
X371418Y334264D01*
X378065Y334264D02*
X378065Y347641D01*
X377508Y353215D02*
X377508Y354330D01*
X378623Y354330D01*
X378623Y353215D01*
X377508Y353215D01*
X386207Y347641D02*
X386207Y334264D01*
X386207Y347641D02*
X396240Y347641D01*
X396354Y347639D01*
X396468Y347633D01*
X396582Y347623D01*
X396695Y347610D01*
X396808Y347592D01*
X396920Y347571D01*
X397032Y347546D01*
X397142Y347517D01*
X397252Y347484D01*
X397360Y347448D01*
X397467Y347408D01*
X397572Y347364D01*
X397676Y347317D01*
X397778Y347266D01*
X397879Y347212D01*
X397977Y347154D01*
X398074Y347093D01*
X398168Y347029D01*
X398261Y346962D01*
X398350Y346891D01*
X398438Y346817D01*
X398522Y346741D01*
X398605Y346662D01*
X398684Y346579D01*
X398760Y346495D01*
X398834Y346407D01*
X398905Y346318D01*
X398972Y346225D01*
X399036Y346131D01*
X399097Y346034D01*
X399155Y345936D01*
X399209Y345835D01*
X399260Y345733D01*
X399307Y345629D01*
X399351Y345524D01*
X399391Y345417D01*
X399427Y345309D01*
X399460Y345199D01*
X399489Y345089D01*
X399514Y344977D01*
X399535Y344865D01*
X399553Y344752D01*
X399566Y344639D01*
X399576Y344525D01*
X399582Y344411D01*
X399584Y344297D01*
X399584Y334264D01*
X392896Y334264D02*
X392896Y347641D01*
X408211Y347641D02*
X408211Y337608D01*
X408213Y337494D01*
X408219Y337380D01*
X408229Y337266D01*
X408242Y337153D01*
X408260Y337040D01*
X408281Y336928D01*
X408306Y336816D01*
X408335Y336706D01*
X408368Y336596D01*
X408404Y336488D01*
X408444Y336381D01*
X408488Y336276D01*
X408535Y336172D01*
X408586Y336070D01*
X408640Y335969D01*
X408698Y335871D01*
X408759Y335774D01*
X408823Y335680D01*
X408890Y335587D01*
X408961Y335498D01*
X409035Y335410D01*
X409111Y335326D01*
X409190Y335243D01*
X409273Y335164D01*
X409357Y335088D01*
X409445Y335014D01*
X409534Y334943D01*
X409627Y334876D01*
X409721Y334812D01*
X409818Y334751D01*
X409916Y334693D01*
X410017Y334639D01*
X410119Y334588D01*
X410223Y334541D01*
X410328Y334497D01*
X410435Y334457D01*
X410543Y334421D01*
X410653Y334388D01*
X410763Y334359D01*
X410875Y334334D01*
X410987Y334313D01*
X411100Y334295D01*
X411213Y334282D01*
X411327Y334272D01*
X411441Y334266D01*
X411555Y334264D01*
X417129Y334264D01*
X417129Y347641D01*
X426568Y342067D02*
X432141Y339838D01*
X426568Y342068D02*
X426469Y342109D01*
X426372Y342154D01*
X426277Y342203D01*
X426184Y342255D01*
X426092Y342311D01*
X426003Y342370D01*
X425916Y342432D01*
X425832Y342498D01*
X425749Y342566D01*
X425670Y342638D01*
X425593Y342712D01*
X425519Y342789D01*
X425448Y342869D01*
X425380Y342951D01*
X425315Y343036D01*
X425253Y343123D01*
X425194Y343213D01*
X425139Y343304D01*
X425087Y343398D01*
X425039Y343493D01*
X424994Y343591D01*
X424953Y343689D01*
X424916Y343789D01*
X424882Y343891D01*
X424852Y343994D01*
X424826Y344097D01*
X424804Y344202D01*
X424785Y344307D01*
X424771Y344413D01*
X424760Y344520D01*
X424754Y344626D01*
X424751Y344733D01*
X424752Y344840D01*
X424758Y344947D01*
X424767Y345054D01*
X424780Y345160D01*
X424797Y345265D01*
X424818Y345370D01*
X424843Y345474D01*
X424872Y345577D01*
X424904Y345679D01*
X424940Y345780D01*
X424980Y345879D01*
X425024Y345977D01*
X425071Y346073D01*
X425122Y346167D01*
X425176Y346259D01*
X425233Y346349D01*
X425294Y346437D01*
X425358Y346523D01*
X425425Y346606D01*
X425495Y346687D01*
X425568Y346765D01*
X425644Y346840D01*
X425723Y346913D01*
X425804Y346982D01*
X425888Y347049D01*
X425974Y347112D01*
X426063Y347172D01*
X426153Y347229D01*
X426246Y347282D01*
X426340Y347332D01*
X426437Y347378D01*
X426535Y347421D01*
X426634Y347460D01*
X426735Y347495D01*
X426837Y347527D01*
X426941Y347555D01*
X427045Y347579D01*
X427150Y347599D01*
X427256Y347615D01*
X427362Y347627D01*
X427468Y347636D01*
X427575Y347640D01*
X427682Y347641D01*
X427683Y347641D02*
X427987Y347633D01*
X428291Y347617D01*
X428595Y347595D01*
X428898Y347565D01*
X429200Y347528D01*
X429501Y347483D01*
X429801Y347432D01*
X430099Y347373D01*
X430397Y347307D01*
X430692Y347233D01*
X430986Y347153D01*
X431277Y347066D01*
X431567Y346972D01*
X431854Y346871D01*
X432138Y346762D01*
X432420Y346648D01*
X432699Y346526D01*
X432141Y339837D02*
X432240Y339796D01*
X432337Y339751D01*
X432432Y339702D01*
X432525Y339650D01*
X432617Y339594D01*
X432706Y339535D01*
X432793Y339473D01*
X432877Y339407D01*
X432960Y339339D01*
X433039Y339267D01*
X433116Y339193D01*
X433190Y339116D01*
X433261Y339036D01*
X433329Y338954D01*
X433394Y338869D01*
X433456Y338782D01*
X433515Y338692D01*
X433570Y338601D01*
X433622Y338507D01*
X433670Y338412D01*
X433715Y338314D01*
X433756Y338216D01*
X433793Y338116D01*
X433827Y338014D01*
X433857Y337911D01*
X433883Y337808D01*
X433905Y337703D01*
X433924Y337598D01*
X433938Y337492D01*
X433949Y337385D01*
X433955Y337279D01*
X433958Y337172D01*
X433957Y337065D01*
X433951Y336958D01*
X433942Y336851D01*
X433929Y336745D01*
X433912Y336640D01*
X433891Y336535D01*
X433866Y336431D01*
X433837Y336328D01*
X433805Y336226D01*
X433769Y336125D01*
X433729Y336026D01*
X433685Y335928D01*
X433638Y335832D01*
X433587Y335738D01*
X433533Y335646D01*
X433476Y335556D01*
X433415Y335468D01*
X433351Y335382D01*
X433284Y335299D01*
X433214Y335218D01*
X433141Y335140D01*
X433065Y335065D01*
X432986Y334992D01*
X432905Y334923D01*
X432821Y334856D01*
X432735Y334793D01*
X432646Y334733D01*
X432556Y334676D01*
X432463Y334623D01*
X432369Y334573D01*
X432272Y334527D01*
X432174Y334484D01*
X432075Y334445D01*
X431974Y334410D01*
X431872Y334378D01*
X431768Y334350D01*
X431664Y334326D01*
X431559Y334306D01*
X431453Y334290D01*
X431347Y334278D01*
X431241Y334269D01*
X431134Y334265D01*
X431027Y334264D01*
X430580Y334276D01*
X430133Y334298D01*
X429687Y334331D01*
X429242Y334374D01*
X428798Y334428D01*
X428356Y334492D01*
X427915Y334567D01*
X427476Y334652D01*
X427039Y334748D01*
X426605Y334854D01*
X426173Y334970D01*
X425744Y335096D01*
X425318Y335232D01*
X424896Y335379D01*
X449855Y354330D02*
X456544Y334264D01*
X463233Y354330D01*
X469509Y349871D02*
X475082Y354330D01*
X475082Y334264D01*
X469509Y334264D02*
X480656Y334264D01*
X487502Y334264D02*
X487502Y335379D01*
X488617Y335379D01*
X488617Y334264D01*
X487502Y334264D01*
X495462Y344297D02*
X495467Y344692D01*
X495481Y345086D01*
X495504Y345480D01*
X495537Y345874D01*
X495580Y346266D01*
X495631Y346658D01*
X495692Y347048D01*
X495763Y347436D01*
X495842Y347823D01*
X495931Y348207D01*
X496029Y348590D01*
X496136Y348970D01*
X496252Y349347D01*
X496377Y349722D01*
X496511Y350093D01*
X496654Y350461D01*
X496805Y350825D01*
X496965Y351186D01*
X497134Y351543D01*
X497177Y351663D01*
X497224Y351782D01*
X497275Y351900D01*
X497329Y352015D01*
X497387Y352129D01*
X497449Y352242D01*
X497514Y352352D01*
X497582Y352460D01*
X497654Y352566D01*
X497728Y352670D01*
X497806Y352771D01*
X497888Y352870D01*
X497972Y352966D01*
X498059Y353060D01*
X498149Y353151D01*
X498241Y353239D01*
X498337Y353324D01*
X498435Y353407D01*
X498535Y353486D01*
X498638Y353562D01*
X498744Y353634D01*
X498851Y353704D01*
X498961Y353770D01*
X499072Y353833D01*
X499186Y353892D01*
X499301Y353947D01*
X499418Y353999D01*
X499536Y354048D01*
X499656Y354092D01*
X499777Y354133D01*
X499900Y354170D01*
X500023Y354204D01*
X500148Y354233D01*
X500273Y354259D01*
X500399Y354281D01*
X500526Y354298D01*
X500653Y354312D01*
X500780Y354322D01*
X500908Y354328D01*
X501036Y354330D01*
X501164Y354328D01*
X501292Y354322D01*
X501419Y354312D01*
X501546Y354298D01*
X501673Y354281D01*
X501799Y354259D01*
X501924Y354233D01*
X502049Y354204D01*
X502172Y354170D01*
X502295Y354133D01*
X502416Y354092D01*
X502536Y354048D01*
X502654Y353999D01*
X502771Y353947D01*
X502886Y353892D01*
X503000Y353833D01*
X503111Y353770D01*
X503221Y353704D01*
X503328Y353634D01*
X503434Y353562D01*
X503537Y353486D01*
X503637Y353407D01*
X503735Y353324D01*
X503831Y353239D01*
X503923Y353151D01*
X504013Y353060D01*
X504100Y352966D01*
X504184Y352870D01*
X504266Y352771D01*
X504344Y352670D01*
X504418Y352566D01*
X504490Y352460D01*
X504558Y352352D01*
X504623Y352242D01*
X504685Y352129D01*
X504743Y352015D01*
X504797Y351900D01*
X504848Y351782D01*
X504895Y351663D01*
X504938Y351543D01*
X505107Y351186D01*
X505267Y350825D01*
X505418Y350461D01*
X505561Y350093D01*
X505695Y349721D01*
X505820Y349347D01*
X505936Y348970D01*
X506043Y348590D01*
X506141Y348207D01*
X506230Y347823D01*
X506309Y347436D01*
X506380Y347048D01*
X506441Y346658D01*
X506492Y346266D01*
X506535Y345874D01*
X506568Y345480D01*
X506591Y345086D01*
X506605Y344692D01*
X506610Y344297D01*
X495462Y344297D02*
X495467Y343902D01*
X495481Y343508D01*
X495504Y343114D01*
X495537Y342720D01*
X495580Y342328D01*
X495631Y341936D01*
X495692Y341546D01*
X495763Y341158D01*
X495842Y340771D01*
X495931Y340387D01*
X496029Y340004D01*
X496136Y339624D01*
X496252Y339247D01*
X496377Y338873D01*
X496511Y338501D01*
X496654Y338133D01*
X496805Y337769D01*
X496965Y337408D01*
X497134Y337051D01*
X497177Y336931D01*
X497224Y336812D01*
X497275Y336694D01*
X497329Y336579D01*
X497387Y336465D01*
X497449Y336352D01*
X497514Y336242D01*
X497582Y336134D01*
X497654Y336028D01*
X497728Y335924D01*
X497806Y335823D01*
X497888Y335724D01*
X497972Y335628D01*
X498059Y335534D01*
X498149Y335443D01*
X498241Y335355D01*
X498337Y335270D01*
X498435Y335187D01*
X498535Y335108D01*
X498638Y335032D01*
X498744Y334960D01*
X498851Y334890D01*
X498961Y334824D01*
X499072Y334761D01*
X499186Y334702D01*
X499301Y334647D01*
X499418Y334595D01*
X499536Y334546D01*
X499656Y334502D01*
X499777Y334461D01*
X499900Y334424D01*
X500023Y334390D01*
X500148Y334361D01*
X500273Y334335D01*
X500399Y334313D01*
X500526Y334296D01*
X500653Y334282D01*
X500780Y334272D01*
X500908Y334266D01*
X501036Y334264D01*
X504938Y337051D02*
X505107Y337408D01*
X505267Y337769D01*
X505418Y338133D01*
X505561Y338501D01*
X505695Y338873D01*
X505820Y339247D01*
X505936Y339624D01*
X506043Y340004D01*
X506141Y340387D01*
X506230Y340771D01*
X506309Y341158D01*
X506380Y341546D01*
X506441Y341936D01*
X506492Y342328D01*
X506535Y342720D01*
X506568Y343114D01*
X506591Y343508D01*
X506605Y343902D01*
X506610Y344297D01*
X504938Y337051D02*
X504895Y336931D01*
X504848Y336812D01*
X504797Y336694D01*
X504743Y336579D01*
X504685Y336465D01*
X504623Y336352D01*
X504558Y336242D01*
X504490Y336134D01*
X504418Y336028D01*
X504344Y335924D01*
X504266Y335823D01*
X504184Y335724D01*
X504100Y335628D01*
X504013Y335534D01*
X503923Y335443D01*
X503831Y335355D01*
X503735Y335270D01*
X503637Y335187D01*
X503537Y335108D01*
X503434Y335032D01*
X503328Y334960D01*
X503221Y334890D01*
X503111Y334824D01*
X503000Y334761D01*
X502886Y334702D01*
X502771Y334647D01*
X502654Y334595D01*
X502536Y334546D01*
X502416Y334502D01*
X502295Y334461D01*
X502172Y334424D01*
X502049Y334390D01*
X501924Y334361D01*
X501799Y334335D01*
X501673Y334313D01*
X501546Y334296D01*
X501419Y334282D01*
X501292Y334272D01*
X501164Y334266D01*
X501036Y334264D01*
X496577Y338723D02*
X505495Y349871D01*
D11*
X382298Y97197D02*
X382298Y89408D01*
X378404Y93303D02*
X386193Y93303D01*
X386842Y102249D02*
X386842Y106144D01*
X386840Y106243D01*
X386834Y106343D01*
X386825Y106442D01*
X386812Y106540D01*
X386795Y106638D01*
X386774Y106736D01*
X386749Y106832D01*
X386721Y106927D01*
X386689Y107021D01*
X386654Y107114D01*
X386615Y107206D01*
X386572Y107296D01*
X386527Y107384D01*
X386477Y107471D01*
X386425Y107555D01*
X386369Y107638D01*
X386311Y107718D01*
X386249Y107796D01*
X386184Y107871D01*
X386116Y107944D01*
X386046Y108014D01*
X385973Y108082D01*
X385898Y108147D01*
X385820Y108209D01*
X385740Y108267D01*
X385657Y108323D01*
X385573Y108375D01*
X385486Y108425D01*
X385398Y108470D01*
X385308Y108513D01*
X385216Y108552D01*
X385123Y108587D01*
X385029Y108619D01*
X384934Y108647D01*
X384838Y108672D01*
X384740Y108693D01*
X384642Y108710D01*
X384544Y108723D01*
X384445Y108732D01*
X384345Y108738D01*
X384246Y108740D01*
X382947Y108740D01*
X382848Y108738D01*
X382748Y108732D01*
X382649Y108723D01*
X382551Y108710D01*
X382453Y108693D01*
X382355Y108672D01*
X382259Y108647D01*
X382164Y108619D01*
X382070Y108587D01*
X381977Y108552D01*
X381885Y108513D01*
X381795Y108470D01*
X381707Y108425D01*
X381620Y108375D01*
X381536Y108323D01*
X381453Y108267D01*
X381373Y108209D01*
X381295Y108147D01*
X381220Y108082D01*
X381147Y108014D01*
X381077Y107944D01*
X381009Y107871D01*
X380944Y107796D01*
X380882Y107718D01*
X380824Y107638D01*
X380768Y107555D01*
X380716Y107471D01*
X380666Y107384D01*
X380621Y107296D01*
X380578Y107206D01*
X380539Y107114D01*
X380504Y107021D01*
X380472Y106927D01*
X380444Y106832D01*
X380419Y106736D01*
X380398Y106638D01*
X380381Y106540D01*
X380368Y106442D01*
X380359Y106343D01*
X380353Y106243D01*
X380351Y106144D01*
X380351Y102249D01*
X375158Y102249D01*
X375158Y108740D01*
X375158Y113030D02*
X386842Y116925D01*
X375158Y120819D01*
X409646Y95899D02*
X409745Y95897D01*
X409845Y95891D01*
X409944Y95882D01*
X410042Y95869D01*
X410140Y95852D01*
X410238Y95831D01*
X410334Y95806D01*
X410429Y95778D01*
X410523Y95746D01*
X410616Y95711D01*
X410708Y95672D01*
X410798Y95629D01*
X410886Y95584D01*
X410973Y95534D01*
X411057Y95482D01*
X411140Y95426D01*
X411220Y95368D01*
X411298Y95306D01*
X411373Y95241D01*
X411446Y95173D01*
X411516Y95103D01*
X411584Y95030D01*
X411649Y94955D01*
X411711Y94877D01*
X411769Y94797D01*
X411825Y94714D01*
X411877Y94630D01*
X411927Y94543D01*
X411972Y94455D01*
X412015Y94365D01*
X412054Y94273D01*
X412089Y94180D01*
X412121Y94086D01*
X412149Y93991D01*
X412174Y93895D01*
X412195Y93797D01*
X412212Y93699D01*
X412225Y93601D01*
X412234Y93502D01*
X412240Y93402D01*
X412242Y93303D01*
X412240Y93159D01*
X412234Y93014D01*
X412225Y92870D01*
X412212Y92727D01*
X412195Y92583D01*
X412174Y92440D01*
X412149Y92298D01*
X412121Y92157D01*
X412089Y92016D01*
X412053Y91876D01*
X412014Y91737D01*
X411971Y91599D01*
X411924Y91463D01*
X411874Y91327D01*
X411820Y91193D01*
X411763Y91061D01*
X411702Y90930D01*
X411638Y90801D01*
X411570Y90673D01*
X411500Y90547D01*
X411425Y90423D01*
X411348Y90302D01*
X411267Y90182D01*
X411184Y90064D01*
X411097Y89949D01*
X411007Y89836D01*
X410914Y89725D01*
X410819Y89617D01*
X410720Y89511D01*
X410619Y89408D01*
X403154Y89733D02*
X403055Y89735D01*
X402955Y89741D01*
X402856Y89750D01*
X402758Y89763D01*
X402660Y89780D01*
X402562Y89801D01*
X402466Y89826D01*
X402371Y89854D01*
X402277Y89886D01*
X402184Y89921D01*
X402092Y89960D01*
X402002Y90003D01*
X401914Y90048D01*
X401827Y90098D01*
X401743Y90150D01*
X401660Y90206D01*
X401580Y90264D01*
X401502Y90326D01*
X401427Y90391D01*
X401354Y90459D01*
X401284Y90529D01*
X401216Y90602D01*
X401151Y90677D01*
X401089Y90755D01*
X401031Y90835D01*
X400975Y90918D01*
X400923Y91002D01*
X400873Y91089D01*
X400828Y91177D01*
X400785Y91267D01*
X400746Y91359D01*
X400711Y91452D01*
X400679Y91546D01*
X400651Y91641D01*
X400626Y91737D01*
X400605Y91835D01*
X400588Y91933D01*
X400575Y92031D01*
X400566Y92130D01*
X400560Y92230D01*
X400558Y92329D01*
X400560Y92465D01*
X400566Y92601D01*
X400575Y92737D01*
X400588Y92873D01*
X400606Y93008D01*
X400626Y93142D01*
X400651Y93276D01*
X400679Y93410D01*
X400712Y93542D01*
X400747Y93673D01*
X400787Y93804D01*
X400830Y93933D01*
X400876Y94061D01*
X400927Y94187D01*
X400980Y94313D01*
X401038Y94436D01*
X401098Y94558D01*
X401162Y94678D01*
X401230Y94797D01*
X401300Y94913D01*
X401374Y95027D01*
X401451Y95140D01*
X401532Y95250D01*
X405426Y91031D02*
X405373Y90945D01*
X405316Y90861D01*
X405257Y90779D01*
X405194Y90699D01*
X405128Y90622D01*
X405060Y90547D01*
X404988Y90475D01*
X404914Y90406D01*
X404837Y90340D01*
X404758Y90277D01*
X404676Y90217D01*
X404592Y90160D01*
X404506Y90106D01*
X404418Y90056D01*
X404328Y90009D01*
X404237Y89965D01*
X404143Y89926D01*
X404049Y89889D01*
X403953Y89857D01*
X403855Y89828D01*
X403757Y89803D01*
X403658Y89782D01*
X403558Y89764D01*
X403458Y89751D01*
X403357Y89741D01*
X403255Y89735D01*
X403154Y89733D01*
X407374Y94601D02*
X407427Y94687D01*
X407484Y94771D01*
X407543Y94853D01*
X407606Y94933D01*
X407672Y95010D01*
X407740Y95085D01*
X407812Y95157D01*
X407886Y95226D01*
X407963Y95292D01*
X408042Y95355D01*
X408124Y95415D01*
X408208Y95472D01*
X408294Y95526D01*
X408382Y95576D01*
X408472Y95623D01*
X408563Y95667D01*
X408657Y95706D01*
X408751Y95743D01*
X408847Y95775D01*
X408945Y95804D01*
X409043Y95829D01*
X409142Y95850D01*
X409242Y95868D01*
X409342Y95881D01*
X409443Y95891D01*
X409545Y95897D01*
X409646Y95899D01*
X407374Y94601D02*
X405426Y91031D01*
X400558Y100838D02*
X412242Y100838D01*
X400558Y100838D02*
X400558Y104084D01*
X400560Y104197D01*
X400566Y104310D01*
X400576Y104423D01*
X400590Y104536D01*
X400607Y104648D01*
X400629Y104759D01*
X400654Y104869D01*
X400684Y104979D01*
X400717Y105087D01*
X400754Y105194D01*
X400794Y105300D01*
X400839Y105404D01*
X400887Y105507D01*
X400938Y105608D01*
X400993Y105707D01*
X401051Y105804D01*
X401113Y105899D01*
X401178Y105992D01*
X401246Y106082D01*
X401317Y106170D01*
X401392Y106256D01*
X401469Y106339D01*
X401549Y106419D01*
X401632Y106496D01*
X401718Y106571D01*
X401806Y106642D01*
X401896Y106710D01*
X401989Y106775D01*
X402084Y106837D01*
X402181Y106895D01*
X402280Y106950D01*
X402381Y107001D01*
X402484Y107049D01*
X402588Y107094D01*
X402694Y107134D01*
X402801Y107171D01*
X402909Y107204D01*
X403019Y107234D01*
X403129Y107259D01*
X403240Y107281D01*
X403352Y107298D01*
X403465Y107312D01*
X403578Y107322D01*
X403691Y107328D01*
X403804Y107330D01*
X403804Y107329D02*
X408996Y107329D01*
X408996Y107330D02*
X409109Y107328D01*
X409222Y107322D01*
X409335Y107312D01*
X409448Y107298D01*
X409560Y107281D01*
X409671Y107259D01*
X409781Y107234D01*
X409891Y107204D01*
X409999Y107171D01*
X410106Y107134D01*
X410212Y107094D01*
X410316Y107049D01*
X410419Y107001D01*
X410520Y106950D01*
X410619Y106895D01*
X410716Y106837D01*
X410811Y106775D01*
X410904Y106710D01*
X410994Y106642D01*
X411082Y106571D01*
X411168Y106496D01*
X411251Y106419D01*
X411331Y106339D01*
X411408Y106256D01*
X411483Y106170D01*
X411554Y106082D01*
X411622Y105992D01*
X411687Y105899D01*
X411749Y105804D01*
X411807Y105707D01*
X411862Y105608D01*
X411913Y105507D01*
X411961Y105404D01*
X412006Y105300D01*
X412046Y105194D01*
X412083Y105087D01*
X412116Y104979D01*
X412146Y104869D01*
X412171Y104759D01*
X412193Y104648D01*
X412210Y104536D01*
X412224Y104423D01*
X412234Y104310D01*
X412240Y104197D01*
X412242Y104084D01*
X412242Y100838D01*
X412242Y112000D02*
X400558Y115895D01*
X412242Y119789D01*
X409321Y118816D02*
X409321Y112974D01*
X435046Y95899D02*
X435145Y95897D01*
X435245Y95891D01*
X435344Y95882D01*
X435442Y95869D01*
X435540Y95852D01*
X435638Y95831D01*
X435734Y95806D01*
X435829Y95778D01*
X435923Y95746D01*
X436016Y95711D01*
X436108Y95672D01*
X436198Y95629D01*
X436286Y95584D01*
X436373Y95534D01*
X436457Y95482D01*
X436540Y95426D01*
X436620Y95368D01*
X436698Y95306D01*
X436773Y95241D01*
X436846Y95173D01*
X436916Y95103D01*
X436984Y95030D01*
X437049Y94955D01*
X437111Y94877D01*
X437169Y94797D01*
X437225Y94714D01*
X437277Y94630D01*
X437327Y94543D01*
X437372Y94455D01*
X437415Y94365D01*
X437454Y94273D01*
X437489Y94180D01*
X437521Y94086D01*
X437549Y93991D01*
X437574Y93895D01*
X437595Y93797D01*
X437612Y93699D01*
X437625Y93601D01*
X437634Y93502D01*
X437640Y93402D01*
X437642Y93303D01*
X437640Y93159D01*
X437634Y93014D01*
X437625Y92870D01*
X437612Y92727D01*
X437595Y92583D01*
X437574Y92440D01*
X437549Y92298D01*
X437521Y92157D01*
X437489Y92016D01*
X437453Y91876D01*
X437414Y91737D01*
X437371Y91599D01*
X437324Y91463D01*
X437274Y91327D01*
X437220Y91193D01*
X437163Y91061D01*
X437102Y90930D01*
X437038Y90801D01*
X436970Y90673D01*
X436900Y90547D01*
X436825Y90423D01*
X436748Y90302D01*
X436667Y90182D01*
X436584Y90064D01*
X436497Y89949D01*
X436407Y89836D01*
X436314Y89725D01*
X436219Y89617D01*
X436120Y89511D01*
X436019Y89408D01*
X428554Y89733D02*
X428455Y89735D01*
X428355Y89741D01*
X428256Y89750D01*
X428158Y89763D01*
X428060Y89780D01*
X427962Y89801D01*
X427866Y89826D01*
X427771Y89854D01*
X427677Y89886D01*
X427584Y89921D01*
X427492Y89960D01*
X427402Y90003D01*
X427314Y90048D01*
X427227Y90098D01*
X427143Y90150D01*
X427060Y90206D01*
X426980Y90264D01*
X426902Y90326D01*
X426827Y90391D01*
X426754Y90459D01*
X426684Y90529D01*
X426616Y90602D01*
X426551Y90677D01*
X426489Y90755D01*
X426431Y90835D01*
X426375Y90918D01*
X426323Y91002D01*
X426273Y91089D01*
X426228Y91177D01*
X426185Y91267D01*
X426146Y91359D01*
X426111Y91452D01*
X426079Y91546D01*
X426051Y91641D01*
X426026Y91737D01*
X426005Y91835D01*
X425988Y91933D01*
X425975Y92031D01*
X425966Y92130D01*
X425960Y92230D01*
X425958Y92329D01*
X425960Y92465D01*
X425966Y92601D01*
X425975Y92737D01*
X425988Y92873D01*
X426006Y93008D01*
X426026Y93142D01*
X426051Y93276D01*
X426079Y93410D01*
X426112Y93542D01*
X426147Y93673D01*
X426187Y93804D01*
X426230Y93933D01*
X426276Y94061D01*
X426327Y94187D01*
X426380Y94313D01*
X426438Y94436D01*
X426498Y94558D01*
X426562Y94678D01*
X426630Y94797D01*
X426700Y94913D01*
X426774Y95027D01*
X426851Y95140D01*
X426932Y95250D01*
X430826Y91031D02*
X430773Y90945D01*
X430716Y90861D01*
X430657Y90779D01*
X430594Y90699D01*
X430528Y90622D01*
X430460Y90547D01*
X430388Y90475D01*
X430314Y90406D01*
X430237Y90340D01*
X430158Y90277D01*
X430076Y90217D01*
X429992Y90160D01*
X429906Y90106D01*
X429818Y90056D01*
X429728Y90009D01*
X429637Y89965D01*
X429543Y89926D01*
X429449Y89889D01*
X429353Y89857D01*
X429255Y89828D01*
X429157Y89803D01*
X429058Y89782D01*
X428958Y89764D01*
X428858Y89751D01*
X428757Y89741D01*
X428655Y89735D01*
X428554Y89733D01*
X432774Y94601D02*
X432827Y94687D01*
X432884Y94771D01*
X432943Y94853D01*
X433006Y94933D01*
X433072Y95010D01*
X433140Y95085D01*
X433212Y95157D01*
X433286Y95226D01*
X433363Y95292D01*
X433442Y95355D01*
X433524Y95415D01*
X433608Y95472D01*
X433694Y95526D01*
X433782Y95576D01*
X433872Y95623D01*
X433963Y95667D01*
X434057Y95706D01*
X434151Y95743D01*
X434247Y95775D01*
X434345Y95804D01*
X434443Y95829D01*
X434542Y95850D01*
X434642Y95868D01*
X434742Y95881D01*
X434843Y95891D01*
X434945Y95897D01*
X435046Y95899D01*
X432774Y94601D02*
X430826Y91031D01*
X437642Y103020D02*
X437642Y105617D01*
X437642Y103020D02*
X437640Y102921D01*
X437634Y102821D01*
X437625Y102722D01*
X437612Y102624D01*
X437595Y102526D01*
X437574Y102428D01*
X437549Y102332D01*
X437521Y102237D01*
X437489Y102143D01*
X437454Y102050D01*
X437415Y101958D01*
X437372Y101868D01*
X437327Y101780D01*
X437277Y101693D01*
X437225Y101609D01*
X437169Y101526D01*
X437111Y101446D01*
X437049Y101368D01*
X436984Y101293D01*
X436916Y101220D01*
X436846Y101150D01*
X436773Y101082D01*
X436698Y101017D01*
X436620Y100955D01*
X436540Y100897D01*
X436457Y100841D01*
X436373Y100789D01*
X436286Y100739D01*
X436198Y100694D01*
X436108Y100651D01*
X436016Y100612D01*
X435923Y100577D01*
X435829Y100545D01*
X435734Y100517D01*
X435638Y100492D01*
X435540Y100471D01*
X435442Y100454D01*
X435344Y100441D01*
X435245Y100432D01*
X435145Y100426D01*
X435046Y100424D01*
X428554Y100424D01*
X428554Y100423D02*
X428455Y100425D01*
X428355Y100431D01*
X428256Y100440D01*
X428158Y100453D01*
X428060Y100471D01*
X427962Y100491D01*
X427866Y100516D01*
X427770Y100544D01*
X427676Y100576D01*
X427583Y100611D01*
X427492Y100650D01*
X427402Y100693D01*
X427313Y100738D01*
X427227Y100788D01*
X427142Y100840D01*
X427060Y100896D01*
X426980Y100955D01*
X426902Y101016D01*
X426826Y101081D01*
X426753Y101149D01*
X426683Y101219D01*
X426615Y101292D01*
X426550Y101368D01*
X426489Y101446D01*
X426430Y101526D01*
X426374Y101608D01*
X426322Y101693D01*
X426273Y101779D01*
X426227Y101868D01*
X426184Y101958D01*
X426145Y102049D01*
X426110Y102142D01*
X426078Y102236D01*
X426050Y102332D01*
X426025Y102428D01*
X426005Y102526D01*
X425987Y102624D01*
X425974Y102722D01*
X425965Y102821D01*
X425959Y102920D01*
X425957Y103020D01*
X425958Y103020D02*
X425958Y105617D01*
X425958Y110386D02*
X437642Y110386D01*
X437642Y115578D01*
X456551Y95899D02*
X456551Y93952D01*
X456551Y95899D02*
X463042Y95899D01*
X463042Y92004D01*
X463040Y91905D01*
X463034Y91805D01*
X463025Y91706D01*
X463012Y91608D01*
X462995Y91510D01*
X462974Y91412D01*
X462949Y91316D01*
X462921Y91221D01*
X462889Y91127D01*
X462854Y91034D01*
X462815Y90942D01*
X462772Y90852D01*
X462727Y90764D01*
X462677Y90677D01*
X462625Y90593D01*
X462569Y90510D01*
X462511Y90430D01*
X462449Y90352D01*
X462384Y90277D01*
X462316Y90204D01*
X462246Y90134D01*
X462173Y90066D01*
X462098Y90001D01*
X462020Y89939D01*
X461940Y89881D01*
X461857Y89825D01*
X461773Y89773D01*
X461686Y89723D01*
X461598Y89678D01*
X461508Y89635D01*
X461416Y89596D01*
X461323Y89561D01*
X461229Y89529D01*
X461134Y89501D01*
X461038Y89476D01*
X460940Y89455D01*
X460842Y89438D01*
X460744Y89425D01*
X460645Y89416D01*
X460545Y89410D01*
X460446Y89408D01*
X453954Y89408D01*
X453855Y89410D01*
X453755Y89416D01*
X453656Y89425D01*
X453558Y89438D01*
X453460Y89456D01*
X453362Y89476D01*
X453266Y89501D01*
X453170Y89529D01*
X453076Y89561D01*
X452983Y89596D01*
X452892Y89635D01*
X452802Y89678D01*
X452713Y89723D01*
X452627Y89773D01*
X452542Y89825D01*
X452460Y89881D01*
X452380Y89940D01*
X452302Y90001D01*
X452226Y90066D01*
X452153Y90134D01*
X452083Y90204D01*
X452015Y90277D01*
X451950Y90353D01*
X451889Y90431D01*
X451830Y90511D01*
X451774Y90593D01*
X451722Y90678D01*
X451673Y90764D01*
X451627Y90853D01*
X451584Y90943D01*
X451545Y91034D01*
X451510Y91127D01*
X451478Y91221D01*
X451450Y91317D01*
X451425Y91413D01*
X451405Y91511D01*
X451387Y91609D01*
X451374Y91707D01*
X451365Y91806D01*
X451359Y91905D01*
X451357Y92005D01*
X451358Y92004D02*
X451358Y95899D01*
X451358Y101600D02*
X463042Y101600D01*
X463042Y108091D02*
X451358Y101600D01*
X451358Y108091D02*
X463042Y108091D01*
X463042Y113792D02*
X451358Y113792D01*
X451358Y117037D01*
X451360Y117150D01*
X451366Y117263D01*
X451376Y117376D01*
X451390Y117489D01*
X451407Y117601D01*
X451429Y117712D01*
X451454Y117822D01*
X451484Y117932D01*
X451517Y118040D01*
X451554Y118147D01*
X451594Y118253D01*
X451639Y118357D01*
X451687Y118460D01*
X451738Y118561D01*
X451793Y118660D01*
X451851Y118757D01*
X451913Y118852D01*
X451978Y118945D01*
X452046Y119035D01*
X452117Y119123D01*
X452192Y119209D01*
X452269Y119292D01*
X452349Y119372D01*
X452432Y119449D01*
X452518Y119524D01*
X452606Y119595D01*
X452696Y119663D01*
X452789Y119728D01*
X452884Y119790D01*
X452981Y119848D01*
X453080Y119903D01*
X453181Y119954D01*
X453284Y120002D01*
X453388Y120047D01*
X453494Y120087D01*
X453601Y120124D01*
X453709Y120157D01*
X453819Y120187D01*
X453929Y120212D01*
X454040Y120234D01*
X454152Y120251D01*
X454265Y120265D01*
X454378Y120275D01*
X454491Y120281D01*
X454604Y120283D01*
X459796Y120283D01*
X459796Y120284D02*
X459909Y120282D01*
X460022Y120276D01*
X460135Y120266D01*
X460248Y120252D01*
X460360Y120235D01*
X460471Y120213D01*
X460581Y120188D01*
X460691Y120158D01*
X460799Y120125D01*
X460906Y120088D01*
X461012Y120048D01*
X461116Y120003D01*
X461219Y119955D01*
X461320Y119904D01*
X461419Y119849D01*
X461516Y119791D01*
X461611Y119729D01*
X461704Y119664D01*
X461794Y119596D01*
X461882Y119525D01*
X461968Y119450D01*
X462051Y119373D01*
X462131Y119293D01*
X462208Y119210D01*
X462283Y119124D01*
X462354Y119036D01*
X462422Y118946D01*
X462487Y118853D01*
X462549Y118758D01*
X462607Y118661D01*
X462662Y118562D01*
X462713Y118461D01*
X462761Y118358D01*
X462806Y118254D01*
X462846Y118148D01*
X462883Y118041D01*
X462916Y117933D01*
X462946Y117823D01*
X462971Y117713D01*
X462993Y117602D01*
X463010Y117490D01*
X463024Y117377D01*
X463034Y117264D01*
X463040Y117151D01*
X463042Y117038D01*
X463042Y117037D02*
X463042Y113792D01*
D12*
X774700Y104775D02*
X793750Y104775D01*
X774700Y104775D02*
X774698Y104933D01*
X774692Y105092D01*
X774682Y105250D01*
X774668Y105407D01*
X774651Y105565D01*
X774629Y105721D01*
X774604Y105878D01*
X774574Y106033D01*
X774541Y106188D01*
X774504Y106342D01*
X774463Y106495D01*
X774418Y106647D01*
X774369Y106797D01*
X774317Y106947D01*
X774261Y107095D01*
X774201Y107242D01*
X774138Y107387D01*
X774071Y107530D01*
X774001Y107672D01*
X773927Y107812D01*
X773849Y107950D01*
X773768Y108086D01*
X773684Y108220D01*
X773597Y108352D01*
X773506Y108482D01*
X773412Y108609D01*
X773315Y108734D01*
X773214Y108857D01*
X773111Y108977D01*
X773005Y109094D01*
X772896Y109209D01*
X772784Y109321D01*
X772669Y109430D01*
X772552Y109536D01*
X772432Y109639D01*
X772309Y109740D01*
X772184Y109837D01*
X772057Y109931D01*
X771927Y110022D01*
X771795Y110109D01*
X771661Y110193D01*
X771525Y110274D01*
X771387Y110352D01*
X771247Y110426D01*
X771105Y110496D01*
X770962Y110563D01*
X770817Y110626D01*
X770670Y110686D01*
X770522Y110742D01*
X770372Y110794D01*
X770222Y110843D01*
X770070Y110888D01*
X769917Y110929D01*
X769763Y110966D01*
X769608Y110999D01*
X769453Y111029D01*
X769296Y111054D01*
X769140Y111076D01*
X768982Y111093D01*
X768825Y111107D01*
X768667Y111117D01*
X768508Y111123D01*
X768350Y111125D01*
X768192Y111123D01*
X768033Y111117D01*
X767875Y111107D01*
X767718Y111093D01*
X767560Y111076D01*
X767404Y111054D01*
X767247Y111029D01*
X767092Y110999D01*
X766937Y110966D01*
X766783Y110929D01*
X766630Y110888D01*
X766478Y110843D01*
X766328Y110794D01*
X766178Y110742D01*
X766030Y110686D01*
X765883Y110626D01*
X765738Y110563D01*
X765595Y110496D01*
X765453Y110426D01*
X765313Y110352D01*
X765175Y110274D01*
X765039Y110193D01*
X764905Y110109D01*
X764773Y110022D01*
X764643Y109931D01*
X764516Y109837D01*
X764391Y109740D01*
X764268Y109639D01*
X764148Y109536D01*
X764031Y109430D01*
X763916Y109321D01*
X763804Y109209D01*
X763695Y109094D01*
X763589Y108977D01*
X763486Y108857D01*
X763385Y108734D01*
X763288Y108609D01*
X763194Y108482D01*
X763103Y108352D01*
X763016Y108220D01*
X762932Y108086D01*
X762851Y107950D01*
X762773Y107812D01*
X762699Y107672D01*
X762629Y107530D01*
X762562Y107387D01*
X762499Y107242D01*
X762439Y107095D01*
X762383Y106947D01*
X762331Y106797D01*
X762282Y106647D01*
X762237Y106495D01*
X762196Y106342D01*
X762159Y106188D01*
X762126Y106033D01*
X762096Y105878D01*
X762071Y105721D01*
X762049Y105565D01*
X762032Y105407D01*
X762018Y105250D01*
X762008Y105092D01*
X762002Y104933D01*
X762000Y104775D01*
X793750Y104775D02*
X793750Y333375D01*
X742950Y333375D01*
X742950Y104775D01*
X762000Y104775D01*
D13*
X469900Y82550D02*
X368300Y82550D01*
X469900Y82550D02*
X469900Y63500D01*
X469900Y19050D01*
X368300Y19050D01*
X368300Y63500D01*
X368300Y82550D01*
X368300Y63500D02*
X469900Y63500D01*
D12*
X215900Y230505D02*
X215898Y230405D01*
X215892Y230306D01*
X215882Y230206D01*
X215869Y230108D01*
X215851Y230009D01*
X215830Y229912D01*
X215805Y229816D01*
X215776Y229720D01*
X215743Y229626D01*
X215707Y229533D01*
X215667Y229442D01*
X215623Y229352D01*
X215576Y229264D01*
X215526Y229178D01*
X215472Y229094D01*
X215415Y229012D01*
X215355Y228933D01*
X215291Y228855D01*
X215225Y228781D01*
X215156Y228709D01*
X215084Y228640D01*
X215010Y228574D01*
X214932Y228510D01*
X214853Y228450D01*
X214771Y228393D01*
X214687Y228339D01*
X214601Y228289D01*
X214513Y228242D01*
X214423Y228198D01*
X214332Y228158D01*
X214239Y228122D01*
X214145Y228089D01*
X214049Y228060D01*
X213953Y228035D01*
X213856Y228014D01*
X213757Y227996D01*
X213659Y227983D01*
X213559Y227973D01*
X213460Y227967D01*
X213360Y227965D01*
X215900Y245745D02*
X215898Y245845D01*
X215892Y245944D01*
X215882Y246044D01*
X215869Y246142D01*
X215851Y246241D01*
X215830Y246338D01*
X215805Y246434D01*
X215776Y246530D01*
X215743Y246624D01*
X215707Y246717D01*
X215667Y246808D01*
X215623Y246898D01*
X215576Y246986D01*
X215526Y247072D01*
X215472Y247156D01*
X215415Y247238D01*
X215355Y247317D01*
X215291Y247395D01*
X215225Y247469D01*
X215156Y247541D01*
X215084Y247610D01*
X215010Y247676D01*
X214932Y247740D01*
X214853Y247800D01*
X214771Y247857D01*
X214687Y247911D01*
X214601Y247961D01*
X214513Y248008D01*
X214423Y248052D01*
X214332Y248092D01*
X214239Y248128D01*
X214145Y248161D01*
X214049Y248190D01*
X213953Y248215D01*
X213856Y248236D01*
X213757Y248254D01*
X213659Y248267D01*
X213559Y248277D01*
X213460Y248283D01*
X213360Y248285D01*
X167640Y248285D02*
X167540Y248283D01*
X167441Y248277D01*
X167341Y248267D01*
X167243Y248254D01*
X167144Y248236D01*
X167047Y248215D01*
X166951Y248190D01*
X166855Y248161D01*
X166761Y248128D01*
X166668Y248092D01*
X166577Y248052D01*
X166487Y248008D01*
X166399Y247961D01*
X166313Y247911D01*
X166229Y247857D01*
X166147Y247800D01*
X166068Y247740D01*
X165990Y247676D01*
X165916Y247610D01*
X165844Y247541D01*
X165775Y247469D01*
X165709Y247395D01*
X165645Y247317D01*
X165585Y247238D01*
X165528Y247156D01*
X165474Y247072D01*
X165424Y246986D01*
X165377Y246898D01*
X165333Y246808D01*
X165293Y246717D01*
X165257Y246624D01*
X165224Y246530D01*
X165195Y246434D01*
X165170Y246338D01*
X165149Y246241D01*
X165131Y246142D01*
X165118Y246044D01*
X165108Y245944D01*
X165102Y245845D01*
X165100Y245745D01*
X165100Y230505D02*
X165102Y230405D01*
X165108Y230306D01*
X165118Y230206D01*
X165131Y230108D01*
X165149Y230009D01*
X165170Y229912D01*
X165195Y229816D01*
X165224Y229720D01*
X165257Y229626D01*
X165293Y229533D01*
X165333Y229442D01*
X165377Y229352D01*
X165424Y229264D01*
X165474Y229178D01*
X165528Y229094D01*
X165585Y229012D01*
X165645Y228933D01*
X165709Y228855D01*
X165775Y228781D01*
X165844Y228709D01*
X165916Y228640D01*
X165990Y228574D01*
X166068Y228510D01*
X166147Y228450D01*
X166229Y228393D01*
X166313Y228339D01*
X166399Y228289D01*
X166487Y228242D01*
X166577Y228198D01*
X166668Y228158D01*
X166761Y228122D01*
X166855Y228089D01*
X166951Y228060D01*
X167047Y228035D01*
X167144Y228014D01*
X167243Y227996D01*
X167341Y227983D01*
X167441Y227973D01*
X167540Y227967D01*
X167640Y227965D01*
X215900Y230505D02*
X215900Y245745D01*
X213360Y227965D02*
X209550Y227965D01*
X208280Y229235D01*
X209550Y248285D02*
X213360Y248285D01*
X209550Y248285D02*
X208280Y247015D01*
X172720Y229235D02*
X171450Y227965D01*
X172720Y229235D02*
X208280Y229235D01*
X172720Y247015D02*
X171450Y248285D01*
X172720Y247015D02*
X208280Y247015D01*
X171450Y227965D02*
X167640Y227965D01*
X167640Y248285D02*
X171450Y248285D01*
X165100Y245745D02*
X165100Y230505D01*
D14*
X163195Y238125D03*
X217805Y238125D03*
D15*
X219456Y248285D02*
X219456Y255651D01*
X221502Y255651D01*
X221591Y255649D01*
X221680Y255643D01*
X221769Y255633D01*
X221857Y255620D01*
X221945Y255603D01*
X222032Y255581D01*
X222117Y255556D01*
X222202Y255528D01*
X222285Y255495D01*
X222367Y255459D01*
X222447Y255420D01*
X222525Y255377D01*
X222601Y255331D01*
X222676Y255281D01*
X222748Y255228D01*
X222817Y255172D01*
X222884Y255113D01*
X222949Y255052D01*
X223010Y254987D01*
X223069Y254920D01*
X223125Y254851D01*
X223178Y254779D01*
X223228Y254704D01*
X223274Y254628D01*
X223317Y254550D01*
X223356Y254470D01*
X223392Y254388D01*
X223425Y254305D01*
X223453Y254220D01*
X223478Y254135D01*
X223500Y254048D01*
X223517Y253960D01*
X223530Y253872D01*
X223540Y253783D01*
X223546Y253694D01*
X223548Y253605D01*
X223546Y253516D01*
X223540Y253427D01*
X223530Y253338D01*
X223517Y253250D01*
X223500Y253162D01*
X223478Y253075D01*
X223453Y252990D01*
X223425Y252905D01*
X223392Y252822D01*
X223356Y252740D01*
X223317Y252660D01*
X223274Y252582D01*
X223228Y252506D01*
X223178Y252431D01*
X223125Y252359D01*
X223069Y252290D01*
X223010Y252223D01*
X222949Y252158D01*
X222884Y252097D01*
X222817Y252038D01*
X222748Y251982D01*
X222676Y251929D01*
X222601Y251879D01*
X222525Y251833D01*
X222447Y251790D01*
X222367Y251751D01*
X222285Y251715D01*
X222202Y251682D01*
X222117Y251654D01*
X222032Y251629D01*
X221945Y251607D01*
X221857Y251590D01*
X221769Y251577D01*
X221680Y251567D01*
X221591Y251561D01*
X221502Y251559D01*
X219456Y251559D01*
X221911Y251559D02*
X223548Y248285D01*
X226720Y254014D02*
X228766Y255651D01*
X228766Y248285D01*
X226720Y248285D02*
X230812Y248285D01*
X233626Y248285D02*
X236081Y255651D01*
X238537Y248285D01*
X237923Y250127D02*
X234240Y250127D01*
D12*
X215900Y255905D02*
X215898Y255805D01*
X215892Y255706D01*
X215882Y255606D01*
X215869Y255508D01*
X215851Y255409D01*
X215830Y255312D01*
X215805Y255216D01*
X215776Y255120D01*
X215743Y255026D01*
X215707Y254933D01*
X215667Y254842D01*
X215623Y254752D01*
X215576Y254664D01*
X215526Y254578D01*
X215472Y254494D01*
X215415Y254412D01*
X215355Y254333D01*
X215291Y254255D01*
X215225Y254181D01*
X215156Y254109D01*
X215084Y254040D01*
X215010Y253974D01*
X214932Y253910D01*
X214853Y253850D01*
X214771Y253793D01*
X214687Y253739D01*
X214601Y253689D01*
X214513Y253642D01*
X214423Y253598D01*
X214332Y253558D01*
X214239Y253522D01*
X214145Y253489D01*
X214049Y253460D01*
X213953Y253435D01*
X213856Y253414D01*
X213757Y253396D01*
X213659Y253383D01*
X213559Y253373D01*
X213460Y253367D01*
X213360Y253365D01*
X215900Y271145D02*
X215898Y271245D01*
X215892Y271344D01*
X215882Y271444D01*
X215869Y271542D01*
X215851Y271641D01*
X215830Y271738D01*
X215805Y271834D01*
X215776Y271930D01*
X215743Y272024D01*
X215707Y272117D01*
X215667Y272208D01*
X215623Y272298D01*
X215576Y272386D01*
X215526Y272472D01*
X215472Y272556D01*
X215415Y272638D01*
X215355Y272717D01*
X215291Y272795D01*
X215225Y272869D01*
X215156Y272941D01*
X215084Y273010D01*
X215010Y273076D01*
X214932Y273140D01*
X214853Y273200D01*
X214771Y273257D01*
X214687Y273311D01*
X214601Y273361D01*
X214513Y273408D01*
X214423Y273452D01*
X214332Y273492D01*
X214239Y273528D01*
X214145Y273561D01*
X214049Y273590D01*
X213953Y273615D01*
X213856Y273636D01*
X213757Y273654D01*
X213659Y273667D01*
X213559Y273677D01*
X213460Y273683D01*
X213360Y273685D01*
X167640Y273685D02*
X167540Y273683D01*
X167441Y273677D01*
X167341Y273667D01*
X167243Y273654D01*
X167144Y273636D01*
X167047Y273615D01*
X166951Y273590D01*
X166855Y273561D01*
X166761Y273528D01*
X166668Y273492D01*
X166577Y273452D01*
X166487Y273408D01*
X166399Y273361D01*
X166313Y273311D01*
X166229Y273257D01*
X166147Y273200D01*
X166068Y273140D01*
X165990Y273076D01*
X165916Y273010D01*
X165844Y272941D01*
X165775Y272869D01*
X165709Y272795D01*
X165645Y272717D01*
X165585Y272638D01*
X165528Y272556D01*
X165474Y272472D01*
X165424Y272386D01*
X165377Y272298D01*
X165333Y272208D01*
X165293Y272117D01*
X165257Y272024D01*
X165224Y271930D01*
X165195Y271834D01*
X165170Y271738D01*
X165149Y271641D01*
X165131Y271542D01*
X165118Y271444D01*
X165108Y271344D01*
X165102Y271245D01*
X165100Y271145D01*
X165100Y255905D02*
X165102Y255805D01*
X165108Y255706D01*
X165118Y255606D01*
X165131Y255508D01*
X165149Y255409D01*
X165170Y255312D01*
X165195Y255216D01*
X165224Y255120D01*
X165257Y255026D01*
X165293Y254933D01*
X165333Y254842D01*
X165377Y254752D01*
X165424Y254664D01*
X165474Y254578D01*
X165528Y254494D01*
X165585Y254412D01*
X165645Y254333D01*
X165709Y254255D01*
X165775Y254181D01*
X165844Y254109D01*
X165916Y254040D01*
X165990Y253974D01*
X166068Y253910D01*
X166147Y253850D01*
X166229Y253793D01*
X166313Y253739D01*
X166399Y253689D01*
X166487Y253642D01*
X166577Y253598D01*
X166668Y253558D01*
X166761Y253522D01*
X166855Y253489D01*
X166951Y253460D01*
X167047Y253435D01*
X167144Y253414D01*
X167243Y253396D01*
X167341Y253383D01*
X167441Y253373D01*
X167540Y253367D01*
X167640Y253365D01*
X215900Y255905D02*
X215900Y271145D01*
X213360Y253365D02*
X209550Y253365D01*
X208280Y254635D01*
X209550Y273685D02*
X213360Y273685D01*
X209550Y273685D02*
X208280Y272415D01*
X172720Y254635D02*
X171450Y253365D01*
X172720Y254635D02*
X208280Y254635D01*
X172720Y272415D02*
X171450Y273685D01*
X172720Y272415D02*
X208280Y272415D01*
X171450Y253365D02*
X167640Y253365D01*
X167640Y273685D02*
X171450Y273685D01*
X165100Y271145D02*
X165100Y255905D01*
D14*
X163195Y263525D03*
X217805Y263525D03*
D15*
X219456Y273685D02*
X219456Y281051D01*
X221502Y281051D01*
X221591Y281049D01*
X221680Y281043D01*
X221769Y281033D01*
X221857Y281020D01*
X221945Y281003D01*
X222032Y280981D01*
X222117Y280956D01*
X222202Y280928D01*
X222285Y280895D01*
X222367Y280859D01*
X222447Y280820D01*
X222525Y280777D01*
X222601Y280731D01*
X222676Y280681D01*
X222748Y280628D01*
X222817Y280572D01*
X222884Y280513D01*
X222949Y280452D01*
X223010Y280387D01*
X223069Y280320D01*
X223125Y280251D01*
X223178Y280179D01*
X223228Y280104D01*
X223274Y280028D01*
X223317Y279950D01*
X223356Y279870D01*
X223392Y279788D01*
X223425Y279705D01*
X223453Y279620D01*
X223478Y279535D01*
X223500Y279448D01*
X223517Y279360D01*
X223530Y279272D01*
X223540Y279183D01*
X223546Y279094D01*
X223548Y279005D01*
X223546Y278916D01*
X223540Y278827D01*
X223530Y278738D01*
X223517Y278650D01*
X223500Y278562D01*
X223478Y278475D01*
X223453Y278390D01*
X223425Y278305D01*
X223392Y278222D01*
X223356Y278140D01*
X223317Y278060D01*
X223274Y277982D01*
X223228Y277906D01*
X223178Y277831D01*
X223125Y277759D01*
X223069Y277690D01*
X223010Y277623D01*
X222949Y277558D01*
X222884Y277497D01*
X222817Y277438D01*
X222748Y277382D01*
X222676Y277329D01*
X222601Y277279D01*
X222525Y277233D01*
X222447Y277190D01*
X222367Y277151D01*
X222285Y277115D01*
X222202Y277082D01*
X222117Y277054D01*
X222032Y277029D01*
X221945Y277007D01*
X221857Y276990D01*
X221769Y276977D01*
X221680Y276967D01*
X221591Y276961D01*
X221502Y276959D01*
X219456Y276959D01*
X221911Y276959D02*
X223548Y273685D01*
X226720Y279414D02*
X228766Y281051D01*
X228766Y273685D01*
X226720Y273685D02*
X230812Y273685D01*
X234397Y277777D02*
X236443Y277777D01*
X236532Y277775D01*
X236621Y277769D01*
X236710Y277759D01*
X236798Y277746D01*
X236886Y277729D01*
X236973Y277707D01*
X237058Y277682D01*
X237143Y277654D01*
X237226Y277621D01*
X237308Y277585D01*
X237388Y277546D01*
X237466Y277503D01*
X237542Y277457D01*
X237617Y277407D01*
X237689Y277354D01*
X237758Y277298D01*
X237825Y277239D01*
X237890Y277178D01*
X237951Y277113D01*
X238010Y277046D01*
X238066Y276977D01*
X238119Y276905D01*
X238169Y276830D01*
X238215Y276754D01*
X238258Y276676D01*
X238297Y276596D01*
X238333Y276514D01*
X238366Y276431D01*
X238394Y276346D01*
X238419Y276261D01*
X238441Y276174D01*
X238458Y276086D01*
X238471Y275998D01*
X238481Y275909D01*
X238487Y275820D01*
X238489Y275731D01*
X238487Y275642D01*
X238481Y275553D01*
X238471Y275464D01*
X238458Y275376D01*
X238441Y275288D01*
X238419Y275201D01*
X238394Y275116D01*
X238366Y275031D01*
X238333Y274948D01*
X238297Y274866D01*
X238258Y274786D01*
X238215Y274708D01*
X238169Y274632D01*
X238119Y274557D01*
X238066Y274485D01*
X238010Y274416D01*
X237951Y274349D01*
X237890Y274284D01*
X237825Y274223D01*
X237758Y274164D01*
X237689Y274108D01*
X237617Y274055D01*
X237542Y274005D01*
X237466Y273959D01*
X237388Y273916D01*
X237308Y273877D01*
X237226Y273841D01*
X237143Y273808D01*
X237058Y273780D01*
X236973Y273755D01*
X236886Y273733D01*
X236798Y273716D01*
X236710Y273703D01*
X236621Y273693D01*
X236532Y273687D01*
X236443Y273685D01*
X234397Y273685D01*
X234397Y281051D01*
X236443Y281051D01*
X236522Y281049D01*
X236601Y281043D01*
X236680Y281034D01*
X236758Y281021D01*
X236835Y281003D01*
X236911Y280983D01*
X236986Y280958D01*
X237060Y280930D01*
X237133Y280899D01*
X237204Y280863D01*
X237273Y280825D01*
X237340Y280783D01*
X237405Y280738D01*
X237468Y280690D01*
X237529Y280639D01*
X237586Y280585D01*
X237642Y280529D01*
X237694Y280470D01*
X237744Y280408D01*
X237790Y280344D01*
X237834Y280278D01*
X237874Y280210D01*
X237910Y280140D01*
X237944Y280068D01*
X237974Y279994D01*
X238000Y279920D01*
X238023Y279844D01*
X238041Y279767D01*
X238057Y279690D01*
X238068Y279611D01*
X238076Y279533D01*
X238080Y279454D01*
X238080Y279374D01*
X238076Y279295D01*
X238068Y279217D01*
X238057Y279138D01*
X238041Y279061D01*
X238023Y278984D01*
X238000Y278908D01*
X237974Y278834D01*
X237944Y278760D01*
X237910Y278688D01*
X237874Y278618D01*
X237834Y278550D01*
X237790Y278484D01*
X237744Y278420D01*
X237694Y278358D01*
X237642Y278299D01*
X237586Y278243D01*
X237529Y278189D01*
X237468Y278138D01*
X237405Y278090D01*
X237340Y278045D01*
X237273Y278003D01*
X237204Y277965D01*
X237133Y277929D01*
X237060Y277898D01*
X236986Y277870D01*
X236911Y277845D01*
X236835Y277825D01*
X236758Y277807D01*
X236680Y277794D01*
X236601Y277785D01*
X236522Y277779D01*
X236443Y277777D01*
D12*
X215900Y128905D02*
X215898Y128805D01*
X215892Y128706D01*
X215882Y128606D01*
X215869Y128508D01*
X215851Y128409D01*
X215830Y128312D01*
X215805Y128216D01*
X215776Y128120D01*
X215743Y128026D01*
X215707Y127933D01*
X215667Y127842D01*
X215623Y127752D01*
X215576Y127664D01*
X215526Y127578D01*
X215472Y127494D01*
X215415Y127412D01*
X215355Y127333D01*
X215291Y127255D01*
X215225Y127181D01*
X215156Y127109D01*
X215084Y127040D01*
X215010Y126974D01*
X214932Y126910D01*
X214853Y126850D01*
X214771Y126793D01*
X214687Y126739D01*
X214601Y126689D01*
X214513Y126642D01*
X214423Y126598D01*
X214332Y126558D01*
X214239Y126522D01*
X214145Y126489D01*
X214049Y126460D01*
X213953Y126435D01*
X213856Y126414D01*
X213757Y126396D01*
X213659Y126383D01*
X213559Y126373D01*
X213460Y126367D01*
X213360Y126365D01*
X215900Y144145D02*
X215898Y144245D01*
X215892Y144344D01*
X215882Y144444D01*
X215869Y144542D01*
X215851Y144641D01*
X215830Y144738D01*
X215805Y144834D01*
X215776Y144930D01*
X215743Y145024D01*
X215707Y145117D01*
X215667Y145208D01*
X215623Y145298D01*
X215576Y145386D01*
X215526Y145472D01*
X215472Y145556D01*
X215415Y145638D01*
X215355Y145717D01*
X215291Y145795D01*
X215225Y145869D01*
X215156Y145941D01*
X215084Y146010D01*
X215010Y146076D01*
X214932Y146140D01*
X214853Y146200D01*
X214771Y146257D01*
X214687Y146311D01*
X214601Y146361D01*
X214513Y146408D01*
X214423Y146452D01*
X214332Y146492D01*
X214239Y146528D01*
X214145Y146561D01*
X214049Y146590D01*
X213953Y146615D01*
X213856Y146636D01*
X213757Y146654D01*
X213659Y146667D01*
X213559Y146677D01*
X213460Y146683D01*
X213360Y146685D01*
X167640Y146685D02*
X167540Y146683D01*
X167441Y146677D01*
X167341Y146667D01*
X167243Y146654D01*
X167144Y146636D01*
X167047Y146615D01*
X166951Y146590D01*
X166855Y146561D01*
X166761Y146528D01*
X166668Y146492D01*
X166577Y146452D01*
X166487Y146408D01*
X166399Y146361D01*
X166313Y146311D01*
X166229Y146257D01*
X166147Y146200D01*
X166068Y146140D01*
X165990Y146076D01*
X165916Y146010D01*
X165844Y145941D01*
X165775Y145869D01*
X165709Y145795D01*
X165645Y145717D01*
X165585Y145638D01*
X165528Y145556D01*
X165474Y145472D01*
X165424Y145386D01*
X165377Y145298D01*
X165333Y145208D01*
X165293Y145117D01*
X165257Y145024D01*
X165224Y144930D01*
X165195Y144834D01*
X165170Y144738D01*
X165149Y144641D01*
X165131Y144542D01*
X165118Y144444D01*
X165108Y144344D01*
X165102Y144245D01*
X165100Y144145D01*
X165100Y128905D02*
X165102Y128805D01*
X165108Y128706D01*
X165118Y128606D01*
X165131Y128508D01*
X165149Y128409D01*
X165170Y128312D01*
X165195Y128216D01*
X165224Y128120D01*
X165257Y128026D01*
X165293Y127933D01*
X165333Y127842D01*
X165377Y127752D01*
X165424Y127664D01*
X165474Y127578D01*
X165528Y127494D01*
X165585Y127412D01*
X165645Y127333D01*
X165709Y127255D01*
X165775Y127181D01*
X165844Y127109D01*
X165916Y127040D01*
X165990Y126974D01*
X166068Y126910D01*
X166147Y126850D01*
X166229Y126793D01*
X166313Y126739D01*
X166399Y126689D01*
X166487Y126642D01*
X166577Y126598D01*
X166668Y126558D01*
X166761Y126522D01*
X166855Y126489D01*
X166951Y126460D01*
X167047Y126435D01*
X167144Y126414D01*
X167243Y126396D01*
X167341Y126383D01*
X167441Y126373D01*
X167540Y126367D01*
X167640Y126365D01*
X215900Y128905D02*
X215900Y144145D01*
X213360Y126365D02*
X209550Y126365D01*
X208280Y127635D01*
X209550Y146685D02*
X213360Y146685D01*
X209550Y146685D02*
X208280Y145415D01*
X172720Y127635D02*
X171450Y126365D01*
X172720Y127635D02*
X208280Y127635D01*
X172720Y145415D02*
X171450Y146685D01*
X172720Y145415D02*
X208280Y145415D01*
X171450Y126365D02*
X167640Y126365D01*
X167640Y146685D02*
X171450Y146685D01*
X165100Y144145D02*
X165100Y128905D01*
D14*
X163195Y136525D03*
X217805Y136525D03*
D15*
X219456Y146685D02*
X219456Y154051D01*
X221502Y154051D01*
X221591Y154049D01*
X221680Y154043D01*
X221769Y154033D01*
X221857Y154020D01*
X221945Y154003D01*
X222032Y153981D01*
X222117Y153956D01*
X222202Y153928D01*
X222285Y153895D01*
X222367Y153859D01*
X222447Y153820D01*
X222525Y153777D01*
X222601Y153731D01*
X222676Y153681D01*
X222748Y153628D01*
X222817Y153572D01*
X222884Y153513D01*
X222949Y153452D01*
X223010Y153387D01*
X223069Y153320D01*
X223125Y153251D01*
X223178Y153179D01*
X223228Y153104D01*
X223274Y153028D01*
X223317Y152950D01*
X223356Y152870D01*
X223392Y152788D01*
X223425Y152705D01*
X223453Y152620D01*
X223478Y152535D01*
X223500Y152448D01*
X223517Y152360D01*
X223530Y152272D01*
X223540Y152183D01*
X223546Y152094D01*
X223548Y152005D01*
X223546Y151916D01*
X223540Y151827D01*
X223530Y151738D01*
X223517Y151650D01*
X223500Y151562D01*
X223478Y151475D01*
X223453Y151390D01*
X223425Y151305D01*
X223392Y151222D01*
X223356Y151140D01*
X223317Y151060D01*
X223274Y150982D01*
X223228Y150906D01*
X223178Y150831D01*
X223125Y150759D01*
X223069Y150690D01*
X223010Y150623D01*
X222949Y150558D01*
X222884Y150497D01*
X222817Y150438D01*
X222748Y150382D01*
X222676Y150329D01*
X222601Y150279D01*
X222525Y150233D01*
X222447Y150190D01*
X222367Y150151D01*
X222285Y150115D01*
X222202Y150082D01*
X222117Y150054D01*
X222032Y150029D01*
X221945Y150007D01*
X221857Y149990D01*
X221769Y149977D01*
X221680Y149967D01*
X221591Y149961D01*
X221502Y149959D01*
X219456Y149959D01*
X221911Y149959D02*
X223548Y146685D01*
X226720Y152414D02*
X228766Y154051D01*
X228766Y146685D01*
X226720Y146685D02*
X230812Y146685D01*
X235649Y146685D02*
X237286Y146685D01*
X235649Y146685D02*
X235571Y146687D01*
X235493Y146692D01*
X235416Y146702D01*
X235339Y146715D01*
X235263Y146731D01*
X235188Y146751D01*
X235114Y146775D01*
X235041Y146802D01*
X234969Y146833D01*
X234899Y146867D01*
X234831Y146904D01*
X234764Y146945D01*
X234699Y146989D01*
X234637Y147035D01*
X234577Y147085D01*
X234519Y147137D01*
X234464Y147192D01*
X234412Y147250D01*
X234362Y147310D01*
X234316Y147372D01*
X234272Y147437D01*
X234231Y147504D01*
X234194Y147572D01*
X234160Y147642D01*
X234129Y147714D01*
X234102Y147787D01*
X234078Y147861D01*
X234058Y147936D01*
X234042Y148012D01*
X234029Y148089D01*
X234019Y148166D01*
X234014Y148244D01*
X234012Y148322D01*
X234012Y152414D01*
X234014Y152494D01*
X234020Y152574D01*
X234030Y152654D01*
X234043Y152733D01*
X234061Y152812D01*
X234082Y152889D01*
X234108Y152965D01*
X234137Y153040D01*
X234169Y153114D01*
X234205Y153186D01*
X234245Y153256D01*
X234288Y153323D01*
X234334Y153389D01*
X234384Y153452D01*
X234436Y153513D01*
X234491Y153572D01*
X234550Y153627D01*
X234610Y153679D01*
X234674Y153729D01*
X234740Y153775D01*
X234807Y153818D01*
X234877Y153858D01*
X234949Y153894D01*
X235023Y153926D01*
X235097Y153955D01*
X235174Y153981D01*
X235251Y154002D01*
X235330Y154020D01*
X235409Y154033D01*
X235489Y154043D01*
X235569Y154049D01*
X235649Y154051D01*
X237286Y154051D01*
D12*
X215900Y154305D02*
X215898Y154205D01*
X215892Y154106D01*
X215882Y154006D01*
X215869Y153908D01*
X215851Y153809D01*
X215830Y153712D01*
X215805Y153616D01*
X215776Y153520D01*
X215743Y153426D01*
X215707Y153333D01*
X215667Y153242D01*
X215623Y153152D01*
X215576Y153064D01*
X215526Y152978D01*
X215472Y152894D01*
X215415Y152812D01*
X215355Y152733D01*
X215291Y152655D01*
X215225Y152581D01*
X215156Y152509D01*
X215084Y152440D01*
X215010Y152374D01*
X214932Y152310D01*
X214853Y152250D01*
X214771Y152193D01*
X214687Y152139D01*
X214601Y152089D01*
X214513Y152042D01*
X214423Y151998D01*
X214332Y151958D01*
X214239Y151922D01*
X214145Y151889D01*
X214049Y151860D01*
X213953Y151835D01*
X213856Y151814D01*
X213757Y151796D01*
X213659Y151783D01*
X213559Y151773D01*
X213460Y151767D01*
X213360Y151765D01*
X215900Y169545D02*
X215898Y169645D01*
X215892Y169744D01*
X215882Y169844D01*
X215869Y169942D01*
X215851Y170041D01*
X215830Y170138D01*
X215805Y170234D01*
X215776Y170330D01*
X215743Y170424D01*
X215707Y170517D01*
X215667Y170608D01*
X215623Y170698D01*
X215576Y170786D01*
X215526Y170872D01*
X215472Y170956D01*
X215415Y171038D01*
X215355Y171117D01*
X215291Y171195D01*
X215225Y171269D01*
X215156Y171341D01*
X215084Y171410D01*
X215010Y171476D01*
X214932Y171540D01*
X214853Y171600D01*
X214771Y171657D01*
X214687Y171711D01*
X214601Y171761D01*
X214513Y171808D01*
X214423Y171852D01*
X214332Y171892D01*
X214239Y171928D01*
X214145Y171961D01*
X214049Y171990D01*
X213953Y172015D01*
X213856Y172036D01*
X213757Y172054D01*
X213659Y172067D01*
X213559Y172077D01*
X213460Y172083D01*
X213360Y172085D01*
X167640Y172085D02*
X167540Y172083D01*
X167441Y172077D01*
X167341Y172067D01*
X167243Y172054D01*
X167144Y172036D01*
X167047Y172015D01*
X166951Y171990D01*
X166855Y171961D01*
X166761Y171928D01*
X166668Y171892D01*
X166577Y171852D01*
X166487Y171808D01*
X166399Y171761D01*
X166313Y171711D01*
X166229Y171657D01*
X166147Y171600D01*
X166068Y171540D01*
X165990Y171476D01*
X165916Y171410D01*
X165844Y171341D01*
X165775Y171269D01*
X165709Y171195D01*
X165645Y171117D01*
X165585Y171038D01*
X165528Y170956D01*
X165474Y170872D01*
X165424Y170786D01*
X165377Y170698D01*
X165333Y170608D01*
X165293Y170517D01*
X165257Y170424D01*
X165224Y170330D01*
X165195Y170234D01*
X165170Y170138D01*
X165149Y170041D01*
X165131Y169942D01*
X165118Y169844D01*
X165108Y169744D01*
X165102Y169645D01*
X165100Y169545D01*
X165100Y154305D02*
X165102Y154205D01*
X165108Y154106D01*
X165118Y154006D01*
X165131Y153908D01*
X165149Y153809D01*
X165170Y153712D01*
X165195Y153616D01*
X165224Y153520D01*
X165257Y153426D01*
X165293Y153333D01*
X165333Y153242D01*
X165377Y153152D01*
X165424Y153064D01*
X165474Y152978D01*
X165528Y152894D01*
X165585Y152812D01*
X165645Y152733D01*
X165709Y152655D01*
X165775Y152581D01*
X165844Y152509D01*
X165916Y152440D01*
X165990Y152374D01*
X166068Y152310D01*
X166147Y152250D01*
X166229Y152193D01*
X166313Y152139D01*
X166399Y152089D01*
X166487Y152042D01*
X166577Y151998D01*
X166668Y151958D01*
X166761Y151922D01*
X166855Y151889D01*
X166951Y151860D01*
X167047Y151835D01*
X167144Y151814D01*
X167243Y151796D01*
X167341Y151783D01*
X167441Y151773D01*
X167540Y151767D01*
X167640Y151765D01*
X215900Y154305D02*
X215900Y169545D01*
X213360Y151765D02*
X209550Y151765D01*
X208280Y153035D01*
X209550Y172085D02*
X213360Y172085D01*
X209550Y172085D02*
X208280Y170815D01*
X172720Y153035D02*
X171450Y151765D01*
X172720Y153035D02*
X208280Y153035D01*
X172720Y170815D02*
X171450Y172085D01*
X172720Y170815D02*
X208280Y170815D01*
X171450Y151765D02*
X167640Y151765D01*
X167640Y172085D02*
X171450Y172085D01*
X165100Y169545D02*
X165100Y154305D01*
D14*
X163195Y161925D03*
X217805Y161925D03*
D15*
X219456Y172085D02*
X219456Y179451D01*
X221502Y179451D01*
X221591Y179449D01*
X221680Y179443D01*
X221769Y179433D01*
X221857Y179420D01*
X221945Y179403D01*
X222032Y179381D01*
X222117Y179356D01*
X222202Y179328D01*
X222285Y179295D01*
X222367Y179259D01*
X222447Y179220D01*
X222525Y179177D01*
X222601Y179131D01*
X222676Y179081D01*
X222748Y179028D01*
X222817Y178972D01*
X222884Y178913D01*
X222949Y178852D01*
X223010Y178787D01*
X223069Y178720D01*
X223125Y178651D01*
X223178Y178579D01*
X223228Y178504D01*
X223274Y178428D01*
X223317Y178350D01*
X223356Y178270D01*
X223392Y178188D01*
X223425Y178105D01*
X223453Y178020D01*
X223478Y177935D01*
X223500Y177848D01*
X223517Y177760D01*
X223530Y177672D01*
X223540Y177583D01*
X223546Y177494D01*
X223548Y177405D01*
X223546Y177316D01*
X223540Y177227D01*
X223530Y177138D01*
X223517Y177050D01*
X223500Y176962D01*
X223478Y176875D01*
X223453Y176790D01*
X223425Y176705D01*
X223392Y176622D01*
X223356Y176540D01*
X223317Y176460D01*
X223274Y176382D01*
X223228Y176306D01*
X223178Y176231D01*
X223125Y176159D01*
X223069Y176090D01*
X223010Y176023D01*
X222949Y175958D01*
X222884Y175897D01*
X222817Y175838D01*
X222748Y175782D01*
X222676Y175729D01*
X222601Y175679D01*
X222525Y175633D01*
X222447Y175590D01*
X222367Y175551D01*
X222285Y175515D01*
X222202Y175482D01*
X222117Y175454D01*
X222032Y175429D01*
X221945Y175407D01*
X221857Y175390D01*
X221769Y175377D01*
X221680Y175367D01*
X221591Y175361D01*
X221502Y175359D01*
X219456Y175359D01*
X221911Y175359D02*
X223548Y172085D01*
X226720Y177814D02*
X228766Y179451D01*
X228766Y172085D01*
X226720Y172085D02*
X230812Y172085D01*
X234279Y172085D02*
X234279Y179451D01*
X236325Y179451D01*
X236414Y179449D01*
X236503Y179443D01*
X236592Y179433D01*
X236680Y179420D01*
X236768Y179403D01*
X236855Y179381D01*
X236940Y179356D01*
X237025Y179328D01*
X237108Y179295D01*
X237190Y179259D01*
X237270Y179220D01*
X237348Y179177D01*
X237424Y179131D01*
X237499Y179081D01*
X237571Y179028D01*
X237640Y178972D01*
X237707Y178913D01*
X237772Y178852D01*
X237833Y178787D01*
X237892Y178720D01*
X237948Y178651D01*
X238001Y178579D01*
X238051Y178504D01*
X238097Y178428D01*
X238140Y178350D01*
X238179Y178270D01*
X238215Y178188D01*
X238248Y178105D01*
X238276Y178020D01*
X238301Y177935D01*
X238323Y177848D01*
X238340Y177760D01*
X238353Y177672D01*
X238363Y177583D01*
X238369Y177494D01*
X238371Y177405D01*
X238371Y174131D01*
X238369Y174042D01*
X238363Y173953D01*
X238353Y173864D01*
X238340Y173776D01*
X238323Y173688D01*
X238301Y173601D01*
X238276Y173516D01*
X238248Y173431D01*
X238215Y173348D01*
X238179Y173266D01*
X238140Y173186D01*
X238097Y173108D01*
X238051Y173032D01*
X238001Y172957D01*
X237948Y172885D01*
X237892Y172816D01*
X237833Y172749D01*
X237772Y172684D01*
X237707Y172623D01*
X237640Y172564D01*
X237571Y172508D01*
X237499Y172455D01*
X237424Y172405D01*
X237348Y172359D01*
X237270Y172316D01*
X237190Y172277D01*
X237108Y172241D01*
X237025Y172208D01*
X236940Y172180D01*
X236855Y172155D01*
X236768Y172133D01*
X236680Y172116D01*
X236592Y172103D01*
X236503Y172093D01*
X236414Y172087D01*
X236325Y172085D01*
X234279Y172085D01*
D12*
X215900Y179705D02*
X215898Y179605D01*
X215892Y179506D01*
X215882Y179406D01*
X215869Y179308D01*
X215851Y179209D01*
X215830Y179112D01*
X215805Y179016D01*
X215776Y178920D01*
X215743Y178826D01*
X215707Y178733D01*
X215667Y178642D01*
X215623Y178552D01*
X215576Y178464D01*
X215526Y178378D01*
X215472Y178294D01*
X215415Y178212D01*
X215355Y178133D01*
X215291Y178055D01*
X215225Y177981D01*
X215156Y177909D01*
X215084Y177840D01*
X215010Y177774D01*
X214932Y177710D01*
X214853Y177650D01*
X214771Y177593D01*
X214687Y177539D01*
X214601Y177489D01*
X214513Y177442D01*
X214423Y177398D01*
X214332Y177358D01*
X214239Y177322D01*
X214145Y177289D01*
X214049Y177260D01*
X213953Y177235D01*
X213856Y177214D01*
X213757Y177196D01*
X213659Y177183D01*
X213559Y177173D01*
X213460Y177167D01*
X213360Y177165D01*
X215900Y194945D02*
X215898Y195045D01*
X215892Y195144D01*
X215882Y195244D01*
X215869Y195342D01*
X215851Y195441D01*
X215830Y195538D01*
X215805Y195634D01*
X215776Y195730D01*
X215743Y195824D01*
X215707Y195917D01*
X215667Y196008D01*
X215623Y196098D01*
X215576Y196186D01*
X215526Y196272D01*
X215472Y196356D01*
X215415Y196438D01*
X215355Y196517D01*
X215291Y196595D01*
X215225Y196669D01*
X215156Y196741D01*
X215084Y196810D01*
X215010Y196876D01*
X214932Y196940D01*
X214853Y197000D01*
X214771Y197057D01*
X214687Y197111D01*
X214601Y197161D01*
X214513Y197208D01*
X214423Y197252D01*
X214332Y197292D01*
X214239Y197328D01*
X214145Y197361D01*
X214049Y197390D01*
X213953Y197415D01*
X213856Y197436D01*
X213757Y197454D01*
X213659Y197467D01*
X213559Y197477D01*
X213460Y197483D01*
X213360Y197485D01*
X167640Y197485D02*
X167540Y197483D01*
X167441Y197477D01*
X167341Y197467D01*
X167243Y197454D01*
X167144Y197436D01*
X167047Y197415D01*
X166951Y197390D01*
X166855Y197361D01*
X166761Y197328D01*
X166668Y197292D01*
X166577Y197252D01*
X166487Y197208D01*
X166399Y197161D01*
X166313Y197111D01*
X166229Y197057D01*
X166147Y197000D01*
X166068Y196940D01*
X165990Y196876D01*
X165916Y196810D01*
X165844Y196741D01*
X165775Y196669D01*
X165709Y196595D01*
X165645Y196517D01*
X165585Y196438D01*
X165528Y196356D01*
X165474Y196272D01*
X165424Y196186D01*
X165377Y196098D01*
X165333Y196008D01*
X165293Y195917D01*
X165257Y195824D01*
X165224Y195730D01*
X165195Y195634D01*
X165170Y195538D01*
X165149Y195441D01*
X165131Y195342D01*
X165118Y195244D01*
X165108Y195144D01*
X165102Y195045D01*
X165100Y194945D01*
X165100Y179705D02*
X165102Y179605D01*
X165108Y179506D01*
X165118Y179406D01*
X165131Y179308D01*
X165149Y179209D01*
X165170Y179112D01*
X165195Y179016D01*
X165224Y178920D01*
X165257Y178826D01*
X165293Y178733D01*
X165333Y178642D01*
X165377Y178552D01*
X165424Y178464D01*
X165474Y178378D01*
X165528Y178294D01*
X165585Y178212D01*
X165645Y178133D01*
X165709Y178055D01*
X165775Y177981D01*
X165844Y177909D01*
X165916Y177840D01*
X165990Y177774D01*
X166068Y177710D01*
X166147Y177650D01*
X166229Y177593D01*
X166313Y177539D01*
X166399Y177489D01*
X166487Y177442D01*
X166577Y177398D01*
X166668Y177358D01*
X166761Y177322D01*
X166855Y177289D01*
X166951Y177260D01*
X167047Y177235D01*
X167144Y177214D01*
X167243Y177196D01*
X167341Y177183D01*
X167441Y177173D01*
X167540Y177167D01*
X167640Y177165D01*
X215900Y179705D02*
X215900Y194945D01*
X213360Y177165D02*
X209550Y177165D01*
X208280Y178435D01*
X209550Y197485D02*
X213360Y197485D01*
X209550Y197485D02*
X208280Y196215D01*
X172720Y178435D02*
X171450Y177165D01*
X172720Y178435D02*
X208280Y178435D01*
X172720Y196215D02*
X171450Y197485D01*
X172720Y196215D02*
X208280Y196215D01*
X171450Y177165D02*
X167640Y177165D01*
X167640Y197485D02*
X171450Y197485D01*
X165100Y194945D02*
X165100Y179705D01*
D14*
X163195Y187325D03*
X217805Y187325D03*
D15*
X219456Y197485D02*
X219456Y204851D01*
X221502Y204851D01*
X221591Y204849D01*
X221680Y204843D01*
X221769Y204833D01*
X221857Y204820D01*
X221945Y204803D01*
X222032Y204781D01*
X222117Y204756D01*
X222202Y204728D01*
X222285Y204695D01*
X222367Y204659D01*
X222447Y204620D01*
X222525Y204577D01*
X222601Y204531D01*
X222676Y204481D01*
X222748Y204428D01*
X222817Y204372D01*
X222884Y204313D01*
X222949Y204252D01*
X223010Y204187D01*
X223069Y204120D01*
X223125Y204051D01*
X223178Y203979D01*
X223228Y203904D01*
X223274Y203828D01*
X223317Y203750D01*
X223356Y203670D01*
X223392Y203588D01*
X223425Y203505D01*
X223453Y203420D01*
X223478Y203335D01*
X223500Y203248D01*
X223517Y203160D01*
X223530Y203072D01*
X223540Y202983D01*
X223546Y202894D01*
X223548Y202805D01*
X223546Y202716D01*
X223540Y202627D01*
X223530Y202538D01*
X223517Y202450D01*
X223500Y202362D01*
X223478Y202275D01*
X223453Y202190D01*
X223425Y202105D01*
X223392Y202022D01*
X223356Y201940D01*
X223317Y201860D01*
X223274Y201782D01*
X223228Y201706D01*
X223178Y201631D01*
X223125Y201559D01*
X223069Y201490D01*
X223010Y201423D01*
X222949Y201358D01*
X222884Y201297D01*
X222817Y201238D01*
X222748Y201182D01*
X222676Y201129D01*
X222601Y201079D01*
X222525Y201033D01*
X222447Y200990D01*
X222367Y200951D01*
X222285Y200915D01*
X222202Y200882D01*
X222117Y200854D01*
X222032Y200829D01*
X221945Y200807D01*
X221857Y200790D01*
X221769Y200777D01*
X221680Y200767D01*
X221591Y200761D01*
X221502Y200759D01*
X219456Y200759D01*
X221911Y200759D02*
X223548Y197485D01*
X226720Y203214D02*
X228766Y204851D01*
X228766Y197485D01*
X226720Y197485D02*
X230812Y197485D01*
X234295Y197485D02*
X237569Y197485D01*
X234295Y197485D02*
X234295Y204851D01*
X237569Y204851D01*
X236750Y201577D02*
X234295Y201577D01*
D12*
X215900Y205105D02*
X215898Y205005D01*
X215892Y204906D01*
X215882Y204806D01*
X215869Y204708D01*
X215851Y204609D01*
X215830Y204512D01*
X215805Y204416D01*
X215776Y204320D01*
X215743Y204226D01*
X215707Y204133D01*
X215667Y204042D01*
X215623Y203952D01*
X215576Y203864D01*
X215526Y203778D01*
X215472Y203694D01*
X215415Y203612D01*
X215355Y203533D01*
X215291Y203455D01*
X215225Y203381D01*
X215156Y203309D01*
X215084Y203240D01*
X215010Y203174D01*
X214932Y203110D01*
X214853Y203050D01*
X214771Y202993D01*
X214687Y202939D01*
X214601Y202889D01*
X214513Y202842D01*
X214423Y202798D01*
X214332Y202758D01*
X214239Y202722D01*
X214145Y202689D01*
X214049Y202660D01*
X213953Y202635D01*
X213856Y202614D01*
X213757Y202596D01*
X213659Y202583D01*
X213559Y202573D01*
X213460Y202567D01*
X213360Y202565D01*
X215900Y220345D02*
X215898Y220445D01*
X215892Y220544D01*
X215882Y220644D01*
X215869Y220742D01*
X215851Y220841D01*
X215830Y220938D01*
X215805Y221034D01*
X215776Y221130D01*
X215743Y221224D01*
X215707Y221317D01*
X215667Y221408D01*
X215623Y221498D01*
X215576Y221586D01*
X215526Y221672D01*
X215472Y221756D01*
X215415Y221838D01*
X215355Y221917D01*
X215291Y221995D01*
X215225Y222069D01*
X215156Y222141D01*
X215084Y222210D01*
X215010Y222276D01*
X214932Y222340D01*
X214853Y222400D01*
X214771Y222457D01*
X214687Y222511D01*
X214601Y222561D01*
X214513Y222608D01*
X214423Y222652D01*
X214332Y222692D01*
X214239Y222728D01*
X214145Y222761D01*
X214049Y222790D01*
X213953Y222815D01*
X213856Y222836D01*
X213757Y222854D01*
X213659Y222867D01*
X213559Y222877D01*
X213460Y222883D01*
X213360Y222885D01*
X167640Y222885D02*
X167540Y222883D01*
X167441Y222877D01*
X167341Y222867D01*
X167243Y222854D01*
X167144Y222836D01*
X167047Y222815D01*
X166951Y222790D01*
X166855Y222761D01*
X166761Y222728D01*
X166668Y222692D01*
X166577Y222652D01*
X166487Y222608D01*
X166399Y222561D01*
X166313Y222511D01*
X166229Y222457D01*
X166147Y222400D01*
X166068Y222340D01*
X165990Y222276D01*
X165916Y222210D01*
X165844Y222141D01*
X165775Y222069D01*
X165709Y221995D01*
X165645Y221917D01*
X165585Y221838D01*
X165528Y221756D01*
X165474Y221672D01*
X165424Y221586D01*
X165377Y221498D01*
X165333Y221408D01*
X165293Y221317D01*
X165257Y221224D01*
X165224Y221130D01*
X165195Y221034D01*
X165170Y220938D01*
X165149Y220841D01*
X165131Y220742D01*
X165118Y220644D01*
X165108Y220544D01*
X165102Y220445D01*
X165100Y220345D01*
X165100Y205105D02*
X165102Y205005D01*
X165108Y204906D01*
X165118Y204806D01*
X165131Y204708D01*
X165149Y204609D01*
X165170Y204512D01*
X165195Y204416D01*
X165224Y204320D01*
X165257Y204226D01*
X165293Y204133D01*
X165333Y204042D01*
X165377Y203952D01*
X165424Y203864D01*
X165474Y203778D01*
X165528Y203694D01*
X165585Y203612D01*
X165645Y203533D01*
X165709Y203455D01*
X165775Y203381D01*
X165844Y203309D01*
X165916Y203240D01*
X165990Y203174D01*
X166068Y203110D01*
X166147Y203050D01*
X166229Y202993D01*
X166313Y202939D01*
X166399Y202889D01*
X166487Y202842D01*
X166577Y202798D01*
X166668Y202758D01*
X166761Y202722D01*
X166855Y202689D01*
X166951Y202660D01*
X167047Y202635D01*
X167144Y202614D01*
X167243Y202596D01*
X167341Y202583D01*
X167441Y202573D01*
X167540Y202567D01*
X167640Y202565D01*
X215900Y205105D02*
X215900Y220345D01*
X213360Y202565D02*
X209550Y202565D01*
X208280Y203835D01*
X209550Y222885D02*
X213360Y222885D01*
X209550Y222885D02*
X208280Y221615D01*
X172720Y203835D02*
X171450Y202565D01*
X172720Y203835D02*
X208280Y203835D01*
X172720Y221615D02*
X171450Y222885D01*
X172720Y221615D02*
X208280Y221615D01*
X171450Y202565D02*
X167640Y202565D01*
X167640Y222885D02*
X171450Y222885D01*
X165100Y220345D02*
X165100Y205105D01*
D14*
X163195Y212725D03*
X217805Y212725D03*
D15*
X219456Y222885D02*
X219456Y230251D01*
X221502Y230251D01*
X221591Y230249D01*
X221680Y230243D01*
X221769Y230233D01*
X221857Y230220D01*
X221945Y230203D01*
X222032Y230181D01*
X222117Y230156D01*
X222202Y230128D01*
X222285Y230095D01*
X222367Y230059D01*
X222447Y230020D01*
X222525Y229977D01*
X222601Y229931D01*
X222676Y229881D01*
X222748Y229828D01*
X222817Y229772D01*
X222884Y229713D01*
X222949Y229652D01*
X223010Y229587D01*
X223069Y229520D01*
X223125Y229451D01*
X223178Y229379D01*
X223228Y229304D01*
X223274Y229228D01*
X223317Y229150D01*
X223356Y229070D01*
X223392Y228988D01*
X223425Y228905D01*
X223453Y228820D01*
X223478Y228735D01*
X223500Y228648D01*
X223517Y228560D01*
X223530Y228472D01*
X223540Y228383D01*
X223546Y228294D01*
X223548Y228205D01*
X223546Y228116D01*
X223540Y228027D01*
X223530Y227938D01*
X223517Y227850D01*
X223500Y227762D01*
X223478Y227675D01*
X223453Y227590D01*
X223425Y227505D01*
X223392Y227422D01*
X223356Y227340D01*
X223317Y227260D01*
X223274Y227182D01*
X223228Y227106D01*
X223178Y227031D01*
X223125Y226959D01*
X223069Y226890D01*
X223010Y226823D01*
X222949Y226758D01*
X222884Y226697D01*
X222817Y226638D01*
X222748Y226582D01*
X222676Y226529D01*
X222601Y226479D01*
X222525Y226433D01*
X222447Y226390D01*
X222367Y226351D01*
X222285Y226315D01*
X222202Y226282D01*
X222117Y226254D01*
X222032Y226229D01*
X221945Y226207D01*
X221857Y226190D01*
X221769Y226177D01*
X221680Y226167D01*
X221591Y226161D01*
X221502Y226159D01*
X219456Y226159D01*
X221911Y226159D02*
X223548Y222885D01*
X226720Y228614D02*
X228766Y230251D01*
X228766Y222885D01*
X226720Y222885D02*
X230812Y222885D01*
X234295Y222885D02*
X234295Y230251D01*
X237569Y230251D01*
X237569Y226977D02*
X234295Y226977D01*
D12*
X215900Y103505D02*
X215898Y103405D01*
X215892Y103306D01*
X215882Y103206D01*
X215869Y103108D01*
X215851Y103009D01*
X215830Y102912D01*
X215805Y102816D01*
X215776Y102720D01*
X215743Y102626D01*
X215707Y102533D01*
X215667Y102442D01*
X215623Y102352D01*
X215576Y102264D01*
X215526Y102178D01*
X215472Y102094D01*
X215415Y102012D01*
X215355Y101933D01*
X215291Y101855D01*
X215225Y101781D01*
X215156Y101709D01*
X215084Y101640D01*
X215010Y101574D01*
X214932Y101510D01*
X214853Y101450D01*
X214771Y101393D01*
X214687Y101339D01*
X214601Y101289D01*
X214513Y101242D01*
X214423Y101198D01*
X214332Y101158D01*
X214239Y101122D01*
X214145Y101089D01*
X214049Y101060D01*
X213953Y101035D01*
X213856Y101014D01*
X213757Y100996D01*
X213659Y100983D01*
X213559Y100973D01*
X213460Y100967D01*
X213360Y100965D01*
X215900Y118745D02*
X215898Y118845D01*
X215892Y118944D01*
X215882Y119044D01*
X215869Y119142D01*
X215851Y119241D01*
X215830Y119338D01*
X215805Y119434D01*
X215776Y119530D01*
X215743Y119624D01*
X215707Y119717D01*
X215667Y119808D01*
X215623Y119898D01*
X215576Y119986D01*
X215526Y120072D01*
X215472Y120156D01*
X215415Y120238D01*
X215355Y120317D01*
X215291Y120395D01*
X215225Y120469D01*
X215156Y120541D01*
X215084Y120610D01*
X215010Y120676D01*
X214932Y120740D01*
X214853Y120800D01*
X214771Y120857D01*
X214687Y120911D01*
X214601Y120961D01*
X214513Y121008D01*
X214423Y121052D01*
X214332Y121092D01*
X214239Y121128D01*
X214145Y121161D01*
X214049Y121190D01*
X213953Y121215D01*
X213856Y121236D01*
X213757Y121254D01*
X213659Y121267D01*
X213559Y121277D01*
X213460Y121283D01*
X213360Y121285D01*
X167640Y121285D02*
X167540Y121283D01*
X167441Y121277D01*
X167341Y121267D01*
X167243Y121254D01*
X167144Y121236D01*
X167047Y121215D01*
X166951Y121190D01*
X166855Y121161D01*
X166761Y121128D01*
X166668Y121092D01*
X166577Y121052D01*
X166487Y121008D01*
X166399Y120961D01*
X166313Y120911D01*
X166229Y120857D01*
X166147Y120800D01*
X166068Y120740D01*
X165990Y120676D01*
X165916Y120610D01*
X165844Y120541D01*
X165775Y120469D01*
X165709Y120395D01*
X165645Y120317D01*
X165585Y120238D01*
X165528Y120156D01*
X165474Y120072D01*
X165424Y119986D01*
X165377Y119898D01*
X165333Y119808D01*
X165293Y119717D01*
X165257Y119624D01*
X165224Y119530D01*
X165195Y119434D01*
X165170Y119338D01*
X165149Y119241D01*
X165131Y119142D01*
X165118Y119044D01*
X165108Y118944D01*
X165102Y118845D01*
X165100Y118745D01*
X165100Y103505D02*
X165102Y103405D01*
X165108Y103306D01*
X165118Y103206D01*
X165131Y103108D01*
X165149Y103009D01*
X165170Y102912D01*
X165195Y102816D01*
X165224Y102720D01*
X165257Y102626D01*
X165293Y102533D01*
X165333Y102442D01*
X165377Y102352D01*
X165424Y102264D01*
X165474Y102178D01*
X165528Y102094D01*
X165585Y102012D01*
X165645Y101933D01*
X165709Y101855D01*
X165775Y101781D01*
X165844Y101709D01*
X165916Y101640D01*
X165990Y101574D01*
X166068Y101510D01*
X166147Y101450D01*
X166229Y101393D01*
X166313Y101339D01*
X166399Y101289D01*
X166487Y101242D01*
X166577Y101198D01*
X166668Y101158D01*
X166761Y101122D01*
X166855Y101089D01*
X166951Y101060D01*
X167047Y101035D01*
X167144Y101014D01*
X167243Y100996D01*
X167341Y100983D01*
X167441Y100973D01*
X167540Y100967D01*
X167640Y100965D01*
X215900Y103505D02*
X215900Y118745D01*
X213360Y100965D02*
X209550Y100965D01*
X208280Y102235D01*
X209550Y121285D02*
X213360Y121285D01*
X209550Y121285D02*
X208280Y120015D01*
X172720Y102235D02*
X171450Y100965D01*
X172720Y102235D02*
X208280Y102235D01*
X172720Y120015D02*
X171450Y121285D01*
X172720Y120015D02*
X208280Y120015D01*
X171450Y100965D02*
X167640Y100965D01*
X167640Y121285D02*
X171450Y121285D01*
X165100Y118745D02*
X165100Y103505D01*
D14*
X163195Y111125D03*
X217805Y111125D03*
D15*
X219456Y121285D02*
X219456Y128651D01*
X221502Y128651D01*
X221591Y128649D01*
X221680Y128643D01*
X221769Y128633D01*
X221857Y128620D01*
X221945Y128603D01*
X222032Y128581D01*
X222117Y128556D01*
X222202Y128528D01*
X222285Y128495D01*
X222367Y128459D01*
X222447Y128420D01*
X222525Y128377D01*
X222601Y128331D01*
X222676Y128281D01*
X222748Y128228D01*
X222817Y128172D01*
X222884Y128113D01*
X222949Y128052D01*
X223010Y127987D01*
X223069Y127920D01*
X223125Y127851D01*
X223178Y127779D01*
X223228Y127704D01*
X223274Y127628D01*
X223317Y127550D01*
X223356Y127470D01*
X223392Y127388D01*
X223425Y127305D01*
X223453Y127220D01*
X223478Y127135D01*
X223500Y127048D01*
X223517Y126960D01*
X223530Y126872D01*
X223540Y126783D01*
X223546Y126694D01*
X223548Y126605D01*
X223546Y126516D01*
X223540Y126427D01*
X223530Y126338D01*
X223517Y126250D01*
X223500Y126162D01*
X223478Y126075D01*
X223453Y125990D01*
X223425Y125905D01*
X223392Y125822D01*
X223356Y125740D01*
X223317Y125660D01*
X223274Y125582D01*
X223228Y125506D01*
X223178Y125431D01*
X223125Y125359D01*
X223069Y125290D01*
X223010Y125223D01*
X222949Y125158D01*
X222884Y125097D01*
X222817Y125038D01*
X222748Y124982D01*
X222676Y124929D01*
X222601Y124879D01*
X222525Y124833D01*
X222447Y124790D01*
X222367Y124751D01*
X222285Y124715D01*
X222202Y124682D01*
X222117Y124654D01*
X222032Y124629D01*
X221945Y124607D01*
X221857Y124590D01*
X221769Y124577D01*
X221680Y124567D01*
X221591Y124561D01*
X221502Y124559D01*
X219456Y124559D01*
X221911Y124559D02*
X223548Y121285D01*
X226720Y127014D02*
X228766Y128651D01*
X228766Y121285D01*
X226720Y121285D02*
X230812Y121285D01*
X237144Y125377D02*
X238371Y125377D01*
X238371Y121285D01*
X235916Y121285D01*
X235838Y121287D01*
X235760Y121292D01*
X235683Y121302D01*
X235606Y121315D01*
X235530Y121331D01*
X235455Y121351D01*
X235381Y121375D01*
X235308Y121402D01*
X235236Y121433D01*
X235166Y121467D01*
X235098Y121504D01*
X235031Y121545D01*
X234966Y121589D01*
X234904Y121635D01*
X234844Y121685D01*
X234786Y121737D01*
X234731Y121792D01*
X234679Y121850D01*
X234629Y121910D01*
X234583Y121972D01*
X234539Y122037D01*
X234498Y122104D01*
X234461Y122172D01*
X234427Y122242D01*
X234396Y122314D01*
X234369Y122387D01*
X234345Y122461D01*
X234325Y122536D01*
X234309Y122612D01*
X234296Y122689D01*
X234286Y122766D01*
X234281Y122844D01*
X234279Y122922D01*
X234279Y127014D01*
X234281Y127094D01*
X234287Y127174D01*
X234297Y127254D01*
X234310Y127333D01*
X234328Y127412D01*
X234349Y127489D01*
X234375Y127565D01*
X234404Y127640D01*
X234436Y127714D01*
X234472Y127786D01*
X234512Y127856D01*
X234555Y127923D01*
X234601Y127989D01*
X234651Y128052D01*
X234703Y128113D01*
X234758Y128172D01*
X234817Y128227D01*
X234877Y128279D01*
X234941Y128329D01*
X235007Y128375D01*
X235074Y128418D01*
X235144Y128458D01*
X235216Y128494D01*
X235290Y128526D01*
X235364Y128555D01*
X235441Y128581D01*
X235518Y128602D01*
X235597Y128620D01*
X235676Y128633D01*
X235756Y128643D01*
X235836Y128649D01*
X235916Y128651D01*
X238371Y128651D01*
D12*
X85725Y327025D02*
X66675Y327025D01*
X85725Y327025D02*
X85727Y326867D01*
X85733Y326708D01*
X85743Y326550D01*
X85757Y326393D01*
X85774Y326235D01*
X85796Y326079D01*
X85821Y325922D01*
X85851Y325767D01*
X85884Y325612D01*
X85921Y325458D01*
X85962Y325305D01*
X86007Y325153D01*
X86056Y325003D01*
X86108Y324853D01*
X86164Y324705D01*
X86224Y324558D01*
X86287Y324413D01*
X86354Y324270D01*
X86424Y324128D01*
X86498Y323988D01*
X86576Y323850D01*
X86657Y323714D01*
X86741Y323580D01*
X86828Y323448D01*
X86919Y323318D01*
X87013Y323191D01*
X87110Y323066D01*
X87211Y322943D01*
X87314Y322823D01*
X87420Y322706D01*
X87529Y322591D01*
X87641Y322479D01*
X87756Y322370D01*
X87873Y322264D01*
X87993Y322161D01*
X88116Y322060D01*
X88241Y321963D01*
X88368Y321869D01*
X88498Y321778D01*
X88630Y321691D01*
X88764Y321607D01*
X88900Y321526D01*
X89038Y321448D01*
X89178Y321374D01*
X89320Y321304D01*
X89463Y321237D01*
X89608Y321174D01*
X89755Y321114D01*
X89903Y321058D01*
X90053Y321006D01*
X90203Y320957D01*
X90355Y320912D01*
X90508Y320871D01*
X90662Y320834D01*
X90817Y320801D01*
X90972Y320771D01*
X91129Y320746D01*
X91285Y320724D01*
X91443Y320707D01*
X91600Y320693D01*
X91758Y320683D01*
X91917Y320677D01*
X92075Y320675D01*
X92233Y320677D01*
X92392Y320683D01*
X92550Y320693D01*
X92707Y320707D01*
X92865Y320724D01*
X93021Y320746D01*
X93178Y320771D01*
X93333Y320801D01*
X93488Y320834D01*
X93642Y320871D01*
X93795Y320912D01*
X93947Y320957D01*
X94097Y321006D01*
X94247Y321058D01*
X94395Y321114D01*
X94542Y321174D01*
X94687Y321237D01*
X94830Y321304D01*
X94972Y321374D01*
X95112Y321448D01*
X95250Y321526D01*
X95386Y321607D01*
X95520Y321691D01*
X95652Y321778D01*
X95782Y321869D01*
X95909Y321963D01*
X96034Y322060D01*
X96157Y322161D01*
X96277Y322264D01*
X96394Y322370D01*
X96509Y322479D01*
X96621Y322591D01*
X96730Y322706D01*
X96836Y322823D01*
X96939Y322943D01*
X97040Y323066D01*
X97137Y323191D01*
X97231Y323318D01*
X97322Y323448D01*
X97409Y323580D01*
X97493Y323714D01*
X97574Y323850D01*
X97652Y323988D01*
X97726Y324128D01*
X97796Y324270D01*
X97863Y324413D01*
X97926Y324558D01*
X97986Y324705D01*
X98042Y324853D01*
X98094Y325003D01*
X98143Y325153D01*
X98188Y325305D01*
X98229Y325458D01*
X98266Y325612D01*
X98299Y325767D01*
X98329Y325922D01*
X98354Y326079D01*
X98376Y326235D01*
X98393Y326393D01*
X98407Y326550D01*
X98417Y326708D01*
X98423Y326867D01*
X98425Y327025D01*
X66675Y327025D02*
X66675Y98425D01*
X117475Y98425D01*
X117475Y327025D01*
X98425Y327025D01*
X638175Y328295D02*
X638177Y328395D01*
X638183Y328494D01*
X638193Y328594D01*
X638206Y328692D01*
X638224Y328791D01*
X638245Y328888D01*
X638270Y328984D01*
X638299Y329080D01*
X638332Y329174D01*
X638368Y329267D01*
X638408Y329358D01*
X638452Y329448D01*
X638499Y329536D01*
X638549Y329622D01*
X638603Y329706D01*
X638660Y329788D01*
X638720Y329867D01*
X638784Y329945D01*
X638850Y330019D01*
X638919Y330091D01*
X638991Y330160D01*
X639065Y330226D01*
X639143Y330290D01*
X639222Y330350D01*
X639304Y330407D01*
X639388Y330461D01*
X639474Y330511D01*
X639562Y330558D01*
X639652Y330602D01*
X639743Y330642D01*
X639836Y330678D01*
X639930Y330711D01*
X640026Y330740D01*
X640122Y330765D01*
X640219Y330786D01*
X640318Y330804D01*
X640416Y330817D01*
X640516Y330827D01*
X640615Y330833D01*
X640715Y330835D01*
X638175Y313055D02*
X638177Y312955D01*
X638183Y312856D01*
X638193Y312756D01*
X638206Y312658D01*
X638224Y312559D01*
X638245Y312462D01*
X638270Y312366D01*
X638299Y312270D01*
X638332Y312176D01*
X638368Y312083D01*
X638408Y311992D01*
X638452Y311902D01*
X638499Y311814D01*
X638549Y311728D01*
X638603Y311644D01*
X638660Y311562D01*
X638720Y311483D01*
X638784Y311405D01*
X638850Y311331D01*
X638919Y311259D01*
X638991Y311190D01*
X639065Y311124D01*
X639143Y311060D01*
X639222Y311000D01*
X639304Y310943D01*
X639388Y310889D01*
X639474Y310839D01*
X639562Y310792D01*
X639652Y310748D01*
X639743Y310708D01*
X639836Y310672D01*
X639930Y310639D01*
X640026Y310610D01*
X640122Y310585D01*
X640219Y310564D01*
X640318Y310546D01*
X640416Y310533D01*
X640516Y310523D01*
X640615Y310517D01*
X640715Y310515D01*
X686435Y310515D02*
X686535Y310517D01*
X686634Y310523D01*
X686734Y310533D01*
X686832Y310546D01*
X686931Y310564D01*
X687028Y310585D01*
X687124Y310610D01*
X687220Y310639D01*
X687314Y310672D01*
X687407Y310708D01*
X687498Y310748D01*
X687588Y310792D01*
X687676Y310839D01*
X687762Y310889D01*
X687846Y310943D01*
X687928Y311000D01*
X688007Y311060D01*
X688085Y311124D01*
X688159Y311190D01*
X688231Y311259D01*
X688300Y311331D01*
X688366Y311405D01*
X688430Y311483D01*
X688490Y311562D01*
X688547Y311644D01*
X688601Y311728D01*
X688651Y311814D01*
X688698Y311902D01*
X688742Y311992D01*
X688782Y312083D01*
X688818Y312176D01*
X688851Y312270D01*
X688880Y312366D01*
X688905Y312462D01*
X688926Y312559D01*
X688944Y312658D01*
X688957Y312756D01*
X688967Y312856D01*
X688973Y312955D01*
X688975Y313055D01*
X688975Y328295D02*
X688973Y328395D01*
X688967Y328494D01*
X688957Y328594D01*
X688944Y328692D01*
X688926Y328791D01*
X688905Y328888D01*
X688880Y328984D01*
X688851Y329080D01*
X688818Y329174D01*
X688782Y329267D01*
X688742Y329358D01*
X688698Y329448D01*
X688651Y329536D01*
X688601Y329622D01*
X688547Y329706D01*
X688490Y329788D01*
X688430Y329867D01*
X688366Y329945D01*
X688300Y330019D01*
X688231Y330091D01*
X688159Y330160D01*
X688085Y330226D01*
X688007Y330290D01*
X687928Y330350D01*
X687846Y330407D01*
X687762Y330461D01*
X687676Y330511D01*
X687588Y330558D01*
X687498Y330602D01*
X687407Y330642D01*
X687314Y330678D01*
X687220Y330711D01*
X687124Y330740D01*
X687028Y330765D01*
X686931Y330786D01*
X686832Y330804D01*
X686734Y330817D01*
X686634Y330827D01*
X686535Y330833D01*
X686435Y330835D01*
X638175Y328295D02*
X638175Y313055D01*
X640715Y330835D02*
X644525Y330835D01*
X645795Y329565D01*
X644525Y310515D02*
X640715Y310515D01*
X644525Y310515D02*
X645795Y311785D01*
X681355Y329565D02*
X682625Y330835D01*
X681355Y329565D02*
X645795Y329565D01*
X681355Y311785D02*
X682625Y310515D01*
X681355Y311785D02*
X645795Y311785D01*
X682625Y330835D02*
X686435Y330835D01*
X686435Y310515D02*
X682625Y310515D01*
X688975Y313055D02*
X688975Y328295D01*
D14*
X690880Y320675D03*
X636270Y320675D03*
D15*
X618713Y313690D02*
X618713Y306324D01*
X618713Y313690D02*
X620759Y313690D01*
X620848Y313688D01*
X620937Y313682D01*
X621026Y313672D01*
X621114Y313659D01*
X621202Y313642D01*
X621289Y313620D01*
X621374Y313595D01*
X621459Y313567D01*
X621542Y313534D01*
X621624Y313498D01*
X621704Y313459D01*
X621782Y313416D01*
X621858Y313370D01*
X621933Y313320D01*
X622005Y313267D01*
X622074Y313211D01*
X622141Y313152D01*
X622206Y313091D01*
X622267Y313026D01*
X622326Y312959D01*
X622382Y312890D01*
X622435Y312818D01*
X622485Y312743D01*
X622531Y312667D01*
X622574Y312589D01*
X622613Y312509D01*
X622649Y312427D01*
X622682Y312344D01*
X622710Y312259D01*
X622735Y312174D01*
X622757Y312087D01*
X622774Y311999D01*
X622787Y311911D01*
X622797Y311822D01*
X622803Y311733D01*
X622805Y311644D01*
X622803Y311555D01*
X622797Y311466D01*
X622787Y311377D01*
X622774Y311289D01*
X622757Y311201D01*
X622735Y311114D01*
X622710Y311029D01*
X622682Y310944D01*
X622649Y310861D01*
X622613Y310779D01*
X622574Y310699D01*
X622531Y310621D01*
X622485Y310545D01*
X622435Y310470D01*
X622382Y310398D01*
X622326Y310329D01*
X622267Y310262D01*
X622206Y310197D01*
X622141Y310136D01*
X622074Y310077D01*
X622005Y310021D01*
X621933Y309968D01*
X621858Y309918D01*
X621782Y309872D01*
X621704Y309829D01*
X621624Y309790D01*
X621542Y309754D01*
X621459Y309721D01*
X621374Y309693D01*
X621289Y309668D01*
X621202Y309646D01*
X621114Y309629D01*
X621026Y309616D01*
X620937Y309606D01*
X620848Y309600D01*
X620759Y309598D01*
X618713Y309598D01*
X621169Y309598D02*
X622806Y306324D01*
X630070Y311849D02*
X630068Y311934D01*
X630062Y312019D01*
X630052Y312103D01*
X630039Y312187D01*
X630021Y312271D01*
X630000Y312353D01*
X629975Y312434D01*
X629946Y312514D01*
X629913Y312593D01*
X629877Y312670D01*
X629837Y312745D01*
X629794Y312819D01*
X629748Y312890D01*
X629698Y312959D01*
X629645Y313026D01*
X629589Y313090D01*
X629530Y313151D01*
X629469Y313210D01*
X629405Y313266D01*
X629338Y313319D01*
X629269Y313369D01*
X629198Y313415D01*
X629124Y313458D01*
X629049Y313498D01*
X628972Y313534D01*
X628893Y313567D01*
X628813Y313596D01*
X628732Y313621D01*
X628650Y313642D01*
X628566Y313660D01*
X628482Y313673D01*
X628398Y313683D01*
X628313Y313689D01*
X628228Y313691D01*
X628228Y313690D02*
X628132Y313688D01*
X628036Y313682D01*
X627941Y313672D01*
X627846Y313659D01*
X627751Y313641D01*
X627658Y313620D01*
X627565Y313595D01*
X627474Y313566D01*
X627383Y313534D01*
X627294Y313498D01*
X627207Y313458D01*
X627121Y313415D01*
X627037Y313369D01*
X626955Y313319D01*
X626875Y313265D01*
X626798Y313209D01*
X626723Y313149D01*
X626650Y313087D01*
X626580Y313021D01*
X626512Y312953D01*
X626447Y312882D01*
X626386Y312809D01*
X626327Y312733D01*
X626271Y312654D01*
X626219Y312574D01*
X626170Y312491D01*
X626124Y312407D01*
X626082Y312321D01*
X626044Y312233D01*
X626009Y312144D01*
X625977Y312053D01*
X629456Y310417D02*
X629516Y310476D01*
X629573Y310538D01*
X629628Y310602D01*
X629679Y310669D01*
X629728Y310738D01*
X629774Y310808D01*
X629817Y310881D01*
X629857Y310955D01*
X629893Y311031D01*
X629926Y311109D01*
X629956Y311188D01*
X629983Y311268D01*
X630006Y311349D01*
X630025Y311431D01*
X630041Y311513D01*
X630054Y311597D01*
X630063Y311681D01*
X630068Y311765D01*
X630070Y311849D01*
X629456Y310416D02*
X625977Y306324D01*
X630070Y306324D01*
X632883Y306324D02*
X635339Y313690D01*
X637794Y306324D01*
X637180Y308166D02*
X633497Y308166D01*
D12*
X638175Y353695D02*
X638177Y353795D01*
X638183Y353894D01*
X638193Y353994D01*
X638206Y354092D01*
X638224Y354191D01*
X638245Y354288D01*
X638270Y354384D01*
X638299Y354480D01*
X638332Y354574D01*
X638368Y354667D01*
X638408Y354758D01*
X638452Y354848D01*
X638499Y354936D01*
X638549Y355022D01*
X638603Y355106D01*
X638660Y355188D01*
X638720Y355267D01*
X638784Y355345D01*
X638850Y355419D01*
X638919Y355491D01*
X638991Y355560D01*
X639065Y355626D01*
X639143Y355690D01*
X639222Y355750D01*
X639304Y355807D01*
X639388Y355861D01*
X639474Y355911D01*
X639562Y355958D01*
X639652Y356002D01*
X639743Y356042D01*
X639836Y356078D01*
X639930Y356111D01*
X640026Y356140D01*
X640122Y356165D01*
X640219Y356186D01*
X640318Y356204D01*
X640416Y356217D01*
X640516Y356227D01*
X640615Y356233D01*
X640715Y356235D01*
X638175Y338455D02*
X638177Y338355D01*
X638183Y338256D01*
X638193Y338156D01*
X638206Y338058D01*
X638224Y337959D01*
X638245Y337862D01*
X638270Y337766D01*
X638299Y337670D01*
X638332Y337576D01*
X638368Y337483D01*
X638408Y337392D01*
X638452Y337302D01*
X638499Y337214D01*
X638549Y337128D01*
X638603Y337044D01*
X638660Y336962D01*
X638720Y336883D01*
X638784Y336805D01*
X638850Y336731D01*
X638919Y336659D01*
X638991Y336590D01*
X639065Y336524D01*
X639143Y336460D01*
X639222Y336400D01*
X639304Y336343D01*
X639388Y336289D01*
X639474Y336239D01*
X639562Y336192D01*
X639652Y336148D01*
X639743Y336108D01*
X639836Y336072D01*
X639930Y336039D01*
X640026Y336010D01*
X640122Y335985D01*
X640219Y335964D01*
X640318Y335946D01*
X640416Y335933D01*
X640516Y335923D01*
X640615Y335917D01*
X640715Y335915D01*
X686435Y335915D02*
X686535Y335917D01*
X686634Y335923D01*
X686734Y335933D01*
X686832Y335946D01*
X686931Y335964D01*
X687028Y335985D01*
X687124Y336010D01*
X687220Y336039D01*
X687314Y336072D01*
X687407Y336108D01*
X687498Y336148D01*
X687588Y336192D01*
X687676Y336239D01*
X687762Y336289D01*
X687846Y336343D01*
X687928Y336400D01*
X688007Y336460D01*
X688085Y336524D01*
X688159Y336590D01*
X688231Y336659D01*
X688300Y336731D01*
X688366Y336805D01*
X688430Y336883D01*
X688490Y336962D01*
X688547Y337044D01*
X688601Y337128D01*
X688651Y337214D01*
X688698Y337302D01*
X688742Y337392D01*
X688782Y337483D01*
X688818Y337576D01*
X688851Y337670D01*
X688880Y337766D01*
X688905Y337862D01*
X688926Y337959D01*
X688944Y338058D01*
X688957Y338156D01*
X688967Y338256D01*
X688973Y338355D01*
X688975Y338455D01*
X688975Y353695D02*
X688973Y353795D01*
X688967Y353894D01*
X688957Y353994D01*
X688944Y354092D01*
X688926Y354191D01*
X688905Y354288D01*
X688880Y354384D01*
X688851Y354480D01*
X688818Y354574D01*
X688782Y354667D01*
X688742Y354758D01*
X688698Y354848D01*
X688651Y354936D01*
X688601Y355022D01*
X688547Y355106D01*
X688490Y355188D01*
X688430Y355267D01*
X688366Y355345D01*
X688300Y355419D01*
X688231Y355491D01*
X688159Y355560D01*
X688085Y355626D01*
X688007Y355690D01*
X687928Y355750D01*
X687846Y355807D01*
X687762Y355861D01*
X687676Y355911D01*
X687588Y355958D01*
X687498Y356002D01*
X687407Y356042D01*
X687314Y356078D01*
X687220Y356111D01*
X687124Y356140D01*
X687028Y356165D01*
X686931Y356186D01*
X686832Y356204D01*
X686734Y356217D01*
X686634Y356227D01*
X686535Y356233D01*
X686435Y356235D01*
X638175Y353695D02*
X638175Y338455D01*
X640715Y356235D02*
X644525Y356235D01*
X645795Y354965D01*
X644525Y335915D02*
X640715Y335915D01*
X644525Y335915D02*
X645795Y337185D01*
X681355Y354965D02*
X682625Y356235D01*
X681355Y354965D02*
X645795Y354965D01*
X681355Y337185D02*
X682625Y335915D01*
X681355Y337185D02*
X645795Y337185D01*
X682625Y356235D02*
X686435Y356235D01*
X686435Y335915D02*
X682625Y335915D01*
X688975Y338455D02*
X688975Y353695D01*
D14*
X690880Y346075D03*
X636270Y346075D03*
D15*
X618761Y335915D02*
X618761Y328549D01*
X618761Y335915D02*
X620807Y335915D01*
X620896Y335913D01*
X620985Y335907D01*
X621074Y335897D01*
X621162Y335884D01*
X621250Y335867D01*
X621337Y335845D01*
X621422Y335820D01*
X621507Y335792D01*
X621590Y335759D01*
X621672Y335723D01*
X621752Y335684D01*
X621830Y335641D01*
X621906Y335595D01*
X621981Y335545D01*
X622053Y335492D01*
X622122Y335436D01*
X622189Y335377D01*
X622254Y335316D01*
X622315Y335251D01*
X622374Y335184D01*
X622430Y335115D01*
X622483Y335043D01*
X622533Y334968D01*
X622579Y334892D01*
X622622Y334814D01*
X622661Y334734D01*
X622697Y334652D01*
X622730Y334569D01*
X622758Y334484D01*
X622783Y334399D01*
X622805Y334312D01*
X622822Y334224D01*
X622835Y334136D01*
X622845Y334047D01*
X622851Y333958D01*
X622853Y333869D01*
X622851Y333780D01*
X622845Y333691D01*
X622835Y333602D01*
X622822Y333514D01*
X622805Y333426D01*
X622783Y333339D01*
X622758Y333254D01*
X622730Y333169D01*
X622697Y333086D01*
X622661Y333004D01*
X622622Y332924D01*
X622579Y332846D01*
X622533Y332770D01*
X622483Y332695D01*
X622430Y332623D01*
X622374Y332554D01*
X622315Y332487D01*
X622254Y332422D01*
X622189Y332361D01*
X622122Y332302D01*
X622053Y332246D01*
X621981Y332193D01*
X621906Y332143D01*
X621830Y332097D01*
X621752Y332054D01*
X621672Y332015D01*
X621590Y331979D01*
X621507Y331946D01*
X621422Y331918D01*
X621337Y331893D01*
X621250Y331871D01*
X621162Y331854D01*
X621074Y331841D01*
X620985Y331831D01*
X620896Y331825D01*
X620807Y331823D01*
X618761Y331823D01*
X621216Y331823D02*
X622853Y328549D01*
X630118Y334074D02*
X630116Y334159D01*
X630110Y334244D01*
X630100Y334328D01*
X630087Y334412D01*
X630069Y334496D01*
X630048Y334578D01*
X630023Y334659D01*
X629994Y334739D01*
X629961Y334818D01*
X629925Y334895D01*
X629885Y334970D01*
X629842Y335044D01*
X629796Y335115D01*
X629746Y335184D01*
X629693Y335251D01*
X629637Y335315D01*
X629578Y335376D01*
X629517Y335435D01*
X629453Y335491D01*
X629386Y335544D01*
X629317Y335594D01*
X629246Y335640D01*
X629172Y335683D01*
X629097Y335723D01*
X629020Y335759D01*
X628941Y335792D01*
X628861Y335821D01*
X628780Y335846D01*
X628698Y335867D01*
X628614Y335885D01*
X628530Y335898D01*
X628446Y335908D01*
X628361Y335914D01*
X628276Y335916D01*
X628276Y335915D02*
X628180Y335913D01*
X628084Y335907D01*
X627989Y335897D01*
X627894Y335884D01*
X627799Y335866D01*
X627706Y335845D01*
X627613Y335820D01*
X627522Y335791D01*
X627431Y335759D01*
X627342Y335723D01*
X627255Y335683D01*
X627169Y335640D01*
X627085Y335594D01*
X627003Y335544D01*
X626923Y335490D01*
X626846Y335434D01*
X626771Y335374D01*
X626698Y335312D01*
X626628Y335246D01*
X626560Y335178D01*
X626495Y335107D01*
X626434Y335034D01*
X626375Y334958D01*
X626319Y334879D01*
X626267Y334799D01*
X626218Y334716D01*
X626172Y334632D01*
X626130Y334546D01*
X626092Y334458D01*
X626057Y334369D01*
X626025Y334278D01*
X629503Y332642D02*
X629563Y332701D01*
X629620Y332763D01*
X629675Y332827D01*
X629726Y332894D01*
X629775Y332963D01*
X629821Y333033D01*
X629864Y333106D01*
X629904Y333180D01*
X629940Y333256D01*
X629973Y333334D01*
X630003Y333413D01*
X630030Y333493D01*
X630053Y333574D01*
X630072Y333656D01*
X630088Y333738D01*
X630101Y333822D01*
X630110Y333906D01*
X630115Y333990D01*
X630117Y334074D01*
X629503Y332641D02*
X626025Y328549D01*
X630117Y328549D01*
X633702Y332641D02*
X635748Y332641D01*
X635837Y332639D01*
X635926Y332633D01*
X636015Y332623D01*
X636103Y332610D01*
X636191Y332593D01*
X636278Y332571D01*
X636363Y332546D01*
X636448Y332518D01*
X636531Y332485D01*
X636613Y332449D01*
X636693Y332410D01*
X636771Y332367D01*
X636847Y332321D01*
X636922Y332271D01*
X636994Y332218D01*
X637063Y332162D01*
X637130Y332103D01*
X637195Y332042D01*
X637256Y331977D01*
X637315Y331910D01*
X637371Y331841D01*
X637424Y331769D01*
X637474Y331694D01*
X637520Y331618D01*
X637563Y331540D01*
X637602Y331460D01*
X637638Y331378D01*
X637671Y331295D01*
X637699Y331210D01*
X637724Y331125D01*
X637746Y331038D01*
X637763Y330950D01*
X637776Y330862D01*
X637786Y330773D01*
X637792Y330684D01*
X637794Y330595D01*
X637792Y330506D01*
X637786Y330417D01*
X637776Y330328D01*
X637763Y330240D01*
X637746Y330152D01*
X637724Y330065D01*
X637699Y329980D01*
X637671Y329895D01*
X637638Y329812D01*
X637602Y329730D01*
X637563Y329650D01*
X637520Y329572D01*
X637474Y329496D01*
X637424Y329421D01*
X637371Y329349D01*
X637315Y329280D01*
X637256Y329213D01*
X637195Y329148D01*
X637130Y329087D01*
X637063Y329028D01*
X636994Y328972D01*
X636922Y328919D01*
X636847Y328869D01*
X636771Y328823D01*
X636693Y328780D01*
X636613Y328741D01*
X636531Y328705D01*
X636448Y328672D01*
X636363Y328644D01*
X636278Y328619D01*
X636191Y328597D01*
X636103Y328580D01*
X636015Y328567D01*
X635926Y328557D01*
X635837Y328551D01*
X635748Y328549D01*
X633702Y328549D01*
X633702Y335915D01*
X635748Y335915D01*
X635827Y335913D01*
X635906Y335907D01*
X635985Y335898D01*
X636063Y335885D01*
X636140Y335867D01*
X636216Y335847D01*
X636291Y335822D01*
X636365Y335794D01*
X636438Y335763D01*
X636509Y335727D01*
X636578Y335689D01*
X636645Y335647D01*
X636710Y335602D01*
X636773Y335554D01*
X636834Y335503D01*
X636891Y335449D01*
X636947Y335393D01*
X636999Y335334D01*
X637049Y335272D01*
X637095Y335208D01*
X637139Y335142D01*
X637179Y335074D01*
X637215Y335004D01*
X637249Y334932D01*
X637279Y334858D01*
X637305Y334784D01*
X637328Y334708D01*
X637346Y334631D01*
X637362Y334554D01*
X637373Y334475D01*
X637381Y334397D01*
X637385Y334318D01*
X637385Y334238D01*
X637381Y334159D01*
X637373Y334081D01*
X637362Y334002D01*
X637346Y333925D01*
X637328Y333848D01*
X637305Y333772D01*
X637279Y333698D01*
X637249Y333624D01*
X637215Y333552D01*
X637179Y333482D01*
X637139Y333414D01*
X637095Y333348D01*
X637049Y333284D01*
X636999Y333222D01*
X636947Y333163D01*
X636891Y333107D01*
X636834Y333053D01*
X636773Y333002D01*
X636710Y332954D01*
X636645Y332909D01*
X636578Y332867D01*
X636509Y332829D01*
X636438Y332793D01*
X636365Y332762D01*
X636291Y332734D01*
X636216Y332709D01*
X636140Y332689D01*
X636063Y332671D01*
X635985Y332658D01*
X635906Y332649D01*
X635827Y332643D01*
X635748Y332641D01*
D12*
X640715Y203835D02*
X640615Y203833D01*
X640516Y203827D01*
X640416Y203817D01*
X640318Y203804D01*
X640219Y203786D01*
X640122Y203765D01*
X640026Y203740D01*
X639930Y203711D01*
X639836Y203678D01*
X639743Y203642D01*
X639652Y203602D01*
X639562Y203558D01*
X639474Y203511D01*
X639388Y203461D01*
X639304Y203407D01*
X639222Y203350D01*
X639143Y203290D01*
X639065Y203226D01*
X638991Y203160D01*
X638919Y203091D01*
X638850Y203019D01*
X638784Y202945D01*
X638720Y202867D01*
X638660Y202788D01*
X638603Y202706D01*
X638549Y202622D01*
X638499Y202536D01*
X638452Y202448D01*
X638408Y202358D01*
X638368Y202267D01*
X638332Y202174D01*
X638299Y202080D01*
X638270Y201984D01*
X638245Y201888D01*
X638224Y201791D01*
X638206Y201692D01*
X638193Y201594D01*
X638183Y201494D01*
X638177Y201395D01*
X638175Y201295D01*
X638175Y186055D02*
X638177Y185955D01*
X638183Y185856D01*
X638193Y185756D01*
X638206Y185658D01*
X638224Y185559D01*
X638245Y185462D01*
X638270Y185366D01*
X638299Y185270D01*
X638332Y185176D01*
X638368Y185083D01*
X638408Y184992D01*
X638452Y184902D01*
X638499Y184814D01*
X638549Y184728D01*
X638603Y184644D01*
X638660Y184562D01*
X638720Y184483D01*
X638784Y184405D01*
X638850Y184331D01*
X638919Y184259D01*
X638991Y184190D01*
X639065Y184124D01*
X639143Y184060D01*
X639222Y184000D01*
X639304Y183943D01*
X639388Y183889D01*
X639474Y183839D01*
X639562Y183792D01*
X639652Y183748D01*
X639743Y183708D01*
X639836Y183672D01*
X639930Y183639D01*
X640026Y183610D01*
X640122Y183585D01*
X640219Y183564D01*
X640318Y183546D01*
X640416Y183533D01*
X640516Y183523D01*
X640615Y183517D01*
X640715Y183515D01*
X686435Y183515D02*
X686535Y183517D01*
X686634Y183523D01*
X686734Y183533D01*
X686832Y183546D01*
X686931Y183564D01*
X687028Y183585D01*
X687124Y183610D01*
X687220Y183639D01*
X687314Y183672D01*
X687407Y183708D01*
X687498Y183748D01*
X687588Y183792D01*
X687676Y183839D01*
X687762Y183889D01*
X687846Y183943D01*
X687928Y184000D01*
X688007Y184060D01*
X688085Y184124D01*
X688159Y184190D01*
X688231Y184259D01*
X688300Y184331D01*
X688366Y184405D01*
X688430Y184483D01*
X688490Y184562D01*
X688547Y184644D01*
X688601Y184728D01*
X688651Y184814D01*
X688698Y184902D01*
X688742Y184992D01*
X688782Y185083D01*
X688818Y185176D01*
X688851Y185270D01*
X688880Y185366D01*
X688905Y185462D01*
X688926Y185559D01*
X688944Y185658D01*
X688957Y185756D01*
X688967Y185856D01*
X688973Y185955D01*
X688975Y186055D01*
X688975Y201295D02*
X688973Y201395D01*
X688967Y201494D01*
X688957Y201594D01*
X688944Y201692D01*
X688926Y201791D01*
X688905Y201888D01*
X688880Y201984D01*
X688851Y202080D01*
X688818Y202174D01*
X688782Y202267D01*
X688742Y202358D01*
X688698Y202448D01*
X688651Y202536D01*
X688601Y202622D01*
X688547Y202706D01*
X688490Y202788D01*
X688430Y202867D01*
X688366Y202945D01*
X688300Y203019D01*
X688231Y203091D01*
X688159Y203160D01*
X688085Y203226D01*
X688007Y203290D01*
X687928Y203350D01*
X687846Y203407D01*
X687762Y203461D01*
X687676Y203511D01*
X687588Y203558D01*
X687498Y203602D01*
X687407Y203642D01*
X687314Y203678D01*
X687220Y203711D01*
X687124Y203740D01*
X687028Y203765D01*
X686931Y203786D01*
X686832Y203804D01*
X686734Y203817D01*
X686634Y203827D01*
X686535Y203833D01*
X686435Y203835D01*
X638175Y201295D02*
X638175Y186055D01*
X640715Y203835D02*
X644525Y203835D01*
X645795Y202565D01*
X644525Y183515D02*
X640715Y183515D01*
X644525Y183515D02*
X645795Y184785D01*
X681355Y202565D02*
X682625Y203835D01*
X681355Y202565D02*
X645795Y202565D01*
X681355Y184785D02*
X682625Y183515D01*
X681355Y184785D02*
X645795Y184785D01*
X682625Y203835D02*
X686435Y203835D01*
X686435Y183515D02*
X682625Y183515D01*
X688975Y186055D02*
X688975Y201295D01*
D14*
X690880Y193675D03*
X636270Y193675D03*
D15*
X619964Y183515D02*
X619964Y176149D01*
X619964Y183515D02*
X622010Y183515D01*
X622099Y183513D01*
X622188Y183507D01*
X622277Y183497D01*
X622365Y183484D01*
X622453Y183467D01*
X622540Y183445D01*
X622625Y183420D01*
X622710Y183392D01*
X622793Y183359D01*
X622875Y183323D01*
X622955Y183284D01*
X623033Y183241D01*
X623109Y183195D01*
X623184Y183145D01*
X623256Y183092D01*
X623325Y183036D01*
X623392Y182977D01*
X623457Y182916D01*
X623518Y182851D01*
X623577Y182784D01*
X623633Y182715D01*
X623686Y182643D01*
X623736Y182568D01*
X623782Y182492D01*
X623825Y182414D01*
X623864Y182334D01*
X623900Y182252D01*
X623933Y182169D01*
X623961Y182084D01*
X623986Y181999D01*
X624008Y181912D01*
X624025Y181824D01*
X624038Y181736D01*
X624048Y181647D01*
X624054Y181558D01*
X624056Y181469D01*
X624054Y181380D01*
X624048Y181291D01*
X624038Y181202D01*
X624025Y181114D01*
X624008Y181026D01*
X623986Y180939D01*
X623961Y180854D01*
X623933Y180769D01*
X623900Y180686D01*
X623864Y180604D01*
X623825Y180524D01*
X623782Y180446D01*
X623736Y180370D01*
X623686Y180295D01*
X623633Y180223D01*
X623577Y180154D01*
X623518Y180087D01*
X623457Y180022D01*
X623392Y179961D01*
X623325Y179902D01*
X623256Y179846D01*
X623184Y179793D01*
X623109Y179743D01*
X623033Y179697D01*
X622955Y179654D01*
X622875Y179615D01*
X622793Y179579D01*
X622710Y179546D01*
X622625Y179518D01*
X622540Y179493D01*
X622453Y179471D01*
X622365Y179454D01*
X622277Y179441D01*
X622188Y179431D01*
X622099Y179425D01*
X622010Y179423D01*
X619964Y179423D01*
X622419Y179423D02*
X624056Y176149D01*
X631321Y181674D02*
X631319Y181759D01*
X631313Y181844D01*
X631303Y181928D01*
X631290Y182012D01*
X631272Y182096D01*
X631251Y182178D01*
X631226Y182259D01*
X631197Y182339D01*
X631164Y182418D01*
X631128Y182495D01*
X631088Y182570D01*
X631045Y182644D01*
X630999Y182715D01*
X630949Y182784D01*
X630896Y182851D01*
X630840Y182915D01*
X630781Y182976D01*
X630720Y183035D01*
X630656Y183091D01*
X630589Y183144D01*
X630520Y183194D01*
X630449Y183240D01*
X630375Y183283D01*
X630300Y183323D01*
X630223Y183359D01*
X630144Y183392D01*
X630064Y183421D01*
X629983Y183446D01*
X629901Y183467D01*
X629817Y183485D01*
X629733Y183498D01*
X629649Y183508D01*
X629564Y183514D01*
X629479Y183516D01*
X629479Y183515D02*
X629383Y183513D01*
X629287Y183507D01*
X629192Y183497D01*
X629097Y183484D01*
X629002Y183466D01*
X628909Y183445D01*
X628816Y183420D01*
X628725Y183391D01*
X628634Y183359D01*
X628545Y183323D01*
X628458Y183283D01*
X628372Y183240D01*
X628288Y183194D01*
X628206Y183144D01*
X628126Y183090D01*
X628049Y183034D01*
X627974Y182974D01*
X627901Y182912D01*
X627831Y182846D01*
X627763Y182778D01*
X627698Y182707D01*
X627637Y182634D01*
X627578Y182558D01*
X627522Y182479D01*
X627470Y182399D01*
X627421Y182316D01*
X627375Y182232D01*
X627333Y182146D01*
X627295Y182058D01*
X627260Y181969D01*
X627228Y181878D01*
X630706Y180242D02*
X630766Y180301D01*
X630823Y180363D01*
X630878Y180427D01*
X630929Y180494D01*
X630978Y180563D01*
X631024Y180633D01*
X631067Y180706D01*
X631107Y180780D01*
X631143Y180856D01*
X631176Y180934D01*
X631206Y181013D01*
X631233Y181093D01*
X631256Y181174D01*
X631275Y181256D01*
X631291Y181338D01*
X631304Y181422D01*
X631313Y181506D01*
X631318Y181590D01*
X631320Y181674D01*
X630707Y180241D02*
X627228Y176149D01*
X631320Y176149D01*
X636157Y176149D02*
X637794Y176149D01*
X636157Y176149D02*
X636079Y176151D01*
X636001Y176156D01*
X635924Y176166D01*
X635847Y176179D01*
X635771Y176195D01*
X635696Y176215D01*
X635622Y176239D01*
X635549Y176266D01*
X635477Y176297D01*
X635407Y176331D01*
X635339Y176368D01*
X635272Y176409D01*
X635207Y176453D01*
X635145Y176499D01*
X635085Y176549D01*
X635027Y176601D01*
X634972Y176656D01*
X634920Y176714D01*
X634870Y176774D01*
X634824Y176836D01*
X634780Y176901D01*
X634739Y176968D01*
X634702Y177036D01*
X634668Y177106D01*
X634637Y177178D01*
X634610Y177251D01*
X634586Y177325D01*
X634566Y177400D01*
X634550Y177476D01*
X634537Y177553D01*
X634527Y177630D01*
X634522Y177708D01*
X634520Y177786D01*
X634520Y181878D01*
X634522Y181958D01*
X634528Y182038D01*
X634538Y182118D01*
X634551Y182197D01*
X634569Y182276D01*
X634590Y182353D01*
X634616Y182429D01*
X634645Y182504D01*
X634677Y182578D01*
X634713Y182650D01*
X634753Y182720D01*
X634796Y182787D01*
X634842Y182853D01*
X634892Y182916D01*
X634944Y182977D01*
X634999Y183036D01*
X635058Y183091D01*
X635118Y183143D01*
X635182Y183193D01*
X635248Y183239D01*
X635315Y183282D01*
X635385Y183322D01*
X635457Y183358D01*
X635531Y183390D01*
X635605Y183419D01*
X635682Y183445D01*
X635759Y183466D01*
X635838Y183484D01*
X635917Y183497D01*
X635997Y183507D01*
X636077Y183513D01*
X636157Y183515D01*
X637794Y183515D01*
D12*
X640715Y178435D02*
X640615Y178433D01*
X640516Y178427D01*
X640416Y178417D01*
X640318Y178404D01*
X640219Y178386D01*
X640122Y178365D01*
X640026Y178340D01*
X639930Y178311D01*
X639836Y178278D01*
X639743Y178242D01*
X639652Y178202D01*
X639562Y178158D01*
X639474Y178111D01*
X639388Y178061D01*
X639304Y178007D01*
X639222Y177950D01*
X639143Y177890D01*
X639065Y177826D01*
X638991Y177760D01*
X638919Y177691D01*
X638850Y177619D01*
X638784Y177545D01*
X638720Y177467D01*
X638660Y177388D01*
X638603Y177306D01*
X638549Y177222D01*
X638499Y177136D01*
X638452Y177048D01*
X638408Y176958D01*
X638368Y176867D01*
X638332Y176774D01*
X638299Y176680D01*
X638270Y176584D01*
X638245Y176488D01*
X638224Y176391D01*
X638206Y176292D01*
X638193Y176194D01*
X638183Y176094D01*
X638177Y175995D01*
X638175Y175895D01*
X638175Y160655D02*
X638177Y160555D01*
X638183Y160456D01*
X638193Y160356D01*
X638206Y160258D01*
X638224Y160159D01*
X638245Y160062D01*
X638270Y159966D01*
X638299Y159870D01*
X638332Y159776D01*
X638368Y159683D01*
X638408Y159592D01*
X638452Y159502D01*
X638499Y159414D01*
X638549Y159328D01*
X638603Y159244D01*
X638660Y159162D01*
X638720Y159083D01*
X638784Y159005D01*
X638850Y158931D01*
X638919Y158859D01*
X638991Y158790D01*
X639065Y158724D01*
X639143Y158660D01*
X639222Y158600D01*
X639304Y158543D01*
X639388Y158489D01*
X639474Y158439D01*
X639562Y158392D01*
X639652Y158348D01*
X639743Y158308D01*
X639836Y158272D01*
X639930Y158239D01*
X640026Y158210D01*
X640122Y158185D01*
X640219Y158164D01*
X640318Y158146D01*
X640416Y158133D01*
X640516Y158123D01*
X640615Y158117D01*
X640715Y158115D01*
X686435Y158115D02*
X686535Y158117D01*
X686634Y158123D01*
X686734Y158133D01*
X686832Y158146D01*
X686931Y158164D01*
X687028Y158185D01*
X687124Y158210D01*
X687220Y158239D01*
X687314Y158272D01*
X687407Y158308D01*
X687498Y158348D01*
X687588Y158392D01*
X687676Y158439D01*
X687762Y158489D01*
X687846Y158543D01*
X687928Y158600D01*
X688007Y158660D01*
X688085Y158724D01*
X688159Y158790D01*
X688231Y158859D01*
X688300Y158931D01*
X688366Y159005D01*
X688430Y159083D01*
X688490Y159162D01*
X688547Y159244D01*
X688601Y159328D01*
X688651Y159414D01*
X688698Y159502D01*
X688742Y159592D01*
X688782Y159683D01*
X688818Y159776D01*
X688851Y159870D01*
X688880Y159966D01*
X688905Y160062D01*
X688926Y160159D01*
X688944Y160258D01*
X688957Y160356D01*
X688967Y160456D01*
X688973Y160555D01*
X688975Y160655D01*
X688975Y175895D02*
X688973Y175995D01*
X688967Y176094D01*
X688957Y176194D01*
X688944Y176292D01*
X688926Y176391D01*
X688905Y176488D01*
X688880Y176584D01*
X688851Y176680D01*
X688818Y176774D01*
X688782Y176867D01*
X688742Y176958D01*
X688698Y177048D01*
X688651Y177136D01*
X688601Y177222D01*
X688547Y177306D01*
X688490Y177388D01*
X688430Y177467D01*
X688366Y177545D01*
X688300Y177619D01*
X688231Y177691D01*
X688159Y177760D01*
X688085Y177826D01*
X688007Y177890D01*
X687928Y177950D01*
X687846Y178007D01*
X687762Y178061D01*
X687676Y178111D01*
X687588Y178158D01*
X687498Y178202D01*
X687407Y178242D01*
X687314Y178278D01*
X687220Y178311D01*
X687124Y178340D01*
X687028Y178365D01*
X686931Y178386D01*
X686832Y178404D01*
X686734Y178417D01*
X686634Y178427D01*
X686535Y178433D01*
X686435Y178435D01*
X638175Y175895D02*
X638175Y160655D01*
X640715Y178435D02*
X644525Y178435D01*
X645795Y177165D01*
X644525Y158115D02*
X640715Y158115D01*
X644525Y158115D02*
X645795Y159385D01*
X681355Y177165D02*
X682625Y178435D01*
X681355Y177165D02*
X645795Y177165D01*
X681355Y159385D02*
X682625Y158115D01*
X681355Y159385D02*
X645795Y159385D01*
X682625Y178435D02*
X686435Y178435D01*
X686435Y158115D02*
X682625Y158115D01*
X688975Y160655D02*
X688975Y175895D01*
D14*
X690880Y168275D03*
X636270Y168275D03*
D15*
X618879Y158115D02*
X618879Y150749D01*
X618879Y158115D02*
X620925Y158115D01*
X621014Y158113D01*
X621103Y158107D01*
X621192Y158097D01*
X621280Y158084D01*
X621368Y158067D01*
X621455Y158045D01*
X621540Y158020D01*
X621625Y157992D01*
X621708Y157959D01*
X621790Y157923D01*
X621870Y157884D01*
X621948Y157841D01*
X622024Y157795D01*
X622099Y157745D01*
X622171Y157692D01*
X622240Y157636D01*
X622307Y157577D01*
X622372Y157516D01*
X622433Y157451D01*
X622492Y157384D01*
X622548Y157315D01*
X622601Y157243D01*
X622651Y157168D01*
X622697Y157092D01*
X622740Y157014D01*
X622779Y156934D01*
X622815Y156852D01*
X622848Y156769D01*
X622876Y156684D01*
X622901Y156599D01*
X622923Y156512D01*
X622940Y156424D01*
X622953Y156336D01*
X622963Y156247D01*
X622969Y156158D01*
X622971Y156069D01*
X622969Y155980D01*
X622963Y155891D01*
X622953Y155802D01*
X622940Y155714D01*
X622923Y155626D01*
X622901Y155539D01*
X622876Y155454D01*
X622848Y155369D01*
X622815Y155286D01*
X622779Y155204D01*
X622740Y155124D01*
X622697Y155046D01*
X622651Y154970D01*
X622601Y154895D01*
X622548Y154823D01*
X622492Y154754D01*
X622433Y154687D01*
X622372Y154622D01*
X622307Y154561D01*
X622240Y154502D01*
X622171Y154446D01*
X622099Y154393D01*
X622024Y154343D01*
X621948Y154297D01*
X621870Y154254D01*
X621790Y154215D01*
X621708Y154179D01*
X621625Y154146D01*
X621540Y154118D01*
X621455Y154093D01*
X621368Y154071D01*
X621280Y154054D01*
X621192Y154041D01*
X621103Y154031D01*
X621014Y154025D01*
X620925Y154023D01*
X618879Y154023D01*
X621334Y154023D02*
X622971Y150749D01*
X630235Y156274D02*
X630233Y156359D01*
X630227Y156444D01*
X630217Y156528D01*
X630204Y156612D01*
X630186Y156696D01*
X630165Y156778D01*
X630140Y156859D01*
X630111Y156939D01*
X630078Y157018D01*
X630042Y157095D01*
X630002Y157170D01*
X629959Y157244D01*
X629913Y157315D01*
X629863Y157384D01*
X629810Y157451D01*
X629754Y157515D01*
X629695Y157576D01*
X629634Y157635D01*
X629570Y157691D01*
X629503Y157744D01*
X629434Y157794D01*
X629363Y157840D01*
X629289Y157883D01*
X629214Y157923D01*
X629137Y157959D01*
X629058Y157992D01*
X628978Y158021D01*
X628897Y158046D01*
X628815Y158067D01*
X628731Y158085D01*
X628647Y158098D01*
X628563Y158108D01*
X628478Y158114D01*
X628393Y158116D01*
X628393Y158115D02*
X628297Y158113D01*
X628201Y158107D01*
X628106Y158097D01*
X628011Y158084D01*
X627916Y158066D01*
X627823Y158045D01*
X627730Y158020D01*
X627639Y157991D01*
X627548Y157959D01*
X627459Y157923D01*
X627372Y157883D01*
X627286Y157840D01*
X627202Y157794D01*
X627120Y157744D01*
X627040Y157690D01*
X626963Y157634D01*
X626888Y157574D01*
X626815Y157512D01*
X626745Y157446D01*
X626677Y157378D01*
X626612Y157307D01*
X626551Y157234D01*
X626492Y157158D01*
X626436Y157079D01*
X626384Y156999D01*
X626335Y156916D01*
X626289Y156832D01*
X626247Y156746D01*
X626209Y156658D01*
X626174Y156569D01*
X626142Y156478D01*
X629621Y154842D02*
X629681Y154901D01*
X629738Y154963D01*
X629793Y155027D01*
X629844Y155094D01*
X629893Y155163D01*
X629939Y155233D01*
X629982Y155306D01*
X630022Y155380D01*
X630058Y155456D01*
X630091Y155534D01*
X630121Y155613D01*
X630148Y155693D01*
X630171Y155774D01*
X630190Y155856D01*
X630206Y155938D01*
X630219Y156022D01*
X630228Y156106D01*
X630233Y156190D01*
X630235Y156274D01*
X629621Y154841D02*
X626143Y150749D01*
X630235Y150749D01*
X633702Y150749D02*
X633702Y158115D01*
X635748Y158115D01*
X635837Y158113D01*
X635926Y158107D01*
X636015Y158097D01*
X636103Y158084D01*
X636191Y158067D01*
X636278Y158045D01*
X636363Y158020D01*
X636448Y157992D01*
X636531Y157959D01*
X636613Y157923D01*
X636693Y157884D01*
X636771Y157841D01*
X636847Y157795D01*
X636922Y157745D01*
X636994Y157692D01*
X637063Y157636D01*
X637130Y157577D01*
X637195Y157516D01*
X637256Y157451D01*
X637315Y157384D01*
X637371Y157315D01*
X637424Y157243D01*
X637474Y157168D01*
X637520Y157092D01*
X637563Y157014D01*
X637602Y156934D01*
X637638Y156852D01*
X637671Y156769D01*
X637699Y156684D01*
X637724Y156599D01*
X637746Y156512D01*
X637763Y156424D01*
X637776Y156336D01*
X637786Y156247D01*
X637792Y156158D01*
X637794Y156069D01*
X637794Y152795D01*
X637792Y152706D01*
X637786Y152617D01*
X637776Y152528D01*
X637763Y152440D01*
X637746Y152352D01*
X637724Y152265D01*
X637699Y152180D01*
X637671Y152095D01*
X637638Y152012D01*
X637602Y151930D01*
X637563Y151850D01*
X637520Y151772D01*
X637474Y151696D01*
X637424Y151621D01*
X637371Y151549D01*
X637315Y151480D01*
X637256Y151413D01*
X637195Y151348D01*
X637130Y151287D01*
X637063Y151228D01*
X636994Y151172D01*
X636922Y151119D01*
X636847Y151069D01*
X636771Y151023D01*
X636693Y150980D01*
X636613Y150941D01*
X636531Y150905D01*
X636448Y150872D01*
X636363Y150844D01*
X636278Y150819D01*
X636191Y150797D01*
X636103Y150780D01*
X636015Y150767D01*
X635926Y150757D01*
X635837Y150751D01*
X635748Y150749D01*
X633702Y150749D01*
D12*
X638175Y150495D02*
X638177Y150595D01*
X638183Y150694D01*
X638193Y150794D01*
X638206Y150892D01*
X638224Y150991D01*
X638245Y151088D01*
X638270Y151184D01*
X638299Y151280D01*
X638332Y151374D01*
X638368Y151467D01*
X638408Y151558D01*
X638452Y151648D01*
X638499Y151736D01*
X638549Y151822D01*
X638603Y151906D01*
X638660Y151988D01*
X638720Y152067D01*
X638784Y152145D01*
X638850Y152219D01*
X638919Y152291D01*
X638991Y152360D01*
X639065Y152426D01*
X639143Y152490D01*
X639222Y152550D01*
X639304Y152607D01*
X639388Y152661D01*
X639474Y152711D01*
X639562Y152758D01*
X639652Y152802D01*
X639743Y152842D01*
X639836Y152878D01*
X639930Y152911D01*
X640026Y152940D01*
X640122Y152965D01*
X640219Y152986D01*
X640318Y153004D01*
X640416Y153017D01*
X640516Y153027D01*
X640615Y153033D01*
X640715Y153035D01*
X638175Y135255D02*
X638177Y135155D01*
X638183Y135056D01*
X638193Y134956D01*
X638206Y134858D01*
X638224Y134759D01*
X638245Y134662D01*
X638270Y134566D01*
X638299Y134470D01*
X638332Y134376D01*
X638368Y134283D01*
X638408Y134192D01*
X638452Y134102D01*
X638499Y134014D01*
X638549Y133928D01*
X638603Y133844D01*
X638660Y133762D01*
X638720Y133683D01*
X638784Y133605D01*
X638850Y133531D01*
X638919Y133459D01*
X638991Y133390D01*
X639065Y133324D01*
X639143Y133260D01*
X639222Y133200D01*
X639304Y133143D01*
X639388Y133089D01*
X639474Y133039D01*
X639562Y132992D01*
X639652Y132948D01*
X639743Y132908D01*
X639836Y132872D01*
X639930Y132839D01*
X640026Y132810D01*
X640122Y132785D01*
X640219Y132764D01*
X640318Y132746D01*
X640416Y132733D01*
X640516Y132723D01*
X640615Y132717D01*
X640715Y132715D01*
X686435Y132715D02*
X686535Y132717D01*
X686634Y132723D01*
X686734Y132733D01*
X686832Y132746D01*
X686931Y132764D01*
X687028Y132785D01*
X687124Y132810D01*
X687220Y132839D01*
X687314Y132872D01*
X687407Y132908D01*
X687498Y132948D01*
X687588Y132992D01*
X687676Y133039D01*
X687762Y133089D01*
X687846Y133143D01*
X687928Y133200D01*
X688007Y133260D01*
X688085Y133324D01*
X688159Y133390D01*
X688231Y133459D01*
X688300Y133531D01*
X688366Y133605D01*
X688430Y133683D01*
X688490Y133762D01*
X688547Y133844D01*
X688601Y133928D01*
X688651Y134014D01*
X688698Y134102D01*
X688742Y134192D01*
X688782Y134283D01*
X688818Y134376D01*
X688851Y134470D01*
X688880Y134566D01*
X688905Y134662D01*
X688926Y134759D01*
X688944Y134858D01*
X688957Y134956D01*
X688967Y135056D01*
X688973Y135155D01*
X688975Y135255D01*
X688975Y150495D02*
X688973Y150595D01*
X688967Y150694D01*
X688957Y150794D01*
X688944Y150892D01*
X688926Y150991D01*
X688905Y151088D01*
X688880Y151184D01*
X688851Y151280D01*
X688818Y151374D01*
X688782Y151467D01*
X688742Y151558D01*
X688698Y151648D01*
X688651Y151736D01*
X688601Y151822D01*
X688547Y151906D01*
X688490Y151988D01*
X688430Y152067D01*
X688366Y152145D01*
X688300Y152219D01*
X688231Y152291D01*
X688159Y152360D01*
X688085Y152426D01*
X688007Y152490D01*
X687928Y152550D01*
X687846Y152607D01*
X687762Y152661D01*
X687676Y152711D01*
X687588Y152758D01*
X687498Y152802D01*
X687407Y152842D01*
X687314Y152878D01*
X687220Y152911D01*
X687124Y152940D01*
X687028Y152965D01*
X686931Y152986D01*
X686832Y153004D01*
X686734Y153017D01*
X686634Y153027D01*
X686535Y153033D01*
X686435Y153035D01*
X638175Y150495D02*
X638175Y135255D01*
X640715Y153035D02*
X644525Y153035D01*
X645795Y151765D01*
X644525Y132715D02*
X640715Y132715D01*
X644525Y132715D02*
X645795Y133985D01*
X681355Y151765D02*
X682625Y153035D01*
X681355Y151765D02*
X645795Y151765D01*
X681355Y133985D02*
X682625Y132715D01*
X681355Y133985D02*
X645795Y133985D01*
X682625Y153035D02*
X686435Y153035D01*
X686435Y132715D02*
X682625Y132715D01*
X688975Y135255D02*
X688975Y150495D01*
D14*
X690880Y142875D03*
X636270Y142875D03*
D15*
X619681Y132715D02*
X619681Y125349D01*
X619681Y132715D02*
X621728Y132715D01*
X621817Y132713D01*
X621906Y132707D01*
X621995Y132697D01*
X622083Y132684D01*
X622171Y132667D01*
X622258Y132645D01*
X622343Y132620D01*
X622428Y132592D01*
X622511Y132559D01*
X622593Y132523D01*
X622673Y132484D01*
X622751Y132441D01*
X622827Y132395D01*
X622902Y132345D01*
X622974Y132292D01*
X623043Y132236D01*
X623110Y132177D01*
X623175Y132116D01*
X623236Y132051D01*
X623295Y131984D01*
X623351Y131915D01*
X623404Y131843D01*
X623454Y131768D01*
X623500Y131692D01*
X623543Y131614D01*
X623582Y131534D01*
X623618Y131452D01*
X623651Y131369D01*
X623679Y131284D01*
X623704Y131199D01*
X623726Y131112D01*
X623743Y131024D01*
X623756Y130936D01*
X623766Y130847D01*
X623772Y130758D01*
X623774Y130669D01*
X623772Y130580D01*
X623766Y130491D01*
X623756Y130402D01*
X623743Y130314D01*
X623726Y130226D01*
X623704Y130139D01*
X623679Y130054D01*
X623651Y129969D01*
X623618Y129886D01*
X623582Y129804D01*
X623543Y129724D01*
X623500Y129646D01*
X623454Y129570D01*
X623404Y129495D01*
X623351Y129423D01*
X623295Y129354D01*
X623236Y129287D01*
X623175Y129222D01*
X623110Y129161D01*
X623043Y129102D01*
X622974Y129046D01*
X622902Y128993D01*
X622827Y128943D01*
X622751Y128897D01*
X622673Y128854D01*
X622593Y128815D01*
X622511Y128779D01*
X622428Y128746D01*
X622343Y128718D01*
X622258Y128693D01*
X622171Y128671D01*
X622083Y128654D01*
X621995Y128641D01*
X621906Y128631D01*
X621817Y128625D01*
X621728Y128623D01*
X619681Y128623D01*
X622137Y128623D02*
X623774Y125349D01*
X631038Y130874D02*
X631036Y130959D01*
X631030Y131044D01*
X631020Y131128D01*
X631007Y131212D01*
X630989Y131296D01*
X630968Y131378D01*
X630943Y131459D01*
X630914Y131539D01*
X630881Y131618D01*
X630845Y131695D01*
X630805Y131770D01*
X630762Y131844D01*
X630716Y131915D01*
X630666Y131984D01*
X630613Y132051D01*
X630557Y132115D01*
X630498Y132176D01*
X630437Y132235D01*
X630373Y132291D01*
X630306Y132344D01*
X630237Y132394D01*
X630166Y132440D01*
X630092Y132483D01*
X630017Y132523D01*
X629940Y132559D01*
X629861Y132592D01*
X629781Y132621D01*
X629700Y132646D01*
X629618Y132667D01*
X629534Y132685D01*
X629450Y132698D01*
X629366Y132708D01*
X629281Y132714D01*
X629196Y132716D01*
X629196Y132715D02*
X629100Y132713D01*
X629004Y132707D01*
X628909Y132697D01*
X628814Y132684D01*
X628719Y132666D01*
X628626Y132645D01*
X628533Y132620D01*
X628442Y132591D01*
X628351Y132559D01*
X628262Y132523D01*
X628175Y132483D01*
X628089Y132440D01*
X628005Y132394D01*
X627923Y132344D01*
X627843Y132290D01*
X627766Y132234D01*
X627691Y132174D01*
X627618Y132112D01*
X627548Y132046D01*
X627480Y131978D01*
X627415Y131907D01*
X627354Y131834D01*
X627295Y131758D01*
X627239Y131679D01*
X627187Y131599D01*
X627138Y131516D01*
X627092Y131432D01*
X627050Y131346D01*
X627012Y131258D01*
X626977Y131169D01*
X626945Y131078D01*
X630424Y129442D02*
X630484Y129501D01*
X630541Y129563D01*
X630596Y129627D01*
X630647Y129694D01*
X630696Y129763D01*
X630742Y129833D01*
X630785Y129906D01*
X630825Y129980D01*
X630861Y130056D01*
X630894Y130134D01*
X630924Y130213D01*
X630951Y130293D01*
X630974Y130374D01*
X630993Y130456D01*
X631009Y130538D01*
X631022Y130622D01*
X631031Y130706D01*
X631036Y130790D01*
X631038Y130874D01*
X630424Y129441D02*
X626946Y125349D01*
X631038Y125349D01*
X634520Y125349D02*
X637794Y125349D01*
X634520Y125349D02*
X634520Y132715D01*
X637794Y132715D01*
X636976Y129441D02*
X634520Y129441D01*
D12*
X638175Y252095D02*
X638177Y252195D01*
X638183Y252294D01*
X638193Y252394D01*
X638206Y252492D01*
X638224Y252591D01*
X638245Y252688D01*
X638270Y252784D01*
X638299Y252880D01*
X638332Y252974D01*
X638368Y253067D01*
X638408Y253158D01*
X638452Y253248D01*
X638499Y253336D01*
X638549Y253422D01*
X638603Y253506D01*
X638660Y253588D01*
X638720Y253667D01*
X638784Y253745D01*
X638850Y253819D01*
X638919Y253891D01*
X638991Y253960D01*
X639065Y254026D01*
X639143Y254090D01*
X639222Y254150D01*
X639304Y254207D01*
X639388Y254261D01*
X639474Y254311D01*
X639562Y254358D01*
X639652Y254402D01*
X639743Y254442D01*
X639836Y254478D01*
X639930Y254511D01*
X640026Y254540D01*
X640122Y254565D01*
X640219Y254586D01*
X640318Y254604D01*
X640416Y254617D01*
X640516Y254627D01*
X640615Y254633D01*
X640715Y254635D01*
X638175Y236855D02*
X638177Y236755D01*
X638183Y236656D01*
X638193Y236556D01*
X638206Y236458D01*
X638224Y236359D01*
X638245Y236262D01*
X638270Y236166D01*
X638299Y236070D01*
X638332Y235976D01*
X638368Y235883D01*
X638408Y235792D01*
X638452Y235702D01*
X638499Y235614D01*
X638549Y235528D01*
X638603Y235444D01*
X638660Y235362D01*
X638720Y235283D01*
X638784Y235205D01*
X638850Y235131D01*
X638919Y235059D01*
X638991Y234990D01*
X639065Y234924D01*
X639143Y234860D01*
X639222Y234800D01*
X639304Y234743D01*
X639388Y234689D01*
X639474Y234639D01*
X639562Y234592D01*
X639652Y234548D01*
X639743Y234508D01*
X639836Y234472D01*
X639930Y234439D01*
X640026Y234410D01*
X640122Y234385D01*
X640219Y234364D01*
X640318Y234346D01*
X640416Y234333D01*
X640516Y234323D01*
X640615Y234317D01*
X640715Y234315D01*
X686435Y234315D02*
X686535Y234317D01*
X686634Y234323D01*
X686734Y234333D01*
X686832Y234346D01*
X686931Y234364D01*
X687028Y234385D01*
X687124Y234410D01*
X687220Y234439D01*
X687314Y234472D01*
X687407Y234508D01*
X687498Y234548D01*
X687588Y234592D01*
X687676Y234639D01*
X687762Y234689D01*
X687846Y234743D01*
X687928Y234800D01*
X688007Y234860D01*
X688085Y234924D01*
X688159Y234990D01*
X688231Y235059D01*
X688300Y235131D01*
X688366Y235205D01*
X688430Y235283D01*
X688490Y235362D01*
X688547Y235444D01*
X688601Y235528D01*
X688651Y235614D01*
X688698Y235702D01*
X688742Y235792D01*
X688782Y235883D01*
X688818Y235976D01*
X688851Y236070D01*
X688880Y236166D01*
X688905Y236262D01*
X688926Y236359D01*
X688944Y236458D01*
X688957Y236556D01*
X688967Y236656D01*
X688973Y236755D01*
X688975Y236855D01*
X688975Y252095D02*
X688973Y252195D01*
X688967Y252294D01*
X688957Y252394D01*
X688944Y252492D01*
X688926Y252591D01*
X688905Y252688D01*
X688880Y252784D01*
X688851Y252880D01*
X688818Y252974D01*
X688782Y253067D01*
X688742Y253158D01*
X688698Y253248D01*
X688651Y253336D01*
X688601Y253422D01*
X688547Y253506D01*
X688490Y253588D01*
X688430Y253667D01*
X688366Y253745D01*
X688300Y253819D01*
X688231Y253891D01*
X688159Y253960D01*
X688085Y254026D01*
X688007Y254090D01*
X687928Y254150D01*
X687846Y254207D01*
X687762Y254261D01*
X687676Y254311D01*
X687588Y254358D01*
X687498Y254402D01*
X687407Y254442D01*
X687314Y254478D01*
X687220Y254511D01*
X687124Y254540D01*
X687028Y254565D01*
X686931Y254586D01*
X686832Y254604D01*
X686734Y254617D01*
X686634Y254627D01*
X686535Y254633D01*
X686435Y254635D01*
X638175Y252095D02*
X638175Y236855D01*
X640715Y254635D02*
X644525Y254635D01*
X645795Y253365D01*
X644525Y234315D02*
X640715Y234315D01*
X644525Y234315D02*
X645795Y235585D01*
X681355Y253365D02*
X682625Y254635D01*
X681355Y253365D02*
X645795Y253365D01*
X681355Y235585D02*
X682625Y234315D01*
X681355Y235585D02*
X645795Y235585D01*
X682625Y254635D02*
X686435Y254635D01*
X686435Y234315D02*
X682625Y234315D01*
X688975Y236855D02*
X688975Y252095D01*
D14*
X690880Y244475D03*
X636270Y244475D03*
D15*
X619681Y234315D02*
X619681Y226949D01*
X619681Y234315D02*
X621728Y234315D01*
X621817Y234313D01*
X621906Y234307D01*
X621995Y234297D01*
X622083Y234284D01*
X622171Y234267D01*
X622258Y234245D01*
X622343Y234220D01*
X622428Y234192D01*
X622511Y234159D01*
X622593Y234123D01*
X622673Y234084D01*
X622751Y234041D01*
X622827Y233995D01*
X622902Y233945D01*
X622974Y233892D01*
X623043Y233836D01*
X623110Y233777D01*
X623175Y233716D01*
X623236Y233651D01*
X623295Y233584D01*
X623351Y233515D01*
X623404Y233443D01*
X623454Y233368D01*
X623500Y233292D01*
X623543Y233214D01*
X623582Y233134D01*
X623618Y233052D01*
X623651Y232969D01*
X623679Y232884D01*
X623704Y232799D01*
X623726Y232712D01*
X623743Y232624D01*
X623756Y232536D01*
X623766Y232447D01*
X623772Y232358D01*
X623774Y232269D01*
X623772Y232180D01*
X623766Y232091D01*
X623756Y232002D01*
X623743Y231914D01*
X623726Y231826D01*
X623704Y231739D01*
X623679Y231654D01*
X623651Y231569D01*
X623618Y231486D01*
X623582Y231404D01*
X623543Y231324D01*
X623500Y231246D01*
X623454Y231170D01*
X623404Y231095D01*
X623351Y231023D01*
X623295Y230954D01*
X623236Y230887D01*
X623175Y230822D01*
X623110Y230761D01*
X623043Y230702D01*
X622974Y230646D01*
X622902Y230593D01*
X622827Y230543D01*
X622751Y230497D01*
X622673Y230454D01*
X622593Y230415D01*
X622511Y230379D01*
X622428Y230346D01*
X622343Y230318D01*
X622258Y230293D01*
X622171Y230271D01*
X622083Y230254D01*
X621995Y230241D01*
X621906Y230231D01*
X621817Y230225D01*
X621728Y230223D01*
X619681Y230223D01*
X622137Y230223D02*
X623774Y226949D01*
X631038Y232474D02*
X631036Y232559D01*
X631030Y232644D01*
X631020Y232728D01*
X631007Y232812D01*
X630989Y232896D01*
X630968Y232978D01*
X630943Y233059D01*
X630914Y233139D01*
X630881Y233218D01*
X630845Y233295D01*
X630805Y233370D01*
X630762Y233444D01*
X630716Y233515D01*
X630666Y233584D01*
X630613Y233651D01*
X630557Y233715D01*
X630498Y233776D01*
X630437Y233835D01*
X630373Y233891D01*
X630306Y233944D01*
X630237Y233994D01*
X630166Y234040D01*
X630092Y234083D01*
X630017Y234123D01*
X629940Y234159D01*
X629861Y234192D01*
X629781Y234221D01*
X629700Y234246D01*
X629618Y234267D01*
X629534Y234285D01*
X629450Y234298D01*
X629366Y234308D01*
X629281Y234314D01*
X629196Y234316D01*
X629196Y234315D02*
X629100Y234313D01*
X629004Y234307D01*
X628909Y234297D01*
X628814Y234284D01*
X628719Y234266D01*
X628626Y234245D01*
X628533Y234220D01*
X628442Y234191D01*
X628351Y234159D01*
X628262Y234123D01*
X628175Y234083D01*
X628089Y234040D01*
X628005Y233994D01*
X627923Y233944D01*
X627843Y233890D01*
X627766Y233834D01*
X627691Y233774D01*
X627618Y233712D01*
X627548Y233646D01*
X627480Y233578D01*
X627415Y233507D01*
X627354Y233434D01*
X627295Y233358D01*
X627239Y233279D01*
X627187Y233199D01*
X627138Y233116D01*
X627092Y233032D01*
X627050Y232946D01*
X627012Y232858D01*
X626977Y232769D01*
X626945Y232678D01*
X630424Y231042D02*
X630484Y231101D01*
X630541Y231163D01*
X630596Y231227D01*
X630647Y231294D01*
X630696Y231363D01*
X630742Y231433D01*
X630785Y231506D01*
X630825Y231580D01*
X630861Y231656D01*
X630894Y231734D01*
X630924Y231813D01*
X630951Y231893D01*
X630974Y231974D01*
X630993Y232056D01*
X631009Y232138D01*
X631022Y232222D01*
X631031Y232306D01*
X631036Y232390D01*
X631038Y232474D01*
X630424Y231041D02*
X626946Y226949D01*
X631038Y226949D01*
X634520Y226949D02*
X634520Y234315D01*
X637794Y234315D01*
X637794Y231041D02*
X634520Y231041D01*
D12*
X638175Y226695D02*
X638177Y226795D01*
X638183Y226894D01*
X638193Y226994D01*
X638206Y227092D01*
X638224Y227191D01*
X638245Y227288D01*
X638270Y227384D01*
X638299Y227480D01*
X638332Y227574D01*
X638368Y227667D01*
X638408Y227758D01*
X638452Y227848D01*
X638499Y227936D01*
X638549Y228022D01*
X638603Y228106D01*
X638660Y228188D01*
X638720Y228267D01*
X638784Y228345D01*
X638850Y228419D01*
X638919Y228491D01*
X638991Y228560D01*
X639065Y228626D01*
X639143Y228690D01*
X639222Y228750D01*
X639304Y228807D01*
X639388Y228861D01*
X639474Y228911D01*
X639562Y228958D01*
X639652Y229002D01*
X639743Y229042D01*
X639836Y229078D01*
X639930Y229111D01*
X640026Y229140D01*
X640122Y229165D01*
X640219Y229186D01*
X640318Y229204D01*
X640416Y229217D01*
X640516Y229227D01*
X640615Y229233D01*
X640715Y229235D01*
X638175Y211455D02*
X638177Y211355D01*
X638183Y211256D01*
X638193Y211156D01*
X638206Y211058D01*
X638224Y210959D01*
X638245Y210862D01*
X638270Y210766D01*
X638299Y210670D01*
X638332Y210576D01*
X638368Y210483D01*
X638408Y210392D01*
X638452Y210302D01*
X638499Y210214D01*
X638549Y210128D01*
X638603Y210044D01*
X638660Y209962D01*
X638720Y209883D01*
X638784Y209805D01*
X638850Y209731D01*
X638919Y209659D01*
X638991Y209590D01*
X639065Y209524D01*
X639143Y209460D01*
X639222Y209400D01*
X639304Y209343D01*
X639388Y209289D01*
X639474Y209239D01*
X639562Y209192D01*
X639652Y209148D01*
X639743Y209108D01*
X639836Y209072D01*
X639930Y209039D01*
X640026Y209010D01*
X640122Y208985D01*
X640219Y208964D01*
X640318Y208946D01*
X640416Y208933D01*
X640516Y208923D01*
X640615Y208917D01*
X640715Y208915D01*
X686435Y208915D02*
X686535Y208917D01*
X686634Y208923D01*
X686734Y208933D01*
X686832Y208946D01*
X686931Y208964D01*
X687028Y208985D01*
X687124Y209010D01*
X687220Y209039D01*
X687314Y209072D01*
X687407Y209108D01*
X687498Y209148D01*
X687588Y209192D01*
X687676Y209239D01*
X687762Y209289D01*
X687846Y209343D01*
X687928Y209400D01*
X688007Y209460D01*
X688085Y209524D01*
X688159Y209590D01*
X688231Y209659D01*
X688300Y209731D01*
X688366Y209805D01*
X688430Y209883D01*
X688490Y209962D01*
X688547Y210044D01*
X688601Y210128D01*
X688651Y210214D01*
X688698Y210302D01*
X688742Y210392D01*
X688782Y210483D01*
X688818Y210576D01*
X688851Y210670D01*
X688880Y210766D01*
X688905Y210862D01*
X688926Y210959D01*
X688944Y211058D01*
X688957Y211156D01*
X688967Y211256D01*
X688973Y211355D01*
X688975Y211455D01*
X688975Y226695D02*
X688973Y226795D01*
X688967Y226894D01*
X688957Y226994D01*
X688944Y227092D01*
X688926Y227191D01*
X688905Y227288D01*
X688880Y227384D01*
X688851Y227480D01*
X688818Y227574D01*
X688782Y227667D01*
X688742Y227758D01*
X688698Y227848D01*
X688651Y227936D01*
X688601Y228022D01*
X688547Y228106D01*
X688490Y228188D01*
X688430Y228267D01*
X688366Y228345D01*
X688300Y228419D01*
X688231Y228491D01*
X688159Y228560D01*
X688085Y228626D01*
X688007Y228690D01*
X687928Y228750D01*
X687846Y228807D01*
X687762Y228861D01*
X687676Y228911D01*
X687588Y228958D01*
X687498Y229002D01*
X687407Y229042D01*
X687314Y229078D01*
X687220Y229111D01*
X687124Y229140D01*
X687028Y229165D01*
X686931Y229186D01*
X686832Y229204D01*
X686734Y229217D01*
X686634Y229227D01*
X686535Y229233D01*
X686435Y229235D01*
X638175Y226695D02*
X638175Y211455D01*
X640715Y229235D02*
X644525Y229235D01*
X645795Y227965D01*
X644525Y208915D02*
X640715Y208915D01*
X644525Y208915D02*
X645795Y210185D01*
X681355Y227965D02*
X682625Y229235D01*
X681355Y227965D02*
X645795Y227965D01*
X681355Y210185D02*
X682625Y208915D01*
X681355Y210185D02*
X645795Y210185D01*
X682625Y229235D02*
X686435Y229235D01*
X686435Y208915D02*
X682625Y208915D01*
X688975Y211455D02*
X688975Y226695D01*
D14*
X690880Y219075D03*
X636270Y219075D03*
D15*
X618879Y208915D02*
X618879Y201549D01*
X618879Y208915D02*
X620925Y208915D01*
X621014Y208913D01*
X621103Y208907D01*
X621192Y208897D01*
X621280Y208884D01*
X621368Y208867D01*
X621455Y208845D01*
X621540Y208820D01*
X621625Y208792D01*
X621708Y208759D01*
X621790Y208723D01*
X621870Y208684D01*
X621948Y208641D01*
X622024Y208595D01*
X622099Y208545D01*
X622171Y208492D01*
X622240Y208436D01*
X622307Y208377D01*
X622372Y208316D01*
X622433Y208251D01*
X622492Y208184D01*
X622548Y208115D01*
X622601Y208043D01*
X622651Y207968D01*
X622697Y207892D01*
X622740Y207814D01*
X622779Y207734D01*
X622815Y207652D01*
X622848Y207569D01*
X622876Y207484D01*
X622901Y207399D01*
X622923Y207312D01*
X622940Y207224D01*
X622953Y207136D01*
X622963Y207047D01*
X622969Y206958D01*
X622971Y206869D01*
X622969Y206780D01*
X622963Y206691D01*
X622953Y206602D01*
X622940Y206514D01*
X622923Y206426D01*
X622901Y206339D01*
X622876Y206254D01*
X622848Y206169D01*
X622815Y206086D01*
X622779Y206004D01*
X622740Y205924D01*
X622697Y205846D01*
X622651Y205770D01*
X622601Y205695D01*
X622548Y205623D01*
X622492Y205554D01*
X622433Y205487D01*
X622372Y205422D01*
X622307Y205361D01*
X622240Y205302D01*
X622171Y205246D01*
X622099Y205193D01*
X622024Y205143D01*
X621948Y205097D01*
X621870Y205054D01*
X621790Y205015D01*
X621708Y204979D01*
X621625Y204946D01*
X621540Y204918D01*
X621455Y204893D01*
X621368Y204871D01*
X621280Y204854D01*
X621192Y204841D01*
X621103Y204831D01*
X621014Y204825D01*
X620925Y204823D01*
X618879Y204823D01*
X621334Y204823D02*
X622971Y201549D01*
X630235Y207074D02*
X630233Y207159D01*
X630227Y207244D01*
X630217Y207328D01*
X630204Y207412D01*
X630186Y207496D01*
X630165Y207578D01*
X630140Y207659D01*
X630111Y207739D01*
X630078Y207818D01*
X630042Y207895D01*
X630002Y207970D01*
X629959Y208044D01*
X629913Y208115D01*
X629863Y208184D01*
X629810Y208251D01*
X629754Y208315D01*
X629695Y208376D01*
X629634Y208435D01*
X629570Y208491D01*
X629503Y208544D01*
X629434Y208594D01*
X629363Y208640D01*
X629289Y208683D01*
X629214Y208723D01*
X629137Y208759D01*
X629058Y208792D01*
X628978Y208821D01*
X628897Y208846D01*
X628815Y208867D01*
X628731Y208885D01*
X628647Y208898D01*
X628563Y208908D01*
X628478Y208914D01*
X628393Y208916D01*
X628393Y208915D02*
X628297Y208913D01*
X628201Y208907D01*
X628106Y208897D01*
X628011Y208884D01*
X627916Y208866D01*
X627823Y208845D01*
X627730Y208820D01*
X627639Y208791D01*
X627548Y208759D01*
X627459Y208723D01*
X627372Y208683D01*
X627286Y208640D01*
X627202Y208594D01*
X627120Y208544D01*
X627040Y208490D01*
X626963Y208434D01*
X626888Y208374D01*
X626815Y208312D01*
X626745Y208246D01*
X626677Y208178D01*
X626612Y208107D01*
X626551Y208034D01*
X626492Y207958D01*
X626436Y207879D01*
X626384Y207799D01*
X626335Y207716D01*
X626289Y207632D01*
X626247Y207546D01*
X626209Y207458D01*
X626174Y207369D01*
X626142Y207278D01*
X629621Y205642D02*
X629681Y205701D01*
X629738Y205763D01*
X629793Y205827D01*
X629844Y205894D01*
X629893Y205963D01*
X629939Y206033D01*
X629982Y206106D01*
X630022Y206180D01*
X630058Y206256D01*
X630091Y206334D01*
X630121Y206413D01*
X630148Y206493D01*
X630171Y206574D01*
X630190Y206656D01*
X630206Y206738D01*
X630219Y206822D01*
X630228Y206906D01*
X630233Y206990D01*
X630235Y207074D01*
X629621Y205641D02*
X626143Y201549D01*
X630235Y201549D01*
X636566Y205641D02*
X637794Y205641D01*
X637794Y201549D01*
X635339Y201549D01*
X635261Y201551D01*
X635183Y201556D01*
X635106Y201566D01*
X635029Y201579D01*
X634953Y201595D01*
X634878Y201615D01*
X634804Y201639D01*
X634731Y201666D01*
X634659Y201697D01*
X634589Y201731D01*
X634521Y201768D01*
X634454Y201809D01*
X634389Y201853D01*
X634327Y201899D01*
X634267Y201949D01*
X634209Y202001D01*
X634154Y202056D01*
X634102Y202114D01*
X634052Y202174D01*
X634006Y202236D01*
X633962Y202301D01*
X633921Y202368D01*
X633884Y202436D01*
X633850Y202506D01*
X633819Y202578D01*
X633792Y202651D01*
X633768Y202725D01*
X633748Y202800D01*
X633732Y202876D01*
X633719Y202953D01*
X633709Y203030D01*
X633704Y203108D01*
X633702Y203186D01*
X633702Y207278D01*
X633704Y207358D01*
X633710Y207438D01*
X633720Y207518D01*
X633733Y207597D01*
X633751Y207676D01*
X633772Y207753D01*
X633798Y207829D01*
X633827Y207904D01*
X633859Y207978D01*
X633895Y208050D01*
X633935Y208120D01*
X633978Y208187D01*
X634024Y208253D01*
X634074Y208316D01*
X634126Y208377D01*
X634181Y208436D01*
X634240Y208491D01*
X634300Y208543D01*
X634364Y208593D01*
X634430Y208639D01*
X634497Y208682D01*
X634567Y208722D01*
X634639Y208758D01*
X634713Y208790D01*
X634787Y208819D01*
X634864Y208845D01*
X634941Y208866D01*
X635020Y208884D01*
X635099Y208897D01*
X635179Y208907D01*
X635259Y208913D01*
X635339Y208915D01*
X637794Y208915D01*
D12*
X167640Y299085D02*
X167540Y299083D01*
X167441Y299077D01*
X167341Y299067D01*
X167243Y299054D01*
X167144Y299036D01*
X167047Y299015D01*
X166951Y298990D01*
X166855Y298961D01*
X166761Y298928D01*
X166668Y298892D01*
X166577Y298852D01*
X166487Y298808D01*
X166399Y298761D01*
X166313Y298711D01*
X166229Y298657D01*
X166147Y298600D01*
X166068Y298540D01*
X165990Y298476D01*
X165916Y298410D01*
X165844Y298341D01*
X165775Y298269D01*
X165709Y298195D01*
X165645Y298117D01*
X165585Y298038D01*
X165528Y297956D01*
X165474Y297872D01*
X165424Y297786D01*
X165377Y297698D01*
X165333Y297608D01*
X165293Y297517D01*
X165257Y297424D01*
X165224Y297330D01*
X165195Y297234D01*
X165170Y297138D01*
X165149Y297041D01*
X165131Y296942D01*
X165118Y296844D01*
X165108Y296744D01*
X165102Y296645D01*
X165100Y296545D01*
X165100Y281305D02*
X165102Y281205D01*
X165108Y281106D01*
X165118Y281006D01*
X165131Y280908D01*
X165149Y280809D01*
X165170Y280712D01*
X165195Y280616D01*
X165224Y280520D01*
X165257Y280426D01*
X165293Y280333D01*
X165333Y280242D01*
X165377Y280152D01*
X165424Y280064D01*
X165474Y279978D01*
X165528Y279894D01*
X165585Y279812D01*
X165645Y279733D01*
X165709Y279655D01*
X165775Y279581D01*
X165844Y279509D01*
X165916Y279440D01*
X165990Y279374D01*
X166068Y279310D01*
X166147Y279250D01*
X166229Y279193D01*
X166313Y279139D01*
X166399Y279089D01*
X166487Y279042D01*
X166577Y278998D01*
X166668Y278958D01*
X166761Y278922D01*
X166855Y278889D01*
X166951Y278860D01*
X167047Y278835D01*
X167144Y278814D01*
X167243Y278796D01*
X167341Y278783D01*
X167441Y278773D01*
X167540Y278767D01*
X167640Y278765D01*
X213360Y278765D02*
X213460Y278767D01*
X213559Y278773D01*
X213659Y278783D01*
X213757Y278796D01*
X213856Y278814D01*
X213953Y278835D01*
X214049Y278860D01*
X214145Y278889D01*
X214239Y278922D01*
X214332Y278958D01*
X214423Y278998D01*
X214513Y279042D01*
X214601Y279089D01*
X214687Y279139D01*
X214771Y279193D01*
X214853Y279250D01*
X214932Y279310D01*
X215010Y279374D01*
X215084Y279440D01*
X215156Y279509D01*
X215225Y279581D01*
X215291Y279655D01*
X215355Y279733D01*
X215415Y279812D01*
X215472Y279894D01*
X215526Y279978D01*
X215576Y280064D01*
X215623Y280152D01*
X215667Y280242D01*
X215707Y280333D01*
X215743Y280426D01*
X215776Y280520D01*
X215805Y280616D01*
X215830Y280712D01*
X215851Y280809D01*
X215869Y280908D01*
X215882Y281006D01*
X215892Y281106D01*
X215898Y281205D01*
X215900Y281305D01*
X215900Y296545D02*
X215898Y296645D01*
X215892Y296744D01*
X215882Y296844D01*
X215869Y296942D01*
X215851Y297041D01*
X215830Y297138D01*
X215805Y297234D01*
X215776Y297330D01*
X215743Y297424D01*
X215707Y297517D01*
X215667Y297608D01*
X215623Y297698D01*
X215576Y297786D01*
X215526Y297872D01*
X215472Y297956D01*
X215415Y298038D01*
X215355Y298117D01*
X215291Y298195D01*
X215225Y298269D01*
X215156Y298341D01*
X215084Y298410D01*
X215010Y298476D01*
X214932Y298540D01*
X214853Y298600D01*
X214771Y298657D01*
X214687Y298711D01*
X214601Y298761D01*
X214513Y298808D01*
X214423Y298852D01*
X214332Y298892D01*
X214239Y298928D01*
X214145Y298961D01*
X214049Y298990D01*
X213953Y299015D01*
X213856Y299036D01*
X213757Y299054D01*
X213659Y299067D01*
X213559Y299077D01*
X213460Y299083D01*
X213360Y299085D01*
X165100Y296545D02*
X165100Y281305D01*
X167640Y299085D02*
X171450Y299085D01*
X172720Y297815D01*
X171450Y278765D02*
X167640Y278765D01*
X171450Y278765D02*
X172720Y280035D01*
X208280Y297815D02*
X209550Y299085D01*
X208280Y297815D02*
X172720Y297815D01*
X208280Y280035D02*
X209550Y278765D01*
X208280Y280035D02*
X172720Y280035D01*
X209550Y299085D02*
X213360Y299085D01*
X213360Y278765D02*
X209550Y278765D01*
X215900Y281305D02*
X215900Y296545D01*
D14*
X217805Y288925D03*
X163195Y288925D03*
D15*
X213106Y302260D02*
X213106Y309626D01*
X215152Y309626D01*
X215241Y309624D01*
X215330Y309618D01*
X215419Y309608D01*
X215507Y309595D01*
X215595Y309578D01*
X215682Y309556D01*
X215767Y309531D01*
X215852Y309503D01*
X215935Y309470D01*
X216017Y309434D01*
X216097Y309395D01*
X216175Y309352D01*
X216251Y309306D01*
X216326Y309256D01*
X216398Y309203D01*
X216467Y309147D01*
X216534Y309088D01*
X216599Y309027D01*
X216660Y308962D01*
X216719Y308895D01*
X216775Y308826D01*
X216828Y308754D01*
X216878Y308679D01*
X216924Y308603D01*
X216967Y308525D01*
X217006Y308445D01*
X217042Y308363D01*
X217075Y308280D01*
X217103Y308195D01*
X217128Y308110D01*
X217150Y308023D01*
X217167Y307935D01*
X217180Y307847D01*
X217190Y307758D01*
X217196Y307669D01*
X217198Y307580D01*
X217196Y307491D01*
X217190Y307402D01*
X217180Y307313D01*
X217167Y307225D01*
X217150Y307137D01*
X217128Y307050D01*
X217103Y306965D01*
X217075Y306880D01*
X217042Y306797D01*
X217006Y306715D01*
X216967Y306635D01*
X216924Y306557D01*
X216878Y306481D01*
X216828Y306406D01*
X216775Y306334D01*
X216719Y306265D01*
X216660Y306198D01*
X216599Y306133D01*
X216534Y306072D01*
X216467Y306013D01*
X216398Y305957D01*
X216326Y305904D01*
X216251Y305854D01*
X216175Y305808D01*
X216097Y305765D01*
X216017Y305726D01*
X215935Y305690D01*
X215852Y305657D01*
X215767Y305629D01*
X215682Y305604D01*
X215595Y305582D01*
X215507Y305565D01*
X215419Y305552D01*
X215330Y305542D01*
X215241Y305536D01*
X215152Y305534D01*
X213106Y305534D01*
X215561Y305534D02*
X217198Y302260D01*
X224463Y307785D02*
X224461Y307870D01*
X224455Y307955D01*
X224445Y308039D01*
X224432Y308123D01*
X224414Y308207D01*
X224393Y308289D01*
X224368Y308370D01*
X224339Y308450D01*
X224306Y308529D01*
X224270Y308606D01*
X224230Y308681D01*
X224187Y308755D01*
X224141Y308826D01*
X224091Y308895D01*
X224038Y308962D01*
X223982Y309026D01*
X223923Y309087D01*
X223862Y309146D01*
X223798Y309202D01*
X223731Y309255D01*
X223662Y309305D01*
X223591Y309351D01*
X223517Y309394D01*
X223442Y309434D01*
X223365Y309470D01*
X223286Y309503D01*
X223206Y309532D01*
X223125Y309557D01*
X223043Y309578D01*
X222959Y309596D01*
X222875Y309609D01*
X222791Y309619D01*
X222706Y309625D01*
X222621Y309627D01*
X222621Y309626D02*
X222525Y309624D01*
X222429Y309618D01*
X222334Y309608D01*
X222239Y309595D01*
X222144Y309577D01*
X222051Y309556D01*
X221958Y309531D01*
X221867Y309502D01*
X221776Y309470D01*
X221687Y309434D01*
X221600Y309394D01*
X221514Y309351D01*
X221430Y309305D01*
X221348Y309255D01*
X221268Y309201D01*
X221191Y309145D01*
X221116Y309085D01*
X221043Y309023D01*
X220973Y308957D01*
X220905Y308889D01*
X220840Y308818D01*
X220779Y308745D01*
X220720Y308669D01*
X220664Y308590D01*
X220612Y308510D01*
X220563Y308427D01*
X220517Y308343D01*
X220475Y308257D01*
X220437Y308169D01*
X220402Y308080D01*
X220370Y307989D01*
X223848Y306353D02*
X223908Y306412D01*
X223965Y306474D01*
X224020Y306538D01*
X224071Y306605D01*
X224120Y306674D01*
X224166Y306744D01*
X224209Y306817D01*
X224249Y306891D01*
X224285Y306967D01*
X224318Y307045D01*
X224348Y307124D01*
X224375Y307204D01*
X224398Y307285D01*
X224417Y307367D01*
X224433Y307449D01*
X224446Y307533D01*
X224455Y307617D01*
X224460Y307701D01*
X224462Y307785D01*
X223848Y306352D02*
X220370Y302260D01*
X224462Y302260D01*
X227929Y302260D02*
X227929Y309626D01*
X229975Y309626D01*
X230064Y309624D01*
X230153Y309618D01*
X230242Y309608D01*
X230330Y309595D01*
X230418Y309578D01*
X230505Y309556D01*
X230590Y309531D01*
X230675Y309503D01*
X230758Y309470D01*
X230840Y309434D01*
X230920Y309395D01*
X230998Y309352D01*
X231074Y309306D01*
X231149Y309256D01*
X231221Y309203D01*
X231290Y309147D01*
X231357Y309088D01*
X231422Y309027D01*
X231483Y308962D01*
X231542Y308895D01*
X231598Y308826D01*
X231651Y308754D01*
X231701Y308679D01*
X231747Y308603D01*
X231790Y308525D01*
X231829Y308445D01*
X231865Y308363D01*
X231898Y308280D01*
X231926Y308195D01*
X231951Y308110D01*
X231973Y308023D01*
X231990Y307935D01*
X232003Y307847D01*
X232013Y307758D01*
X232019Y307669D01*
X232021Y307580D01*
X232021Y304306D01*
X232019Y304217D01*
X232013Y304128D01*
X232003Y304039D01*
X231990Y303951D01*
X231973Y303863D01*
X231951Y303776D01*
X231926Y303691D01*
X231898Y303606D01*
X231865Y303523D01*
X231829Y303441D01*
X231790Y303361D01*
X231747Y303283D01*
X231701Y303207D01*
X231651Y303132D01*
X231598Y303060D01*
X231542Y302991D01*
X231483Y302924D01*
X231422Y302859D01*
X231357Y302798D01*
X231290Y302739D01*
X231221Y302683D01*
X231149Y302630D01*
X231074Y302580D01*
X230998Y302534D01*
X230920Y302491D01*
X230840Y302452D01*
X230758Y302416D01*
X230675Y302383D01*
X230590Y302355D01*
X230505Y302330D01*
X230418Y302308D01*
X230330Y302291D01*
X230242Y302278D01*
X230153Y302268D01*
X230064Y302262D01*
X229975Y302260D01*
X227929Y302260D01*
X235850Y302260D02*
X235850Y309626D01*
X237896Y309626D01*
X237985Y309624D01*
X238074Y309618D01*
X238163Y309608D01*
X238251Y309595D01*
X238339Y309578D01*
X238426Y309556D01*
X238511Y309531D01*
X238596Y309503D01*
X238679Y309470D01*
X238761Y309434D01*
X238841Y309395D01*
X238919Y309352D01*
X238995Y309306D01*
X239070Y309256D01*
X239142Y309203D01*
X239211Y309147D01*
X239278Y309088D01*
X239343Y309027D01*
X239404Y308962D01*
X239463Y308895D01*
X239519Y308826D01*
X239572Y308754D01*
X239622Y308679D01*
X239668Y308603D01*
X239711Y308525D01*
X239750Y308445D01*
X239786Y308363D01*
X239819Y308280D01*
X239847Y308195D01*
X239872Y308110D01*
X239894Y308023D01*
X239911Y307935D01*
X239924Y307847D01*
X239934Y307758D01*
X239940Y307669D01*
X239942Y307580D01*
X239940Y307491D01*
X239934Y307402D01*
X239924Y307313D01*
X239911Y307225D01*
X239894Y307137D01*
X239872Y307050D01*
X239847Y306965D01*
X239819Y306880D01*
X239786Y306797D01*
X239750Y306715D01*
X239711Y306635D01*
X239668Y306557D01*
X239622Y306481D01*
X239572Y306406D01*
X239519Y306334D01*
X239463Y306265D01*
X239404Y306198D01*
X239343Y306133D01*
X239278Y306072D01*
X239211Y306013D01*
X239142Y305957D01*
X239070Y305904D01*
X238995Y305854D01*
X238919Y305808D01*
X238841Y305765D01*
X238761Y305726D01*
X238679Y305690D01*
X238596Y305657D01*
X238511Y305629D01*
X238426Y305604D01*
X238339Y305582D01*
X238251Y305565D01*
X238163Y305552D01*
X238074Y305542D01*
X237985Y305536D01*
X237896Y305534D01*
X235850Y305534D01*
D12*
X638175Y277495D02*
X638177Y277595D01*
X638183Y277694D01*
X638193Y277794D01*
X638206Y277892D01*
X638224Y277991D01*
X638245Y278088D01*
X638270Y278184D01*
X638299Y278280D01*
X638332Y278374D01*
X638368Y278467D01*
X638408Y278558D01*
X638452Y278648D01*
X638499Y278736D01*
X638549Y278822D01*
X638603Y278906D01*
X638660Y278988D01*
X638720Y279067D01*
X638784Y279145D01*
X638850Y279219D01*
X638919Y279291D01*
X638991Y279360D01*
X639065Y279426D01*
X639143Y279490D01*
X639222Y279550D01*
X639304Y279607D01*
X639388Y279661D01*
X639474Y279711D01*
X639562Y279758D01*
X639652Y279802D01*
X639743Y279842D01*
X639836Y279878D01*
X639930Y279911D01*
X640026Y279940D01*
X640122Y279965D01*
X640219Y279986D01*
X640318Y280004D01*
X640416Y280017D01*
X640516Y280027D01*
X640615Y280033D01*
X640715Y280035D01*
X638175Y262255D02*
X638177Y262155D01*
X638183Y262056D01*
X638193Y261956D01*
X638206Y261858D01*
X638224Y261759D01*
X638245Y261662D01*
X638270Y261566D01*
X638299Y261470D01*
X638332Y261376D01*
X638368Y261283D01*
X638408Y261192D01*
X638452Y261102D01*
X638499Y261014D01*
X638549Y260928D01*
X638603Y260844D01*
X638660Y260762D01*
X638720Y260683D01*
X638784Y260605D01*
X638850Y260531D01*
X638919Y260459D01*
X638991Y260390D01*
X639065Y260324D01*
X639143Y260260D01*
X639222Y260200D01*
X639304Y260143D01*
X639388Y260089D01*
X639474Y260039D01*
X639562Y259992D01*
X639652Y259948D01*
X639743Y259908D01*
X639836Y259872D01*
X639930Y259839D01*
X640026Y259810D01*
X640122Y259785D01*
X640219Y259764D01*
X640318Y259746D01*
X640416Y259733D01*
X640516Y259723D01*
X640615Y259717D01*
X640715Y259715D01*
X686435Y259715D02*
X686535Y259717D01*
X686634Y259723D01*
X686734Y259733D01*
X686832Y259746D01*
X686931Y259764D01*
X687028Y259785D01*
X687124Y259810D01*
X687220Y259839D01*
X687314Y259872D01*
X687407Y259908D01*
X687498Y259948D01*
X687588Y259992D01*
X687676Y260039D01*
X687762Y260089D01*
X687846Y260143D01*
X687928Y260200D01*
X688007Y260260D01*
X688085Y260324D01*
X688159Y260390D01*
X688231Y260459D01*
X688300Y260531D01*
X688366Y260605D01*
X688430Y260683D01*
X688490Y260762D01*
X688547Y260844D01*
X688601Y260928D01*
X688651Y261014D01*
X688698Y261102D01*
X688742Y261192D01*
X688782Y261283D01*
X688818Y261376D01*
X688851Y261470D01*
X688880Y261566D01*
X688905Y261662D01*
X688926Y261759D01*
X688944Y261858D01*
X688957Y261956D01*
X688967Y262056D01*
X688973Y262155D01*
X688975Y262255D01*
X688975Y277495D02*
X688973Y277595D01*
X688967Y277694D01*
X688957Y277794D01*
X688944Y277892D01*
X688926Y277991D01*
X688905Y278088D01*
X688880Y278184D01*
X688851Y278280D01*
X688818Y278374D01*
X688782Y278467D01*
X688742Y278558D01*
X688698Y278648D01*
X688651Y278736D01*
X688601Y278822D01*
X688547Y278906D01*
X688490Y278988D01*
X688430Y279067D01*
X688366Y279145D01*
X688300Y279219D01*
X688231Y279291D01*
X688159Y279360D01*
X688085Y279426D01*
X688007Y279490D01*
X687928Y279550D01*
X687846Y279607D01*
X687762Y279661D01*
X687676Y279711D01*
X687588Y279758D01*
X687498Y279802D01*
X687407Y279842D01*
X687314Y279878D01*
X687220Y279911D01*
X687124Y279940D01*
X687028Y279965D01*
X686931Y279986D01*
X686832Y280004D01*
X686734Y280017D01*
X686634Y280027D01*
X686535Y280033D01*
X686435Y280035D01*
X638175Y277495D02*
X638175Y262255D01*
X640715Y280035D02*
X644525Y280035D01*
X645795Y278765D01*
X644525Y259715D02*
X640715Y259715D01*
X644525Y259715D02*
X645795Y260985D01*
X681355Y278765D02*
X682625Y280035D01*
X681355Y278765D02*
X645795Y278765D01*
X681355Y260985D02*
X682625Y259715D01*
X681355Y260985D02*
X645795Y260985D01*
X682625Y280035D02*
X686435Y280035D01*
X686435Y259715D02*
X682625Y259715D01*
X688975Y262255D02*
X688975Y277495D01*
D14*
X690880Y269875D03*
X636270Y269875D03*
D15*
X618713Y262890D02*
X618713Y255524D01*
X618713Y262890D02*
X620759Y262890D01*
X620848Y262888D01*
X620937Y262882D01*
X621026Y262872D01*
X621114Y262859D01*
X621202Y262842D01*
X621289Y262820D01*
X621374Y262795D01*
X621459Y262767D01*
X621542Y262734D01*
X621624Y262698D01*
X621704Y262659D01*
X621782Y262616D01*
X621858Y262570D01*
X621933Y262520D01*
X622005Y262467D01*
X622074Y262411D01*
X622141Y262352D01*
X622206Y262291D01*
X622267Y262226D01*
X622326Y262159D01*
X622382Y262090D01*
X622435Y262018D01*
X622485Y261943D01*
X622531Y261867D01*
X622574Y261789D01*
X622613Y261709D01*
X622649Y261627D01*
X622682Y261544D01*
X622710Y261459D01*
X622735Y261374D01*
X622757Y261287D01*
X622774Y261199D01*
X622787Y261111D01*
X622797Y261022D01*
X622803Y260933D01*
X622805Y260844D01*
X622803Y260755D01*
X622797Y260666D01*
X622787Y260577D01*
X622774Y260489D01*
X622757Y260401D01*
X622735Y260314D01*
X622710Y260229D01*
X622682Y260144D01*
X622649Y260061D01*
X622613Y259979D01*
X622574Y259899D01*
X622531Y259821D01*
X622485Y259745D01*
X622435Y259670D01*
X622382Y259598D01*
X622326Y259529D01*
X622267Y259462D01*
X622206Y259397D01*
X622141Y259336D01*
X622074Y259277D01*
X622005Y259221D01*
X621933Y259168D01*
X621858Y259118D01*
X621782Y259072D01*
X621704Y259029D01*
X621624Y258990D01*
X621542Y258954D01*
X621459Y258921D01*
X621374Y258893D01*
X621289Y258868D01*
X621202Y258846D01*
X621114Y258829D01*
X621026Y258816D01*
X620937Y258806D01*
X620848Y258800D01*
X620759Y258798D01*
X618713Y258798D01*
X621169Y258798D02*
X622806Y255524D01*
X625977Y255524D02*
X628023Y255524D01*
X628112Y255526D01*
X628201Y255532D01*
X628290Y255542D01*
X628378Y255555D01*
X628466Y255572D01*
X628553Y255594D01*
X628638Y255619D01*
X628723Y255647D01*
X628806Y255680D01*
X628888Y255716D01*
X628968Y255755D01*
X629046Y255798D01*
X629122Y255844D01*
X629197Y255894D01*
X629269Y255947D01*
X629338Y256003D01*
X629405Y256062D01*
X629470Y256123D01*
X629531Y256188D01*
X629590Y256255D01*
X629646Y256324D01*
X629699Y256396D01*
X629749Y256471D01*
X629795Y256547D01*
X629838Y256625D01*
X629877Y256705D01*
X629913Y256787D01*
X629946Y256870D01*
X629974Y256955D01*
X629999Y257040D01*
X630021Y257127D01*
X630038Y257215D01*
X630051Y257303D01*
X630061Y257392D01*
X630067Y257481D01*
X630069Y257570D01*
X630067Y257659D01*
X630061Y257748D01*
X630051Y257837D01*
X630038Y257925D01*
X630021Y258013D01*
X629999Y258100D01*
X629974Y258185D01*
X629946Y258270D01*
X629913Y258353D01*
X629877Y258435D01*
X629838Y258515D01*
X629795Y258593D01*
X629749Y258669D01*
X629699Y258744D01*
X629646Y258816D01*
X629590Y258885D01*
X629531Y258952D01*
X629470Y259017D01*
X629405Y259078D01*
X629338Y259137D01*
X629269Y259193D01*
X629197Y259246D01*
X629122Y259296D01*
X629046Y259342D01*
X628968Y259385D01*
X628888Y259424D01*
X628806Y259460D01*
X628723Y259493D01*
X628638Y259521D01*
X628553Y259546D01*
X628466Y259568D01*
X628378Y259585D01*
X628290Y259598D01*
X628201Y259608D01*
X628112Y259614D01*
X628023Y259616D01*
X628433Y262890D02*
X625977Y262890D01*
X628433Y262890D02*
X628512Y262888D01*
X628591Y262882D01*
X628670Y262873D01*
X628748Y262860D01*
X628825Y262842D01*
X628901Y262822D01*
X628976Y262797D01*
X629050Y262769D01*
X629123Y262738D01*
X629194Y262702D01*
X629263Y262664D01*
X629330Y262622D01*
X629395Y262577D01*
X629458Y262529D01*
X629519Y262478D01*
X629576Y262424D01*
X629632Y262368D01*
X629684Y262309D01*
X629734Y262247D01*
X629780Y262183D01*
X629824Y262117D01*
X629864Y262049D01*
X629900Y261979D01*
X629934Y261907D01*
X629964Y261833D01*
X629990Y261759D01*
X630013Y261683D01*
X630031Y261606D01*
X630047Y261529D01*
X630058Y261450D01*
X630066Y261372D01*
X630070Y261293D01*
X630070Y261213D01*
X630066Y261134D01*
X630058Y261056D01*
X630047Y260977D01*
X630031Y260900D01*
X630013Y260823D01*
X629990Y260747D01*
X629964Y260673D01*
X629934Y260599D01*
X629900Y260527D01*
X629864Y260457D01*
X629824Y260389D01*
X629780Y260323D01*
X629734Y260259D01*
X629684Y260197D01*
X629632Y260138D01*
X629576Y260082D01*
X629519Y260028D01*
X629458Y259977D01*
X629395Y259929D01*
X629330Y259884D01*
X629263Y259842D01*
X629194Y259804D01*
X629123Y259768D01*
X629050Y259737D01*
X628976Y259709D01*
X628901Y259684D01*
X628825Y259664D01*
X628748Y259646D01*
X628670Y259633D01*
X628591Y259624D01*
X628512Y259618D01*
X628433Y259616D01*
X626796Y259616D01*
X632883Y255524D02*
X635339Y262890D01*
X637794Y255524D01*
X637180Y257366D02*
X633497Y257366D01*
D12*
X638175Y302895D02*
X638177Y302995D01*
X638183Y303094D01*
X638193Y303194D01*
X638206Y303292D01*
X638224Y303391D01*
X638245Y303488D01*
X638270Y303584D01*
X638299Y303680D01*
X638332Y303774D01*
X638368Y303867D01*
X638408Y303958D01*
X638452Y304048D01*
X638499Y304136D01*
X638549Y304222D01*
X638603Y304306D01*
X638660Y304388D01*
X638720Y304467D01*
X638784Y304545D01*
X638850Y304619D01*
X638919Y304691D01*
X638991Y304760D01*
X639065Y304826D01*
X639143Y304890D01*
X639222Y304950D01*
X639304Y305007D01*
X639388Y305061D01*
X639474Y305111D01*
X639562Y305158D01*
X639652Y305202D01*
X639743Y305242D01*
X639836Y305278D01*
X639930Y305311D01*
X640026Y305340D01*
X640122Y305365D01*
X640219Y305386D01*
X640318Y305404D01*
X640416Y305417D01*
X640516Y305427D01*
X640615Y305433D01*
X640715Y305435D01*
X638175Y287655D02*
X638177Y287555D01*
X638183Y287456D01*
X638193Y287356D01*
X638206Y287258D01*
X638224Y287159D01*
X638245Y287062D01*
X638270Y286966D01*
X638299Y286870D01*
X638332Y286776D01*
X638368Y286683D01*
X638408Y286592D01*
X638452Y286502D01*
X638499Y286414D01*
X638549Y286328D01*
X638603Y286244D01*
X638660Y286162D01*
X638720Y286083D01*
X638784Y286005D01*
X638850Y285931D01*
X638919Y285859D01*
X638991Y285790D01*
X639065Y285724D01*
X639143Y285660D01*
X639222Y285600D01*
X639304Y285543D01*
X639388Y285489D01*
X639474Y285439D01*
X639562Y285392D01*
X639652Y285348D01*
X639743Y285308D01*
X639836Y285272D01*
X639930Y285239D01*
X640026Y285210D01*
X640122Y285185D01*
X640219Y285164D01*
X640318Y285146D01*
X640416Y285133D01*
X640516Y285123D01*
X640615Y285117D01*
X640715Y285115D01*
X686435Y285115D02*
X686535Y285117D01*
X686634Y285123D01*
X686734Y285133D01*
X686832Y285146D01*
X686931Y285164D01*
X687028Y285185D01*
X687124Y285210D01*
X687220Y285239D01*
X687314Y285272D01*
X687407Y285308D01*
X687498Y285348D01*
X687588Y285392D01*
X687676Y285439D01*
X687762Y285489D01*
X687846Y285543D01*
X687928Y285600D01*
X688007Y285660D01*
X688085Y285724D01*
X688159Y285790D01*
X688231Y285859D01*
X688300Y285931D01*
X688366Y286005D01*
X688430Y286083D01*
X688490Y286162D01*
X688547Y286244D01*
X688601Y286328D01*
X688651Y286414D01*
X688698Y286502D01*
X688742Y286592D01*
X688782Y286683D01*
X688818Y286776D01*
X688851Y286870D01*
X688880Y286966D01*
X688905Y287062D01*
X688926Y287159D01*
X688944Y287258D01*
X688957Y287356D01*
X688967Y287456D01*
X688973Y287555D01*
X688975Y287655D01*
X688975Y302895D02*
X688973Y302995D01*
X688967Y303094D01*
X688957Y303194D01*
X688944Y303292D01*
X688926Y303391D01*
X688905Y303488D01*
X688880Y303584D01*
X688851Y303680D01*
X688818Y303774D01*
X688782Y303867D01*
X688742Y303958D01*
X688698Y304048D01*
X688651Y304136D01*
X688601Y304222D01*
X688547Y304306D01*
X688490Y304388D01*
X688430Y304467D01*
X688366Y304545D01*
X688300Y304619D01*
X688231Y304691D01*
X688159Y304760D01*
X688085Y304826D01*
X688007Y304890D01*
X687928Y304950D01*
X687846Y305007D01*
X687762Y305061D01*
X687676Y305111D01*
X687588Y305158D01*
X687498Y305202D01*
X687407Y305242D01*
X687314Y305278D01*
X687220Y305311D01*
X687124Y305340D01*
X687028Y305365D01*
X686931Y305386D01*
X686832Y305404D01*
X686734Y305417D01*
X686634Y305427D01*
X686535Y305433D01*
X686435Y305435D01*
X638175Y302895D02*
X638175Y287655D01*
X640715Y305435D02*
X644525Y305435D01*
X645795Y304165D01*
X644525Y285115D02*
X640715Y285115D01*
X644525Y285115D02*
X645795Y286385D01*
X681355Y304165D02*
X682625Y305435D01*
X681355Y304165D02*
X645795Y304165D01*
X681355Y286385D02*
X682625Y285115D01*
X681355Y286385D02*
X645795Y286385D01*
X682625Y305435D02*
X686435Y305435D01*
X686435Y285115D02*
X682625Y285115D01*
X688975Y287655D02*
X688975Y302895D01*
D14*
X690880Y295275D03*
X636270Y295275D03*
D15*
X618761Y288290D02*
X618761Y280924D01*
X618761Y288290D02*
X620807Y288290D01*
X620896Y288288D01*
X620985Y288282D01*
X621074Y288272D01*
X621162Y288259D01*
X621250Y288242D01*
X621337Y288220D01*
X621422Y288195D01*
X621507Y288167D01*
X621590Y288134D01*
X621672Y288098D01*
X621752Y288059D01*
X621830Y288016D01*
X621906Y287970D01*
X621981Y287920D01*
X622053Y287867D01*
X622122Y287811D01*
X622189Y287752D01*
X622254Y287691D01*
X622315Y287626D01*
X622374Y287559D01*
X622430Y287490D01*
X622483Y287418D01*
X622533Y287343D01*
X622579Y287267D01*
X622622Y287189D01*
X622661Y287109D01*
X622697Y287027D01*
X622730Y286944D01*
X622758Y286859D01*
X622783Y286774D01*
X622805Y286687D01*
X622822Y286599D01*
X622835Y286511D01*
X622845Y286422D01*
X622851Y286333D01*
X622853Y286244D01*
X622851Y286155D01*
X622845Y286066D01*
X622835Y285977D01*
X622822Y285889D01*
X622805Y285801D01*
X622783Y285714D01*
X622758Y285629D01*
X622730Y285544D01*
X622697Y285461D01*
X622661Y285379D01*
X622622Y285299D01*
X622579Y285221D01*
X622533Y285145D01*
X622483Y285070D01*
X622430Y284998D01*
X622374Y284929D01*
X622315Y284862D01*
X622254Y284797D01*
X622189Y284736D01*
X622122Y284677D01*
X622053Y284621D01*
X621981Y284568D01*
X621906Y284518D01*
X621830Y284472D01*
X621752Y284429D01*
X621672Y284390D01*
X621590Y284354D01*
X621507Y284321D01*
X621422Y284293D01*
X621337Y284268D01*
X621250Y284246D01*
X621162Y284229D01*
X621074Y284216D01*
X620985Y284206D01*
X620896Y284200D01*
X620807Y284198D01*
X618761Y284198D01*
X621216Y284198D02*
X622853Y280924D01*
X626025Y280924D02*
X628071Y280924D01*
X628160Y280926D01*
X628249Y280932D01*
X628338Y280942D01*
X628426Y280955D01*
X628514Y280972D01*
X628601Y280994D01*
X628686Y281019D01*
X628771Y281047D01*
X628854Y281080D01*
X628936Y281116D01*
X629016Y281155D01*
X629094Y281198D01*
X629170Y281244D01*
X629245Y281294D01*
X629317Y281347D01*
X629386Y281403D01*
X629453Y281462D01*
X629518Y281523D01*
X629579Y281588D01*
X629638Y281655D01*
X629694Y281724D01*
X629747Y281796D01*
X629797Y281871D01*
X629843Y281947D01*
X629886Y282025D01*
X629925Y282105D01*
X629961Y282187D01*
X629994Y282270D01*
X630022Y282355D01*
X630047Y282440D01*
X630069Y282527D01*
X630086Y282615D01*
X630099Y282703D01*
X630109Y282792D01*
X630115Y282881D01*
X630117Y282970D01*
X630115Y283059D01*
X630109Y283148D01*
X630099Y283237D01*
X630086Y283325D01*
X630069Y283413D01*
X630047Y283500D01*
X630022Y283585D01*
X629994Y283670D01*
X629961Y283753D01*
X629925Y283835D01*
X629886Y283915D01*
X629843Y283993D01*
X629797Y284069D01*
X629747Y284144D01*
X629694Y284216D01*
X629638Y284285D01*
X629579Y284352D01*
X629518Y284417D01*
X629453Y284478D01*
X629386Y284537D01*
X629317Y284593D01*
X629245Y284646D01*
X629170Y284696D01*
X629094Y284742D01*
X629016Y284785D01*
X628936Y284824D01*
X628854Y284860D01*
X628771Y284893D01*
X628686Y284921D01*
X628601Y284946D01*
X628514Y284968D01*
X628426Y284985D01*
X628338Y284998D01*
X628249Y285008D01*
X628160Y285014D01*
X628071Y285016D01*
X628480Y288290D02*
X626025Y288290D01*
X628480Y288290D02*
X628559Y288288D01*
X628638Y288282D01*
X628717Y288273D01*
X628795Y288260D01*
X628872Y288242D01*
X628948Y288222D01*
X629023Y288197D01*
X629097Y288169D01*
X629170Y288138D01*
X629241Y288102D01*
X629310Y288064D01*
X629377Y288022D01*
X629442Y287977D01*
X629505Y287929D01*
X629566Y287878D01*
X629623Y287824D01*
X629679Y287768D01*
X629731Y287709D01*
X629781Y287647D01*
X629827Y287583D01*
X629871Y287517D01*
X629911Y287449D01*
X629947Y287379D01*
X629981Y287307D01*
X630011Y287233D01*
X630037Y287159D01*
X630060Y287083D01*
X630078Y287006D01*
X630094Y286929D01*
X630105Y286850D01*
X630113Y286772D01*
X630117Y286693D01*
X630117Y286613D01*
X630113Y286534D01*
X630105Y286456D01*
X630094Y286377D01*
X630078Y286300D01*
X630060Y286223D01*
X630037Y286147D01*
X630011Y286073D01*
X629981Y285999D01*
X629947Y285927D01*
X629911Y285857D01*
X629871Y285789D01*
X629827Y285723D01*
X629781Y285659D01*
X629731Y285597D01*
X629679Y285538D01*
X629623Y285482D01*
X629566Y285428D01*
X629505Y285377D01*
X629442Y285329D01*
X629377Y285284D01*
X629310Y285242D01*
X629241Y285204D01*
X629170Y285168D01*
X629097Y285137D01*
X629023Y285109D01*
X628948Y285084D01*
X628872Y285064D01*
X628795Y285046D01*
X628717Y285033D01*
X628638Y285024D01*
X628559Y285018D01*
X628480Y285016D01*
X626844Y285016D01*
X633702Y285016D02*
X635748Y285016D01*
X635837Y285014D01*
X635926Y285008D01*
X636015Y284998D01*
X636103Y284985D01*
X636191Y284968D01*
X636278Y284946D01*
X636363Y284921D01*
X636448Y284893D01*
X636531Y284860D01*
X636613Y284824D01*
X636693Y284785D01*
X636771Y284742D01*
X636847Y284696D01*
X636922Y284646D01*
X636994Y284593D01*
X637063Y284537D01*
X637130Y284478D01*
X637195Y284417D01*
X637256Y284352D01*
X637315Y284285D01*
X637371Y284216D01*
X637424Y284144D01*
X637474Y284069D01*
X637520Y283993D01*
X637563Y283915D01*
X637602Y283835D01*
X637638Y283753D01*
X637671Y283670D01*
X637699Y283585D01*
X637724Y283500D01*
X637746Y283413D01*
X637763Y283325D01*
X637776Y283237D01*
X637786Y283148D01*
X637792Y283059D01*
X637794Y282970D01*
X637792Y282881D01*
X637786Y282792D01*
X637776Y282703D01*
X637763Y282615D01*
X637746Y282527D01*
X637724Y282440D01*
X637699Y282355D01*
X637671Y282270D01*
X637638Y282187D01*
X637602Y282105D01*
X637563Y282025D01*
X637520Y281947D01*
X637474Y281871D01*
X637424Y281796D01*
X637371Y281724D01*
X637315Y281655D01*
X637256Y281588D01*
X637195Y281523D01*
X637130Y281462D01*
X637063Y281403D01*
X636994Y281347D01*
X636922Y281294D01*
X636847Y281244D01*
X636771Y281198D01*
X636693Y281155D01*
X636613Y281116D01*
X636531Y281080D01*
X636448Y281047D01*
X636363Y281019D01*
X636278Y280994D01*
X636191Y280972D01*
X636103Y280955D01*
X636015Y280942D01*
X635926Y280932D01*
X635837Y280926D01*
X635748Y280924D01*
X633702Y280924D01*
X633702Y288290D01*
X635748Y288290D01*
X635827Y288288D01*
X635906Y288282D01*
X635985Y288273D01*
X636063Y288260D01*
X636140Y288242D01*
X636216Y288222D01*
X636291Y288197D01*
X636365Y288169D01*
X636438Y288138D01*
X636509Y288102D01*
X636578Y288064D01*
X636645Y288022D01*
X636710Y287977D01*
X636773Y287929D01*
X636834Y287878D01*
X636891Y287824D01*
X636947Y287768D01*
X636999Y287709D01*
X637049Y287647D01*
X637095Y287583D01*
X637139Y287517D01*
X637179Y287449D01*
X637215Y287379D01*
X637249Y287307D01*
X637279Y287233D01*
X637305Y287159D01*
X637328Y287083D01*
X637346Y287006D01*
X637362Y286929D01*
X637373Y286850D01*
X637381Y286772D01*
X637385Y286693D01*
X637385Y286613D01*
X637381Y286534D01*
X637373Y286456D01*
X637362Y286377D01*
X637346Y286300D01*
X637328Y286223D01*
X637305Y286147D01*
X637279Y286073D01*
X637249Y285999D01*
X637215Y285927D01*
X637179Y285857D01*
X637139Y285789D01*
X637095Y285723D01*
X637049Y285659D01*
X636999Y285597D01*
X636947Y285538D01*
X636891Y285482D01*
X636834Y285428D01*
X636773Y285377D01*
X636710Y285329D01*
X636645Y285284D01*
X636578Y285242D01*
X636509Y285204D01*
X636438Y285168D01*
X636365Y285137D01*
X636291Y285109D01*
X636216Y285084D01*
X636140Y285064D01*
X636063Y285046D01*
X635985Y285033D01*
X635906Y285024D01*
X635827Y285018D01*
X635748Y285016D01*
D12*
X518160Y114935D02*
X518160Y78105D01*
X514350Y74295D02*
X476250Y74295D01*
X472440Y78105D02*
X472440Y114935D01*
X510540Y122555D02*
X518160Y114935D01*
X512064Y116205D02*
X505714Y116205D01*
X509016Y112903D02*
X509016Y119507D01*
X480060Y122555D02*
X472440Y114935D01*
X480060Y122555D02*
X510540Y122555D01*
X518160Y78105D02*
X518158Y77983D01*
X518152Y77861D01*
X518142Y77739D01*
X518129Y77618D01*
X518111Y77497D01*
X518090Y77377D01*
X518064Y77257D01*
X518035Y77139D01*
X518003Y77021D01*
X517966Y76904D01*
X517926Y76789D01*
X517882Y76675D01*
X517834Y76563D01*
X517783Y76452D01*
X517728Y76343D01*
X517670Y76235D01*
X517608Y76130D01*
X517543Y76027D01*
X517475Y75925D01*
X517403Y75826D01*
X517329Y75730D01*
X517251Y75635D01*
X517170Y75544D01*
X517087Y75454D01*
X517001Y75368D01*
X516911Y75285D01*
X516820Y75204D01*
X516725Y75126D01*
X516629Y75052D01*
X516530Y74980D01*
X516428Y74912D01*
X516325Y74847D01*
X516220Y74785D01*
X516112Y74727D01*
X516003Y74672D01*
X515892Y74621D01*
X515780Y74573D01*
X515666Y74529D01*
X515551Y74489D01*
X515434Y74452D01*
X515316Y74420D01*
X515198Y74391D01*
X515078Y74365D01*
X514958Y74344D01*
X514837Y74326D01*
X514716Y74313D01*
X514594Y74303D01*
X514472Y74297D01*
X514350Y74295D01*
X476250Y74295D02*
X476128Y74297D01*
X476006Y74303D01*
X475884Y74313D01*
X475763Y74326D01*
X475642Y74344D01*
X475522Y74365D01*
X475402Y74391D01*
X475284Y74420D01*
X475166Y74452D01*
X475049Y74489D01*
X474934Y74529D01*
X474820Y74573D01*
X474708Y74621D01*
X474597Y74672D01*
X474488Y74727D01*
X474380Y74785D01*
X474275Y74847D01*
X474172Y74912D01*
X474070Y74980D01*
X473971Y75052D01*
X473875Y75126D01*
X473780Y75204D01*
X473689Y75285D01*
X473599Y75368D01*
X473513Y75454D01*
X473430Y75544D01*
X473349Y75635D01*
X473271Y75730D01*
X473197Y75826D01*
X473125Y75925D01*
X473057Y76027D01*
X472992Y76130D01*
X472930Y76235D01*
X472872Y76343D01*
X472817Y76452D01*
X472766Y76563D01*
X472718Y76675D01*
X472674Y76789D01*
X472634Y76904D01*
X472597Y77021D01*
X472565Y77139D01*
X472536Y77257D01*
X472510Y77377D01*
X472489Y77497D01*
X472471Y77618D01*
X472458Y77739D01*
X472448Y77861D01*
X472442Y77983D01*
X472440Y78105D01*
X552450Y76835D02*
X552450Y120015D01*
X527050Y120015D02*
X527050Y76835D01*
X529590Y74295D02*
X549910Y74295D01*
X549910Y122555D02*
X529590Y122555D01*
X552450Y76835D02*
X552448Y76735D01*
X552442Y76636D01*
X552432Y76536D01*
X552419Y76438D01*
X552401Y76339D01*
X552380Y76242D01*
X552355Y76146D01*
X552326Y76050D01*
X552293Y75956D01*
X552257Y75863D01*
X552217Y75772D01*
X552173Y75682D01*
X552126Y75594D01*
X552076Y75508D01*
X552022Y75424D01*
X551965Y75342D01*
X551905Y75263D01*
X551841Y75185D01*
X551775Y75111D01*
X551706Y75039D01*
X551634Y74970D01*
X551560Y74904D01*
X551482Y74840D01*
X551403Y74780D01*
X551321Y74723D01*
X551237Y74669D01*
X551151Y74619D01*
X551063Y74572D01*
X550973Y74528D01*
X550882Y74488D01*
X550789Y74452D01*
X550695Y74419D01*
X550599Y74390D01*
X550503Y74365D01*
X550406Y74344D01*
X550307Y74326D01*
X550209Y74313D01*
X550109Y74303D01*
X550010Y74297D01*
X549910Y74295D01*
X552450Y120015D02*
X552448Y120115D01*
X552442Y120214D01*
X552432Y120314D01*
X552419Y120412D01*
X552401Y120511D01*
X552380Y120608D01*
X552355Y120704D01*
X552326Y120800D01*
X552293Y120894D01*
X552257Y120987D01*
X552217Y121078D01*
X552173Y121168D01*
X552126Y121256D01*
X552076Y121342D01*
X552022Y121426D01*
X551965Y121508D01*
X551905Y121587D01*
X551841Y121665D01*
X551775Y121739D01*
X551706Y121811D01*
X551634Y121880D01*
X551560Y121946D01*
X551482Y122010D01*
X551403Y122070D01*
X551321Y122127D01*
X551237Y122181D01*
X551151Y122231D01*
X551063Y122278D01*
X550973Y122322D01*
X550882Y122362D01*
X550789Y122398D01*
X550695Y122431D01*
X550599Y122460D01*
X550503Y122485D01*
X550406Y122506D01*
X550307Y122524D01*
X550209Y122537D01*
X550109Y122547D01*
X550010Y122553D01*
X549910Y122555D01*
X527050Y76835D02*
X527052Y76735D01*
X527058Y76636D01*
X527068Y76536D01*
X527081Y76438D01*
X527099Y76339D01*
X527120Y76242D01*
X527145Y76146D01*
X527174Y76050D01*
X527207Y75956D01*
X527243Y75863D01*
X527283Y75772D01*
X527327Y75682D01*
X527374Y75594D01*
X527424Y75508D01*
X527478Y75424D01*
X527535Y75342D01*
X527595Y75263D01*
X527659Y75185D01*
X527725Y75111D01*
X527794Y75039D01*
X527866Y74970D01*
X527940Y74904D01*
X528018Y74840D01*
X528097Y74780D01*
X528179Y74723D01*
X528263Y74669D01*
X528349Y74619D01*
X528437Y74572D01*
X528527Y74528D01*
X528618Y74488D01*
X528711Y74452D01*
X528805Y74419D01*
X528901Y74390D01*
X528997Y74365D01*
X529094Y74344D01*
X529193Y74326D01*
X529291Y74313D01*
X529391Y74303D01*
X529490Y74297D01*
X529590Y74295D01*
X527050Y120015D02*
X527052Y120115D01*
X527058Y120214D01*
X527068Y120314D01*
X527081Y120412D01*
X527099Y120511D01*
X527120Y120608D01*
X527145Y120704D01*
X527174Y120800D01*
X527207Y120894D01*
X527243Y120987D01*
X527283Y121078D01*
X527327Y121168D01*
X527374Y121256D01*
X527424Y121342D01*
X527478Y121426D01*
X527535Y121508D01*
X527595Y121587D01*
X527659Y121665D01*
X527725Y121739D01*
X527794Y121811D01*
X527866Y121880D01*
X527940Y121946D01*
X528018Y122010D01*
X528097Y122070D01*
X528179Y122127D01*
X528263Y122181D01*
X528349Y122231D01*
X528437Y122278D01*
X528527Y122322D01*
X528618Y122362D01*
X528711Y122398D01*
X528805Y122431D01*
X528901Y122460D01*
X528997Y122485D01*
X529094Y122506D01*
X529193Y122524D01*
X529291Y122537D01*
X529391Y122547D01*
X529490Y122553D01*
X529590Y122555D01*
X539750Y95885D02*
X539750Y94615D01*
D13*
X539750Y95885D02*
X547370Y95885D01*
X539750Y95885D02*
X532130Y95885D01*
X539750Y100965D02*
X547370Y100965D01*
X539750Y100965D02*
X532130Y100965D01*
D12*
X539750Y100965D02*
X539750Y102235D01*
M02*
