G04 EAGLE Gerber RS-274X export*
G75*
%MOMM*%
%FSLAX34Y34*%
%LPD*%
%IN*%
%IPPOS*%
%AMOC8*
5,1,8,0,0,1.08239X$1,22.5*%
G01*
%ADD10C,0.254000*%


D10*
X0Y20000D02*
X76Y18257D01*
X304Y16527D01*
X681Y14824D01*
X1206Y13160D01*
X1874Y11548D01*
X2680Y10000D01*
X3617Y8528D01*
X4679Y7144D01*
X5858Y5858D01*
X7144Y4679D01*
X8528Y3617D01*
X10000Y2680D01*
X11548Y1874D01*
X13160Y1206D01*
X14824Y681D01*
X16527Y304D01*
X18257Y76D01*
X20000Y0D01*
X620000Y0D01*
X621743Y76D01*
X623473Y304D01*
X625176Y681D01*
X626840Y1206D01*
X628452Y1874D01*
X630000Y2680D01*
X631472Y3617D01*
X632856Y4679D01*
X634142Y5858D01*
X635321Y7144D01*
X636383Y8528D01*
X637321Y10000D01*
X638126Y11548D01*
X638794Y13160D01*
X639319Y14824D01*
X639696Y16527D01*
X639924Y18257D01*
X640000Y20000D01*
X640000Y40000D01*
X639924Y41743D01*
X639696Y43473D01*
X639319Y45176D01*
X638794Y46840D01*
X638126Y48452D01*
X637321Y50000D01*
X636383Y51472D01*
X635321Y52856D01*
X634142Y54142D01*
X632856Y55321D01*
X631472Y56383D01*
X630000Y57321D01*
X628452Y58126D01*
X626840Y58794D01*
X625176Y59319D01*
X623473Y59696D01*
X621743Y59924D01*
X620000Y60000D01*
X570000Y60000D01*
X568257Y60076D01*
X566527Y60304D01*
X564824Y60681D01*
X563160Y61206D01*
X561548Y61874D01*
X560000Y62680D01*
X558528Y63617D01*
X557144Y64679D01*
X555858Y65858D01*
X554679Y67144D01*
X553617Y68528D01*
X552680Y70000D01*
X551874Y71548D01*
X551206Y73160D01*
X550681Y74824D01*
X550304Y76527D01*
X550076Y78257D01*
X550000Y80000D01*
X550000Y380000D01*
X549924Y381743D01*
X549696Y383473D01*
X549319Y385176D01*
X548794Y386840D01*
X548126Y388452D01*
X547321Y390000D01*
X546383Y391472D01*
X545321Y392856D01*
X544142Y394142D01*
X542856Y395321D01*
X541472Y396383D01*
X540000Y397321D01*
X538452Y398126D01*
X536840Y398794D01*
X535176Y399319D01*
X533473Y399696D01*
X531743Y399924D01*
X530000Y400000D01*
X20000Y400000D01*
X18257Y399924D01*
X16527Y399696D01*
X14824Y399319D01*
X13160Y398794D01*
X11548Y398126D01*
X10000Y397321D01*
X8528Y396383D01*
X7144Y395321D01*
X5858Y394142D01*
X4679Y392856D01*
X3617Y391472D01*
X2680Y390000D01*
X1874Y388452D01*
X1206Y386840D01*
X681Y385176D01*
X304Y383473D01*
X76Y381743D01*
X0Y380000D01*
X0Y20000D01*
X46000Y29476D02*
X45932Y28431D01*
X45795Y27392D01*
X45590Y26365D01*
X45319Y25353D01*
X44983Y24361D01*
X44582Y23393D01*
X44118Y22454D01*
X43595Y21546D01*
X43013Y20675D01*
X42375Y19844D01*
X41684Y19057D01*
X40943Y18316D01*
X40156Y17625D01*
X39325Y16988D01*
X38454Y16406D01*
X37546Y15882D01*
X36607Y15418D01*
X35639Y15017D01*
X34647Y14681D01*
X33635Y14410D01*
X32608Y14205D01*
X31569Y14069D01*
X30524Y14000D01*
X29476Y14000D01*
X28431Y14069D01*
X27392Y14205D01*
X26365Y14410D01*
X25353Y14681D01*
X24361Y15017D01*
X23393Y15418D01*
X22454Y15882D01*
X21546Y16406D01*
X20675Y16988D01*
X19844Y17625D01*
X19057Y18316D01*
X18316Y19057D01*
X17625Y19844D01*
X16988Y20675D01*
X16406Y21546D01*
X15882Y22454D01*
X15418Y23393D01*
X15017Y24361D01*
X14681Y25353D01*
X14410Y26365D01*
X14205Y27392D01*
X14069Y28431D01*
X14000Y29476D01*
X14000Y30524D01*
X14069Y31569D01*
X14205Y32608D01*
X14410Y33635D01*
X14681Y34647D01*
X15017Y35639D01*
X15418Y36607D01*
X15882Y37546D01*
X16406Y38454D01*
X16988Y39325D01*
X17625Y40156D01*
X18316Y40943D01*
X19057Y41684D01*
X19844Y42375D01*
X20675Y43013D01*
X21546Y43595D01*
X22454Y44118D01*
X23393Y44582D01*
X24361Y44983D01*
X25353Y45319D01*
X26365Y45590D01*
X27392Y45795D01*
X28431Y45932D01*
X29476Y46000D01*
X30524Y46000D01*
X31569Y45932D01*
X32608Y45795D01*
X33635Y45590D01*
X34647Y45319D01*
X35639Y44983D01*
X36607Y44582D01*
X37546Y44118D01*
X38454Y43595D01*
X39325Y43013D01*
X40156Y42375D01*
X40943Y41684D01*
X41684Y40943D01*
X42375Y40156D01*
X43013Y39325D01*
X43595Y38454D01*
X44118Y37546D01*
X44582Y36607D01*
X44983Y35639D01*
X45319Y34647D01*
X45590Y33635D01*
X45795Y32608D01*
X45932Y31569D01*
X46000Y30524D01*
X46000Y29476D01*
X46000Y369476D02*
X45932Y368431D01*
X45795Y367392D01*
X45590Y366365D01*
X45319Y365353D01*
X44983Y364361D01*
X44582Y363393D01*
X44118Y362454D01*
X43595Y361546D01*
X43013Y360675D01*
X42375Y359844D01*
X41684Y359057D01*
X40943Y358316D01*
X40156Y357625D01*
X39325Y356988D01*
X38454Y356406D01*
X37546Y355882D01*
X36607Y355418D01*
X35639Y355017D01*
X34647Y354681D01*
X33635Y354410D01*
X32608Y354205D01*
X31569Y354069D01*
X30524Y354000D01*
X29476Y354000D01*
X28431Y354069D01*
X27392Y354205D01*
X26365Y354410D01*
X25353Y354681D01*
X24361Y355017D01*
X23393Y355418D01*
X22454Y355882D01*
X21546Y356406D01*
X20675Y356988D01*
X19844Y357625D01*
X19057Y358316D01*
X18316Y359057D01*
X17625Y359844D01*
X16988Y360675D01*
X16406Y361546D01*
X15882Y362454D01*
X15418Y363393D01*
X15017Y364361D01*
X14681Y365353D01*
X14410Y366365D01*
X14205Y367392D01*
X14069Y368431D01*
X14000Y369476D01*
X14000Y370524D01*
X14069Y371569D01*
X14205Y372608D01*
X14410Y373635D01*
X14681Y374647D01*
X15017Y375639D01*
X15418Y376607D01*
X15882Y377546D01*
X16406Y378454D01*
X16988Y379325D01*
X17625Y380156D01*
X18316Y380943D01*
X19057Y381684D01*
X19844Y382375D01*
X20675Y383013D01*
X21546Y383595D01*
X22454Y384118D01*
X23393Y384582D01*
X24361Y384983D01*
X25353Y385319D01*
X26365Y385590D01*
X27392Y385795D01*
X28431Y385932D01*
X29476Y386000D01*
X30524Y386000D01*
X31569Y385932D01*
X32608Y385795D01*
X33635Y385590D01*
X34647Y385319D01*
X35639Y384983D01*
X36607Y384582D01*
X37546Y384118D01*
X38454Y383595D01*
X39325Y383013D01*
X40156Y382375D01*
X40943Y381684D01*
X41684Y380943D01*
X42375Y380156D01*
X43013Y379325D01*
X43595Y378454D01*
X44118Y377546D01*
X44582Y376607D01*
X44983Y375639D01*
X45319Y374647D01*
X45590Y373635D01*
X45795Y372608D01*
X45932Y371569D01*
X46000Y370524D01*
X46000Y369476D01*
X616000Y29476D02*
X615932Y28431D01*
X615795Y27392D01*
X615590Y26365D01*
X615319Y25353D01*
X614983Y24361D01*
X614582Y23393D01*
X614118Y22454D01*
X613595Y21546D01*
X613013Y20675D01*
X612375Y19844D01*
X611684Y19057D01*
X610943Y18316D01*
X610156Y17625D01*
X609325Y16988D01*
X608454Y16406D01*
X607546Y15882D01*
X606607Y15418D01*
X605639Y15017D01*
X604647Y14681D01*
X603635Y14410D01*
X602608Y14205D01*
X601569Y14069D01*
X600524Y14000D01*
X599476Y14000D01*
X598431Y14069D01*
X597392Y14205D01*
X596365Y14410D01*
X595353Y14681D01*
X594361Y15017D01*
X593393Y15418D01*
X592454Y15882D01*
X591546Y16406D01*
X590675Y16988D01*
X589844Y17625D01*
X589057Y18316D01*
X588316Y19057D01*
X587625Y19844D01*
X586988Y20675D01*
X586406Y21546D01*
X585882Y22454D01*
X585418Y23393D01*
X585017Y24361D01*
X584681Y25353D01*
X584410Y26365D01*
X584205Y27392D01*
X584069Y28431D01*
X584000Y29476D01*
X584000Y30524D01*
X584069Y31569D01*
X584205Y32608D01*
X584410Y33635D01*
X584681Y34647D01*
X585017Y35639D01*
X585418Y36607D01*
X585882Y37546D01*
X586406Y38454D01*
X586988Y39325D01*
X587625Y40156D01*
X588316Y40943D01*
X589057Y41684D01*
X589844Y42375D01*
X590675Y43013D01*
X591546Y43595D01*
X592454Y44118D01*
X593393Y44582D01*
X594361Y44983D01*
X595353Y45319D01*
X596365Y45590D01*
X597392Y45795D01*
X598431Y45932D01*
X599476Y46000D01*
X600524Y46000D01*
X601569Y45932D01*
X602608Y45795D01*
X603635Y45590D01*
X604647Y45319D01*
X605639Y44983D01*
X606607Y44582D01*
X607546Y44118D01*
X608454Y43595D01*
X609325Y43013D01*
X610156Y42375D01*
X610943Y41684D01*
X611684Y40943D01*
X612375Y40156D01*
X613013Y39325D01*
X613595Y38454D01*
X614118Y37546D01*
X614582Y36607D01*
X614983Y35639D01*
X615319Y34647D01*
X615590Y33635D01*
X615795Y32608D01*
X615932Y31569D01*
X616000Y30524D01*
X616000Y29476D01*
M02*
