G04 EAGLE Gerber RS-274X export*
G75*
%MOMM*%
%FSLAX34Y34*%
%LPD*%
%INSilkscreen Top*%
%IPPOS*%
%AMOC8*
5,1,8,0,0,1.08239X$1,22.5*%
G01*
%ADD10C,0.076200*%
%ADD11C,0.152400*%
%ADD12C,0.254000*%
%ADD13R,0.381000X0.508000*%
%ADD14C,0.101600*%


D10*
X150086Y361202D02*
X151652Y361202D01*
X151652Y355981D01*
X148519Y355981D01*
X148430Y355983D01*
X148342Y355989D01*
X148254Y355998D01*
X148166Y356011D01*
X148079Y356028D01*
X147993Y356048D01*
X147908Y356073D01*
X147823Y356100D01*
X147740Y356132D01*
X147659Y356166D01*
X147579Y356205D01*
X147501Y356246D01*
X147424Y356291D01*
X147350Y356339D01*
X147277Y356390D01*
X147207Y356444D01*
X147140Y356502D01*
X147074Y356562D01*
X147012Y356624D01*
X146952Y356690D01*
X146894Y356757D01*
X146840Y356827D01*
X146789Y356900D01*
X146741Y356974D01*
X146696Y357051D01*
X146655Y357129D01*
X146616Y357209D01*
X146582Y357290D01*
X146550Y357373D01*
X146523Y357458D01*
X146498Y357543D01*
X146478Y357629D01*
X146461Y357716D01*
X146448Y357804D01*
X146439Y357892D01*
X146433Y357980D01*
X146431Y358069D01*
X146431Y363291D01*
X146433Y363382D01*
X146439Y363473D01*
X146449Y363564D01*
X146463Y363654D01*
X146480Y363743D01*
X146502Y363831D01*
X146528Y363919D01*
X146557Y364005D01*
X146590Y364090D01*
X146627Y364173D01*
X146667Y364255D01*
X146711Y364335D01*
X146758Y364413D01*
X146809Y364489D01*
X146862Y364562D01*
X146919Y364633D01*
X146980Y364702D01*
X147043Y364767D01*
X147108Y364830D01*
X147177Y364890D01*
X147248Y364948D01*
X147321Y365001D01*
X147397Y365052D01*
X147475Y365099D01*
X147555Y365143D01*
X147637Y365183D01*
X147720Y365220D01*
X147805Y365253D01*
X147891Y365282D01*
X147979Y365308D01*
X148067Y365330D01*
X148156Y365347D01*
X148246Y365361D01*
X148337Y365371D01*
X148428Y365377D01*
X148519Y365379D01*
X151652Y365379D01*
X156185Y365379D02*
X156185Y355981D01*
X161406Y355981D02*
X156185Y365379D01*
X161406Y365379D02*
X161406Y355981D01*
X165938Y355981D02*
X165938Y365379D01*
X168549Y365379D01*
X168649Y365377D01*
X168749Y365371D01*
X168848Y365362D01*
X168948Y365348D01*
X169046Y365331D01*
X169144Y365310D01*
X169241Y365286D01*
X169337Y365257D01*
X169432Y365225D01*
X169525Y365190D01*
X169617Y365151D01*
X169708Y365108D01*
X169796Y365062D01*
X169883Y365012D01*
X169968Y364960D01*
X170051Y364904D01*
X170132Y364845D01*
X170210Y364782D01*
X170286Y364717D01*
X170360Y364649D01*
X170430Y364579D01*
X170498Y364505D01*
X170563Y364429D01*
X170626Y364351D01*
X170685Y364270D01*
X170741Y364187D01*
X170793Y364102D01*
X170843Y364015D01*
X170889Y363927D01*
X170932Y363836D01*
X170971Y363744D01*
X171006Y363651D01*
X171038Y363556D01*
X171067Y363460D01*
X171091Y363363D01*
X171112Y363265D01*
X171129Y363167D01*
X171143Y363067D01*
X171152Y362968D01*
X171158Y362868D01*
X171160Y362768D01*
X171159Y362768D02*
X171159Y358592D01*
X171160Y358592D02*
X171158Y358492D01*
X171152Y358392D01*
X171143Y358293D01*
X171129Y358193D01*
X171112Y358095D01*
X171091Y357997D01*
X171067Y357900D01*
X171038Y357804D01*
X171006Y357709D01*
X170971Y357616D01*
X170932Y357524D01*
X170889Y357433D01*
X170843Y357345D01*
X170793Y357258D01*
X170741Y357173D01*
X170685Y357090D01*
X170626Y357009D01*
X170563Y356931D01*
X170498Y356855D01*
X170430Y356781D01*
X170360Y356711D01*
X170286Y356643D01*
X170210Y356578D01*
X170132Y356515D01*
X170051Y356456D01*
X169968Y356400D01*
X169883Y356348D01*
X169796Y356298D01*
X169708Y356252D01*
X169617Y356209D01*
X169525Y356170D01*
X169432Y356135D01*
X169337Y356103D01*
X169241Y356074D01*
X169144Y356050D01*
X169046Y356029D01*
X168948Y356012D01*
X168848Y355998D01*
X168749Y355989D01*
X168649Y355983D01*
X168549Y355981D01*
X165938Y355981D01*
X187968Y355981D02*
X188057Y355983D01*
X188145Y355989D01*
X188233Y355998D01*
X188321Y356011D01*
X188408Y356028D01*
X188494Y356048D01*
X188579Y356073D01*
X188664Y356100D01*
X188747Y356132D01*
X188828Y356166D01*
X188908Y356205D01*
X188986Y356246D01*
X189063Y356291D01*
X189137Y356339D01*
X189210Y356390D01*
X189280Y356444D01*
X189347Y356502D01*
X189413Y356562D01*
X189475Y356624D01*
X189535Y356690D01*
X189593Y356757D01*
X189647Y356827D01*
X189698Y356900D01*
X189746Y356974D01*
X189791Y357051D01*
X189832Y357129D01*
X189871Y357209D01*
X189905Y357290D01*
X189937Y357373D01*
X189964Y357458D01*
X189989Y357543D01*
X190009Y357629D01*
X190026Y357716D01*
X190039Y357804D01*
X190048Y357892D01*
X190054Y357980D01*
X190056Y358069D01*
X187968Y355981D02*
X187839Y355983D01*
X187710Y355989D01*
X187581Y355998D01*
X187453Y356011D01*
X187325Y356028D01*
X187198Y356049D01*
X187071Y356073D01*
X186945Y356101D01*
X186820Y356133D01*
X186696Y356168D01*
X186573Y356207D01*
X186451Y356250D01*
X186331Y356296D01*
X186212Y356346D01*
X186094Y356399D01*
X185978Y356455D01*
X185864Y356515D01*
X185751Y356578D01*
X185641Y356645D01*
X185532Y356714D01*
X185426Y356787D01*
X185321Y356863D01*
X185219Y356942D01*
X185120Y357024D01*
X185022Y357108D01*
X184927Y357196D01*
X184835Y357286D01*
X185097Y363291D02*
X185099Y363380D01*
X185105Y363468D01*
X185114Y363556D01*
X185127Y363644D01*
X185144Y363731D01*
X185164Y363817D01*
X185189Y363902D01*
X185216Y363987D01*
X185248Y364070D01*
X185282Y364151D01*
X185321Y364231D01*
X185362Y364309D01*
X185407Y364386D01*
X185455Y364460D01*
X185506Y364533D01*
X185560Y364603D01*
X185618Y364670D01*
X185678Y364736D01*
X185740Y364798D01*
X185806Y364858D01*
X185873Y364916D01*
X185943Y364970D01*
X186016Y365021D01*
X186090Y365069D01*
X186167Y365114D01*
X186245Y365155D01*
X186325Y365194D01*
X186406Y365228D01*
X186489Y365260D01*
X186574Y365287D01*
X186659Y365312D01*
X186745Y365332D01*
X186832Y365349D01*
X186920Y365362D01*
X187008Y365371D01*
X187096Y365377D01*
X187185Y365379D01*
X187305Y365377D01*
X187425Y365372D01*
X187545Y365362D01*
X187664Y365350D01*
X187783Y365333D01*
X187901Y365313D01*
X188019Y365289D01*
X188135Y365262D01*
X188251Y365231D01*
X188366Y365197D01*
X188480Y365159D01*
X188593Y365117D01*
X188704Y365072D01*
X188814Y365024D01*
X188922Y364973D01*
X189029Y364918D01*
X189134Y364860D01*
X189237Y364798D01*
X189338Y364734D01*
X189438Y364666D01*
X189535Y364596D01*
X186141Y361464D02*
X186063Y361512D01*
X185987Y361564D01*
X185914Y361618D01*
X185843Y361676D01*
X185774Y361737D01*
X185708Y361801D01*
X185645Y361868D01*
X185585Y361937D01*
X185528Y362009D01*
X185474Y362083D01*
X185424Y362160D01*
X185376Y362239D01*
X185333Y362319D01*
X185292Y362402D01*
X185256Y362486D01*
X185223Y362571D01*
X185194Y362658D01*
X185168Y362747D01*
X185146Y362836D01*
X185129Y362926D01*
X185115Y363016D01*
X185105Y363108D01*
X185099Y363199D01*
X185097Y363291D01*
X189013Y359896D02*
X189091Y359848D01*
X189167Y359796D01*
X189240Y359742D01*
X189311Y359684D01*
X189380Y359623D01*
X189446Y359559D01*
X189509Y359492D01*
X189569Y359423D01*
X189626Y359351D01*
X189680Y359277D01*
X189730Y359200D01*
X189778Y359121D01*
X189821Y359041D01*
X189862Y358958D01*
X189898Y358874D01*
X189931Y358789D01*
X189960Y358702D01*
X189986Y358613D01*
X190008Y358524D01*
X190025Y358434D01*
X190039Y358344D01*
X190049Y358252D01*
X190055Y358161D01*
X190057Y358069D01*
X189013Y359897D02*
X186141Y361463D01*
X193980Y365379D02*
X193980Y355981D01*
X193980Y365379D02*
X196590Y365379D01*
X196690Y365377D01*
X196790Y365371D01*
X196889Y365362D01*
X196989Y365348D01*
X197087Y365331D01*
X197185Y365310D01*
X197282Y365286D01*
X197378Y365257D01*
X197473Y365225D01*
X197566Y365190D01*
X197658Y365151D01*
X197749Y365108D01*
X197837Y365062D01*
X197924Y365012D01*
X198009Y364960D01*
X198092Y364904D01*
X198173Y364845D01*
X198251Y364782D01*
X198327Y364717D01*
X198401Y364649D01*
X198471Y364579D01*
X198539Y364505D01*
X198604Y364429D01*
X198667Y364351D01*
X198726Y364270D01*
X198782Y364187D01*
X198834Y364102D01*
X198884Y364015D01*
X198930Y363927D01*
X198973Y363836D01*
X199012Y363744D01*
X199047Y363651D01*
X199079Y363556D01*
X199108Y363460D01*
X199132Y363363D01*
X199153Y363265D01*
X199170Y363167D01*
X199184Y363067D01*
X199193Y362968D01*
X199199Y362868D01*
X199201Y362768D01*
X199201Y358592D01*
X199199Y358492D01*
X199193Y358392D01*
X199184Y358293D01*
X199170Y358193D01*
X199153Y358095D01*
X199132Y357997D01*
X199108Y357900D01*
X199079Y357804D01*
X199047Y357709D01*
X199012Y357616D01*
X198973Y357524D01*
X198930Y357433D01*
X198884Y357345D01*
X198834Y357258D01*
X198782Y357173D01*
X198726Y357090D01*
X198667Y357009D01*
X198604Y356931D01*
X198539Y356855D01*
X198471Y356781D01*
X198401Y356711D01*
X198327Y356643D01*
X198251Y356578D01*
X198173Y356515D01*
X198092Y356456D01*
X198009Y356400D01*
X197924Y356348D01*
X197837Y356298D01*
X197749Y356252D01*
X197658Y356209D01*
X197566Y356170D01*
X197473Y356135D01*
X197378Y356103D01*
X197282Y356074D01*
X197185Y356050D01*
X197087Y356029D01*
X196989Y356012D01*
X196889Y355998D01*
X196790Y355989D01*
X196690Y355983D01*
X196590Y355981D01*
X193980Y355981D01*
X202906Y355981D02*
X206039Y365379D01*
X209172Y355981D01*
X208388Y358331D02*
X203689Y358331D01*
X225154Y355981D02*
X225243Y355983D01*
X225331Y355989D01*
X225419Y355998D01*
X225507Y356011D01*
X225594Y356028D01*
X225680Y356048D01*
X225765Y356073D01*
X225850Y356100D01*
X225933Y356132D01*
X226014Y356166D01*
X226094Y356205D01*
X226172Y356246D01*
X226249Y356291D01*
X226323Y356339D01*
X226396Y356390D01*
X226466Y356444D01*
X226533Y356502D01*
X226599Y356562D01*
X226661Y356624D01*
X226721Y356690D01*
X226779Y356757D01*
X226833Y356827D01*
X226884Y356900D01*
X226932Y356974D01*
X226977Y357051D01*
X227018Y357129D01*
X227057Y357209D01*
X227091Y357290D01*
X227123Y357373D01*
X227150Y357458D01*
X227175Y357543D01*
X227195Y357629D01*
X227212Y357716D01*
X227225Y357804D01*
X227234Y357892D01*
X227240Y357980D01*
X227242Y358069D01*
X225154Y355981D02*
X225025Y355983D01*
X224896Y355989D01*
X224767Y355998D01*
X224639Y356011D01*
X224511Y356028D01*
X224384Y356049D01*
X224257Y356073D01*
X224131Y356101D01*
X224006Y356133D01*
X223882Y356168D01*
X223759Y356207D01*
X223637Y356250D01*
X223517Y356296D01*
X223398Y356346D01*
X223280Y356399D01*
X223164Y356455D01*
X223050Y356515D01*
X222937Y356578D01*
X222827Y356645D01*
X222718Y356714D01*
X222612Y356787D01*
X222507Y356863D01*
X222405Y356942D01*
X222306Y357024D01*
X222208Y357108D01*
X222113Y357196D01*
X222021Y357286D01*
X222283Y363291D02*
X222285Y363380D01*
X222291Y363468D01*
X222300Y363556D01*
X222313Y363644D01*
X222330Y363731D01*
X222350Y363817D01*
X222375Y363902D01*
X222402Y363987D01*
X222434Y364070D01*
X222468Y364151D01*
X222507Y364231D01*
X222548Y364309D01*
X222593Y364386D01*
X222641Y364460D01*
X222692Y364533D01*
X222746Y364603D01*
X222804Y364670D01*
X222864Y364736D01*
X222926Y364798D01*
X222992Y364858D01*
X223059Y364916D01*
X223129Y364970D01*
X223202Y365021D01*
X223276Y365069D01*
X223353Y365114D01*
X223431Y365155D01*
X223511Y365194D01*
X223592Y365228D01*
X223675Y365260D01*
X223760Y365287D01*
X223845Y365312D01*
X223931Y365332D01*
X224018Y365349D01*
X224106Y365362D01*
X224194Y365371D01*
X224282Y365377D01*
X224371Y365379D01*
X224370Y365379D02*
X224490Y365377D01*
X224610Y365372D01*
X224730Y365362D01*
X224849Y365350D01*
X224968Y365333D01*
X225086Y365313D01*
X225204Y365289D01*
X225320Y365262D01*
X225436Y365231D01*
X225551Y365197D01*
X225665Y365159D01*
X225778Y365117D01*
X225889Y365072D01*
X225999Y365024D01*
X226107Y364973D01*
X226214Y364918D01*
X226319Y364860D01*
X226422Y364798D01*
X226523Y364734D01*
X226623Y364666D01*
X226720Y364596D01*
X223326Y361464D02*
X223248Y361512D01*
X223172Y361564D01*
X223099Y361618D01*
X223028Y361676D01*
X222959Y361737D01*
X222893Y361801D01*
X222830Y361868D01*
X222770Y361937D01*
X222713Y362009D01*
X222659Y362083D01*
X222609Y362160D01*
X222561Y362239D01*
X222518Y362319D01*
X222477Y362402D01*
X222441Y362486D01*
X222408Y362571D01*
X222379Y362658D01*
X222353Y362747D01*
X222331Y362836D01*
X222314Y362926D01*
X222300Y363016D01*
X222290Y363108D01*
X222284Y363199D01*
X222282Y363291D01*
X226198Y359896D02*
X226276Y359848D01*
X226352Y359796D01*
X226425Y359742D01*
X226496Y359684D01*
X226565Y359623D01*
X226631Y359559D01*
X226694Y359492D01*
X226754Y359423D01*
X226811Y359351D01*
X226865Y359277D01*
X226915Y359200D01*
X226963Y359121D01*
X227006Y359041D01*
X227047Y358958D01*
X227083Y358874D01*
X227116Y358789D01*
X227145Y358702D01*
X227171Y358613D01*
X227193Y358524D01*
X227210Y358434D01*
X227224Y358344D01*
X227234Y358252D01*
X227240Y358161D01*
X227242Y358069D01*
X226198Y359897D02*
X223326Y361463D01*
X232923Y355981D02*
X235011Y355981D01*
X232923Y355981D02*
X232834Y355983D01*
X232746Y355989D01*
X232658Y355998D01*
X232570Y356011D01*
X232483Y356028D01*
X232397Y356048D01*
X232312Y356073D01*
X232227Y356100D01*
X232144Y356132D01*
X232063Y356166D01*
X231983Y356205D01*
X231905Y356246D01*
X231828Y356291D01*
X231754Y356339D01*
X231681Y356390D01*
X231611Y356444D01*
X231544Y356502D01*
X231478Y356562D01*
X231416Y356624D01*
X231356Y356690D01*
X231298Y356757D01*
X231244Y356827D01*
X231193Y356900D01*
X231145Y356974D01*
X231100Y357051D01*
X231059Y357129D01*
X231020Y357209D01*
X230986Y357290D01*
X230954Y357373D01*
X230927Y357458D01*
X230902Y357543D01*
X230882Y357629D01*
X230865Y357716D01*
X230852Y357804D01*
X230843Y357892D01*
X230837Y357980D01*
X230835Y358069D01*
X230834Y358069D02*
X230834Y363291D01*
X230835Y363291D02*
X230837Y363382D01*
X230843Y363473D01*
X230853Y363564D01*
X230867Y363654D01*
X230884Y363743D01*
X230906Y363831D01*
X230932Y363919D01*
X230961Y364005D01*
X230994Y364090D01*
X231031Y364173D01*
X231071Y364255D01*
X231115Y364335D01*
X231162Y364413D01*
X231213Y364489D01*
X231266Y364562D01*
X231323Y364633D01*
X231384Y364702D01*
X231447Y364767D01*
X231512Y364830D01*
X231581Y364890D01*
X231652Y364948D01*
X231725Y365001D01*
X231801Y365052D01*
X231879Y365099D01*
X231959Y365143D01*
X232041Y365183D01*
X232124Y365220D01*
X232209Y365253D01*
X232295Y365282D01*
X232383Y365308D01*
X232471Y365330D01*
X232560Y365347D01*
X232650Y365361D01*
X232741Y365371D01*
X232832Y365377D01*
X232923Y365379D01*
X235011Y365379D01*
X238802Y365379D02*
X238802Y355981D01*
X242979Y355981D01*
X256246Y359636D02*
X262511Y359636D01*
X259379Y362768D02*
X259379Y356503D01*
X266522Y355981D02*
X269654Y355981D01*
X269743Y355983D01*
X269831Y355989D01*
X269919Y355998D01*
X270007Y356011D01*
X270094Y356028D01*
X270180Y356048D01*
X270265Y356073D01*
X270350Y356100D01*
X270433Y356132D01*
X270514Y356166D01*
X270594Y356205D01*
X270672Y356246D01*
X270749Y356291D01*
X270823Y356339D01*
X270896Y356390D01*
X270966Y356444D01*
X271033Y356502D01*
X271099Y356562D01*
X271161Y356624D01*
X271221Y356690D01*
X271279Y356757D01*
X271333Y356827D01*
X271384Y356900D01*
X271432Y356974D01*
X271477Y357051D01*
X271518Y357129D01*
X271557Y357209D01*
X271591Y357290D01*
X271623Y357373D01*
X271650Y357458D01*
X271675Y357543D01*
X271695Y357629D01*
X271712Y357716D01*
X271725Y357804D01*
X271734Y357892D01*
X271740Y357980D01*
X271742Y358069D01*
X271743Y358069D02*
X271743Y359114D01*
X271742Y359114D02*
X271740Y359203D01*
X271734Y359291D01*
X271725Y359379D01*
X271712Y359467D01*
X271695Y359554D01*
X271675Y359640D01*
X271650Y359725D01*
X271623Y359810D01*
X271591Y359893D01*
X271557Y359974D01*
X271518Y360054D01*
X271477Y360132D01*
X271432Y360209D01*
X271384Y360283D01*
X271333Y360356D01*
X271279Y360426D01*
X271221Y360493D01*
X271161Y360559D01*
X271099Y360621D01*
X271033Y360681D01*
X270966Y360739D01*
X270896Y360793D01*
X270823Y360844D01*
X270749Y360892D01*
X270672Y360937D01*
X270594Y360978D01*
X270514Y361017D01*
X270433Y361051D01*
X270350Y361083D01*
X270265Y361110D01*
X270180Y361135D01*
X270094Y361155D01*
X270007Y361172D01*
X269919Y361185D01*
X269831Y361194D01*
X269743Y361200D01*
X269654Y361202D01*
X266522Y361202D01*
X266522Y365379D01*
X271743Y365379D01*
X275143Y365379D02*
X278276Y355981D01*
X281409Y365379D01*
D11*
X139531Y394843D02*
X134112Y378587D01*
X144949Y378587D02*
X139531Y394843D01*
X143595Y382651D02*
X135467Y382651D01*
X151395Y378587D02*
X151395Y392134D01*
X151396Y392134D02*
X151398Y392238D01*
X151404Y392341D01*
X151414Y392445D01*
X151428Y392548D01*
X151446Y392650D01*
X151467Y392751D01*
X151493Y392852D01*
X151522Y392951D01*
X151555Y393050D01*
X151592Y393147D01*
X151633Y393242D01*
X151677Y393336D01*
X151725Y393428D01*
X151776Y393518D01*
X151831Y393607D01*
X151889Y393693D01*
X151951Y393776D01*
X152015Y393858D01*
X152083Y393936D01*
X152153Y394012D01*
X152226Y394086D01*
X152303Y394156D01*
X152381Y394224D01*
X152463Y394288D01*
X152546Y394350D01*
X152632Y394408D01*
X152721Y394463D01*
X152811Y394514D01*
X152903Y394562D01*
X152997Y394606D01*
X153092Y394647D01*
X153189Y394684D01*
X153288Y394717D01*
X153387Y394746D01*
X153488Y394772D01*
X153589Y394793D01*
X153691Y394811D01*
X153794Y394825D01*
X153898Y394835D01*
X154001Y394841D01*
X154105Y394843D01*
X154104Y394843D02*
X155008Y394843D01*
X155008Y389424D02*
X149589Y389424D01*
X160253Y392134D02*
X160253Y378587D01*
X160253Y392134D02*
X160255Y392238D01*
X160261Y392341D01*
X160271Y392445D01*
X160285Y392548D01*
X160303Y392650D01*
X160324Y392751D01*
X160350Y392852D01*
X160379Y392951D01*
X160412Y393050D01*
X160449Y393147D01*
X160490Y393242D01*
X160534Y393336D01*
X160582Y393428D01*
X160633Y393518D01*
X160688Y393607D01*
X160746Y393693D01*
X160808Y393776D01*
X160872Y393858D01*
X160940Y393936D01*
X161010Y394012D01*
X161083Y394086D01*
X161160Y394156D01*
X161238Y394224D01*
X161320Y394288D01*
X161403Y394350D01*
X161489Y394408D01*
X161578Y394463D01*
X161668Y394514D01*
X161760Y394562D01*
X161854Y394606D01*
X161949Y394647D01*
X162046Y394684D01*
X162145Y394717D01*
X162244Y394746D01*
X162345Y394772D01*
X162446Y394793D01*
X162548Y394811D01*
X162651Y394825D01*
X162755Y394835D01*
X162858Y394841D01*
X162962Y394843D01*
X163865Y394843D01*
X163865Y389424D02*
X158447Y389424D01*
X168188Y389424D02*
X168188Y378587D01*
X167736Y393940D02*
X167736Y394843D01*
X168639Y394843D01*
X168639Y393940D01*
X167736Y393940D01*
X177202Y378587D02*
X180815Y378587D01*
X177202Y378587D02*
X177101Y378589D01*
X177000Y378595D01*
X176899Y378604D01*
X176798Y378617D01*
X176698Y378634D01*
X176599Y378655D01*
X176501Y378679D01*
X176404Y378707D01*
X176307Y378739D01*
X176212Y378774D01*
X176119Y378813D01*
X176027Y378855D01*
X175936Y378901D01*
X175848Y378950D01*
X175761Y379002D01*
X175676Y379058D01*
X175593Y379116D01*
X175513Y379178D01*
X175435Y379243D01*
X175359Y379310D01*
X175286Y379380D01*
X175216Y379453D01*
X175149Y379529D01*
X175084Y379607D01*
X175022Y379687D01*
X174964Y379770D01*
X174908Y379855D01*
X174856Y379942D01*
X174807Y380030D01*
X174761Y380121D01*
X174719Y380213D01*
X174680Y380306D01*
X174645Y380401D01*
X174613Y380498D01*
X174585Y380595D01*
X174561Y380693D01*
X174540Y380792D01*
X174523Y380892D01*
X174510Y380993D01*
X174501Y381094D01*
X174495Y381195D01*
X174493Y381296D01*
X174493Y386715D01*
X174495Y386816D01*
X174501Y386917D01*
X174510Y387018D01*
X174523Y387119D01*
X174540Y387219D01*
X174561Y387318D01*
X174585Y387416D01*
X174613Y387513D01*
X174645Y387610D01*
X174680Y387705D01*
X174719Y387798D01*
X174761Y387890D01*
X174807Y387981D01*
X174856Y388070D01*
X174908Y388156D01*
X174964Y388241D01*
X175022Y388324D01*
X175084Y388404D01*
X175149Y388482D01*
X175216Y388558D01*
X175286Y388631D01*
X175359Y388701D01*
X175435Y388768D01*
X175513Y388833D01*
X175593Y388895D01*
X175676Y388953D01*
X175761Y389009D01*
X175848Y389061D01*
X175936Y389110D01*
X176027Y389156D01*
X176119Y389198D01*
X176212Y389237D01*
X176307Y389272D01*
X176404Y389304D01*
X176501Y389332D01*
X176599Y389356D01*
X176698Y389377D01*
X176798Y389394D01*
X176899Y389407D01*
X177000Y389416D01*
X177101Y389422D01*
X177202Y389424D01*
X180815Y389424D01*
X186980Y394843D02*
X186980Y378587D01*
X186980Y389424D02*
X191496Y389424D01*
X191600Y389422D01*
X191703Y389416D01*
X191807Y389406D01*
X191910Y389392D01*
X192012Y389374D01*
X192113Y389353D01*
X192214Y389327D01*
X192313Y389298D01*
X192412Y389265D01*
X192509Y389228D01*
X192604Y389187D01*
X192698Y389143D01*
X192790Y389095D01*
X192880Y389044D01*
X192969Y388989D01*
X193055Y388931D01*
X193138Y388869D01*
X193220Y388805D01*
X193298Y388737D01*
X193374Y388667D01*
X193448Y388594D01*
X193518Y388517D01*
X193586Y388439D01*
X193650Y388357D01*
X193712Y388274D01*
X193770Y388188D01*
X193825Y388099D01*
X193876Y388009D01*
X193924Y387917D01*
X193968Y387823D01*
X194009Y387728D01*
X194046Y387631D01*
X194079Y387532D01*
X194108Y387433D01*
X194134Y387332D01*
X194155Y387231D01*
X194173Y387129D01*
X194187Y387026D01*
X194197Y386922D01*
X194203Y386819D01*
X194205Y386715D01*
X194205Y378587D01*
X203758Y378587D02*
X208273Y378587D01*
X203758Y378587D02*
X203657Y378589D01*
X203556Y378595D01*
X203455Y378604D01*
X203354Y378617D01*
X203254Y378634D01*
X203155Y378655D01*
X203057Y378679D01*
X202960Y378707D01*
X202863Y378739D01*
X202768Y378774D01*
X202675Y378813D01*
X202583Y378855D01*
X202492Y378901D01*
X202404Y378950D01*
X202317Y379002D01*
X202232Y379058D01*
X202149Y379116D01*
X202069Y379178D01*
X201991Y379243D01*
X201915Y379310D01*
X201842Y379380D01*
X201772Y379453D01*
X201705Y379529D01*
X201640Y379607D01*
X201578Y379687D01*
X201520Y379770D01*
X201464Y379855D01*
X201412Y379942D01*
X201363Y380030D01*
X201317Y380121D01*
X201275Y380213D01*
X201236Y380306D01*
X201201Y380401D01*
X201169Y380498D01*
X201141Y380595D01*
X201117Y380693D01*
X201096Y380792D01*
X201079Y380892D01*
X201066Y380993D01*
X201057Y381094D01*
X201051Y381195D01*
X201049Y381296D01*
X201048Y381296D02*
X201048Y385812D01*
X201049Y385812D02*
X201051Y385931D01*
X201057Y386051D01*
X201067Y386170D01*
X201081Y386288D01*
X201098Y386407D01*
X201120Y386524D01*
X201145Y386641D01*
X201175Y386756D01*
X201208Y386871D01*
X201245Y386985D01*
X201285Y387097D01*
X201330Y387208D01*
X201378Y387317D01*
X201429Y387425D01*
X201484Y387531D01*
X201543Y387635D01*
X201605Y387737D01*
X201670Y387837D01*
X201739Y387935D01*
X201811Y388031D01*
X201886Y388124D01*
X201963Y388214D01*
X202044Y388302D01*
X202128Y388387D01*
X202215Y388469D01*
X202304Y388549D01*
X202396Y388625D01*
X202490Y388699D01*
X202587Y388769D01*
X202685Y388836D01*
X202786Y388900D01*
X202890Y388960D01*
X202995Y389017D01*
X203102Y389070D01*
X203210Y389120D01*
X203320Y389166D01*
X203432Y389208D01*
X203545Y389247D01*
X203659Y389282D01*
X203774Y389313D01*
X203891Y389341D01*
X204008Y389364D01*
X204125Y389384D01*
X204244Y389400D01*
X204363Y389412D01*
X204482Y389420D01*
X204601Y389424D01*
X204721Y389424D01*
X204840Y389420D01*
X204959Y389412D01*
X205078Y389400D01*
X205197Y389384D01*
X205314Y389364D01*
X205431Y389341D01*
X205548Y389313D01*
X205663Y389282D01*
X205777Y389247D01*
X205890Y389208D01*
X206002Y389166D01*
X206112Y389120D01*
X206220Y389070D01*
X206327Y389017D01*
X206432Y388960D01*
X206536Y388900D01*
X206637Y388836D01*
X206735Y388769D01*
X206832Y388699D01*
X206926Y388625D01*
X207018Y388549D01*
X207107Y388469D01*
X207194Y388387D01*
X207278Y388302D01*
X207359Y388214D01*
X207436Y388124D01*
X207511Y388031D01*
X207583Y387935D01*
X207652Y387837D01*
X207717Y387737D01*
X207779Y387635D01*
X207838Y387531D01*
X207893Y387425D01*
X207944Y387317D01*
X207992Y387208D01*
X208037Y387097D01*
X208077Y386985D01*
X208114Y386871D01*
X208147Y386756D01*
X208177Y386641D01*
X208202Y386524D01*
X208224Y386407D01*
X208241Y386288D01*
X208255Y386170D01*
X208265Y386051D01*
X208271Y385931D01*
X208273Y385812D01*
X208273Y384006D01*
X201048Y384006D01*
X215116Y381296D02*
X215116Y389424D01*
X215117Y381296D02*
X215119Y381195D01*
X215125Y381094D01*
X215134Y380993D01*
X215147Y380892D01*
X215164Y380792D01*
X215185Y380693D01*
X215209Y380595D01*
X215237Y380498D01*
X215269Y380401D01*
X215304Y380306D01*
X215343Y380213D01*
X215385Y380121D01*
X215431Y380030D01*
X215480Y379942D01*
X215532Y379855D01*
X215588Y379770D01*
X215646Y379687D01*
X215708Y379607D01*
X215773Y379529D01*
X215840Y379453D01*
X215910Y379380D01*
X215983Y379310D01*
X216059Y379243D01*
X216137Y379178D01*
X216217Y379116D01*
X216300Y379058D01*
X216385Y379002D01*
X216472Y378950D01*
X216560Y378901D01*
X216651Y378855D01*
X216743Y378813D01*
X216836Y378774D01*
X216931Y378739D01*
X217028Y378707D01*
X217125Y378679D01*
X217223Y378655D01*
X217322Y378634D01*
X217422Y378617D01*
X217523Y378604D01*
X217624Y378595D01*
X217725Y378589D01*
X217826Y378587D01*
X222341Y378587D01*
X222341Y389424D01*
X229790Y389424D02*
X229790Y378587D01*
X229790Y389424D02*
X235209Y389424D01*
X235209Y387618D01*
X249215Y394843D02*
X249215Y378587D01*
X249215Y394843D02*
X253730Y394843D01*
X253863Y394841D01*
X253995Y394835D01*
X254127Y394825D01*
X254259Y394812D01*
X254391Y394794D01*
X254521Y394773D01*
X254652Y394748D01*
X254781Y394719D01*
X254909Y394686D01*
X255037Y394650D01*
X255163Y394610D01*
X255288Y394566D01*
X255412Y394518D01*
X255534Y394467D01*
X255655Y394412D01*
X255774Y394354D01*
X255892Y394292D01*
X256007Y394227D01*
X256121Y394158D01*
X256232Y394087D01*
X256341Y394011D01*
X256448Y393933D01*
X256553Y393852D01*
X256655Y393767D01*
X256755Y393680D01*
X256852Y393590D01*
X256947Y393497D01*
X257038Y393401D01*
X257127Y393303D01*
X257213Y393202D01*
X257296Y393098D01*
X257376Y392992D01*
X257452Y392884D01*
X257526Y392774D01*
X257596Y392661D01*
X257663Y392547D01*
X257726Y392430D01*
X257786Y392312D01*
X257843Y392192D01*
X257896Y392070D01*
X257945Y391947D01*
X257991Y391823D01*
X258033Y391697D01*
X258071Y391570D01*
X258106Y391442D01*
X258137Y391313D01*
X258164Y391184D01*
X258187Y391053D01*
X258207Y390922D01*
X258222Y390790D01*
X258234Y390658D01*
X258242Y390526D01*
X258246Y390393D01*
X258246Y390261D01*
X258242Y390128D01*
X258234Y389996D01*
X258222Y389864D01*
X258207Y389732D01*
X258187Y389601D01*
X258164Y389470D01*
X258137Y389341D01*
X258106Y389212D01*
X258071Y389084D01*
X258033Y388957D01*
X257991Y388831D01*
X257945Y388707D01*
X257896Y388584D01*
X257843Y388462D01*
X257786Y388342D01*
X257726Y388224D01*
X257663Y388107D01*
X257596Y387993D01*
X257526Y387880D01*
X257452Y387770D01*
X257376Y387662D01*
X257296Y387556D01*
X257213Y387452D01*
X257127Y387351D01*
X257038Y387253D01*
X256947Y387157D01*
X256852Y387064D01*
X256755Y386974D01*
X256655Y386887D01*
X256553Y386802D01*
X256448Y386721D01*
X256341Y386643D01*
X256232Y386567D01*
X256121Y386496D01*
X256007Y386427D01*
X255892Y386362D01*
X255774Y386300D01*
X255655Y386242D01*
X255534Y386187D01*
X255412Y386136D01*
X255288Y386088D01*
X255163Y386044D01*
X255037Y386004D01*
X254909Y385968D01*
X254781Y385935D01*
X254652Y385906D01*
X254521Y385881D01*
X254391Y385860D01*
X254259Y385842D01*
X254127Y385829D01*
X253995Y385819D01*
X253863Y385813D01*
X253730Y385811D01*
X253730Y385812D02*
X249215Y385812D01*
X254633Y385812D02*
X258246Y378587D01*
X267703Y384909D02*
X271767Y384909D01*
X267703Y384909D02*
X267591Y384907D01*
X267480Y384901D01*
X267369Y384891D01*
X267258Y384878D01*
X267148Y384860D01*
X267039Y384838D01*
X266930Y384813D01*
X266822Y384784D01*
X266716Y384751D01*
X266610Y384714D01*
X266506Y384674D01*
X266404Y384630D01*
X266303Y384582D01*
X266204Y384531D01*
X266106Y384476D01*
X266011Y384418D01*
X265918Y384357D01*
X265827Y384292D01*
X265738Y384224D01*
X265652Y384153D01*
X265569Y384080D01*
X265488Y384003D01*
X265409Y383923D01*
X265334Y383841D01*
X265262Y383756D01*
X265192Y383669D01*
X265126Y383579D01*
X265063Y383487D01*
X265003Y383392D01*
X264947Y383296D01*
X264894Y383198D01*
X264845Y383098D01*
X264799Y382996D01*
X264757Y382893D01*
X264718Y382788D01*
X264683Y382682D01*
X264652Y382575D01*
X264625Y382467D01*
X264601Y382358D01*
X264582Y382248D01*
X264566Y382138D01*
X264554Y382027D01*
X264546Y381915D01*
X264542Y381804D01*
X264542Y381692D01*
X264546Y381581D01*
X264554Y381469D01*
X264566Y381358D01*
X264582Y381248D01*
X264601Y381138D01*
X264625Y381029D01*
X264652Y380921D01*
X264683Y380814D01*
X264718Y380708D01*
X264757Y380603D01*
X264799Y380500D01*
X264845Y380398D01*
X264894Y380298D01*
X264947Y380200D01*
X265003Y380104D01*
X265063Y380009D01*
X265126Y379917D01*
X265192Y379827D01*
X265262Y379740D01*
X265334Y379655D01*
X265409Y379573D01*
X265488Y379493D01*
X265569Y379416D01*
X265652Y379343D01*
X265738Y379272D01*
X265827Y379204D01*
X265918Y379139D01*
X266011Y379078D01*
X266106Y379020D01*
X266204Y378965D01*
X266303Y378914D01*
X266404Y378866D01*
X266506Y378822D01*
X266610Y378782D01*
X266716Y378745D01*
X266822Y378712D01*
X266930Y378683D01*
X267039Y378658D01*
X267148Y378636D01*
X267258Y378618D01*
X267369Y378605D01*
X267480Y378595D01*
X267591Y378589D01*
X267703Y378587D01*
X271767Y378587D01*
X271767Y386715D01*
X271765Y386816D01*
X271759Y386917D01*
X271750Y387018D01*
X271737Y387119D01*
X271720Y387219D01*
X271699Y387318D01*
X271675Y387416D01*
X271647Y387513D01*
X271615Y387610D01*
X271580Y387705D01*
X271541Y387798D01*
X271499Y387890D01*
X271453Y387981D01*
X271404Y388070D01*
X271352Y388156D01*
X271296Y388241D01*
X271238Y388324D01*
X271176Y388404D01*
X271111Y388482D01*
X271044Y388558D01*
X270974Y388631D01*
X270901Y388701D01*
X270825Y388768D01*
X270747Y388833D01*
X270667Y388895D01*
X270584Y388953D01*
X270499Y389009D01*
X270413Y389061D01*
X270324Y389110D01*
X270233Y389156D01*
X270141Y389198D01*
X270048Y389237D01*
X269953Y389272D01*
X269856Y389304D01*
X269759Y389332D01*
X269661Y389356D01*
X269562Y389377D01*
X269462Y389394D01*
X269361Y389407D01*
X269260Y389416D01*
X269159Y389422D01*
X269058Y389424D01*
X265445Y389424D01*
X279278Y389424D02*
X279278Y373168D01*
X279278Y389424D02*
X283793Y389424D01*
X283897Y389422D01*
X284000Y389416D01*
X284104Y389406D01*
X284207Y389392D01*
X284309Y389374D01*
X284410Y389353D01*
X284511Y389327D01*
X284610Y389298D01*
X284709Y389265D01*
X284806Y389228D01*
X284901Y389187D01*
X284995Y389143D01*
X285087Y389095D01*
X285177Y389044D01*
X285266Y388989D01*
X285352Y388931D01*
X285435Y388869D01*
X285517Y388805D01*
X285595Y388737D01*
X285671Y388667D01*
X285745Y388594D01*
X285815Y388517D01*
X285883Y388439D01*
X285947Y388357D01*
X286009Y388274D01*
X286067Y388188D01*
X286122Y388099D01*
X286173Y388009D01*
X286221Y387917D01*
X286265Y387823D01*
X286306Y387728D01*
X286343Y387631D01*
X286376Y387532D01*
X286405Y387433D01*
X286431Y387332D01*
X286452Y387231D01*
X286470Y387129D01*
X286484Y387026D01*
X286494Y386922D01*
X286500Y386819D01*
X286502Y386715D01*
X286503Y386715D02*
X286503Y381296D01*
X286502Y381296D02*
X286500Y381195D01*
X286494Y381094D01*
X286485Y380993D01*
X286472Y380892D01*
X286455Y380792D01*
X286434Y380693D01*
X286410Y380595D01*
X286382Y380498D01*
X286350Y380401D01*
X286315Y380306D01*
X286276Y380213D01*
X286234Y380121D01*
X286188Y380030D01*
X286139Y379942D01*
X286087Y379855D01*
X286031Y379770D01*
X285973Y379687D01*
X285911Y379607D01*
X285846Y379529D01*
X285779Y379453D01*
X285709Y379380D01*
X285636Y379310D01*
X285560Y379243D01*
X285482Y379178D01*
X285402Y379116D01*
X285319Y379058D01*
X285234Y379002D01*
X285148Y378950D01*
X285059Y378901D01*
X284968Y378855D01*
X284876Y378813D01*
X284783Y378774D01*
X284688Y378739D01*
X284591Y378707D01*
X284494Y378679D01*
X284396Y378655D01*
X284297Y378634D01*
X284197Y378617D01*
X284096Y378604D01*
X283995Y378595D01*
X283894Y378589D01*
X283793Y378587D01*
X279278Y378587D01*
X293346Y373168D02*
X293346Y389424D01*
X297861Y389424D01*
X297965Y389422D01*
X298068Y389416D01*
X298172Y389406D01*
X298275Y389392D01*
X298377Y389374D01*
X298478Y389353D01*
X298579Y389327D01*
X298678Y389298D01*
X298777Y389265D01*
X298874Y389228D01*
X298969Y389187D01*
X299063Y389143D01*
X299155Y389095D01*
X299245Y389044D01*
X299334Y388989D01*
X299420Y388931D01*
X299503Y388869D01*
X299585Y388805D01*
X299663Y388737D01*
X299739Y388667D01*
X299813Y388594D01*
X299883Y388517D01*
X299951Y388439D01*
X300015Y388357D01*
X300077Y388274D01*
X300135Y388188D01*
X300190Y388099D01*
X300241Y388009D01*
X300289Y387917D01*
X300333Y387823D01*
X300374Y387728D01*
X300411Y387631D01*
X300444Y387532D01*
X300473Y387433D01*
X300499Y387332D01*
X300520Y387231D01*
X300538Y387129D01*
X300552Y387026D01*
X300562Y386922D01*
X300568Y386819D01*
X300570Y386715D01*
X300571Y386715D02*
X300571Y381296D01*
X300570Y381296D02*
X300568Y381195D01*
X300562Y381094D01*
X300553Y380993D01*
X300540Y380892D01*
X300523Y380792D01*
X300502Y380693D01*
X300478Y380595D01*
X300450Y380498D01*
X300418Y380401D01*
X300383Y380306D01*
X300344Y380213D01*
X300302Y380121D01*
X300256Y380030D01*
X300207Y379942D01*
X300155Y379855D01*
X300099Y379770D01*
X300041Y379687D01*
X299979Y379607D01*
X299914Y379529D01*
X299847Y379453D01*
X299777Y379380D01*
X299704Y379310D01*
X299628Y379243D01*
X299550Y379178D01*
X299470Y379116D01*
X299387Y379058D01*
X299302Y379002D01*
X299216Y378950D01*
X299127Y378901D01*
X299036Y378855D01*
X298944Y378813D01*
X298851Y378774D01*
X298756Y378739D01*
X298659Y378707D01*
X298562Y378679D01*
X298464Y378655D01*
X298365Y378634D01*
X298265Y378617D01*
X298164Y378604D01*
X298063Y378595D01*
X297962Y378589D01*
X297861Y378587D01*
X293346Y378587D01*
X306820Y382199D02*
X306820Y385812D01*
X306822Y385931D01*
X306828Y386051D01*
X306838Y386170D01*
X306852Y386288D01*
X306869Y386407D01*
X306891Y386524D01*
X306916Y386641D01*
X306946Y386756D01*
X306979Y386871D01*
X307016Y386985D01*
X307056Y387097D01*
X307101Y387208D01*
X307149Y387317D01*
X307200Y387425D01*
X307255Y387531D01*
X307314Y387635D01*
X307376Y387737D01*
X307441Y387837D01*
X307510Y387935D01*
X307582Y388031D01*
X307657Y388124D01*
X307734Y388214D01*
X307815Y388302D01*
X307899Y388387D01*
X307986Y388469D01*
X308075Y388549D01*
X308167Y388625D01*
X308261Y388699D01*
X308358Y388769D01*
X308456Y388836D01*
X308557Y388900D01*
X308661Y388960D01*
X308766Y389017D01*
X308873Y389070D01*
X308981Y389120D01*
X309091Y389166D01*
X309203Y389208D01*
X309316Y389247D01*
X309430Y389282D01*
X309545Y389313D01*
X309662Y389341D01*
X309779Y389364D01*
X309896Y389384D01*
X310015Y389400D01*
X310134Y389412D01*
X310253Y389420D01*
X310372Y389424D01*
X310492Y389424D01*
X310611Y389420D01*
X310730Y389412D01*
X310849Y389400D01*
X310968Y389384D01*
X311085Y389364D01*
X311202Y389341D01*
X311319Y389313D01*
X311434Y389282D01*
X311548Y389247D01*
X311661Y389208D01*
X311773Y389166D01*
X311883Y389120D01*
X311991Y389070D01*
X312098Y389017D01*
X312203Y388960D01*
X312307Y388900D01*
X312408Y388836D01*
X312506Y388769D01*
X312603Y388699D01*
X312697Y388625D01*
X312789Y388549D01*
X312878Y388469D01*
X312965Y388387D01*
X313049Y388302D01*
X313130Y388214D01*
X313207Y388124D01*
X313282Y388031D01*
X313354Y387935D01*
X313423Y387837D01*
X313488Y387737D01*
X313550Y387635D01*
X313609Y387531D01*
X313664Y387425D01*
X313715Y387317D01*
X313763Y387208D01*
X313808Y387097D01*
X313848Y386985D01*
X313885Y386871D01*
X313918Y386756D01*
X313948Y386641D01*
X313973Y386524D01*
X313995Y386407D01*
X314012Y386288D01*
X314026Y386170D01*
X314036Y386051D01*
X314042Y385931D01*
X314044Y385812D01*
X314044Y382199D01*
X314042Y382080D01*
X314036Y381960D01*
X314026Y381841D01*
X314012Y381723D01*
X313995Y381604D01*
X313973Y381487D01*
X313948Y381370D01*
X313918Y381255D01*
X313885Y381140D01*
X313848Y381026D01*
X313808Y380914D01*
X313763Y380803D01*
X313715Y380694D01*
X313664Y380586D01*
X313609Y380480D01*
X313550Y380376D01*
X313488Y380274D01*
X313423Y380174D01*
X313354Y380076D01*
X313282Y379980D01*
X313207Y379887D01*
X313130Y379797D01*
X313049Y379709D01*
X312965Y379624D01*
X312878Y379542D01*
X312789Y379462D01*
X312697Y379386D01*
X312603Y379312D01*
X312506Y379242D01*
X312408Y379175D01*
X312307Y379111D01*
X312203Y379051D01*
X312098Y378994D01*
X311991Y378941D01*
X311883Y378891D01*
X311773Y378845D01*
X311661Y378803D01*
X311548Y378764D01*
X311434Y378729D01*
X311319Y378698D01*
X311202Y378670D01*
X311085Y378647D01*
X310968Y378627D01*
X310849Y378611D01*
X310730Y378599D01*
X310611Y378591D01*
X310492Y378587D01*
X310372Y378587D01*
X310253Y378591D01*
X310134Y378599D01*
X310015Y378611D01*
X309896Y378627D01*
X309779Y378647D01*
X309662Y378670D01*
X309545Y378698D01*
X309430Y378729D01*
X309316Y378764D01*
X309203Y378803D01*
X309091Y378845D01*
X308981Y378891D01*
X308873Y378941D01*
X308766Y378994D01*
X308661Y379051D01*
X308557Y379111D01*
X308456Y379175D01*
X308358Y379242D01*
X308261Y379312D01*
X308167Y379386D01*
X308075Y379462D01*
X307986Y379542D01*
X307899Y379624D01*
X307815Y379709D01*
X307734Y379797D01*
X307657Y379887D01*
X307582Y379980D01*
X307510Y380076D01*
X307441Y380174D01*
X307376Y380274D01*
X307314Y380376D01*
X307255Y380480D01*
X307200Y380586D01*
X307149Y380694D01*
X307101Y380803D01*
X307056Y380914D01*
X307016Y381026D01*
X306979Y381140D01*
X306946Y381255D01*
X306916Y381370D01*
X306891Y381487D01*
X306869Y381604D01*
X306852Y381723D01*
X306838Y381841D01*
X306828Y381960D01*
X306822Y382080D01*
X306820Y382199D01*
X320973Y378587D02*
X320973Y389424D01*
X326391Y389424D01*
X326391Y387618D01*
X330011Y389424D02*
X335430Y389424D01*
X331817Y394843D02*
X331817Y381296D01*
X331818Y381296D02*
X331820Y381195D01*
X331826Y381094D01*
X331835Y380993D01*
X331848Y380892D01*
X331865Y380792D01*
X331886Y380693D01*
X331910Y380595D01*
X331938Y380498D01*
X331970Y380401D01*
X332005Y380306D01*
X332044Y380213D01*
X332086Y380121D01*
X332132Y380030D01*
X332181Y379942D01*
X332233Y379855D01*
X332289Y379770D01*
X332347Y379687D01*
X332409Y379607D01*
X332474Y379529D01*
X332541Y379453D01*
X332611Y379380D01*
X332684Y379310D01*
X332760Y379243D01*
X332838Y379178D01*
X332918Y379116D01*
X333001Y379058D01*
X333086Y379002D01*
X333173Y378950D01*
X333261Y378901D01*
X333352Y378855D01*
X333444Y378813D01*
X333537Y378774D01*
X333632Y378739D01*
X333729Y378707D01*
X333826Y378679D01*
X333924Y378655D01*
X334023Y378634D01*
X334123Y378617D01*
X334224Y378604D01*
X334325Y378595D01*
X334426Y378589D01*
X334527Y378587D01*
X335430Y378587D01*
X349684Y383103D02*
X349684Y390327D01*
X349683Y390327D02*
X349685Y390460D01*
X349691Y390592D01*
X349701Y390724D01*
X349714Y390856D01*
X349732Y390988D01*
X349753Y391118D01*
X349778Y391249D01*
X349807Y391378D01*
X349840Y391506D01*
X349876Y391634D01*
X349916Y391760D01*
X349960Y391885D01*
X350008Y392009D01*
X350059Y392131D01*
X350114Y392252D01*
X350172Y392371D01*
X350234Y392489D01*
X350299Y392604D01*
X350368Y392718D01*
X350439Y392829D01*
X350515Y392938D01*
X350593Y393045D01*
X350674Y393150D01*
X350759Y393252D01*
X350846Y393352D01*
X350936Y393449D01*
X351029Y393544D01*
X351125Y393635D01*
X351223Y393724D01*
X351324Y393810D01*
X351428Y393893D01*
X351534Y393973D01*
X351642Y394049D01*
X351752Y394123D01*
X351865Y394193D01*
X351979Y394260D01*
X352096Y394323D01*
X352214Y394383D01*
X352334Y394440D01*
X352456Y394493D01*
X352579Y394542D01*
X352703Y394588D01*
X352829Y394630D01*
X352956Y394668D01*
X353084Y394703D01*
X353213Y394734D01*
X353342Y394761D01*
X353473Y394784D01*
X353604Y394804D01*
X353736Y394819D01*
X353868Y394831D01*
X354000Y394839D01*
X354133Y394843D01*
X354265Y394843D01*
X354398Y394839D01*
X354530Y394831D01*
X354662Y394819D01*
X354794Y394804D01*
X354925Y394784D01*
X355056Y394761D01*
X355185Y394734D01*
X355314Y394703D01*
X355442Y394668D01*
X355569Y394630D01*
X355695Y394588D01*
X355819Y394542D01*
X355942Y394493D01*
X356064Y394440D01*
X356184Y394383D01*
X356302Y394323D01*
X356419Y394260D01*
X356533Y394193D01*
X356646Y394123D01*
X356756Y394049D01*
X356864Y393973D01*
X356970Y393893D01*
X357074Y393810D01*
X357175Y393724D01*
X357273Y393635D01*
X357369Y393544D01*
X357462Y393449D01*
X357552Y393352D01*
X357639Y393252D01*
X357724Y393150D01*
X357805Y393045D01*
X357883Y392938D01*
X357959Y392829D01*
X358030Y392718D01*
X358099Y392604D01*
X358164Y392489D01*
X358226Y392371D01*
X358284Y392252D01*
X358339Y392131D01*
X358390Y392009D01*
X358438Y391885D01*
X358482Y391760D01*
X358522Y391634D01*
X358558Y391506D01*
X358591Y391378D01*
X358620Y391249D01*
X358645Y391118D01*
X358666Y390988D01*
X358684Y390856D01*
X358697Y390724D01*
X358707Y390592D01*
X358713Y390460D01*
X358715Y390327D01*
X358715Y383103D01*
X358713Y382970D01*
X358707Y382838D01*
X358697Y382706D01*
X358684Y382574D01*
X358666Y382442D01*
X358645Y382312D01*
X358620Y382181D01*
X358591Y382052D01*
X358558Y381924D01*
X358522Y381796D01*
X358482Y381670D01*
X358438Y381545D01*
X358390Y381421D01*
X358339Y381299D01*
X358284Y381178D01*
X358226Y381059D01*
X358164Y380941D01*
X358099Y380826D01*
X358030Y380712D01*
X357959Y380601D01*
X357883Y380492D01*
X357805Y380385D01*
X357724Y380280D01*
X357639Y380178D01*
X357552Y380078D01*
X357462Y379981D01*
X357369Y379886D01*
X357273Y379795D01*
X357175Y379706D01*
X357074Y379620D01*
X356970Y379537D01*
X356864Y379457D01*
X356756Y379381D01*
X356646Y379307D01*
X356533Y379237D01*
X356419Y379170D01*
X356302Y379107D01*
X356184Y379047D01*
X356064Y378990D01*
X355942Y378937D01*
X355819Y378888D01*
X355695Y378842D01*
X355569Y378800D01*
X355442Y378762D01*
X355314Y378727D01*
X355185Y378696D01*
X355056Y378669D01*
X354925Y378646D01*
X354794Y378626D01*
X354662Y378611D01*
X354530Y378599D01*
X354398Y378591D01*
X354265Y378587D01*
X354133Y378587D01*
X354000Y378591D01*
X353868Y378599D01*
X353736Y378611D01*
X353604Y378626D01*
X353473Y378646D01*
X353342Y378669D01*
X353213Y378696D01*
X353084Y378727D01*
X352956Y378762D01*
X352829Y378800D01*
X352703Y378842D01*
X352579Y378888D01*
X352456Y378937D01*
X352334Y378990D01*
X352214Y379047D01*
X352096Y379107D01*
X351979Y379170D01*
X351865Y379237D01*
X351752Y379307D01*
X351642Y379381D01*
X351534Y379457D01*
X351428Y379537D01*
X351324Y379620D01*
X351223Y379706D01*
X351125Y379795D01*
X351029Y379886D01*
X350936Y379981D01*
X350846Y380078D01*
X350759Y380178D01*
X350674Y380280D01*
X350593Y380385D01*
X350515Y380492D01*
X350439Y380601D01*
X350368Y380712D01*
X350299Y380826D01*
X350234Y380941D01*
X350172Y381059D01*
X350114Y381178D01*
X350059Y381299D01*
X350008Y381421D01*
X349960Y381545D01*
X349916Y381670D01*
X349876Y381796D01*
X349840Y381924D01*
X349807Y382052D01*
X349778Y382181D01*
X349753Y382312D01*
X349732Y382442D01*
X349714Y382574D01*
X349701Y382706D01*
X349691Y382838D01*
X349685Y382970D01*
X349683Y383103D01*
X365770Y389424D02*
X365770Y373168D01*
X365770Y389424D02*
X370286Y389424D01*
X370390Y389422D01*
X370493Y389416D01*
X370597Y389406D01*
X370700Y389392D01*
X370802Y389374D01*
X370903Y389353D01*
X371004Y389327D01*
X371103Y389298D01*
X371202Y389265D01*
X371299Y389228D01*
X371394Y389187D01*
X371488Y389143D01*
X371580Y389095D01*
X371670Y389044D01*
X371759Y388989D01*
X371845Y388931D01*
X371928Y388869D01*
X372010Y388805D01*
X372088Y388737D01*
X372164Y388667D01*
X372238Y388594D01*
X372308Y388517D01*
X372376Y388439D01*
X372440Y388357D01*
X372502Y388274D01*
X372560Y388188D01*
X372615Y388099D01*
X372666Y388009D01*
X372714Y387917D01*
X372758Y387823D01*
X372799Y387728D01*
X372836Y387631D01*
X372869Y387532D01*
X372898Y387433D01*
X372924Y387332D01*
X372945Y387231D01*
X372963Y387129D01*
X372977Y387026D01*
X372987Y386922D01*
X372993Y386819D01*
X372995Y386715D01*
X372995Y381296D01*
X372993Y381195D01*
X372987Y381094D01*
X372978Y380993D01*
X372965Y380892D01*
X372948Y380792D01*
X372927Y380693D01*
X372903Y380595D01*
X372875Y380498D01*
X372843Y380401D01*
X372808Y380306D01*
X372769Y380213D01*
X372727Y380121D01*
X372681Y380030D01*
X372632Y379942D01*
X372580Y379855D01*
X372524Y379770D01*
X372466Y379687D01*
X372404Y379607D01*
X372339Y379529D01*
X372272Y379453D01*
X372202Y379380D01*
X372129Y379310D01*
X372053Y379243D01*
X371975Y379178D01*
X371895Y379116D01*
X371812Y379058D01*
X371727Y379002D01*
X371641Y378950D01*
X371552Y378901D01*
X371461Y378855D01*
X371369Y378813D01*
X371276Y378774D01*
X371181Y378739D01*
X371084Y378707D01*
X370987Y378679D01*
X370889Y378655D01*
X370790Y378634D01*
X370690Y378617D01*
X370589Y378604D01*
X370488Y378595D01*
X370387Y378589D01*
X370286Y378587D01*
X365770Y378587D01*
X377947Y389424D02*
X383366Y389424D01*
X379753Y394843D02*
X379753Y381296D01*
X379755Y381195D01*
X379761Y381094D01*
X379770Y380993D01*
X379783Y380892D01*
X379800Y380792D01*
X379821Y380693D01*
X379845Y380595D01*
X379873Y380498D01*
X379905Y380401D01*
X379940Y380306D01*
X379979Y380213D01*
X380021Y380121D01*
X380067Y380030D01*
X380116Y379942D01*
X380168Y379855D01*
X380224Y379770D01*
X380282Y379687D01*
X380344Y379607D01*
X380409Y379529D01*
X380476Y379453D01*
X380546Y379380D01*
X380619Y379310D01*
X380695Y379243D01*
X380773Y379178D01*
X380853Y379116D01*
X380936Y379058D01*
X381021Y379002D01*
X381108Y378950D01*
X381196Y378901D01*
X381287Y378855D01*
X381379Y378813D01*
X381472Y378774D01*
X381567Y378739D01*
X381664Y378707D01*
X381761Y378679D01*
X381859Y378655D01*
X381958Y378634D01*
X382058Y378617D01*
X382159Y378604D01*
X382260Y378595D01*
X382361Y378589D01*
X382462Y378587D01*
X383366Y378587D01*
X389109Y378587D02*
X389109Y389424D01*
X388657Y393940D02*
X388657Y394843D01*
X389561Y394843D01*
X389561Y393940D01*
X388657Y393940D01*
X396195Y389424D02*
X396195Y378587D01*
X396195Y389424D02*
X404323Y389424D01*
X404424Y389422D01*
X404525Y389416D01*
X404626Y389407D01*
X404727Y389394D01*
X404827Y389377D01*
X404926Y389356D01*
X405024Y389332D01*
X405121Y389304D01*
X405218Y389272D01*
X405313Y389237D01*
X405406Y389198D01*
X405498Y389156D01*
X405589Y389110D01*
X405678Y389061D01*
X405764Y389009D01*
X405849Y388953D01*
X405932Y388895D01*
X406012Y388833D01*
X406090Y388768D01*
X406166Y388701D01*
X406239Y388631D01*
X406309Y388558D01*
X406376Y388482D01*
X406441Y388404D01*
X406503Y388324D01*
X406561Y388241D01*
X406617Y388156D01*
X406669Y388070D01*
X406718Y387981D01*
X406764Y387890D01*
X406806Y387798D01*
X406845Y387705D01*
X406880Y387610D01*
X406912Y387513D01*
X406940Y387416D01*
X406964Y387318D01*
X406985Y387219D01*
X407002Y387119D01*
X407015Y387018D01*
X407024Y386917D01*
X407030Y386816D01*
X407032Y386715D01*
X407033Y386715D02*
X407033Y378587D01*
X401614Y378587D02*
X401614Y389424D01*
X414675Y389424D02*
X414675Y381296D01*
X414677Y381195D01*
X414683Y381094D01*
X414692Y380993D01*
X414705Y380892D01*
X414722Y380792D01*
X414743Y380693D01*
X414767Y380595D01*
X414795Y380498D01*
X414827Y380401D01*
X414862Y380306D01*
X414901Y380213D01*
X414943Y380121D01*
X414989Y380030D01*
X415038Y379942D01*
X415090Y379855D01*
X415146Y379770D01*
X415204Y379687D01*
X415266Y379607D01*
X415331Y379529D01*
X415398Y379453D01*
X415468Y379380D01*
X415541Y379310D01*
X415617Y379243D01*
X415695Y379178D01*
X415775Y379116D01*
X415858Y379058D01*
X415943Y379002D01*
X416030Y378950D01*
X416118Y378901D01*
X416209Y378855D01*
X416301Y378813D01*
X416394Y378774D01*
X416489Y378739D01*
X416586Y378707D01*
X416683Y378679D01*
X416781Y378655D01*
X416880Y378634D01*
X416980Y378617D01*
X417081Y378604D01*
X417182Y378595D01*
X417283Y378589D01*
X417384Y378587D01*
X421900Y378587D01*
X421900Y389424D01*
X430098Y384909D02*
X434613Y383103D01*
X430097Y384909D02*
X430009Y384946D01*
X429923Y384987D01*
X429838Y385031D01*
X429755Y385079D01*
X429675Y385130D01*
X429596Y385184D01*
X429520Y385242D01*
X429446Y385302D01*
X429374Y385366D01*
X429306Y385432D01*
X429240Y385502D01*
X429177Y385573D01*
X429116Y385648D01*
X429059Y385724D01*
X429006Y385803D01*
X428955Y385884D01*
X428908Y385967D01*
X428864Y386052D01*
X428824Y386139D01*
X428787Y386227D01*
X428754Y386317D01*
X428724Y386408D01*
X428699Y386500D01*
X428677Y386593D01*
X428659Y386687D01*
X428644Y386781D01*
X428634Y386876D01*
X428628Y386972D01*
X428625Y387067D01*
X428626Y387163D01*
X428632Y387258D01*
X428641Y387354D01*
X428654Y387448D01*
X428670Y387542D01*
X428691Y387636D01*
X428716Y387728D01*
X428744Y387819D01*
X428776Y387909D01*
X428811Y387998D01*
X428850Y388085D01*
X428893Y388171D01*
X428939Y388255D01*
X428989Y388336D01*
X429041Y388416D01*
X429097Y388494D01*
X429157Y388569D01*
X429219Y388641D01*
X429284Y388711D01*
X429352Y388779D01*
X429422Y388843D01*
X429495Y388905D01*
X429571Y388963D01*
X429649Y389019D01*
X429729Y389071D01*
X429811Y389120D01*
X429895Y389165D01*
X429981Y389207D01*
X430068Y389246D01*
X430157Y389281D01*
X430248Y389312D01*
X430339Y389339D01*
X430432Y389363D01*
X430525Y389383D01*
X430619Y389399D01*
X430714Y389411D01*
X430809Y389420D01*
X430905Y389424D01*
X431000Y389425D01*
X431247Y389418D01*
X431493Y389406D01*
X431739Y389388D01*
X431985Y389363D01*
X432229Y389333D01*
X432473Y389297D01*
X432716Y389256D01*
X432958Y389208D01*
X433199Y389154D01*
X433438Y389095D01*
X433676Y389030D01*
X433912Y388959D01*
X434147Y388883D01*
X434380Y388801D01*
X434610Y388713D01*
X434838Y388620D01*
X435065Y388522D01*
X434614Y383102D02*
X434702Y383065D01*
X434788Y383024D01*
X434873Y382980D01*
X434956Y382932D01*
X435036Y382881D01*
X435115Y382827D01*
X435191Y382769D01*
X435265Y382709D01*
X435337Y382645D01*
X435405Y382579D01*
X435471Y382509D01*
X435534Y382438D01*
X435595Y382363D01*
X435652Y382287D01*
X435705Y382208D01*
X435756Y382127D01*
X435803Y382044D01*
X435847Y381959D01*
X435887Y381872D01*
X435924Y381784D01*
X435957Y381694D01*
X435987Y381603D01*
X436012Y381511D01*
X436034Y381418D01*
X436052Y381324D01*
X436067Y381230D01*
X436077Y381135D01*
X436083Y381039D01*
X436086Y380944D01*
X436085Y380848D01*
X436079Y380753D01*
X436070Y380657D01*
X436057Y380563D01*
X436041Y380469D01*
X436020Y380375D01*
X435995Y380283D01*
X435967Y380192D01*
X435935Y380102D01*
X435900Y380013D01*
X435861Y379926D01*
X435818Y379840D01*
X435772Y379756D01*
X435722Y379675D01*
X435670Y379595D01*
X435614Y379517D01*
X435554Y379442D01*
X435492Y379370D01*
X435427Y379300D01*
X435359Y379232D01*
X435289Y379168D01*
X435216Y379106D01*
X435140Y379048D01*
X435062Y378992D01*
X434982Y378940D01*
X434900Y378891D01*
X434816Y378846D01*
X434730Y378804D01*
X434643Y378765D01*
X434554Y378730D01*
X434463Y378699D01*
X434372Y378672D01*
X434279Y378648D01*
X434186Y378628D01*
X434092Y378612D01*
X433997Y378600D01*
X433902Y378591D01*
X433806Y378587D01*
X433711Y378586D01*
X433710Y378587D02*
X433348Y378596D01*
X432986Y378614D01*
X432625Y378641D01*
X432265Y378676D01*
X431905Y378719D01*
X431546Y378771D01*
X431189Y378832D01*
X430834Y378901D01*
X430480Y378978D01*
X430128Y379064D01*
X429778Y379158D01*
X429430Y379261D01*
X429085Y379371D01*
X428743Y379490D01*
X449863Y394843D02*
X455281Y378587D01*
X460700Y394843D01*
X466397Y391231D02*
X470912Y394843D01*
X470912Y378587D01*
X466397Y378587D02*
X475428Y378587D01*
X481403Y378587D02*
X481403Y379490D01*
X482306Y379490D01*
X482306Y378587D01*
X481403Y378587D01*
X488281Y386715D02*
X488285Y387035D01*
X488296Y387354D01*
X488315Y387674D01*
X488342Y387992D01*
X488376Y388310D01*
X488418Y388627D01*
X488468Y388943D01*
X488525Y389258D01*
X488589Y389571D01*
X488661Y389883D01*
X488740Y390193D01*
X488827Y390500D01*
X488921Y390806D01*
X489022Y391109D01*
X489131Y391410D01*
X489246Y391708D01*
X489369Y392004D01*
X489499Y392296D01*
X489636Y392585D01*
X489635Y392586D02*
X489674Y392694D01*
X489717Y392801D01*
X489763Y392906D01*
X489814Y393010D01*
X489867Y393112D01*
X489924Y393212D01*
X489985Y393310D01*
X490049Y393405D01*
X490116Y393499D01*
X490187Y393590D01*
X490260Y393679D01*
X490337Y393765D01*
X490416Y393848D01*
X490498Y393929D01*
X490583Y394007D01*
X490671Y394081D01*
X490761Y394153D01*
X490853Y394221D01*
X490948Y394287D01*
X491045Y394349D01*
X491144Y394407D01*
X491246Y394463D01*
X491348Y394514D01*
X491453Y394562D01*
X491559Y394607D01*
X491667Y394648D01*
X491776Y394685D01*
X491886Y394718D01*
X491998Y394747D01*
X492110Y394773D01*
X492223Y394795D01*
X492337Y394812D01*
X492451Y394826D01*
X492566Y394836D01*
X492681Y394842D01*
X492796Y394844D01*
X492796Y394843D02*
X492911Y394841D01*
X493026Y394835D01*
X493141Y394825D01*
X493255Y394811D01*
X493369Y394794D01*
X493482Y394772D01*
X493594Y394746D01*
X493706Y394717D01*
X493816Y394684D01*
X493925Y394647D01*
X494033Y394606D01*
X494139Y394561D01*
X494244Y394513D01*
X494346Y394462D01*
X494447Y394406D01*
X494547Y394348D01*
X494644Y394286D01*
X494738Y394221D01*
X494831Y394152D01*
X494921Y394080D01*
X495009Y394006D01*
X495094Y393928D01*
X495176Y393847D01*
X495255Y393764D01*
X495332Y393678D01*
X495405Y393589D01*
X495476Y393498D01*
X495543Y393404D01*
X495607Y393309D01*
X495668Y393211D01*
X495725Y393111D01*
X495778Y393009D01*
X495829Y392905D01*
X495875Y392800D01*
X495918Y392693D01*
X495957Y392585D01*
X495956Y392585D02*
X496093Y392296D01*
X496223Y392004D01*
X496346Y391708D01*
X496461Y391410D01*
X496570Y391109D01*
X496671Y390806D01*
X496765Y390500D01*
X496852Y390193D01*
X496931Y389883D01*
X497003Y389571D01*
X497067Y389258D01*
X497124Y388943D01*
X497174Y388627D01*
X497216Y388310D01*
X497250Y387992D01*
X497277Y387674D01*
X497296Y387354D01*
X497307Y387035D01*
X497311Y386715D01*
X488281Y386715D02*
X488285Y386395D01*
X488296Y386076D01*
X488315Y385756D01*
X488342Y385438D01*
X488376Y385120D01*
X488418Y384803D01*
X488468Y384487D01*
X488525Y384172D01*
X488589Y383859D01*
X488661Y383547D01*
X488740Y383237D01*
X488827Y382930D01*
X488921Y382624D01*
X489022Y382321D01*
X489131Y382020D01*
X489246Y381722D01*
X489369Y381426D01*
X489499Y381134D01*
X489636Y380845D01*
X489635Y380845D02*
X489674Y380737D01*
X489717Y380630D01*
X489763Y380525D01*
X489814Y380421D01*
X489867Y380319D01*
X489924Y380219D01*
X489985Y380121D01*
X490049Y380026D01*
X490116Y379932D01*
X490187Y379841D01*
X490260Y379752D01*
X490337Y379666D01*
X490416Y379583D01*
X490498Y379502D01*
X490583Y379424D01*
X490671Y379350D01*
X490761Y379278D01*
X490854Y379209D01*
X490948Y379144D01*
X491045Y379082D01*
X491145Y379024D01*
X491246Y378968D01*
X491348Y378917D01*
X491453Y378869D01*
X491559Y378824D01*
X491667Y378783D01*
X491776Y378746D01*
X491886Y378713D01*
X491998Y378684D01*
X492110Y378658D01*
X492223Y378636D01*
X492337Y378619D01*
X492451Y378605D01*
X492566Y378595D01*
X492681Y378589D01*
X492796Y378587D01*
X495956Y380845D02*
X496093Y381134D01*
X496223Y381426D01*
X496346Y381722D01*
X496461Y382020D01*
X496570Y382321D01*
X496671Y382624D01*
X496765Y382930D01*
X496852Y383237D01*
X496931Y383547D01*
X497003Y383859D01*
X497067Y384172D01*
X497124Y384487D01*
X497174Y384803D01*
X497216Y385120D01*
X497250Y385438D01*
X497277Y385756D01*
X497296Y386076D01*
X497307Y386395D01*
X497311Y386715D01*
X495957Y380845D02*
X495918Y380737D01*
X495875Y380630D01*
X495829Y380525D01*
X495778Y380421D01*
X495725Y380319D01*
X495668Y380219D01*
X495607Y380121D01*
X495543Y380026D01*
X495476Y379932D01*
X495405Y379841D01*
X495332Y379752D01*
X495255Y379666D01*
X495176Y379583D01*
X495094Y379502D01*
X495009Y379424D01*
X494921Y379350D01*
X494831Y379278D01*
X494738Y379209D01*
X494644Y379144D01*
X494547Y379082D01*
X494447Y379024D01*
X494346Y378968D01*
X494243Y378917D01*
X494139Y378869D01*
X494033Y378824D01*
X493925Y378783D01*
X493816Y378746D01*
X493706Y378713D01*
X493594Y378684D01*
X493482Y378658D01*
X493369Y378636D01*
X493255Y378619D01*
X493141Y378605D01*
X493026Y378595D01*
X492911Y378589D01*
X492796Y378587D01*
X489184Y382199D02*
X496409Y391231D01*
X127000Y241300D02*
X107950Y241300D01*
X127000Y241300D02*
X127002Y241142D01*
X127008Y240983D01*
X127018Y240825D01*
X127032Y240668D01*
X127049Y240510D01*
X127071Y240354D01*
X127096Y240197D01*
X127126Y240042D01*
X127159Y239887D01*
X127196Y239733D01*
X127237Y239580D01*
X127282Y239428D01*
X127331Y239278D01*
X127383Y239128D01*
X127439Y238980D01*
X127499Y238833D01*
X127562Y238688D01*
X127629Y238545D01*
X127699Y238403D01*
X127773Y238263D01*
X127851Y238125D01*
X127932Y237989D01*
X128016Y237855D01*
X128103Y237723D01*
X128194Y237593D01*
X128288Y237466D01*
X128385Y237341D01*
X128486Y237218D01*
X128589Y237098D01*
X128695Y236981D01*
X128804Y236866D01*
X128916Y236754D01*
X129031Y236645D01*
X129148Y236539D01*
X129268Y236436D01*
X129391Y236335D01*
X129516Y236238D01*
X129643Y236144D01*
X129773Y236053D01*
X129905Y235966D01*
X130039Y235882D01*
X130175Y235801D01*
X130313Y235723D01*
X130453Y235649D01*
X130595Y235579D01*
X130738Y235512D01*
X130883Y235449D01*
X131030Y235389D01*
X131178Y235333D01*
X131328Y235281D01*
X131478Y235232D01*
X131630Y235187D01*
X131783Y235146D01*
X131937Y235109D01*
X132092Y235076D01*
X132247Y235046D01*
X132404Y235021D01*
X132560Y234999D01*
X132718Y234982D01*
X132875Y234968D01*
X133033Y234958D01*
X133192Y234952D01*
X133350Y234950D01*
X133508Y234952D01*
X133667Y234958D01*
X133825Y234968D01*
X133982Y234982D01*
X134140Y234999D01*
X134296Y235021D01*
X134453Y235046D01*
X134608Y235076D01*
X134763Y235109D01*
X134917Y235146D01*
X135070Y235187D01*
X135222Y235232D01*
X135372Y235281D01*
X135522Y235333D01*
X135670Y235389D01*
X135817Y235449D01*
X135962Y235512D01*
X136105Y235579D01*
X136247Y235649D01*
X136387Y235723D01*
X136525Y235801D01*
X136661Y235882D01*
X136795Y235966D01*
X136927Y236053D01*
X137057Y236144D01*
X137184Y236238D01*
X137309Y236335D01*
X137432Y236436D01*
X137552Y236539D01*
X137669Y236645D01*
X137784Y236754D01*
X137896Y236866D01*
X138005Y236981D01*
X138111Y237098D01*
X138214Y237218D01*
X138315Y237341D01*
X138412Y237466D01*
X138506Y237593D01*
X138597Y237723D01*
X138684Y237855D01*
X138768Y237989D01*
X138849Y238125D01*
X138927Y238263D01*
X139001Y238403D01*
X139071Y238545D01*
X139138Y238688D01*
X139201Y238833D01*
X139261Y238980D01*
X139317Y239128D01*
X139369Y239278D01*
X139418Y239428D01*
X139463Y239580D01*
X139504Y239733D01*
X139541Y239887D01*
X139574Y240042D01*
X139604Y240197D01*
X139629Y240354D01*
X139651Y240510D01*
X139668Y240668D01*
X139682Y240825D01*
X139692Y240983D01*
X139698Y241142D01*
X139700Y241300D01*
X107950Y241300D02*
X107950Y12700D01*
X158750Y12700D01*
X158750Y241300D01*
X139700Y241300D01*
D12*
X161925Y282575D02*
X263525Y282575D01*
X161925Y282575D02*
X161925Y301625D01*
X161925Y346075D01*
X263525Y346075D01*
X263525Y301625D01*
X263525Y282575D01*
X263525Y301625D02*
X161925Y301625D01*
D11*
X260350Y144780D02*
X260348Y144680D01*
X260342Y144581D01*
X260332Y144481D01*
X260319Y144383D01*
X260301Y144284D01*
X260280Y144187D01*
X260255Y144091D01*
X260226Y143995D01*
X260193Y143901D01*
X260157Y143808D01*
X260117Y143717D01*
X260073Y143627D01*
X260026Y143539D01*
X259976Y143453D01*
X259922Y143369D01*
X259865Y143287D01*
X259805Y143208D01*
X259741Y143130D01*
X259675Y143056D01*
X259606Y142984D01*
X259534Y142915D01*
X259460Y142849D01*
X259382Y142785D01*
X259303Y142725D01*
X259221Y142668D01*
X259137Y142614D01*
X259051Y142564D01*
X258963Y142517D01*
X258873Y142473D01*
X258782Y142433D01*
X258689Y142397D01*
X258595Y142364D01*
X258499Y142335D01*
X258403Y142310D01*
X258306Y142289D01*
X258207Y142271D01*
X258109Y142258D01*
X258009Y142248D01*
X257910Y142242D01*
X257810Y142240D01*
X260350Y160020D02*
X260348Y160120D01*
X260342Y160219D01*
X260332Y160319D01*
X260319Y160417D01*
X260301Y160516D01*
X260280Y160613D01*
X260255Y160709D01*
X260226Y160805D01*
X260193Y160899D01*
X260157Y160992D01*
X260117Y161083D01*
X260073Y161173D01*
X260026Y161261D01*
X259976Y161347D01*
X259922Y161431D01*
X259865Y161513D01*
X259805Y161592D01*
X259741Y161670D01*
X259675Y161744D01*
X259606Y161816D01*
X259534Y161885D01*
X259460Y161951D01*
X259382Y162015D01*
X259303Y162075D01*
X259221Y162132D01*
X259137Y162186D01*
X259051Y162236D01*
X258963Y162283D01*
X258873Y162327D01*
X258782Y162367D01*
X258689Y162403D01*
X258595Y162436D01*
X258499Y162465D01*
X258403Y162490D01*
X258306Y162511D01*
X258207Y162529D01*
X258109Y162542D01*
X258009Y162552D01*
X257910Y162558D01*
X257810Y162560D01*
X212090Y162560D02*
X211990Y162558D01*
X211891Y162552D01*
X211791Y162542D01*
X211693Y162529D01*
X211594Y162511D01*
X211497Y162490D01*
X211401Y162465D01*
X211305Y162436D01*
X211211Y162403D01*
X211118Y162367D01*
X211027Y162327D01*
X210937Y162283D01*
X210849Y162236D01*
X210763Y162186D01*
X210679Y162132D01*
X210597Y162075D01*
X210518Y162015D01*
X210440Y161951D01*
X210366Y161885D01*
X210294Y161816D01*
X210225Y161744D01*
X210159Y161670D01*
X210095Y161592D01*
X210035Y161513D01*
X209978Y161431D01*
X209924Y161347D01*
X209874Y161261D01*
X209827Y161173D01*
X209783Y161083D01*
X209743Y160992D01*
X209707Y160899D01*
X209674Y160805D01*
X209645Y160709D01*
X209620Y160613D01*
X209599Y160516D01*
X209581Y160417D01*
X209568Y160319D01*
X209558Y160219D01*
X209552Y160120D01*
X209550Y160020D01*
X209550Y144780D02*
X209552Y144680D01*
X209558Y144581D01*
X209568Y144481D01*
X209581Y144383D01*
X209599Y144284D01*
X209620Y144187D01*
X209645Y144091D01*
X209674Y143995D01*
X209707Y143901D01*
X209743Y143808D01*
X209783Y143717D01*
X209827Y143627D01*
X209874Y143539D01*
X209924Y143453D01*
X209978Y143369D01*
X210035Y143287D01*
X210095Y143208D01*
X210159Y143130D01*
X210225Y143056D01*
X210294Y142984D01*
X210366Y142915D01*
X210440Y142849D01*
X210518Y142785D01*
X210597Y142725D01*
X210679Y142668D01*
X210763Y142614D01*
X210849Y142564D01*
X210937Y142517D01*
X211027Y142473D01*
X211118Y142433D01*
X211211Y142397D01*
X211305Y142364D01*
X211401Y142335D01*
X211497Y142310D01*
X211594Y142289D01*
X211693Y142271D01*
X211791Y142258D01*
X211891Y142248D01*
X211990Y142242D01*
X212090Y142240D01*
X260350Y144780D02*
X260350Y160020D01*
X257810Y142240D02*
X254000Y142240D01*
X252730Y143510D01*
X254000Y162560D02*
X257810Y162560D01*
X254000Y162560D02*
X252730Y161290D01*
X217170Y143510D02*
X215900Y142240D01*
X217170Y143510D02*
X252730Y143510D01*
X217170Y161290D02*
X215900Y162560D01*
X217170Y161290D02*
X252730Y161290D01*
X215900Y142240D02*
X212090Y142240D01*
X212090Y162560D02*
X215900Y162560D01*
X209550Y160020D02*
X209550Y144780D01*
D13*
X207645Y152400D03*
X262255Y152400D03*
D14*
X280484Y145288D02*
X280484Y136398D01*
X280484Y145288D02*
X282954Y145288D01*
X283052Y145286D01*
X283150Y145280D01*
X283248Y145270D01*
X283345Y145257D01*
X283442Y145239D01*
X283538Y145218D01*
X283632Y145193D01*
X283726Y145164D01*
X283819Y145132D01*
X283910Y145095D01*
X284000Y145056D01*
X284088Y145012D01*
X284174Y144965D01*
X284259Y144915D01*
X284341Y144862D01*
X284421Y144805D01*
X284499Y144745D01*
X284574Y144682D01*
X284647Y144616D01*
X284717Y144547D01*
X284784Y144476D01*
X284849Y144402D01*
X284910Y144325D01*
X284969Y144246D01*
X285024Y144165D01*
X285076Y144082D01*
X285124Y143996D01*
X285169Y143909D01*
X285211Y143820D01*
X285249Y143730D01*
X285283Y143638D01*
X285314Y143545D01*
X285341Y143450D01*
X285364Y143355D01*
X285384Y143258D01*
X285399Y143162D01*
X285411Y143064D01*
X285419Y142966D01*
X285423Y142868D01*
X285423Y142770D01*
X285419Y142672D01*
X285411Y142574D01*
X285399Y142476D01*
X285384Y142380D01*
X285364Y142283D01*
X285341Y142188D01*
X285314Y142093D01*
X285283Y142000D01*
X285249Y141908D01*
X285211Y141818D01*
X285169Y141729D01*
X285124Y141642D01*
X285076Y141556D01*
X285024Y141473D01*
X284969Y141392D01*
X284910Y141313D01*
X284849Y141236D01*
X284784Y141162D01*
X284717Y141091D01*
X284647Y141022D01*
X284574Y140956D01*
X284499Y140893D01*
X284421Y140833D01*
X284341Y140776D01*
X284259Y140723D01*
X284174Y140673D01*
X284088Y140626D01*
X284000Y140582D01*
X283910Y140543D01*
X283819Y140506D01*
X283726Y140474D01*
X283632Y140445D01*
X283538Y140420D01*
X283442Y140399D01*
X283345Y140381D01*
X283248Y140368D01*
X283150Y140358D01*
X283052Y140352D01*
X282954Y140350D01*
X282954Y140349D02*
X280484Y140349D01*
X283448Y140349D02*
X285423Y136398D01*
X288840Y136398D02*
X291804Y145288D01*
X294767Y136398D01*
X294026Y138621D02*
X289581Y138621D01*
D11*
X260350Y170180D02*
X260348Y170080D01*
X260342Y169981D01*
X260332Y169881D01*
X260319Y169783D01*
X260301Y169684D01*
X260280Y169587D01*
X260255Y169491D01*
X260226Y169395D01*
X260193Y169301D01*
X260157Y169208D01*
X260117Y169117D01*
X260073Y169027D01*
X260026Y168939D01*
X259976Y168853D01*
X259922Y168769D01*
X259865Y168687D01*
X259805Y168608D01*
X259741Y168530D01*
X259675Y168456D01*
X259606Y168384D01*
X259534Y168315D01*
X259460Y168249D01*
X259382Y168185D01*
X259303Y168125D01*
X259221Y168068D01*
X259137Y168014D01*
X259051Y167964D01*
X258963Y167917D01*
X258873Y167873D01*
X258782Y167833D01*
X258689Y167797D01*
X258595Y167764D01*
X258499Y167735D01*
X258403Y167710D01*
X258306Y167689D01*
X258207Y167671D01*
X258109Y167658D01*
X258009Y167648D01*
X257910Y167642D01*
X257810Y167640D01*
X260350Y185420D02*
X260348Y185520D01*
X260342Y185619D01*
X260332Y185719D01*
X260319Y185817D01*
X260301Y185916D01*
X260280Y186013D01*
X260255Y186109D01*
X260226Y186205D01*
X260193Y186299D01*
X260157Y186392D01*
X260117Y186483D01*
X260073Y186573D01*
X260026Y186661D01*
X259976Y186747D01*
X259922Y186831D01*
X259865Y186913D01*
X259805Y186992D01*
X259741Y187070D01*
X259675Y187144D01*
X259606Y187216D01*
X259534Y187285D01*
X259460Y187351D01*
X259382Y187415D01*
X259303Y187475D01*
X259221Y187532D01*
X259137Y187586D01*
X259051Y187636D01*
X258963Y187683D01*
X258873Y187727D01*
X258782Y187767D01*
X258689Y187803D01*
X258595Y187836D01*
X258499Y187865D01*
X258403Y187890D01*
X258306Y187911D01*
X258207Y187929D01*
X258109Y187942D01*
X258009Y187952D01*
X257910Y187958D01*
X257810Y187960D01*
X212090Y187960D02*
X211990Y187958D01*
X211891Y187952D01*
X211791Y187942D01*
X211693Y187929D01*
X211594Y187911D01*
X211497Y187890D01*
X211401Y187865D01*
X211305Y187836D01*
X211211Y187803D01*
X211118Y187767D01*
X211027Y187727D01*
X210937Y187683D01*
X210849Y187636D01*
X210763Y187586D01*
X210679Y187532D01*
X210597Y187475D01*
X210518Y187415D01*
X210440Y187351D01*
X210366Y187285D01*
X210294Y187216D01*
X210225Y187144D01*
X210159Y187070D01*
X210095Y186992D01*
X210035Y186913D01*
X209978Y186831D01*
X209924Y186747D01*
X209874Y186661D01*
X209827Y186573D01*
X209783Y186483D01*
X209743Y186392D01*
X209707Y186299D01*
X209674Y186205D01*
X209645Y186109D01*
X209620Y186013D01*
X209599Y185916D01*
X209581Y185817D01*
X209568Y185719D01*
X209558Y185619D01*
X209552Y185520D01*
X209550Y185420D01*
X209550Y170180D02*
X209552Y170080D01*
X209558Y169981D01*
X209568Y169881D01*
X209581Y169783D01*
X209599Y169684D01*
X209620Y169587D01*
X209645Y169491D01*
X209674Y169395D01*
X209707Y169301D01*
X209743Y169208D01*
X209783Y169117D01*
X209827Y169027D01*
X209874Y168939D01*
X209924Y168853D01*
X209978Y168769D01*
X210035Y168687D01*
X210095Y168608D01*
X210159Y168530D01*
X210225Y168456D01*
X210294Y168384D01*
X210366Y168315D01*
X210440Y168249D01*
X210518Y168185D01*
X210597Y168125D01*
X210679Y168068D01*
X210763Y168014D01*
X210849Y167964D01*
X210937Y167917D01*
X211027Y167873D01*
X211118Y167833D01*
X211211Y167797D01*
X211305Y167764D01*
X211401Y167735D01*
X211497Y167710D01*
X211594Y167689D01*
X211693Y167671D01*
X211791Y167658D01*
X211891Y167648D01*
X211990Y167642D01*
X212090Y167640D01*
X260350Y170180D02*
X260350Y185420D01*
X257810Y167640D02*
X254000Y167640D01*
X252730Y168910D01*
X254000Y187960D02*
X257810Y187960D01*
X254000Y187960D02*
X252730Y186690D01*
X217170Y168910D02*
X215900Y167640D01*
X217170Y168910D02*
X252730Y168910D01*
X217170Y186690D02*
X215900Y187960D01*
X217170Y186690D02*
X252730Y186690D01*
X215900Y167640D02*
X212090Y167640D01*
X212090Y187960D02*
X215900Y187960D01*
X209550Y185420D02*
X209550Y170180D01*
D13*
X207645Y177800D03*
X262255Y177800D03*
D14*
X280530Y170688D02*
X280530Y161798D01*
X280530Y170688D02*
X283000Y170688D01*
X283098Y170686D01*
X283196Y170680D01*
X283294Y170670D01*
X283391Y170657D01*
X283488Y170639D01*
X283584Y170618D01*
X283678Y170593D01*
X283772Y170564D01*
X283865Y170532D01*
X283956Y170495D01*
X284046Y170456D01*
X284134Y170412D01*
X284220Y170365D01*
X284305Y170315D01*
X284387Y170262D01*
X284467Y170205D01*
X284545Y170145D01*
X284620Y170082D01*
X284693Y170016D01*
X284763Y169947D01*
X284830Y169876D01*
X284895Y169802D01*
X284956Y169725D01*
X285015Y169646D01*
X285070Y169565D01*
X285122Y169482D01*
X285170Y169396D01*
X285215Y169309D01*
X285257Y169220D01*
X285295Y169130D01*
X285329Y169038D01*
X285360Y168945D01*
X285387Y168850D01*
X285410Y168755D01*
X285430Y168658D01*
X285445Y168562D01*
X285457Y168464D01*
X285465Y168366D01*
X285469Y168268D01*
X285469Y168170D01*
X285465Y168072D01*
X285457Y167974D01*
X285445Y167876D01*
X285430Y167780D01*
X285410Y167683D01*
X285387Y167588D01*
X285360Y167493D01*
X285329Y167400D01*
X285295Y167308D01*
X285257Y167218D01*
X285215Y167129D01*
X285170Y167042D01*
X285122Y166956D01*
X285070Y166873D01*
X285015Y166792D01*
X284956Y166713D01*
X284895Y166636D01*
X284830Y166562D01*
X284763Y166491D01*
X284693Y166422D01*
X284620Y166356D01*
X284545Y166293D01*
X284467Y166233D01*
X284387Y166176D01*
X284305Y166123D01*
X284220Y166073D01*
X284134Y166026D01*
X284046Y165982D01*
X283956Y165943D01*
X283865Y165906D01*
X283772Y165874D01*
X283678Y165845D01*
X283584Y165820D01*
X283488Y165799D01*
X283391Y165781D01*
X283294Y165768D01*
X283196Y165758D01*
X283098Y165752D01*
X283000Y165750D01*
X283000Y165749D02*
X280530Y165749D01*
X283494Y165749D02*
X285469Y161798D01*
X289828Y166737D02*
X292298Y166737D01*
X292298Y166736D02*
X292396Y166734D01*
X292494Y166728D01*
X292592Y166718D01*
X292689Y166705D01*
X292786Y166687D01*
X292882Y166666D01*
X292976Y166641D01*
X293070Y166612D01*
X293163Y166580D01*
X293254Y166543D01*
X293344Y166504D01*
X293432Y166460D01*
X293518Y166413D01*
X293603Y166363D01*
X293685Y166310D01*
X293765Y166253D01*
X293843Y166193D01*
X293918Y166130D01*
X293991Y166064D01*
X294061Y165995D01*
X294128Y165924D01*
X294193Y165850D01*
X294254Y165773D01*
X294313Y165694D01*
X294368Y165613D01*
X294420Y165530D01*
X294468Y165444D01*
X294513Y165357D01*
X294555Y165268D01*
X294593Y165178D01*
X294627Y165086D01*
X294658Y164993D01*
X294685Y164898D01*
X294708Y164803D01*
X294728Y164706D01*
X294743Y164610D01*
X294755Y164512D01*
X294763Y164414D01*
X294767Y164316D01*
X294767Y164218D01*
X294763Y164120D01*
X294755Y164022D01*
X294743Y163924D01*
X294728Y163828D01*
X294708Y163731D01*
X294685Y163636D01*
X294658Y163541D01*
X294627Y163448D01*
X294593Y163356D01*
X294555Y163266D01*
X294513Y163177D01*
X294468Y163090D01*
X294420Y163004D01*
X294368Y162921D01*
X294313Y162840D01*
X294254Y162761D01*
X294193Y162684D01*
X294128Y162610D01*
X294061Y162539D01*
X293991Y162470D01*
X293918Y162404D01*
X293843Y162341D01*
X293765Y162281D01*
X293685Y162224D01*
X293603Y162171D01*
X293518Y162121D01*
X293432Y162074D01*
X293344Y162030D01*
X293254Y161991D01*
X293163Y161954D01*
X293070Y161922D01*
X292976Y161893D01*
X292882Y161868D01*
X292786Y161847D01*
X292689Y161829D01*
X292592Y161816D01*
X292494Y161806D01*
X292396Y161800D01*
X292298Y161798D01*
X289828Y161798D01*
X289828Y170688D01*
X292298Y170688D01*
X292385Y170686D01*
X292473Y170680D01*
X292560Y170671D01*
X292646Y170657D01*
X292732Y170640D01*
X292816Y170619D01*
X292900Y170594D01*
X292983Y170565D01*
X293064Y170533D01*
X293144Y170498D01*
X293222Y170459D01*
X293299Y170416D01*
X293373Y170370D01*
X293445Y170321D01*
X293515Y170269D01*
X293583Y170213D01*
X293648Y170155D01*
X293711Y170094D01*
X293770Y170030D01*
X293827Y169963D01*
X293881Y169895D01*
X293932Y169823D01*
X293979Y169750D01*
X294024Y169675D01*
X294065Y169597D01*
X294102Y169518D01*
X294136Y169438D01*
X294166Y169356D01*
X294193Y169273D01*
X294216Y169188D01*
X294235Y169103D01*
X294250Y169017D01*
X294262Y168930D01*
X294270Y168843D01*
X294274Y168756D01*
X294274Y168668D01*
X294270Y168581D01*
X294262Y168494D01*
X294250Y168407D01*
X294235Y168321D01*
X294216Y168236D01*
X294193Y168151D01*
X294166Y168068D01*
X294136Y167986D01*
X294102Y167906D01*
X294065Y167827D01*
X294024Y167749D01*
X293979Y167674D01*
X293932Y167601D01*
X293881Y167529D01*
X293827Y167461D01*
X293770Y167394D01*
X293711Y167330D01*
X293648Y167269D01*
X293583Y167211D01*
X293515Y167155D01*
X293445Y167103D01*
X293373Y167054D01*
X293299Y167008D01*
X293222Y166965D01*
X293144Y166926D01*
X293064Y166891D01*
X292983Y166859D01*
X292900Y166830D01*
X292816Y166805D01*
X292732Y166784D01*
X292646Y166767D01*
X292560Y166753D01*
X292473Y166744D01*
X292385Y166738D01*
X292298Y166736D01*
D11*
X260350Y17780D02*
X260348Y17680D01*
X260342Y17581D01*
X260332Y17481D01*
X260319Y17383D01*
X260301Y17284D01*
X260280Y17187D01*
X260255Y17091D01*
X260226Y16995D01*
X260193Y16901D01*
X260157Y16808D01*
X260117Y16717D01*
X260073Y16627D01*
X260026Y16539D01*
X259976Y16453D01*
X259922Y16369D01*
X259865Y16287D01*
X259805Y16208D01*
X259741Y16130D01*
X259675Y16056D01*
X259606Y15984D01*
X259534Y15915D01*
X259460Y15849D01*
X259382Y15785D01*
X259303Y15725D01*
X259221Y15668D01*
X259137Y15614D01*
X259051Y15564D01*
X258963Y15517D01*
X258873Y15473D01*
X258782Y15433D01*
X258689Y15397D01*
X258595Y15364D01*
X258499Y15335D01*
X258403Y15310D01*
X258306Y15289D01*
X258207Y15271D01*
X258109Y15258D01*
X258009Y15248D01*
X257910Y15242D01*
X257810Y15240D01*
X260350Y33020D02*
X260348Y33120D01*
X260342Y33219D01*
X260332Y33319D01*
X260319Y33417D01*
X260301Y33516D01*
X260280Y33613D01*
X260255Y33709D01*
X260226Y33805D01*
X260193Y33899D01*
X260157Y33992D01*
X260117Y34083D01*
X260073Y34173D01*
X260026Y34261D01*
X259976Y34347D01*
X259922Y34431D01*
X259865Y34513D01*
X259805Y34592D01*
X259741Y34670D01*
X259675Y34744D01*
X259606Y34816D01*
X259534Y34885D01*
X259460Y34951D01*
X259382Y35015D01*
X259303Y35075D01*
X259221Y35132D01*
X259137Y35186D01*
X259051Y35236D01*
X258963Y35283D01*
X258873Y35327D01*
X258782Y35367D01*
X258689Y35403D01*
X258595Y35436D01*
X258499Y35465D01*
X258403Y35490D01*
X258306Y35511D01*
X258207Y35529D01*
X258109Y35542D01*
X258009Y35552D01*
X257910Y35558D01*
X257810Y35560D01*
X212090Y35560D02*
X211990Y35558D01*
X211891Y35552D01*
X211791Y35542D01*
X211693Y35529D01*
X211594Y35511D01*
X211497Y35490D01*
X211401Y35465D01*
X211305Y35436D01*
X211211Y35403D01*
X211118Y35367D01*
X211027Y35327D01*
X210937Y35283D01*
X210849Y35236D01*
X210763Y35186D01*
X210679Y35132D01*
X210597Y35075D01*
X210518Y35015D01*
X210440Y34951D01*
X210366Y34885D01*
X210294Y34816D01*
X210225Y34744D01*
X210159Y34670D01*
X210095Y34592D01*
X210035Y34513D01*
X209978Y34431D01*
X209924Y34347D01*
X209874Y34261D01*
X209827Y34173D01*
X209783Y34083D01*
X209743Y33992D01*
X209707Y33899D01*
X209674Y33805D01*
X209645Y33709D01*
X209620Y33613D01*
X209599Y33516D01*
X209581Y33417D01*
X209568Y33319D01*
X209558Y33219D01*
X209552Y33120D01*
X209550Y33020D01*
X209550Y17780D02*
X209552Y17680D01*
X209558Y17581D01*
X209568Y17481D01*
X209581Y17383D01*
X209599Y17284D01*
X209620Y17187D01*
X209645Y17091D01*
X209674Y16995D01*
X209707Y16901D01*
X209743Y16808D01*
X209783Y16717D01*
X209827Y16627D01*
X209874Y16539D01*
X209924Y16453D01*
X209978Y16369D01*
X210035Y16287D01*
X210095Y16208D01*
X210159Y16130D01*
X210225Y16056D01*
X210294Y15984D01*
X210366Y15915D01*
X210440Y15849D01*
X210518Y15785D01*
X210597Y15725D01*
X210679Y15668D01*
X210763Y15614D01*
X210849Y15564D01*
X210937Y15517D01*
X211027Y15473D01*
X211118Y15433D01*
X211211Y15397D01*
X211305Y15364D01*
X211401Y15335D01*
X211497Y15310D01*
X211594Y15289D01*
X211693Y15271D01*
X211791Y15258D01*
X211891Y15248D01*
X211990Y15242D01*
X212090Y15240D01*
X260350Y17780D02*
X260350Y33020D01*
X257810Y15240D02*
X254000Y15240D01*
X252730Y16510D01*
X254000Y35560D02*
X257810Y35560D01*
X254000Y35560D02*
X252730Y34290D01*
X217170Y16510D02*
X215900Y15240D01*
X217170Y16510D02*
X252730Y16510D01*
X217170Y34290D02*
X215900Y35560D01*
X217170Y34290D02*
X252730Y34290D01*
X215900Y15240D02*
X212090Y15240D01*
X212090Y35560D02*
X215900Y35560D01*
X209550Y33020D02*
X209550Y17780D01*
D13*
X207645Y25400D03*
X262255Y25400D03*
D14*
X285171Y18288D02*
X285171Y9398D01*
X285171Y18288D02*
X287640Y18288D01*
X287738Y18286D01*
X287836Y18280D01*
X287934Y18270D01*
X288031Y18257D01*
X288128Y18239D01*
X288224Y18218D01*
X288318Y18193D01*
X288412Y18164D01*
X288505Y18132D01*
X288596Y18095D01*
X288686Y18056D01*
X288774Y18012D01*
X288860Y17965D01*
X288945Y17915D01*
X289027Y17862D01*
X289107Y17805D01*
X289185Y17745D01*
X289260Y17682D01*
X289333Y17616D01*
X289403Y17547D01*
X289470Y17476D01*
X289535Y17402D01*
X289596Y17325D01*
X289655Y17246D01*
X289710Y17165D01*
X289762Y17082D01*
X289810Y16996D01*
X289855Y16909D01*
X289897Y16820D01*
X289935Y16730D01*
X289969Y16638D01*
X290000Y16545D01*
X290027Y16450D01*
X290050Y16355D01*
X290070Y16258D01*
X290085Y16162D01*
X290097Y16064D01*
X290105Y15966D01*
X290109Y15868D01*
X290109Y15770D01*
X290105Y15672D01*
X290097Y15574D01*
X290085Y15476D01*
X290070Y15380D01*
X290050Y15283D01*
X290027Y15188D01*
X290000Y15093D01*
X289969Y15000D01*
X289935Y14908D01*
X289897Y14818D01*
X289855Y14729D01*
X289810Y14642D01*
X289762Y14556D01*
X289710Y14473D01*
X289655Y14392D01*
X289596Y14313D01*
X289535Y14236D01*
X289470Y14162D01*
X289403Y14091D01*
X289333Y14022D01*
X289260Y13956D01*
X289185Y13893D01*
X289107Y13833D01*
X289027Y13776D01*
X288945Y13723D01*
X288860Y13673D01*
X288774Y13626D01*
X288686Y13582D01*
X288596Y13543D01*
X288505Y13506D01*
X288412Y13474D01*
X288318Y13445D01*
X288224Y13420D01*
X288128Y13399D01*
X288031Y13381D01*
X287934Y13368D01*
X287836Y13358D01*
X287738Y13352D01*
X287640Y13350D01*
X287640Y13349D02*
X285171Y13349D01*
X288134Y13349D02*
X290110Y9398D01*
X295966Y9398D02*
X297942Y9398D01*
X295966Y9398D02*
X295880Y9400D01*
X295794Y9406D01*
X295708Y9415D01*
X295623Y9428D01*
X295538Y9445D01*
X295455Y9465D01*
X295372Y9489D01*
X295290Y9517D01*
X295210Y9548D01*
X295131Y9583D01*
X295054Y9621D01*
X294978Y9663D01*
X294904Y9707D01*
X294833Y9755D01*
X294763Y9806D01*
X294696Y9860D01*
X294631Y9917D01*
X294569Y9977D01*
X294509Y10039D01*
X294452Y10104D01*
X294398Y10171D01*
X294347Y10241D01*
X294299Y10312D01*
X294255Y10386D01*
X294213Y10462D01*
X294175Y10539D01*
X294140Y10618D01*
X294109Y10698D01*
X294081Y10780D01*
X294057Y10863D01*
X294037Y10946D01*
X294020Y11031D01*
X294007Y11116D01*
X293998Y11202D01*
X293992Y11288D01*
X293990Y11374D01*
X293991Y11374D02*
X293991Y16312D01*
X293990Y16312D02*
X293992Y16401D01*
X293998Y16489D01*
X294008Y16577D01*
X294022Y16665D01*
X294040Y16752D01*
X294061Y16838D01*
X294087Y16923D01*
X294116Y17006D01*
X294149Y17089D01*
X294186Y17169D01*
X294226Y17248D01*
X294270Y17325D01*
X294317Y17401D01*
X294367Y17473D01*
X294421Y17544D01*
X294478Y17612D01*
X294538Y17678D01*
X294600Y17740D01*
X294666Y17800D01*
X294734Y17857D01*
X294805Y17911D01*
X294877Y17961D01*
X294952Y18008D01*
X295030Y18052D01*
X295109Y18092D01*
X295189Y18129D01*
X295272Y18162D01*
X295355Y18191D01*
X295440Y18217D01*
X295526Y18238D01*
X295613Y18256D01*
X295701Y18270D01*
X295789Y18280D01*
X295877Y18286D01*
X295966Y18288D01*
X297942Y18288D01*
D11*
X260350Y43180D02*
X260348Y43080D01*
X260342Y42981D01*
X260332Y42881D01*
X260319Y42783D01*
X260301Y42684D01*
X260280Y42587D01*
X260255Y42491D01*
X260226Y42395D01*
X260193Y42301D01*
X260157Y42208D01*
X260117Y42117D01*
X260073Y42027D01*
X260026Y41939D01*
X259976Y41853D01*
X259922Y41769D01*
X259865Y41687D01*
X259805Y41608D01*
X259741Y41530D01*
X259675Y41456D01*
X259606Y41384D01*
X259534Y41315D01*
X259460Y41249D01*
X259382Y41185D01*
X259303Y41125D01*
X259221Y41068D01*
X259137Y41014D01*
X259051Y40964D01*
X258963Y40917D01*
X258873Y40873D01*
X258782Y40833D01*
X258689Y40797D01*
X258595Y40764D01*
X258499Y40735D01*
X258403Y40710D01*
X258306Y40689D01*
X258207Y40671D01*
X258109Y40658D01*
X258009Y40648D01*
X257910Y40642D01*
X257810Y40640D01*
X260350Y58420D02*
X260348Y58520D01*
X260342Y58619D01*
X260332Y58719D01*
X260319Y58817D01*
X260301Y58916D01*
X260280Y59013D01*
X260255Y59109D01*
X260226Y59205D01*
X260193Y59299D01*
X260157Y59392D01*
X260117Y59483D01*
X260073Y59573D01*
X260026Y59661D01*
X259976Y59747D01*
X259922Y59831D01*
X259865Y59913D01*
X259805Y59992D01*
X259741Y60070D01*
X259675Y60144D01*
X259606Y60216D01*
X259534Y60285D01*
X259460Y60351D01*
X259382Y60415D01*
X259303Y60475D01*
X259221Y60532D01*
X259137Y60586D01*
X259051Y60636D01*
X258963Y60683D01*
X258873Y60727D01*
X258782Y60767D01*
X258689Y60803D01*
X258595Y60836D01*
X258499Y60865D01*
X258403Y60890D01*
X258306Y60911D01*
X258207Y60929D01*
X258109Y60942D01*
X258009Y60952D01*
X257910Y60958D01*
X257810Y60960D01*
X212090Y60960D02*
X211990Y60958D01*
X211891Y60952D01*
X211791Y60942D01*
X211693Y60929D01*
X211594Y60911D01*
X211497Y60890D01*
X211401Y60865D01*
X211305Y60836D01*
X211211Y60803D01*
X211118Y60767D01*
X211027Y60727D01*
X210937Y60683D01*
X210849Y60636D01*
X210763Y60586D01*
X210679Y60532D01*
X210597Y60475D01*
X210518Y60415D01*
X210440Y60351D01*
X210366Y60285D01*
X210294Y60216D01*
X210225Y60144D01*
X210159Y60070D01*
X210095Y59992D01*
X210035Y59913D01*
X209978Y59831D01*
X209924Y59747D01*
X209874Y59661D01*
X209827Y59573D01*
X209783Y59483D01*
X209743Y59392D01*
X209707Y59299D01*
X209674Y59205D01*
X209645Y59109D01*
X209620Y59013D01*
X209599Y58916D01*
X209581Y58817D01*
X209568Y58719D01*
X209558Y58619D01*
X209552Y58520D01*
X209550Y58420D01*
X209550Y43180D02*
X209552Y43080D01*
X209558Y42981D01*
X209568Y42881D01*
X209581Y42783D01*
X209599Y42684D01*
X209620Y42587D01*
X209645Y42491D01*
X209674Y42395D01*
X209707Y42301D01*
X209743Y42208D01*
X209783Y42117D01*
X209827Y42027D01*
X209874Y41939D01*
X209924Y41853D01*
X209978Y41769D01*
X210035Y41687D01*
X210095Y41608D01*
X210159Y41530D01*
X210225Y41456D01*
X210294Y41384D01*
X210366Y41315D01*
X210440Y41249D01*
X210518Y41185D01*
X210597Y41125D01*
X210679Y41068D01*
X210763Y41014D01*
X210849Y40964D01*
X210937Y40917D01*
X211027Y40873D01*
X211118Y40833D01*
X211211Y40797D01*
X211305Y40764D01*
X211401Y40735D01*
X211497Y40710D01*
X211594Y40689D01*
X211693Y40671D01*
X211791Y40658D01*
X211891Y40648D01*
X211990Y40642D01*
X212090Y40640D01*
X260350Y43180D02*
X260350Y58420D01*
X257810Y40640D02*
X254000Y40640D01*
X252730Y41910D01*
X254000Y60960D02*
X257810Y60960D01*
X254000Y60960D02*
X252730Y59690D01*
X217170Y41910D02*
X215900Y40640D01*
X217170Y41910D02*
X252730Y41910D01*
X217170Y59690D02*
X215900Y60960D01*
X217170Y59690D02*
X252730Y59690D01*
X215900Y40640D02*
X212090Y40640D01*
X212090Y60960D02*
X215900Y60960D01*
X209550Y58420D02*
X209550Y43180D01*
D13*
X207645Y50800D03*
X262255Y50800D03*
D14*
X283856Y43688D02*
X283856Y34798D01*
X283856Y43688D02*
X286326Y43688D01*
X286424Y43686D01*
X286522Y43680D01*
X286620Y43670D01*
X286717Y43657D01*
X286814Y43639D01*
X286910Y43618D01*
X287004Y43593D01*
X287098Y43564D01*
X287191Y43532D01*
X287282Y43495D01*
X287372Y43456D01*
X287460Y43412D01*
X287546Y43365D01*
X287631Y43315D01*
X287713Y43262D01*
X287793Y43205D01*
X287871Y43145D01*
X287946Y43082D01*
X288019Y43016D01*
X288089Y42947D01*
X288156Y42876D01*
X288221Y42802D01*
X288282Y42725D01*
X288341Y42646D01*
X288396Y42565D01*
X288448Y42482D01*
X288496Y42396D01*
X288541Y42309D01*
X288583Y42220D01*
X288621Y42130D01*
X288655Y42038D01*
X288686Y41945D01*
X288713Y41850D01*
X288736Y41755D01*
X288756Y41658D01*
X288771Y41562D01*
X288783Y41464D01*
X288791Y41366D01*
X288795Y41268D01*
X288795Y41170D01*
X288791Y41072D01*
X288783Y40974D01*
X288771Y40876D01*
X288756Y40780D01*
X288736Y40683D01*
X288713Y40588D01*
X288686Y40493D01*
X288655Y40400D01*
X288621Y40308D01*
X288583Y40218D01*
X288541Y40129D01*
X288496Y40042D01*
X288448Y39956D01*
X288396Y39873D01*
X288341Y39792D01*
X288282Y39713D01*
X288221Y39636D01*
X288156Y39562D01*
X288089Y39491D01*
X288019Y39422D01*
X287946Y39356D01*
X287871Y39293D01*
X287793Y39233D01*
X287713Y39176D01*
X287631Y39123D01*
X287546Y39073D01*
X287460Y39026D01*
X287372Y38982D01*
X287282Y38943D01*
X287191Y38906D01*
X287098Y38874D01*
X287004Y38845D01*
X286910Y38820D01*
X286814Y38799D01*
X286717Y38781D01*
X286620Y38768D01*
X286522Y38758D01*
X286424Y38752D01*
X286326Y38750D01*
X286326Y38749D02*
X283856Y38749D01*
X286819Y38749D02*
X288795Y34798D01*
X293003Y34798D02*
X293003Y43688D01*
X295473Y43688D01*
X295570Y43686D01*
X295667Y43680D01*
X295763Y43671D01*
X295859Y43658D01*
X295955Y43641D01*
X296049Y43620D01*
X296143Y43595D01*
X296236Y43567D01*
X296328Y43535D01*
X296418Y43500D01*
X296507Y43461D01*
X296594Y43419D01*
X296679Y43373D01*
X296763Y43324D01*
X296845Y43272D01*
X296924Y43216D01*
X297002Y43158D01*
X297076Y43096D01*
X297149Y43032D01*
X297219Y42965D01*
X297286Y42895D01*
X297350Y42822D01*
X297412Y42748D01*
X297470Y42670D01*
X297526Y42591D01*
X297578Y42509D01*
X297627Y42425D01*
X297673Y42340D01*
X297715Y42253D01*
X297754Y42164D01*
X297789Y42074D01*
X297821Y41982D01*
X297849Y41889D01*
X297874Y41795D01*
X297895Y41701D01*
X297912Y41605D01*
X297925Y41509D01*
X297934Y41413D01*
X297940Y41316D01*
X297942Y41219D01*
X297942Y37267D01*
X297940Y37170D01*
X297934Y37073D01*
X297925Y36977D01*
X297912Y36881D01*
X297895Y36785D01*
X297874Y36691D01*
X297849Y36597D01*
X297821Y36504D01*
X297789Y36412D01*
X297754Y36322D01*
X297715Y36233D01*
X297673Y36146D01*
X297627Y36061D01*
X297578Y35977D01*
X297526Y35895D01*
X297470Y35816D01*
X297412Y35738D01*
X297350Y35664D01*
X297286Y35591D01*
X297219Y35521D01*
X297149Y35454D01*
X297076Y35390D01*
X297002Y35328D01*
X296924Y35270D01*
X296845Y35214D01*
X296763Y35162D01*
X296679Y35113D01*
X296594Y35067D01*
X296507Y35025D01*
X296418Y34986D01*
X296328Y34951D01*
X296236Y34919D01*
X296143Y34891D01*
X296049Y34866D01*
X295955Y34845D01*
X295859Y34828D01*
X295763Y34815D01*
X295667Y34806D01*
X295570Y34800D01*
X295473Y34798D01*
X293003Y34798D01*
D11*
X260350Y68580D02*
X260348Y68480D01*
X260342Y68381D01*
X260332Y68281D01*
X260319Y68183D01*
X260301Y68084D01*
X260280Y67987D01*
X260255Y67891D01*
X260226Y67795D01*
X260193Y67701D01*
X260157Y67608D01*
X260117Y67517D01*
X260073Y67427D01*
X260026Y67339D01*
X259976Y67253D01*
X259922Y67169D01*
X259865Y67087D01*
X259805Y67008D01*
X259741Y66930D01*
X259675Y66856D01*
X259606Y66784D01*
X259534Y66715D01*
X259460Y66649D01*
X259382Y66585D01*
X259303Y66525D01*
X259221Y66468D01*
X259137Y66414D01*
X259051Y66364D01*
X258963Y66317D01*
X258873Y66273D01*
X258782Y66233D01*
X258689Y66197D01*
X258595Y66164D01*
X258499Y66135D01*
X258403Y66110D01*
X258306Y66089D01*
X258207Y66071D01*
X258109Y66058D01*
X258009Y66048D01*
X257910Y66042D01*
X257810Y66040D01*
X260350Y83820D02*
X260348Y83920D01*
X260342Y84019D01*
X260332Y84119D01*
X260319Y84217D01*
X260301Y84316D01*
X260280Y84413D01*
X260255Y84509D01*
X260226Y84605D01*
X260193Y84699D01*
X260157Y84792D01*
X260117Y84883D01*
X260073Y84973D01*
X260026Y85061D01*
X259976Y85147D01*
X259922Y85231D01*
X259865Y85313D01*
X259805Y85392D01*
X259741Y85470D01*
X259675Y85544D01*
X259606Y85616D01*
X259534Y85685D01*
X259460Y85751D01*
X259382Y85815D01*
X259303Y85875D01*
X259221Y85932D01*
X259137Y85986D01*
X259051Y86036D01*
X258963Y86083D01*
X258873Y86127D01*
X258782Y86167D01*
X258689Y86203D01*
X258595Y86236D01*
X258499Y86265D01*
X258403Y86290D01*
X258306Y86311D01*
X258207Y86329D01*
X258109Y86342D01*
X258009Y86352D01*
X257910Y86358D01*
X257810Y86360D01*
X212090Y86360D02*
X211990Y86358D01*
X211891Y86352D01*
X211791Y86342D01*
X211693Y86329D01*
X211594Y86311D01*
X211497Y86290D01*
X211401Y86265D01*
X211305Y86236D01*
X211211Y86203D01*
X211118Y86167D01*
X211027Y86127D01*
X210937Y86083D01*
X210849Y86036D01*
X210763Y85986D01*
X210679Y85932D01*
X210597Y85875D01*
X210518Y85815D01*
X210440Y85751D01*
X210366Y85685D01*
X210294Y85616D01*
X210225Y85544D01*
X210159Y85470D01*
X210095Y85392D01*
X210035Y85313D01*
X209978Y85231D01*
X209924Y85147D01*
X209874Y85061D01*
X209827Y84973D01*
X209783Y84883D01*
X209743Y84792D01*
X209707Y84699D01*
X209674Y84605D01*
X209645Y84509D01*
X209620Y84413D01*
X209599Y84316D01*
X209581Y84217D01*
X209568Y84119D01*
X209558Y84019D01*
X209552Y83920D01*
X209550Y83820D01*
X209550Y68580D02*
X209552Y68480D01*
X209558Y68381D01*
X209568Y68281D01*
X209581Y68183D01*
X209599Y68084D01*
X209620Y67987D01*
X209645Y67891D01*
X209674Y67795D01*
X209707Y67701D01*
X209743Y67608D01*
X209783Y67517D01*
X209827Y67427D01*
X209874Y67339D01*
X209924Y67253D01*
X209978Y67169D01*
X210035Y67087D01*
X210095Y67008D01*
X210159Y66930D01*
X210225Y66856D01*
X210294Y66784D01*
X210366Y66715D01*
X210440Y66649D01*
X210518Y66585D01*
X210597Y66525D01*
X210679Y66468D01*
X210763Y66414D01*
X210849Y66364D01*
X210937Y66317D01*
X211027Y66273D01*
X211118Y66233D01*
X211211Y66197D01*
X211305Y66164D01*
X211401Y66135D01*
X211497Y66110D01*
X211594Y66089D01*
X211693Y66071D01*
X211791Y66058D01*
X211891Y66048D01*
X211990Y66042D01*
X212090Y66040D01*
X260350Y68580D02*
X260350Y83820D01*
X257810Y66040D02*
X254000Y66040D01*
X252730Y67310D01*
X254000Y86360D02*
X257810Y86360D01*
X254000Y86360D02*
X252730Y85090D01*
X217170Y67310D02*
X215900Y66040D01*
X217170Y67310D02*
X252730Y67310D01*
X217170Y85090D02*
X215900Y86360D01*
X217170Y85090D02*
X252730Y85090D01*
X215900Y66040D02*
X212090Y66040D01*
X212090Y86360D02*
X215900Y86360D01*
X209550Y83820D02*
X209550Y68580D01*
D13*
X207645Y76200D03*
X262255Y76200D03*
D14*
X284824Y69088D02*
X284824Y60198D01*
X284824Y69088D02*
X287293Y69088D01*
X287391Y69086D01*
X287489Y69080D01*
X287587Y69070D01*
X287684Y69057D01*
X287781Y69039D01*
X287877Y69018D01*
X287971Y68993D01*
X288065Y68964D01*
X288158Y68932D01*
X288249Y68895D01*
X288339Y68856D01*
X288427Y68812D01*
X288513Y68765D01*
X288598Y68715D01*
X288680Y68662D01*
X288760Y68605D01*
X288838Y68545D01*
X288913Y68482D01*
X288986Y68416D01*
X289056Y68347D01*
X289123Y68276D01*
X289188Y68202D01*
X289249Y68125D01*
X289308Y68046D01*
X289363Y67965D01*
X289415Y67882D01*
X289463Y67796D01*
X289508Y67709D01*
X289550Y67620D01*
X289588Y67530D01*
X289622Y67438D01*
X289653Y67345D01*
X289680Y67250D01*
X289703Y67155D01*
X289723Y67058D01*
X289738Y66962D01*
X289750Y66864D01*
X289758Y66766D01*
X289762Y66668D01*
X289762Y66570D01*
X289758Y66472D01*
X289750Y66374D01*
X289738Y66276D01*
X289723Y66180D01*
X289703Y66083D01*
X289680Y65988D01*
X289653Y65893D01*
X289622Y65800D01*
X289588Y65708D01*
X289550Y65618D01*
X289508Y65529D01*
X289463Y65442D01*
X289415Y65356D01*
X289363Y65273D01*
X289308Y65192D01*
X289249Y65113D01*
X289188Y65036D01*
X289123Y64962D01*
X289056Y64891D01*
X288986Y64822D01*
X288913Y64756D01*
X288838Y64693D01*
X288760Y64633D01*
X288680Y64576D01*
X288598Y64523D01*
X288513Y64473D01*
X288427Y64426D01*
X288339Y64382D01*
X288249Y64343D01*
X288158Y64306D01*
X288065Y64274D01*
X287971Y64245D01*
X287877Y64220D01*
X287781Y64199D01*
X287684Y64181D01*
X287587Y64168D01*
X287489Y64158D01*
X287391Y64152D01*
X287293Y64150D01*
X287293Y64149D02*
X284824Y64149D01*
X287787Y64149D02*
X289763Y60198D01*
X293991Y60198D02*
X297942Y60198D01*
X293991Y60198D02*
X293991Y69088D01*
X297942Y69088D01*
X296954Y65137D02*
X293991Y65137D01*
D11*
X257810Y116840D02*
X257910Y116842D01*
X258009Y116848D01*
X258109Y116858D01*
X258207Y116871D01*
X258306Y116889D01*
X258403Y116910D01*
X258499Y116935D01*
X258595Y116964D01*
X258689Y116997D01*
X258782Y117033D01*
X258873Y117073D01*
X258963Y117117D01*
X259051Y117164D01*
X259137Y117214D01*
X259221Y117268D01*
X259303Y117325D01*
X259382Y117385D01*
X259460Y117449D01*
X259534Y117515D01*
X259606Y117584D01*
X259675Y117656D01*
X259741Y117730D01*
X259805Y117808D01*
X259865Y117887D01*
X259922Y117969D01*
X259976Y118053D01*
X260026Y118139D01*
X260073Y118227D01*
X260117Y118317D01*
X260157Y118408D01*
X260193Y118501D01*
X260226Y118595D01*
X260255Y118691D01*
X260280Y118787D01*
X260301Y118884D01*
X260319Y118983D01*
X260332Y119081D01*
X260342Y119181D01*
X260348Y119280D01*
X260350Y119380D01*
X260350Y134620D02*
X260348Y134720D01*
X260342Y134819D01*
X260332Y134919D01*
X260319Y135017D01*
X260301Y135116D01*
X260280Y135213D01*
X260255Y135309D01*
X260226Y135405D01*
X260193Y135499D01*
X260157Y135592D01*
X260117Y135683D01*
X260073Y135773D01*
X260026Y135861D01*
X259976Y135947D01*
X259922Y136031D01*
X259865Y136113D01*
X259805Y136192D01*
X259741Y136270D01*
X259675Y136344D01*
X259606Y136416D01*
X259534Y136485D01*
X259460Y136551D01*
X259382Y136615D01*
X259303Y136675D01*
X259221Y136732D01*
X259137Y136786D01*
X259051Y136836D01*
X258963Y136883D01*
X258873Y136927D01*
X258782Y136967D01*
X258689Y137003D01*
X258595Y137036D01*
X258499Y137065D01*
X258403Y137090D01*
X258306Y137111D01*
X258207Y137129D01*
X258109Y137142D01*
X258009Y137152D01*
X257910Y137158D01*
X257810Y137160D01*
X212090Y137160D02*
X211990Y137158D01*
X211891Y137152D01*
X211791Y137142D01*
X211693Y137129D01*
X211594Y137111D01*
X211497Y137090D01*
X211401Y137065D01*
X211305Y137036D01*
X211211Y137003D01*
X211118Y136967D01*
X211027Y136927D01*
X210937Y136883D01*
X210849Y136836D01*
X210763Y136786D01*
X210679Y136732D01*
X210597Y136675D01*
X210518Y136615D01*
X210440Y136551D01*
X210366Y136485D01*
X210294Y136416D01*
X210225Y136344D01*
X210159Y136270D01*
X210095Y136192D01*
X210035Y136113D01*
X209978Y136031D01*
X209924Y135947D01*
X209874Y135861D01*
X209827Y135773D01*
X209783Y135683D01*
X209743Y135592D01*
X209707Y135499D01*
X209674Y135405D01*
X209645Y135309D01*
X209620Y135213D01*
X209599Y135116D01*
X209581Y135017D01*
X209568Y134919D01*
X209558Y134819D01*
X209552Y134720D01*
X209550Y134620D01*
X209550Y119380D02*
X209552Y119280D01*
X209558Y119181D01*
X209568Y119081D01*
X209581Y118983D01*
X209599Y118884D01*
X209620Y118787D01*
X209645Y118691D01*
X209674Y118595D01*
X209707Y118501D01*
X209743Y118408D01*
X209783Y118317D01*
X209827Y118227D01*
X209874Y118139D01*
X209924Y118053D01*
X209978Y117969D01*
X210035Y117887D01*
X210095Y117808D01*
X210159Y117730D01*
X210225Y117656D01*
X210294Y117584D01*
X210366Y117515D01*
X210440Y117449D01*
X210518Y117385D01*
X210597Y117325D01*
X210679Y117268D01*
X210763Y117214D01*
X210849Y117164D01*
X210937Y117117D01*
X211027Y117073D01*
X211118Y117033D01*
X211211Y116997D01*
X211305Y116964D01*
X211401Y116935D01*
X211497Y116910D01*
X211594Y116889D01*
X211693Y116871D01*
X211791Y116858D01*
X211891Y116848D01*
X211990Y116842D01*
X212090Y116840D01*
X260350Y119380D02*
X260350Y134620D01*
X257810Y116840D02*
X254000Y116840D01*
X252730Y118110D01*
X254000Y137160D02*
X257810Y137160D01*
X254000Y137160D02*
X252730Y135890D01*
X217170Y118110D02*
X215900Y116840D01*
X217170Y118110D02*
X252730Y118110D01*
X217170Y135890D02*
X215900Y137160D01*
X217170Y135890D02*
X252730Y135890D01*
X215900Y116840D02*
X212090Y116840D01*
X212090Y137160D02*
X215900Y137160D01*
X209550Y134620D02*
X209550Y119380D01*
D13*
X207645Y127000D03*
X262255Y127000D03*
D14*
X281649Y119888D02*
X281649Y110998D01*
X281649Y119888D02*
X284118Y119888D01*
X284216Y119886D01*
X284314Y119880D01*
X284412Y119870D01*
X284509Y119857D01*
X284606Y119839D01*
X284702Y119818D01*
X284796Y119793D01*
X284890Y119764D01*
X284983Y119732D01*
X285074Y119695D01*
X285164Y119656D01*
X285252Y119612D01*
X285338Y119565D01*
X285423Y119515D01*
X285505Y119462D01*
X285585Y119405D01*
X285663Y119345D01*
X285738Y119282D01*
X285811Y119216D01*
X285881Y119147D01*
X285948Y119076D01*
X286013Y119002D01*
X286074Y118925D01*
X286133Y118846D01*
X286188Y118765D01*
X286240Y118682D01*
X286288Y118596D01*
X286333Y118509D01*
X286375Y118420D01*
X286413Y118330D01*
X286447Y118238D01*
X286478Y118145D01*
X286505Y118050D01*
X286528Y117955D01*
X286548Y117858D01*
X286563Y117762D01*
X286575Y117664D01*
X286583Y117566D01*
X286587Y117468D01*
X286587Y117370D01*
X286583Y117272D01*
X286575Y117174D01*
X286563Y117076D01*
X286548Y116980D01*
X286528Y116883D01*
X286505Y116788D01*
X286478Y116693D01*
X286447Y116600D01*
X286413Y116508D01*
X286375Y116418D01*
X286333Y116329D01*
X286288Y116242D01*
X286240Y116156D01*
X286188Y116073D01*
X286133Y115992D01*
X286074Y115913D01*
X286013Y115836D01*
X285948Y115762D01*
X285881Y115691D01*
X285811Y115622D01*
X285738Y115556D01*
X285663Y115493D01*
X285585Y115433D01*
X285505Y115376D01*
X285423Y115323D01*
X285338Y115273D01*
X285252Y115226D01*
X285164Y115182D01*
X285074Y115143D01*
X284983Y115106D01*
X284890Y115074D01*
X284796Y115045D01*
X284702Y115020D01*
X284606Y114999D01*
X284509Y114981D01*
X284412Y114968D01*
X284314Y114958D01*
X284216Y114952D01*
X284118Y114950D01*
X284118Y114949D02*
X281649Y114949D01*
X284612Y114949D02*
X286588Y110998D01*
X290816Y110998D02*
X290816Y119888D01*
X294767Y119888D01*
X294767Y115937D02*
X290816Y115937D01*
D11*
X260350Y93980D02*
X260348Y93880D01*
X260342Y93781D01*
X260332Y93681D01*
X260319Y93583D01*
X260301Y93484D01*
X260280Y93387D01*
X260255Y93291D01*
X260226Y93195D01*
X260193Y93101D01*
X260157Y93008D01*
X260117Y92917D01*
X260073Y92827D01*
X260026Y92739D01*
X259976Y92653D01*
X259922Y92569D01*
X259865Y92487D01*
X259805Y92408D01*
X259741Y92330D01*
X259675Y92256D01*
X259606Y92184D01*
X259534Y92115D01*
X259460Y92049D01*
X259382Y91985D01*
X259303Y91925D01*
X259221Y91868D01*
X259137Y91814D01*
X259051Y91764D01*
X258963Y91717D01*
X258873Y91673D01*
X258782Y91633D01*
X258689Y91597D01*
X258595Y91564D01*
X258499Y91535D01*
X258403Y91510D01*
X258306Y91489D01*
X258207Y91471D01*
X258109Y91458D01*
X258009Y91448D01*
X257910Y91442D01*
X257810Y91440D01*
X260350Y109220D02*
X260348Y109320D01*
X260342Y109419D01*
X260332Y109519D01*
X260319Y109617D01*
X260301Y109716D01*
X260280Y109813D01*
X260255Y109909D01*
X260226Y110005D01*
X260193Y110099D01*
X260157Y110192D01*
X260117Y110283D01*
X260073Y110373D01*
X260026Y110461D01*
X259976Y110547D01*
X259922Y110631D01*
X259865Y110713D01*
X259805Y110792D01*
X259741Y110870D01*
X259675Y110944D01*
X259606Y111016D01*
X259534Y111085D01*
X259460Y111151D01*
X259382Y111215D01*
X259303Y111275D01*
X259221Y111332D01*
X259137Y111386D01*
X259051Y111436D01*
X258963Y111483D01*
X258873Y111527D01*
X258782Y111567D01*
X258689Y111603D01*
X258595Y111636D01*
X258499Y111665D01*
X258403Y111690D01*
X258306Y111711D01*
X258207Y111729D01*
X258109Y111742D01*
X258009Y111752D01*
X257910Y111758D01*
X257810Y111760D01*
X212090Y111760D02*
X211990Y111758D01*
X211891Y111752D01*
X211791Y111742D01*
X211693Y111729D01*
X211594Y111711D01*
X211497Y111690D01*
X211401Y111665D01*
X211305Y111636D01*
X211211Y111603D01*
X211118Y111567D01*
X211027Y111527D01*
X210937Y111483D01*
X210849Y111436D01*
X210763Y111386D01*
X210679Y111332D01*
X210597Y111275D01*
X210518Y111215D01*
X210440Y111151D01*
X210366Y111085D01*
X210294Y111016D01*
X210225Y110944D01*
X210159Y110870D01*
X210095Y110792D01*
X210035Y110713D01*
X209978Y110631D01*
X209924Y110547D01*
X209874Y110461D01*
X209827Y110373D01*
X209783Y110283D01*
X209743Y110192D01*
X209707Y110099D01*
X209674Y110005D01*
X209645Y109909D01*
X209620Y109813D01*
X209599Y109716D01*
X209581Y109617D01*
X209568Y109519D01*
X209558Y109419D01*
X209552Y109320D01*
X209550Y109220D01*
X209550Y93980D02*
X209552Y93880D01*
X209558Y93781D01*
X209568Y93681D01*
X209581Y93583D01*
X209599Y93484D01*
X209620Y93387D01*
X209645Y93291D01*
X209674Y93195D01*
X209707Y93101D01*
X209743Y93008D01*
X209783Y92917D01*
X209827Y92827D01*
X209874Y92739D01*
X209924Y92653D01*
X209978Y92569D01*
X210035Y92487D01*
X210095Y92408D01*
X210159Y92330D01*
X210225Y92256D01*
X210294Y92184D01*
X210366Y92115D01*
X210440Y92049D01*
X210518Y91985D01*
X210597Y91925D01*
X210679Y91868D01*
X210763Y91814D01*
X210849Y91764D01*
X210937Y91717D01*
X211027Y91673D01*
X211118Y91633D01*
X211211Y91597D01*
X211305Y91564D01*
X211401Y91535D01*
X211497Y91510D01*
X211594Y91489D01*
X211693Y91471D01*
X211791Y91458D01*
X211891Y91448D01*
X211990Y91442D01*
X212090Y91440D01*
X260350Y93980D02*
X260350Y109220D01*
X257810Y91440D02*
X254000Y91440D01*
X252730Y92710D01*
X254000Y111760D02*
X257810Y111760D01*
X254000Y111760D02*
X252730Y110490D01*
X217170Y92710D02*
X215900Y91440D01*
X217170Y92710D02*
X252730Y92710D01*
X217170Y110490D02*
X215900Y111760D01*
X217170Y110490D02*
X252730Y110490D01*
X215900Y91440D02*
X212090Y91440D01*
X212090Y111760D02*
X215900Y111760D01*
X209550Y109220D02*
X209550Y93980D01*
D13*
X207645Y101600D03*
X262255Y101600D03*
D14*
X283856Y94488D02*
X283856Y85598D01*
X283856Y94488D02*
X286326Y94488D01*
X286424Y94486D01*
X286522Y94480D01*
X286620Y94470D01*
X286717Y94457D01*
X286814Y94439D01*
X286910Y94418D01*
X287004Y94393D01*
X287098Y94364D01*
X287191Y94332D01*
X287282Y94295D01*
X287372Y94256D01*
X287460Y94212D01*
X287546Y94165D01*
X287631Y94115D01*
X287713Y94062D01*
X287793Y94005D01*
X287871Y93945D01*
X287946Y93882D01*
X288019Y93816D01*
X288089Y93747D01*
X288156Y93676D01*
X288221Y93602D01*
X288282Y93525D01*
X288341Y93446D01*
X288396Y93365D01*
X288448Y93282D01*
X288496Y93196D01*
X288541Y93109D01*
X288583Y93020D01*
X288621Y92930D01*
X288655Y92838D01*
X288686Y92745D01*
X288713Y92650D01*
X288736Y92555D01*
X288756Y92458D01*
X288771Y92362D01*
X288783Y92264D01*
X288791Y92166D01*
X288795Y92068D01*
X288795Y91970D01*
X288791Y91872D01*
X288783Y91774D01*
X288771Y91676D01*
X288756Y91580D01*
X288736Y91483D01*
X288713Y91388D01*
X288686Y91293D01*
X288655Y91200D01*
X288621Y91108D01*
X288583Y91018D01*
X288541Y90929D01*
X288496Y90842D01*
X288448Y90756D01*
X288396Y90673D01*
X288341Y90592D01*
X288282Y90513D01*
X288221Y90436D01*
X288156Y90362D01*
X288089Y90291D01*
X288019Y90222D01*
X287946Y90156D01*
X287871Y90093D01*
X287793Y90033D01*
X287713Y89976D01*
X287631Y89923D01*
X287546Y89873D01*
X287460Y89826D01*
X287372Y89782D01*
X287282Y89743D01*
X287191Y89706D01*
X287098Y89674D01*
X287004Y89645D01*
X286910Y89620D01*
X286814Y89599D01*
X286717Y89581D01*
X286620Y89568D01*
X286522Y89558D01*
X286424Y89552D01*
X286326Y89550D01*
X286326Y89549D02*
X283856Y89549D01*
X286819Y89549D02*
X288795Y85598D01*
X296460Y90537D02*
X297942Y90537D01*
X297942Y85598D01*
X294979Y85598D01*
X294893Y85600D01*
X294807Y85606D01*
X294721Y85615D01*
X294636Y85628D01*
X294551Y85645D01*
X294468Y85665D01*
X294385Y85689D01*
X294303Y85717D01*
X294223Y85748D01*
X294144Y85783D01*
X294067Y85821D01*
X293991Y85863D01*
X293917Y85907D01*
X293846Y85955D01*
X293776Y86006D01*
X293709Y86060D01*
X293644Y86117D01*
X293582Y86177D01*
X293522Y86239D01*
X293465Y86304D01*
X293411Y86371D01*
X293360Y86441D01*
X293312Y86512D01*
X293268Y86586D01*
X293226Y86662D01*
X293188Y86739D01*
X293153Y86818D01*
X293122Y86898D01*
X293094Y86980D01*
X293070Y87063D01*
X293050Y87146D01*
X293033Y87231D01*
X293020Y87316D01*
X293011Y87402D01*
X293005Y87488D01*
X293003Y87574D01*
X293003Y92512D01*
X293005Y92601D01*
X293011Y92689D01*
X293021Y92777D01*
X293035Y92865D01*
X293053Y92952D01*
X293074Y93038D01*
X293100Y93123D01*
X293129Y93206D01*
X293162Y93289D01*
X293199Y93369D01*
X293239Y93448D01*
X293283Y93525D01*
X293330Y93601D01*
X293380Y93673D01*
X293434Y93744D01*
X293491Y93812D01*
X293551Y93878D01*
X293613Y93940D01*
X293679Y94000D01*
X293747Y94057D01*
X293818Y94111D01*
X293890Y94161D01*
X293965Y94208D01*
X294043Y94252D01*
X294122Y94292D01*
X294202Y94329D01*
X294285Y94362D01*
X294368Y94391D01*
X294453Y94417D01*
X294539Y94438D01*
X294626Y94456D01*
X294714Y94470D01*
X294802Y94480D01*
X294890Y94486D01*
X294979Y94488D01*
X297942Y94488D01*
D11*
X277495Y276860D02*
X240665Y276860D01*
X281305Y273050D02*
X281305Y234950D01*
X277495Y231140D02*
X240665Y231140D01*
X233045Y269240D02*
X240665Y276860D01*
X239395Y270764D02*
X239395Y264414D01*
X242697Y267716D02*
X236093Y267716D01*
X233045Y238760D02*
X240665Y231140D01*
X233045Y238760D02*
X233045Y269240D01*
X277495Y276860D02*
X277617Y276858D01*
X277739Y276852D01*
X277861Y276842D01*
X277982Y276829D01*
X278103Y276811D01*
X278223Y276790D01*
X278343Y276764D01*
X278461Y276735D01*
X278579Y276703D01*
X278696Y276666D01*
X278811Y276626D01*
X278925Y276582D01*
X279037Y276534D01*
X279148Y276483D01*
X279257Y276428D01*
X279365Y276370D01*
X279470Y276308D01*
X279573Y276243D01*
X279675Y276175D01*
X279774Y276103D01*
X279870Y276029D01*
X279965Y275951D01*
X280056Y275870D01*
X280146Y275787D01*
X280232Y275701D01*
X280315Y275611D01*
X280396Y275520D01*
X280474Y275425D01*
X280548Y275329D01*
X280620Y275230D01*
X280688Y275128D01*
X280753Y275025D01*
X280815Y274920D01*
X280873Y274812D01*
X280928Y274703D01*
X280979Y274592D01*
X281027Y274480D01*
X281071Y274366D01*
X281111Y274251D01*
X281148Y274134D01*
X281180Y274016D01*
X281209Y273898D01*
X281235Y273778D01*
X281256Y273658D01*
X281274Y273537D01*
X281287Y273416D01*
X281297Y273294D01*
X281303Y273172D01*
X281305Y273050D01*
X281305Y234950D02*
X281303Y234828D01*
X281297Y234706D01*
X281287Y234584D01*
X281274Y234463D01*
X281256Y234342D01*
X281235Y234222D01*
X281209Y234102D01*
X281180Y233984D01*
X281148Y233866D01*
X281111Y233749D01*
X281071Y233634D01*
X281027Y233520D01*
X280979Y233408D01*
X280928Y233297D01*
X280873Y233188D01*
X280815Y233080D01*
X280753Y232975D01*
X280688Y232872D01*
X280620Y232770D01*
X280548Y232671D01*
X280474Y232575D01*
X280396Y232480D01*
X280315Y232389D01*
X280232Y232299D01*
X280146Y232213D01*
X280056Y232130D01*
X279965Y232049D01*
X279870Y231971D01*
X279774Y231897D01*
X279675Y231825D01*
X279573Y231757D01*
X279470Y231692D01*
X279365Y231630D01*
X279257Y231572D01*
X279148Y231517D01*
X279037Y231466D01*
X278925Y231418D01*
X278811Y231374D01*
X278696Y231334D01*
X278579Y231297D01*
X278461Y231265D01*
X278343Y231236D01*
X278223Y231210D01*
X278103Y231189D01*
X277982Y231171D01*
X277861Y231158D01*
X277739Y231148D01*
X277617Y231142D01*
X277495Y231140D01*
X278765Y228600D02*
X235585Y228600D01*
X235585Y203200D02*
X278765Y203200D01*
X281305Y205740D02*
X281305Y226060D01*
X233045Y226060D02*
X233045Y205740D01*
X278765Y228600D02*
X278865Y228598D01*
X278964Y228592D01*
X279064Y228582D01*
X279162Y228569D01*
X279261Y228551D01*
X279358Y228530D01*
X279454Y228505D01*
X279550Y228476D01*
X279644Y228443D01*
X279737Y228407D01*
X279828Y228367D01*
X279918Y228323D01*
X280006Y228276D01*
X280092Y228226D01*
X280176Y228172D01*
X280258Y228115D01*
X280337Y228055D01*
X280415Y227991D01*
X280489Y227925D01*
X280561Y227856D01*
X280630Y227784D01*
X280696Y227710D01*
X280760Y227632D01*
X280820Y227553D01*
X280877Y227471D01*
X280931Y227387D01*
X280981Y227301D01*
X281028Y227213D01*
X281072Y227123D01*
X281112Y227032D01*
X281148Y226939D01*
X281181Y226845D01*
X281210Y226749D01*
X281235Y226653D01*
X281256Y226556D01*
X281274Y226457D01*
X281287Y226359D01*
X281297Y226259D01*
X281303Y226160D01*
X281305Y226060D01*
X235585Y228600D02*
X235485Y228598D01*
X235386Y228592D01*
X235286Y228582D01*
X235188Y228569D01*
X235089Y228551D01*
X234992Y228530D01*
X234896Y228505D01*
X234800Y228476D01*
X234706Y228443D01*
X234613Y228407D01*
X234522Y228367D01*
X234432Y228323D01*
X234344Y228276D01*
X234258Y228226D01*
X234174Y228172D01*
X234092Y228115D01*
X234013Y228055D01*
X233935Y227991D01*
X233861Y227925D01*
X233789Y227856D01*
X233720Y227784D01*
X233654Y227710D01*
X233590Y227632D01*
X233530Y227553D01*
X233473Y227471D01*
X233419Y227387D01*
X233369Y227301D01*
X233322Y227213D01*
X233278Y227123D01*
X233238Y227032D01*
X233202Y226939D01*
X233169Y226845D01*
X233140Y226749D01*
X233115Y226653D01*
X233094Y226556D01*
X233076Y226457D01*
X233063Y226359D01*
X233053Y226259D01*
X233047Y226160D01*
X233045Y226060D01*
X278765Y203200D02*
X278865Y203202D01*
X278964Y203208D01*
X279064Y203218D01*
X279162Y203231D01*
X279261Y203249D01*
X279358Y203270D01*
X279454Y203295D01*
X279550Y203324D01*
X279644Y203357D01*
X279737Y203393D01*
X279828Y203433D01*
X279918Y203477D01*
X280006Y203524D01*
X280092Y203574D01*
X280176Y203628D01*
X280258Y203685D01*
X280337Y203745D01*
X280415Y203809D01*
X280489Y203875D01*
X280561Y203944D01*
X280630Y204016D01*
X280696Y204090D01*
X280760Y204168D01*
X280820Y204247D01*
X280877Y204329D01*
X280931Y204413D01*
X280981Y204499D01*
X281028Y204587D01*
X281072Y204677D01*
X281112Y204768D01*
X281148Y204861D01*
X281181Y204955D01*
X281210Y205051D01*
X281235Y205147D01*
X281256Y205244D01*
X281274Y205343D01*
X281287Y205441D01*
X281297Y205541D01*
X281303Y205640D01*
X281305Y205740D01*
X235585Y203200D02*
X235485Y203202D01*
X235386Y203208D01*
X235286Y203218D01*
X235188Y203231D01*
X235089Y203249D01*
X234992Y203270D01*
X234896Y203295D01*
X234800Y203324D01*
X234706Y203357D01*
X234613Y203393D01*
X234522Y203433D01*
X234432Y203477D01*
X234344Y203524D01*
X234258Y203574D01*
X234174Y203628D01*
X234092Y203685D01*
X234013Y203745D01*
X233935Y203809D01*
X233861Y203875D01*
X233789Y203944D01*
X233720Y204016D01*
X233654Y204090D01*
X233590Y204168D01*
X233530Y204247D01*
X233473Y204329D01*
X233419Y204413D01*
X233369Y204499D01*
X233322Y204587D01*
X233278Y204677D01*
X233238Y204768D01*
X233202Y204861D01*
X233169Y204955D01*
X233140Y205051D01*
X233115Y205147D01*
X233094Y205244D01*
X233076Y205343D01*
X233063Y205441D01*
X233053Y205541D01*
X233047Y205640D01*
X233045Y205740D01*
X259715Y215900D02*
X260985Y215900D01*
D12*
X259715Y215900D02*
X259715Y223520D01*
X259715Y215900D02*
X259715Y208280D01*
X254635Y215900D02*
X254635Y223520D01*
X254635Y215900D02*
X254635Y208280D01*
D11*
X254635Y215900D02*
X253365Y215900D01*
M02*
