G04 EAGLE Gerber RS-274X export*
G75*
%MOMM*%
%FSLAX34Y34*%
%LPD*%
%INSilkscreen Bottom*%
%IPPOS*%
%AMOC8*
5,1,8,0,0,1.08239X$1,22.5*%
G01*
%ADD10C,0.152400*%
%ADD11C,2.250000*%

G36*
X501289Y67864D02*
X501289Y67864D01*
X501363Y67866D01*
X503560Y68118D01*
X503561Y68118D01*
X503564Y68119D01*
X504091Y68219D01*
X504159Y68243D01*
X504213Y68255D01*
X506328Y68902D01*
X506329Y68902D01*
X506333Y68904D01*
X506831Y69098D01*
X506894Y69134D01*
X506945Y69155D01*
X508906Y70176D01*
X508907Y70176D01*
X508911Y70179D01*
X509366Y70460D01*
X509421Y70507D01*
X509468Y70537D01*
X511211Y71897D01*
X511211Y71898D01*
X511212Y71898D01*
X511214Y71900D01*
X511611Y72260D01*
X511657Y72316D01*
X511697Y72354D01*
X513164Y74009D01*
X513165Y74010D01*
X513167Y74013D01*
X513492Y74439D01*
X513526Y74502D01*
X513559Y74547D01*
X514701Y76440D01*
X514701Y76441D01*
X514703Y76445D01*
X514945Y76923D01*
X514967Y76991D01*
X514992Y77041D01*
X515770Y79111D01*
X515771Y79116D01*
X515922Y79629D01*
X515932Y79701D01*
X515947Y79754D01*
X516336Y81931D01*
X516336Y81932D01*
X516336Y81935D01*
X516354Y82107D01*
X516359Y82134D01*
X516359Y82153D01*
X516391Y82468D01*
X516388Y82540D01*
X516393Y82596D01*
X516380Y84807D01*
X516380Y84808D01*
X516379Y84812D01*
X516337Y85345D01*
X516320Y85416D01*
X516315Y85471D01*
X515907Y87606D01*
X498305Y191138D01*
X498289Y191202D01*
X498280Y191268D01*
X498224Y191464D01*
X498175Y191663D01*
X498150Y191724D01*
X498131Y191788D01*
X498047Y191973D01*
X497969Y192162D01*
X497935Y192219D01*
X497908Y192280D01*
X497797Y192451D01*
X497692Y192626D01*
X497650Y192678D01*
X497614Y192733D01*
X497479Y192887D01*
X497350Y193044D01*
X497301Y193089D01*
X497257Y193139D01*
X497100Y193271D01*
X496949Y193408D01*
X496894Y193444D01*
X496843Y193487D01*
X496670Y193594D01*
X496500Y193708D01*
X496440Y193736D01*
X496383Y193771D01*
X496196Y193851D01*
X496011Y193938D01*
X495947Y193957D01*
X495886Y193983D01*
X495689Y194035D01*
X495493Y194094D01*
X495428Y194104D01*
X495364Y194121D01*
X495226Y194133D01*
X494959Y194172D01*
X494805Y194172D01*
X494700Y194181D01*
X486150Y194181D01*
X485975Y194168D01*
X485800Y194164D01*
X485706Y194148D01*
X485611Y194141D01*
X485440Y194103D01*
X485268Y194073D01*
X485177Y194043D01*
X485084Y194022D01*
X484920Y193959D01*
X484754Y193904D01*
X484669Y193862D01*
X484580Y193827D01*
X484428Y193740D01*
X484271Y193662D01*
X484193Y193607D01*
X484110Y193559D01*
X483972Y193451D01*
X483829Y193350D01*
X483772Y193294D01*
X483685Y193226D01*
X483441Y192967D01*
X483355Y192882D01*
X474922Y182883D01*
X474829Y182754D01*
X474728Y182631D01*
X474670Y182536D01*
X474605Y182445D01*
X474532Y182304D01*
X474450Y182167D01*
X474407Y182065D01*
X474356Y181966D01*
X474304Y181815D01*
X474244Y181668D01*
X474217Y181560D01*
X474181Y181455D01*
X474152Y181298D01*
X474113Y181143D01*
X474103Y181033D01*
X474082Y180923D01*
X474077Y180764D01*
X474062Y180605D01*
X474068Y180513D01*
X474064Y180383D01*
X474099Y180074D01*
X474108Y179941D01*
X491771Y71061D01*
X491778Y71030D01*
X491782Y70998D01*
X491841Y70767D01*
X491897Y70535D01*
X491909Y70505D01*
X491916Y70475D01*
X492009Y70255D01*
X492099Y70034D01*
X492115Y70006D01*
X492127Y69977D01*
X492251Y69773D01*
X492372Y69567D01*
X492392Y69543D01*
X492408Y69516D01*
X492561Y69333D01*
X492711Y69147D01*
X492735Y69125D01*
X492755Y69101D01*
X492934Y68942D01*
X493109Y68781D01*
X493135Y68763D01*
X493159Y68742D01*
X493359Y68611D01*
X493556Y68477D01*
X493585Y68463D01*
X493611Y68446D01*
X493828Y68347D01*
X494043Y68243D01*
X494073Y68234D01*
X494102Y68220D01*
X494331Y68154D01*
X494559Y68083D01*
X494591Y68078D01*
X494621Y68069D01*
X494740Y68055D01*
X495094Y68001D01*
X495203Y68001D01*
X495283Y67991D01*
X500849Y67843D01*
X501289Y67864D01*
G37*
G36*
X493049Y199030D02*
X493049Y199030D01*
X493198Y199031D01*
X493318Y199050D01*
X493439Y199059D01*
X493585Y199092D01*
X493732Y199115D01*
X493847Y199151D01*
X493966Y199178D01*
X494105Y199232D01*
X494247Y199276D01*
X494357Y199329D01*
X494470Y199373D01*
X494600Y199447D01*
X494734Y199512D01*
X494834Y199580D01*
X494940Y199641D01*
X495057Y199733D01*
X495180Y199817D01*
X495269Y199899D01*
X495365Y199974D01*
X495467Y200083D01*
X495576Y200184D01*
X495653Y200279D01*
X495736Y200367D01*
X495821Y200489D01*
X495914Y200606D01*
X495976Y200711D01*
X496045Y200811D01*
X496111Y200944D01*
X496186Y201073D01*
X496232Y201186D01*
X496286Y201295D01*
X496331Y201436D01*
X496387Y201575D01*
X496415Y201693D01*
X496452Y201809D01*
X496477Y201956D01*
X496511Y202101D01*
X496521Y202222D01*
X496541Y202342D01*
X496544Y202491D01*
X496556Y202639D01*
X496548Y202739D01*
X496550Y202882D01*
X496513Y203166D01*
X496502Y203303D01*
X478052Y309053D01*
X477970Y309378D01*
X477944Y309503D01*
X477116Y312186D01*
X476919Y312689D01*
X476897Y312727D01*
X476884Y312760D01*
X475615Y315264D01*
X475336Y315727D01*
X475308Y315761D01*
X475290Y315791D01*
X473617Y318046D01*
X473264Y318455D01*
X473230Y318483D01*
X473207Y318510D01*
X471178Y320450D01*
X470761Y320793D01*
X470723Y320816D01*
X470696Y320838D01*
X468368Y322408D01*
X467899Y322676D01*
X467858Y322692D01*
X467827Y322709D01*
X465268Y323864D01*
X464761Y324049D01*
X464717Y324058D01*
X464684Y324070D01*
X461967Y324776D01*
X461435Y324873D01*
X461391Y324874D01*
X461357Y324880D01*
X458560Y325118D01*
X458371Y325120D01*
X458250Y325131D01*
X453300Y325131D01*
X453151Y325120D01*
X453001Y325119D01*
X452881Y325100D01*
X452761Y325091D01*
X452615Y325058D01*
X452467Y325035D01*
X452351Y324999D01*
X452234Y324972D01*
X452094Y324918D01*
X451951Y324873D01*
X451842Y324821D01*
X451730Y324777D01*
X451600Y324703D01*
X451465Y324637D01*
X451365Y324569D01*
X451260Y324509D01*
X451142Y324417D01*
X451019Y324332D01*
X450930Y324250D01*
X450835Y324176D01*
X450732Y324067D01*
X450622Y323965D01*
X450547Y323870D01*
X450464Y323783D01*
X450378Y323660D01*
X450285Y323543D01*
X450224Y323438D01*
X450155Y323339D01*
X450088Y323205D01*
X450013Y323076D01*
X449968Y322964D01*
X449914Y322855D01*
X449868Y322713D01*
X449813Y322574D01*
X449785Y322456D01*
X449748Y322341D01*
X449723Y322194D01*
X449689Y322048D01*
X449679Y321927D01*
X449659Y321808D01*
X449656Y321658D01*
X449644Y321509D01*
X449652Y321409D01*
X449650Y321268D01*
X449687Y320982D01*
X449698Y320845D01*
X468598Y212845D01*
X468649Y212645D01*
X468692Y212445D01*
X468715Y212384D01*
X468731Y212321D01*
X468810Y212131D01*
X468882Y211939D01*
X468914Y211882D01*
X468939Y211822D01*
X469045Y211646D01*
X469145Y211466D01*
X469180Y211422D01*
X469218Y211359D01*
X469551Y210956D01*
X469560Y210945D01*
X479910Y200145D01*
X479954Y200106D01*
X479993Y200061D01*
X480155Y199925D01*
X480312Y199784D01*
X480361Y199751D01*
X480407Y199713D01*
X480586Y199602D01*
X480763Y199485D01*
X480816Y199460D01*
X480867Y199429D01*
X481061Y199346D01*
X481252Y199257D01*
X481309Y199240D01*
X481364Y199217D01*
X481568Y199163D01*
X481770Y199103D01*
X481829Y199095D01*
X481886Y199079D01*
X482024Y199067D01*
X482306Y199027D01*
X482449Y199028D01*
X482550Y199019D01*
X492900Y199019D01*
X493049Y199030D01*
G37*
G36*
X352225Y199032D02*
X352225Y199032D01*
X352400Y199036D01*
X352494Y199052D01*
X352589Y199059D01*
X352760Y199097D01*
X352933Y199127D01*
X353023Y199157D01*
X353116Y199178D01*
X353280Y199241D01*
X353446Y199296D01*
X353531Y199339D01*
X353620Y199373D01*
X353772Y199460D01*
X353929Y199538D01*
X354007Y199593D01*
X354090Y199641D01*
X354228Y199749D01*
X354371Y199850D01*
X354428Y199906D01*
X354515Y199974D01*
X354759Y200233D01*
X354845Y200318D01*
X363278Y210317D01*
X363386Y210466D01*
X363501Y210609D01*
X363544Y210684D01*
X363595Y210755D01*
X363680Y210918D01*
X363772Y211077D01*
X363804Y211157D01*
X363844Y211234D01*
X363904Y211408D01*
X363971Y211579D01*
X363991Y211664D01*
X364019Y211745D01*
X364053Y211926D01*
X364095Y212105D01*
X364102Y212192D01*
X364118Y212277D01*
X364124Y212461D01*
X364139Y212644D01*
X364133Y212718D01*
X364136Y212817D01*
X364093Y213203D01*
X364084Y213308D01*
X345071Y321288D01*
X345069Y321295D01*
X345068Y321302D01*
X345003Y321556D01*
X344938Y321812D01*
X344935Y321818D01*
X344934Y321825D01*
X344832Y322064D01*
X344729Y322311D01*
X344726Y322317D01*
X344723Y322323D01*
X344586Y322548D01*
X344450Y322773D01*
X344445Y322778D01*
X344442Y322784D01*
X344272Y322987D01*
X344105Y323189D01*
X344100Y323194D01*
X344095Y323199D01*
X343900Y323373D01*
X343702Y323550D01*
X343696Y323554D01*
X343691Y323558D01*
X343473Y323701D01*
X343251Y323847D01*
X343245Y323850D01*
X343239Y323854D01*
X343002Y323963D01*
X342761Y324075D01*
X342754Y324077D01*
X342748Y324080D01*
X342494Y324153D01*
X342242Y324228D01*
X342236Y324229D01*
X342229Y324231D01*
X342181Y324236D01*
X341707Y324303D01*
X341627Y324302D01*
X341567Y324309D01*
X336001Y324457D01*
X335561Y324436D01*
X335487Y324434D01*
X333290Y324182D01*
X333289Y324182D01*
X333286Y324181D01*
X332759Y324081D01*
X332691Y324057D01*
X332637Y324046D01*
X330522Y323398D01*
X330521Y323398D01*
X330517Y323396D01*
X330019Y323202D01*
X329956Y323166D01*
X329905Y323145D01*
X327944Y322124D01*
X327943Y322124D01*
X327939Y322121D01*
X327484Y321840D01*
X327429Y321793D01*
X327382Y321763D01*
X325639Y320403D01*
X325639Y320402D01*
X325638Y320402D01*
X325636Y320400D01*
X325239Y320040D01*
X325193Y319984D01*
X325153Y319946D01*
X323686Y318291D01*
X323685Y318290D01*
X323683Y318287D01*
X323359Y317861D01*
X323324Y317798D01*
X323291Y317753D01*
X322149Y315860D01*
X322149Y315859D01*
X322147Y315855D01*
X321905Y315378D01*
X321883Y315309D01*
X321858Y315259D01*
X321080Y313190D01*
X321080Y313189D01*
X321079Y313185D01*
X320928Y312671D01*
X320918Y312599D01*
X320903Y312546D01*
X320514Y310369D01*
X320514Y310368D01*
X320514Y310365D01*
X320459Y309832D01*
X320462Y309760D01*
X320457Y309704D01*
X320470Y307493D01*
X320470Y307492D01*
X320471Y307488D01*
X320513Y306955D01*
X320530Y306884D01*
X320535Y306829D01*
X320947Y304671D01*
X339905Y202011D01*
X339915Y201972D01*
X339920Y201932D01*
X339983Y201711D01*
X340042Y201488D01*
X340058Y201451D01*
X340069Y201412D01*
X340164Y201203D01*
X340254Y200991D01*
X340276Y200957D01*
X340292Y200920D01*
X340417Y200728D01*
X340538Y200531D01*
X340564Y200500D01*
X340586Y200467D01*
X340738Y200294D01*
X340886Y200118D01*
X340917Y200092D01*
X340943Y200061D01*
X341119Y199913D01*
X341292Y199761D01*
X341326Y199739D01*
X341357Y199713D01*
X341552Y199592D01*
X341746Y199467D01*
X341782Y199450D01*
X341817Y199429D01*
X342028Y199339D01*
X342238Y199244D01*
X342276Y199233D01*
X342314Y199217D01*
X342536Y199158D01*
X342757Y199095D01*
X342797Y199090D01*
X342836Y199079D01*
X342965Y199068D01*
X343293Y199025D01*
X343413Y199027D01*
X343500Y199019D01*
X352050Y199019D01*
X352225Y199032D01*
G37*
G36*
X383692Y67179D02*
X383692Y67179D01*
X383835Y67180D01*
X383961Y67199D01*
X384089Y67209D01*
X384228Y67240D01*
X384369Y67262D01*
X384491Y67300D01*
X384616Y67328D01*
X384749Y67379D01*
X384886Y67421D01*
X385001Y67477D01*
X385120Y67523D01*
X385244Y67594D01*
X385373Y67656D01*
X385478Y67727D01*
X385590Y67791D01*
X385702Y67879D01*
X385820Y67959D01*
X385914Y68045D01*
X386015Y68124D01*
X386113Y68228D01*
X386218Y68325D01*
X386298Y68424D01*
X386386Y68517D01*
X386467Y68634D01*
X386557Y68745D01*
X386622Y68856D01*
X386695Y68961D01*
X386759Y69088D01*
X386831Y69211D01*
X386879Y69330D01*
X386936Y69445D01*
X386980Y69580D01*
X387033Y69713D01*
X387063Y69837D01*
X387102Y69959D01*
X387126Y70099D01*
X387159Y70238D01*
X387170Y70366D01*
X387191Y70492D01*
X387194Y70634D01*
X387206Y70777D01*
X387198Y70881D01*
X387200Y71032D01*
X387165Y71303D01*
X387154Y71441D01*
X369154Y176741D01*
X369094Y176984D01*
X369035Y177230D01*
X369028Y177247D01*
X369024Y177266D01*
X368928Y177499D01*
X368834Y177732D01*
X368825Y177748D01*
X368818Y177765D01*
X368688Y177981D01*
X368562Y178198D01*
X368551Y178211D01*
X368540Y178229D01*
X368197Y178647D01*
X368160Y178681D01*
X368135Y178710D01*
X358235Y188610D01*
X358220Y188623D01*
X358207Y188639D01*
X358015Y188801D01*
X357826Y188963D01*
X357809Y188974D01*
X357793Y188987D01*
X357581Y189118D01*
X357369Y189252D01*
X357350Y189260D01*
X357333Y189271D01*
X357104Y189369D01*
X356875Y189470D01*
X356855Y189475D01*
X356836Y189483D01*
X356594Y189547D01*
X356353Y189613D01*
X356333Y189615D01*
X356314Y189621D01*
X356216Y189629D01*
X355817Y189677D01*
X355721Y189675D01*
X355650Y189681D01*
X345300Y189681D01*
X345164Y189671D01*
X345027Y189671D01*
X344895Y189651D01*
X344761Y189641D01*
X344628Y189611D01*
X344493Y189591D01*
X344365Y189552D01*
X344234Y189522D01*
X344107Y189473D01*
X343976Y189433D01*
X343855Y189375D01*
X343730Y189327D01*
X343611Y189259D01*
X343488Y189201D01*
X343377Y189126D01*
X343260Y189059D01*
X343153Y188975D01*
X343040Y188899D01*
X342941Y188808D01*
X342835Y188726D01*
X342742Y188627D01*
X342641Y188534D01*
X342556Y188430D01*
X342464Y188333D01*
X342386Y188221D01*
X342300Y188115D01*
X342232Y187999D01*
X342155Y187889D01*
X342094Y187767D01*
X342025Y187650D01*
X341974Y187526D01*
X341914Y187405D01*
X341872Y187276D01*
X341821Y187149D01*
X341789Y187019D01*
X341748Y186891D01*
X341725Y186757D01*
X341693Y186624D01*
X341681Y186491D01*
X341659Y186358D01*
X341657Y186222D01*
X341644Y186086D01*
X341652Y185977D01*
X341650Y185818D01*
X341684Y185559D01*
X341694Y185421D01*
X358794Y83271D01*
X358883Y82906D01*
X358906Y82797D01*
X359734Y80114D01*
X359931Y79611D01*
X359953Y79573D01*
X359966Y79540D01*
X361235Y77036D01*
X361514Y76573D01*
X361542Y76539D01*
X361560Y76509D01*
X363233Y74255D01*
X363586Y73845D01*
X363620Y73817D01*
X363643Y73790D01*
X365672Y71850D01*
X366021Y71563D01*
X366073Y71519D01*
X366078Y71516D01*
X366089Y71507D01*
X366127Y71484D01*
X366154Y71462D01*
X368482Y69892D01*
X368951Y69624D01*
X368992Y69608D01*
X369023Y69591D01*
X371582Y68436D01*
X372090Y68251D01*
X372133Y68242D01*
X372166Y68230D01*
X374883Y67524D01*
X375415Y67427D01*
X375459Y67426D01*
X375493Y67420D01*
X378291Y67182D01*
X378479Y67180D01*
X378600Y67169D01*
X383550Y67169D01*
X383692Y67179D01*
G37*
G36*
X467270Y183720D02*
X467270Y183720D01*
X467290Y183719D01*
X467540Y183740D01*
X467789Y183759D01*
X467809Y183763D01*
X467829Y183765D01*
X468072Y183823D01*
X468316Y183878D01*
X468335Y183885D01*
X468355Y183890D01*
X468587Y183983D01*
X468820Y184073D01*
X468838Y184083D01*
X468857Y184091D01*
X469072Y184216D01*
X469290Y184341D01*
X469306Y184353D01*
X469323Y184363D01*
X469398Y184426D01*
X469715Y184674D01*
X469781Y184744D01*
X469835Y184790D01*
X476585Y191540D01*
X476653Y191618D01*
X476728Y191690D01*
X476830Y191823D01*
X476938Y191949D01*
X476994Y192037D01*
X477057Y192119D01*
X477138Y192265D01*
X477227Y192406D01*
X477269Y192501D01*
X477319Y192592D01*
X477378Y192748D01*
X477445Y192900D01*
X477472Y193000D01*
X477509Y193098D01*
X477544Y193261D01*
X477588Y193422D01*
X477600Y193525D01*
X477622Y193626D01*
X477633Y193793D01*
X477652Y193958D01*
X477650Y194062D01*
X477656Y194165D01*
X477642Y194332D01*
X477637Y194498D01*
X477619Y194601D01*
X477610Y194704D01*
X477572Y194866D01*
X477542Y195031D01*
X477509Y195129D01*
X477485Y195230D01*
X477423Y195385D01*
X477370Y195543D01*
X477323Y195635D01*
X477284Y195732D01*
X477200Y195875D01*
X477124Y196024D01*
X477064Y196109D01*
X477012Y196198D01*
X476930Y196296D01*
X476810Y196464D01*
X476667Y196612D01*
X476585Y196710D01*
X465335Y207960D01*
X465320Y207973D01*
X465307Y207989D01*
X465115Y208151D01*
X464926Y208313D01*
X464909Y208324D01*
X464893Y208337D01*
X464681Y208468D01*
X464469Y208602D01*
X464450Y208610D01*
X464433Y208621D01*
X464204Y208719D01*
X463975Y208820D01*
X463955Y208825D01*
X463936Y208833D01*
X463694Y208897D01*
X463453Y208963D01*
X463433Y208965D01*
X463414Y208971D01*
X463316Y208979D01*
X462917Y209027D01*
X462821Y209025D01*
X462750Y209031D01*
X370500Y209031D01*
X370448Y209027D01*
X370397Y209030D01*
X370180Y209008D01*
X369961Y208991D01*
X369910Y208980D01*
X369859Y208975D01*
X369647Y208921D01*
X369434Y208872D01*
X369386Y208854D01*
X369335Y208841D01*
X369134Y208756D01*
X368930Y208677D01*
X368885Y208651D01*
X368837Y208631D01*
X368650Y208518D01*
X368460Y208409D01*
X368420Y208377D01*
X368375Y208351D01*
X368207Y208211D01*
X368035Y208076D01*
X368000Y208038D01*
X367960Y208005D01*
X367871Y207902D01*
X367664Y207683D01*
X367587Y207573D01*
X367525Y207500D01*
X360775Y198050D01*
X360763Y198031D01*
X360749Y198013D01*
X360623Y197800D01*
X360494Y197588D01*
X360485Y197567D01*
X360474Y197548D01*
X360381Y197319D01*
X360284Y197090D01*
X360279Y197068D01*
X360270Y197047D01*
X360212Y196808D01*
X360150Y196567D01*
X360148Y196544D01*
X360143Y196522D01*
X360121Y196276D01*
X360095Y196029D01*
X360096Y196006D01*
X360094Y195983D01*
X360109Y195737D01*
X360120Y195489D01*
X360124Y195467D01*
X360126Y195444D01*
X360176Y195202D01*
X360224Y194959D01*
X360231Y194937D01*
X360236Y194915D01*
X360322Y194683D01*
X360405Y194449D01*
X360415Y194429D01*
X360423Y194408D01*
X360543Y194190D01*
X360659Y193972D01*
X360672Y193954D01*
X360683Y193934D01*
X360748Y193852D01*
X360980Y193538D01*
X361050Y193468D01*
X361096Y193410D01*
X369196Y184860D01*
X369247Y184814D01*
X369293Y184761D01*
X369447Y184632D01*
X369595Y184497D01*
X369653Y184458D01*
X369707Y184413D01*
X369877Y184308D01*
X370044Y184196D01*
X370107Y184166D01*
X370167Y184129D01*
X370351Y184050D01*
X370533Y183964D01*
X370600Y183944D01*
X370664Y183917D01*
X370858Y183866D01*
X371050Y183807D01*
X371119Y183797D01*
X371186Y183779D01*
X371324Y183767D01*
X371585Y183728D01*
X371742Y183729D01*
X371850Y183719D01*
X467250Y183719D01*
X467270Y183720D01*
G37*
G36*
X444899Y299830D02*
X444899Y299830D01*
X445049Y299831D01*
X445169Y299850D01*
X445289Y299859D01*
X445435Y299892D01*
X445583Y299915D01*
X445699Y299951D01*
X445816Y299978D01*
X445956Y300032D01*
X446099Y300077D01*
X446208Y300129D01*
X446320Y300173D01*
X446450Y300247D01*
X446585Y300313D01*
X446685Y300381D01*
X446790Y300441D01*
X446908Y300533D01*
X447031Y300618D01*
X447120Y300700D01*
X447215Y300774D01*
X447318Y300883D01*
X447428Y300985D01*
X447503Y301080D01*
X447586Y301167D01*
X447672Y301290D01*
X447765Y301407D01*
X447826Y301512D01*
X447895Y301611D01*
X447962Y301745D01*
X448037Y301874D01*
X448082Y301986D01*
X448136Y302095D01*
X448182Y302237D01*
X448237Y302376D01*
X448265Y302494D01*
X448302Y302609D01*
X448327Y302756D01*
X448361Y302903D01*
X448371Y303023D01*
X448391Y303142D01*
X448394Y303292D01*
X448406Y303441D01*
X448398Y303541D01*
X448400Y303682D01*
X448363Y303968D01*
X448352Y304105D01*
X445202Y322105D01*
X445187Y322161D01*
X445180Y322218D01*
X445121Y322423D01*
X445069Y322629D01*
X445047Y322682D01*
X445031Y322738D01*
X444943Y322932D01*
X444861Y323128D01*
X444832Y323177D01*
X444808Y323230D01*
X444692Y323409D01*
X444582Y323591D01*
X444545Y323635D01*
X444514Y323683D01*
X444373Y323843D01*
X444237Y324007D01*
X444195Y324046D01*
X444157Y324089D01*
X443994Y324226D01*
X443835Y324368D01*
X443787Y324400D01*
X443743Y324437D01*
X443562Y324549D01*
X443384Y324666D01*
X443332Y324691D01*
X443283Y324721D01*
X443087Y324805D01*
X442894Y324894D01*
X442839Y324911D01*
X442786Y324933D01*
X442580Y324988D01*
X442376Y325048D01*
X442319Y325056D01*
X442264Y325071D01*
X442127Y325083D01*
X441841Y325123D01*
X441699Y325122D01*
X441600Y325131D01*
X352950Y325131D01*
X352890Y325127D01*
X352829Y325129D01*
X352620Y325107D01*
X352411Y325091D01*
X352352Y325078D01*
X352292Y325072D01*
X352088Y325019D01*
X351884Y324972D01*
X351827Y324950D01*
X351769Y324935D01*
X351576Y324853D01*
X351380Y324777D01*
X351327Y324747D01*
X351272Y324723D01*
X351093Y324614D01*
X350910Y324509D01*
X350863Y324472D01*
X350811Y324440D01*
X350650Y324305D01*
X350485Y324176D01*
X350444Y324132D01*
X350397Y324093D01*
X350258Y323935D01*
X350114Y323783D01*
X350079Y323733D01*
X350039Y323688D01*
X349925Y323512D01*
X349805Y323339D01*
X349778Y323285D01*
X349745Y323234D01*
X349658Y323044D01*
X349564Y322855D01*
X349546Y322798D01*
X349521Y322743D01*
X349463Y322541D01*
X349398Y322341D01*
X349388Y322281D01*
X349371Y322223D01*
X349344Y322015D01*
X349309Y321808D01*
X349308Y321748D01*
X349300Y321688D01*
X349305Y321550D01*
X349300Y321268D01*
X349319Y321124D01*
X349322Y321022D01*
X351572Y303022D01*
X351601Y302877D01*
X351620Y302732D01*
X351654Y302613D01*
X351678Y302492D01*
X351728Y302353D01*
X351769Y302212D01*
X351820Y302100D01*
X351862Y301983D01*
X351932Y301854D01*
X351992Y301720D01*
X352060Y301616D01*
X352118Y301507D01*
X352206Y301390D01*
X352286Y301267D01*
X352368Y301174D01*
X352442Y301075D01*
X352546Y300971D01*
X352643Y300861D01*
X352738Y300782D01*
X352826Y300694D01*
X352945Y300607D01*
X353057Y300513D01*
X353162Y300448D01*
X353262Y300375D01*
X353392Y300306D01*
X353517Y300229D01*
X353631Y300181D01*
X353740Y300123D01*
X353879Y300074D01*
X354014Y300017D01*
X354133Y299985D01*
X354250Y299944D01*
X354394Y299917D01*
X354536Y299879D01*
X354638Y299870D01*
X354781Y299843D01*
X355063Y299831D01*
X355200Y299819D01*
X444750Y299819D01*
X444899Y299830D01*
G37*
G36*
X483960Y67173D02*
X483960Y67173D01*
X484021Y67171D01*
X484230Y67193D01*
X484439Y67209D01*
X484498Y67222D01*
X484558Y67229D01*
X484762Y67282D01*
X484966Y67328D01*
X485023Y67350D01*
X485081Y67365D01*
X485274Y67447D01*
X485470Y67523D01*
X485523Y67553D01*
X485579Y67577D01*
X485757Y67686D01*
X485940Y67791D01*
X485987Y67828D01*
X486039Y67860D01*
X486200Y67995D01*
X486365Y68124D01*
X486406Y68168D01*
X486453Y68207D01*
X486592Y68365D01*
X486736Y68517D01*
X486771Y68567D01*
X486811Y68612D01*
X486925Y68788D01*
X487045Y68961D01*
X487072Y69015D01*
X487105Y69066D01*
X487192Y69256D01*
X487286Y69445D01*
X487304Y69502D01*
X487329Y69557D01*
X487387Y69759D01*
X487452Y69959D01*
X487462Y70019D01*
X487479Y70077D01*
X487507Y70285D01*
X487541Y70492D01*
X487542Y70552D01*
X487550Y70612D01*
X487546Y70750D01*
X487550Y71032D01*
X487531Y71177D01*
X487528Y71279D01*
X485278Y89279D01*
X485249Y89423D01*
X485230Y89568D01*
X485196Y89687D01*
X485172Y89808D01*
X485122Y89947D01*
X485081Y90088D01*
X485030Y90200D01*
X484988Y90317D01*
X484918Y90446D01*
X484858Y90580D01*
X484790Y90684D01*
X484732Y90793D01*
X484644Y90910D01*
X484564Y91033D01*
X484482Y91126D01*
X484408Y91225D01*
X484304Y91329D01*
X484207Y91439D01*
X484112Y91519D01*
X484024Y91606D01*
X483905Y91693D01*
X483793Y91787D01*
X483688Y91852D01*
X483588Y91925D01*
X483458Y91994D01*
X483333Y92071D01*
X483219Y92119D01*
X483110Y92177D01*
X482971Y92226D01*
X482836Y92283D01*
X482717Y92315D01*
X482600Y92356D01*
X482456Y92383D01*
X482314Y92421D01*
X482212Y92430D01*
X482069Y92457D01*
X481787Y92469D01*
X481650Y92481D01*
X392100Y92481D01*
X391951Y92470D01*
X391801Y92469D01*
X391681Y92450D01*
X391561Y92441D01*
X391415Y92408D01*
X391267Y92385D01*
X391151Y92349D01*
X391034Y92322D01*
X390894Y92268D01*
X390751Y92223D01*
X390642Y92171D01*
X390530Y92127D01*
X390400Y92053D01*
X390265Y91987D01*
X390165Y91919D01*
X390060Y91859D01*
X389942Y91767D01*
X389819Y91682D01*
X389730Y91600D01*
X389635Y91526D01*
X389532Y91417D01*
X389422Y91315D01*
X389347Y91220D01*
X389264Y91133D01*
X389178Y91010D01*
X389085Y90893D01*
X389024Y90788D01*
X388955Y90689D01*
X388888Y90555D01*
X388813Y90426D01*
X388768Y90314D01*
X388714Y90205D01*
X388668Y90063D01*
X388613Y89924D01*
X388585Y89806D01*
X388548Y89691D01*
X388523Y89544D01*
X388489Y89398D01*
X388479Y89277D01*
X388459Y89158D01*
X388456Y89008D01*
X388444Y88859D01*
X388452Y88759D01*
X388450Y88618D01*
X388487Y88332D01*
X388498Y88195D01*
X391648Y70195D01*
X391663Y70139D01*
X391670Y70082D01*
X391729Y69877D01*
X391781Y69671D01*
X391803Y69618D01*
X391819Y69562D01*
X391907Y69368D01*
X391989Y69172D01*
X392018Y69123D01*
X392042Y69070D01*
X392158Y68891D01*
X392268Y68709D01*
X392305Y68665D01*
X392336Y68617D01*
X392477Y68457D01*
X392613Y68293D01*
X392655Y68254D01*
X392693Y68211D01*
X392856Y68074D01*
X393015Y67932D01*
X393063Y67900D01*
X393107Y67863D01*
X393288Y67751D01*
X393466Y67634D01*
X393518Y67609D01*
X393567Y67579D01*
X393763Y67495D01*
X393956Y67406D01*
X394011Y67389D01*
X394064Y67367D01*
X394270Y67312D01*
X394474Y67252D01*
X394531Y67244D01*
X394586Y67229D01*
X394723Y67217D01*
X395009Y67177D01*
X395151Y67178D01*
X395250Y67169D01*
X483900Y67169D01*
X483960Y67173D01*
G37*
D10*
X538330Y362765D02*
X299870Y362765D01*
X299870Y24835D02*
X538330Y24835D01*
X538330Y362765D01*
X299870Y362765D02*
X299870Y24835D01*
D11*
X328600Y64675D03*
M02*
