G04 EAGLE Gerber RS-274X export*
G75*
%MOMM*%
%FSLAX34Y34*%
%LPD*%
%INSoldermask Top*%
%IPNEG*%
%AMOC8*
5,1,8,0,0,1.08239X$1,22.5*%
G01*
%ADD10C,3.403200*%
%ADD11C,1.524000*%
%ADD12C,1.511200*%
%ADD13C,1.711200*%
%ADD14P,1.649562X8X202.500000*%
%ADD15C,1.803400*%
%ADD16P,1.951982X8X22.500000*%
%ADD17P,1.649562X8X22.500000*%


D10*
X30000Y30000D03*
X30000Y370000D03*
X600000Y30000D03*
D11*
X101854Y228600D02*
X88646Y228600D01*
X88646Y203200D02*
X101854Y203200D01*
X101854Y177800D02*
X88646Y177800D01*
X88646Y152400D02*
X101854Y152400D01*
X101854Y127000D02*
X88646Y127000D01*
X88646Y101600D02*
X101854Y101600D01*
X101854Y76200D02*
X88646Y76200D01*
X88646Y50800D02*
X101854Y50800D01*
X101854Y25400D02*
X88646Y25400D01*
X164846Y25400D02*
X178054Y25400D01*
X178054Y50800D02*
X164846Y50800D01*
X164846Y76200D02*
X178054Y76200D01*
X178054Y101600D02*
X164846Y101600D01*
X164846Y127000D02*
X178054Y127000D01*
X178054Y152400D02*
X164846Y152400D01*
X164846Y177800D02*
X178054Y177800D01*
X178054Y203200D02*
X164846Y203200D01*
X164846Y228600D02*
X178054Y228600D01*
D12*
X469900Y48215D02*
X469900Y35135D01*
X444500Y35135D02*
X444500Y48215D01*
X419100Y48215D02*
X419100Y35135D01*
X393700Y35135D02*
X393700Y48215D01*
X368300Y48215D02*
X368300Y35135D01*
X368300Y339935D02*
X368300Y353015D01*
X393700Y353015D02*
X393700Y339935D01*
X419100Y339935D02*
X419100Y353015D01*
X444500Y353015D02*
X444500Y339935D01*
X469900Y339935D02*
X469900Y353015D01*
D13*
X250825Y321865D02*
X250825Y306785D01*
X225425Y306785D02*
X225425Y321865D01*
X200025Y321865D02*
X200025Y306785D01*
X174625Y306785D02*
X174625Y321865D01*
D14*
X273050Y152400D03*
X196850Y152400D03*
X273050Y177800D03*
X196850Y177800D03*
X273050Y25400D03*
X196850Y25400D03*
X273050Y50800D03*
X196850Y50800D03*
X273050Y76200D03*
X196850Y76200D03*
X273050Y127000D03*
X196850Y127000D03*
X273050Y101600D03*
X196850Y101600D03*
D15*
X244475Y254000D03*
D16*
X269875Y254000D03*
D17*
X244475Y215900D03*
X269875Y215900D03*
M02*
