M48
;GenerationSoftware,Autodesk,EAGLE,9.2.1*%
;CreationDate,2018-12-18T20:56:38Z*%
FMAT,2
ICI,OFF
METRIC,TZ,000.000
T4C0.800
T3C0.813
T2C1.000
T1C3.200
%
G90
M71
T1
X77000Y4000
X8000Y4000
X8000Y38000
X77000Y38000
T2
X43180Y5080
X45720Y5080
X38100Y5080
X40640Y5080
T3
X80645Y11747
X80645Y14287
X80645Y16828
X80645Y19368
X80645Y21907
X80645Y24447
X80645Y26987
X80645Y29527
X80645Y32067
X73025Y32067
X73025Y29527
X73025Y26987
X73025Y24447
X73025Y21907
X73025Y19368
X73025Y16828
X73025Y14287
X73025Y11747
X22860Y23812
X15240Y23812
X13017Y26352
X13017Y28892
X13017Y31432
X62547Y32067
X70168Y32067
X62547Y34608
X70168Y34608
X62547Y19368
X70168Y19368
X62547Y16828
X70168Y16828
X62547Y14287
X70168Y14287
X70168Y24447
X5398Y31432
X62547Y21907
X70168Y21907
X15240Y28892
X22860Y28892
X62547Y26987
X70168Y26987
X62547Y29527
X70168Y29527
X49530Y11112
X49530Y8573
X53975Y11112
X53975Y8573
X62547Y24447
X22860Y26352
X15240Y26352
X22860Y13652
X15240Y13652
X22860Y16192
X15240Y16192
X22860Y18733
X15240Y18733
X22860Y21273
X15240Y21273
X22860Y11112
X15240Y11112
X5398Y28892
X5398Y26352
X5398Y23812
X5398Y21273
X5398Y18733
X5398Y16192
X5398Y13652
X5398Y11112
X13017Y11112
X13017Y13652
X13017Y16192
X13017Y18733
X13017Y21273
X13017Y23812
T4
X59372Y14605
X56832Y14605
X54292Y14605
X51752Y14605
X49212Y14605
X46672Y14605
X44132Y14605
X41593Y14605
X39053Y14605
X36513Y14605
X33973Y14605
X31432Y14605
X28892Y14605
X26352Y14605
X28892Y29845
X31432Y29845
X33973Y29845
X36513Y29845
X39053Y29845
X41593Y29845
X44132Y29845
X46672Y29845
X49212Y29845
X51752Y29845
X54292Y29845
X56832Y29845
X26352Y29845
X59372Y29845
M30