G04 EAGLE Gerber RS-274X export*
G75*
%MOMM*%
%FSLAX34Y34*%
%LPD*%
%INTop Copper*%
%IPPOS*%
%AMOC8*
5,1,8,0,0,1.08239X$1,22.5*%
G01*
%ADD10C,1.320800*%
%ADD11C,1.508000*%
%ADD12P,1.429621X8X202.500000*%
%ADD13C,1.422400*%
%ADD14P,1.429621X8X22.500000*%
%ADD15C,1.600200*%
%ADD16P,1.732040X8X292.500000*%
%ADD17P,1.429621X8X292.500000*%
%ADD18C,0.609600*%
%ADD19C,0.152400*%


D10*
X813054Y117475D02*
X799846Y117475D01*
X799846Y142875D02*
X813054Y142875D01*
X813054Y168275D02*
X799846Y168275D01*
X799846Y193675D02*
X813054Y193675D01*
X813054Y219075D02*
X799846Y219075D01*
X799846Y244475D02*
X813054Y244475D01*
X813054Y269875D02*
X799846Y269875D01*
X799846Y295275D02*
X813054Y295275D01*
X813054Y320675D02*
X799846Y320675D01*
X736854Y320675D02*
X723646Y320675D01*
X723646Y295275D02*
X736854Y295275D01*
X736854Y269875D02*
X723646Y269875D01*
X723646Y244475D02*
X736854Y244475D01*
X736854Y219075D02*
X723646Y219075D01*
X723646Y193675D02*
X736854Y193675D01*
X736854Y168275D02*
X723646Y168275D01*
X723646Y142875D02*
X736854Y142875D01*
X736854Y117475D02*
X723646Y117475D01*
D11*
X381000Y58340D02*
X381000Y43260D01*
X406400Y43260D02*
X406400Y58340D01*
X431800Y58340D02*
X431800Y43260D01*
X457200Y43260D02*
X457200Y58340D01*
D12*
X228600Y238125D03*
X152400Y238125D03*
D13*
X593725Y146050D03*
X568325Y146050D03*
X542925Y146050D03*
X517525Y146050D03*
X492125Y146050D03*
X466725Y146050D03*
X441325Y146050D03*
X415925Y146050D03*
X390525Y146050D03*
X365125Y146050D03*
X339725Y146050D03*
X314325Y146050D03*
X288925Y146050D03*
X263525Y146050D03*
X263525Y298450D03*
X288925Y298450D03*
X314325Y298450D03*
X339725Y298450D03*
X365125Y298450D03*
X390525Y298450D03*
X415925Y298450D03*
X441325Y298450D03*
X466725Y298450D03*
X492125Y298450D03*
X517525Y298450D03*
X542925Y298450D03*
X568325Y298450D03*
X593725Y298450D03*
D12*
X228600Y263525D03*
X152400Y263525D03*
X228600Y136525D03*
X152400Y136525D03*
X228600Y161925D03*
X152400Y161925D03*
X228600Y187325D03*
X152400Y187325D03*
X228600Y212725D03*
X152400Y212725D03*
X228600Y111125D03*
X152400Y111125D03*
D10*
X60579Y314325D02*
X47371Y314325D01*
X47371Y288925D02*
X60579Y288925D01*
X60579Y263525D02*
X47371Y263525D01*
X47371Y238125D02*
X60579Y238125D01*
X60579Y212725D02*
X47371Y212725D01*
X47371Y187325D02*
X60579Y187325D01*
X60579Y161925D02*
X47371Y161925D01*
X47371Y136525D02*
X60579Y136525D01*
X60579Y111125D02*
X47371Y111125D01*
X123571Y111125D02*
X136779Y111125D01*
X136779Y136525D02*
X123571Y136525D01*
X123571Y161925D02*
X136779Y161925D01*
X136779Y187325D02*
X123571Y187325D01*
X123571Y212725D02*
X136779Y212725D01*
X136779Y238125D02*
X123571Y238125D01*
X123571Y263525D02*
X136779Y263525D01*
X136779Y288925D02*
X123571Y288925D01*
X123571Y314325D02*
X136779Y314325D01*
D14*
X625475Y320675D03*
X701675Y320675D03*
X625475Y346075D03*
X701675Y346075D03*
X625475Y193675D03*
X701675Y193675D03*
X625475Y168275D03*
X701675Y168275D03*
X625475Y142875D03*
X701675Y142875D03*
X625475Y244475D03*
X701675Y244475D03*
X625475Y219075D03*
X701675Y219075D03*
X152400Y288925D03*
X228600Y288925D03*
X625475Y269875D03*
X701675Y269875D03*
X625475Y295275D03*
X701675Y295275D03*
D15*
X495300Y111125D03*
D16*
X495300Y85725D03*
D17*
X539750Y111125D03*
X539750Y85725D03*
D18*
X387350Y276225D02*
X365125Y298450D01*
X339725Y298450D01*
X53975Y212725D02*
X53975Y187325D01*
X53975Y212725D02*
X108331Y267081D01*
X108331Y292607D01*
X781050Y219075D02*
X806450Y193675D01*
X781050Y219075D02*
X781050Y225425D01*
X800100Y244475D01*
X806450Y244475D01*
X339725Y298450D02*
X323850Y314325D01*
X542925Y146050D02*
X542925Y114300D01*
X542925Y276225D02*
X542925Y298450D01*
X542925Y276225D02*
X542925Y146050D01*
X542925Y276225D02*
X387350Y276225D01*
X441325Y111125D02*
X381000Y50800D01*
X441325Y111125D02*
X495300Y111125D01*
X539750Y111125D01*
X542925Y114300D01*
X546100Y117475D02*
X730250Y117475D01*
X546100Y117475D02*
X542925Y114300D01*
X730250Y117475D02*
X806450Y193675D01*
X130049Y314325D02*
X108331Y292607D01*
D19*
X130049Y314325D02*
X130175Y314325D01*
D18*
X323850Y314325D01*
X454025Y98425D02*
X406400Y50800D01*
X454025Y98425D02*
X762000Y98425D01*
X806450Y142875D01*
X288925Y298450D02*
X228600Y238125D01*
X228600Y263525D02*
X263525Y298450D01*
X228600Y136525D02*
X234950Y130175D01*
X273050Y130175D01*
X288925Y146050D01*
X323850Y161925D02*
X228600Y161925D01*
X323850Y161925D02*
X339725Y146050D01*
X323850Y187325D02*
X228600Y187325D01*
X323850Y187325D02*
X365125Y146050D01*
X228600Y212725D02*
X314325Y298450D01*
X269875Y111125D02*
X228600Y111125D01*
X269875Y111125D02*
X279400Y111125D01*
X314325Y146050D01*
X152400Y288925D02*
X130175Y288925D01*
X130175Y263525D02*
X152400Y263525D01*
X152400Y238125D02*
X130175Y238125D01*
X130175Y212725D02*
X152400Y212725D01*
X152400Y187325D02*
X130175Y187325D01*
X130175Y161925D02*
X152400Y161925D01*
X152400Y136525D02*
X130175Y136525D01*
X130175Y111125D02*
X152400Y111125D01*
M02*
