G04 EAGLE Gerber RS-274X export*
G75*
%MOMM*%
%FSLAX34Y34*%
%LPD*%
%IN*%
%IPPOS*%
%AMOC8*
5,1,8,0,0,1.08239X$1,22.5*%
G01*
%ADD10C,0.254000*%


D10*
X20000Y30000D02*
X20076Y28257D01*
X20304Y26527D01*
X20681Y24824D01*
X21206Y23160D01*
X21874Y21548D01*
X22680Y20000D01*
X23617Y18528D01*
X24679Y17144D01*
X25858Y15858D01*
X27144Y14679D01*
X28528Y13617D01*
X30000Y12680D01*
X31548Y11874D01*
X33160Y11206D01*
X34824Y10681D01*
X36527Y10304D01*
X38257Y10076D01*
X40000Y10000D01*
X820000Y10000D01*
X821743Y10076D01*
X823473Y10304D01*
X825176Y10681D01*
X826840Y11206D01*
X828452Y11874D01*
X830000Y12680D01*
X831472Y13617D01*
X832856Y14679D01*
X834142Y15858D01*
X835321Y17144D01*
X836383Y18528D01*
X837321Y20000D01*
X838126Y21548D01*
X838794Y23160D01*
X839319Y24824D01*
X839696Y26527D01*
X839924Y28257D01*
X840000Y30000D01*
X840000Y390000D01*
X839924Y391743D01*
X839696Y393473D01*
X839319Y395176D01*
X838794Y396840D01*
X838126Y398452D01*
X837321Y400000D01*
X836383Y401472D01*
X835321Y402856D01*
X834142Y404142D01*
X832856Y405321D01*
X831472Y406383D01*
X830000Y407321D01*
X828452Y408126D01*
X826840Y408794D01*
X825176Y409319D01*
X823473Y409696D01*
X821743Y409924D01*
X820000Y410000D01*
X40000Y410000D01*
X38257Y409924D01*
X36527Y409696D01*
X34824Y409319D01*
X33160Y408794D01*
X31548Y408126D01*
X30000Y407321D01*
X28528Y406383D01*
X27144Y405321D01*
X25858Y404142D01*
X24679Y402856D01*
X23617Y401472D01*
X22680Y400000D01*
X21874Y398452D01*
X21206Y396840D01*
X20681Y395176D01*
X20304Y393473D01*
X20076Y391743D01*
X20000Y390000D01*
X20000Y30000D01*
X786000Y39476D02*
X785932Y38431D01*
X785795Y37392D01*
X785590Y36365D01*
X785319Y35353D01*
X784983Y34361D01*
X784582Y33393D01*
X784118Y32454D01*
X783595Y31546D01*
X783013Y30675D01*
X782375Y29844D01*
X781684Y29057D01*
X780943Y28316D01*
X780156Y27625D01*
X779325Y26988D01*
X778454Y26406D01*
X777546Y25882D01*
X776607Y25418D01*
X775639Y25017D01*
X774647Y24681D01*
X773635Y24410D01*
X772608Y24205D01*
X771569Y24069D01*
X770524Y24000D01*
X769476Y24000D01*
X768431Y24069D01*
X767392Y24205D01*
X766365Y24410D01*
X765353Y24681D01*
X764361Y25017D01*
X763393Y25418D01*
X762454Y25882D01*
X761546Y26406D01*
X760675Y26988D01*
X759844Y27625D01*
X759057Y28316D01*
X758316Y29057D01*
X757625Y29844D01*
X756988Y30675D01*
X756406Y31546D01*
X755882Y32454D01*
X755418Y33393D01*
X755017Y34361D01*
X754681Y35353D01*
X754410Y36365D01*
X754205Y37392D01*
X754069Y38431D01*
X754000Y39476D01*
X754000Y40524D01*
X754069Y41569D01*
X754205Y42608D01*
X754410Y43635D01*
X754681Y44647D01*
X755017Y45639D01*
X755418Y46607D01*
X755882Y47546D01*
X756406Y48454D01*
X756988Y49325D01*
X757625Y50156D01*
X758316Y50943D01*
X759057Y51684D01*
X759844Y52375D01*
X760675Y53013D01*
X761546Y53595D01*
X762454Y54118D01*
X763393Y54582D01*
X764361Y54983D01*
X765353Y55319D01*
X766365Y55590D01*
X767392Y55795D01*
X768431Y55932D01*
X769476Y56000D01*
X770524Y56000D01*
X771569Y55932D01*
X772608Y55795D01*
X773635Y55590D01*
X774647Y55319D01*
X775639Y54983D01*
X776607Y54582D01*
X777546Y54118D01*
X778454Y53595D01*
X779325Y53013D01*
X780156Y52375D01*
X780943Y51684D01*
X781684Y50943D01*
X782375Y50156D01*
X783013Y49325D01*
X783595Y48454D01*
X784118Y47546D01*
X784582Y46607D01*
X784983Y45639D01*
X785319Y44647D01*
X785590Y43635D01*
X785795Y42608D01*
X785932Y41569D01*
X786000Y40524D01*
X786000Y39476D01*
X96000Y39476D02*
X95932Y38431D01*
X95795Y37392D01*
X95590Y36365D01*
X95319Y35353D01*
X94983Y34361D01*
X94582Y33393D01*
X94118Y32454D01*
X93595Y31546D01*
X93013Y30675D01*
X92375Y29844D01*
X91684Y29057D01*
X90943Y28316D01*
X90156Y27625D01*
X89325Y26988D01*
X88454Y26406D01*
X87546Y25882D01*
X86607Y25418D01*
X85639Y25017D01*
X84647Y24681D01*
X83635Y24410D01*
X82608Y24205D01*
X81569Y24069D01*
X80524Y24000D01*
X79476Y24000D01*
X78431Y24069D01*
X77392Y24205D01*
X76365Y24410D01*
X75353Y24681D01*
X74361Y25017D01*
X73393Y25418D01*
X72454Y25882D01*
X71546Y26406D01*
X70675Y26988D01*
X69844Y27625D01*
X69057Y28316D01*
X68316Y29057D01*
X67625Y29844D01*
X66988Y30675D01*
X66406Y31546D01*
X65882Y32454D01*
X65418Y33393D01*
X65017Y34361D01*
X64681Y35353D01*
X64410Y36365D01*
X64205Y37392D01*
X64069Y38431D01*
X64000Y39476D01*
X64000Y40524D01*
X64069Y41569D01*
X64205Y42608D01*
X64410Y43635D01*
X64681Y44647D01*
X65017Y45639D01*
X65418Y46607D01*
X65882Y47546D01*
X66406Y48454D01*
X66988Y49325D01*
X67625Y50156D01*
X68316Y50943D01*
X69057Y51684D01*
X69844Y52375D01*
X70675Y53013D01*
X71546Y53595D01*
X72454Y54118D01*
X73393Y54582D01*
X74361Y54983D01*
X75353Y55319D01*
X76365Y55590D01*
X77392Y55795D01*
X78431Y55932D01*
X79476Y56000D01*
X80524Y56000D01*
X81569Y55932D01*
X82608Y55795D01*
X83635Y55590D01*
X84647Y55319D01*
X85639Y54983D01*
X86607Y54582D01*
X87546Y54118D01*
X88454Y53595D01*
X89325Y53013D01*
X90156Y52375D01*
X90943Y51684D01*
X91684Y50943D01*
X92375Y50156D01*
X93013Y49325D01*
X93595Y48454D01*
X94118Y47546D01*
X94582Y46607D01*
X94983Y45639D01*
X95319Y44647D01*
X95590Y43635D01*
X95795Y42608D01*
X95932Y41569D01*
X96000Y40524D01*
X96000Y39476D01*
X96000Y379476D02*
X95932Y378431D01*
X95795Y377392D01*
X95590Y376365D01*
X95319Y375353D01*
X94983Y374361D01*
X94582Y373393D01*
X94118Y372454D01*
X93595Y371546D01*
X93013Y370675D01*
X92375Y369844D01*
X91684Y369057D01*
X90943Y368316D01*
X90156Y367625D01*
X89325Y366988D01*
X88454Y366406D01*
X87546Y365882D01*
X86607Y365418D01*
X85639Y365017D01*
X84647Y364681D01*
X83635Y364410D01*
X82608Y364205D01*
X81569Y364069D01*
X80524Y364000D01*
X79476Y364000D01*
X78431Y364069D01*
X77392Y364205D01*
X76365Y364410D01*
X75353Y364681D01*
X74361Y365017D01*
X73393Y365418D01*
X72454Y365882D01*
X71546Y366406D01*
X70675Y366988D01*
X69844Y367625D01*
X69057Y368316D01*
X68316Y369057D01*
X67625Y369844D01*
X66988Y370675D01*
X66406Y371546D01*
X65882Y372454D01*
X65418Y373393D01*
X65017Y374361D01*
X64681Y375353D01*
X64410Y376365D01*
X64205Y377392D01*
X64069Y378431D01*
X64000Y379476D01*
X64000Y380524D01*
X64069Y381569D01*
X64205Y382608D01*
X64410Y383635D01*
X64681Y384647D01*
X65017Y385639D01*
X65418Y386607D01*
X65882Y387546D01*
X66406Y388454D01*
X66988Y389325D01*
X67625Y390156D01*
X68316Y390943D01*
X69057Y391684D01*
X69844Y392375D01*
X70675Y393013D01*
X71546Y393595D01*
X72454Y394118D01*
X73393Y394582D01*
X74361Y394983D01*
X75353Y395319D01*
X76365Y395590D01*
X77392Y395795D01*
X78431Y395932D01*
X79476Y396000D01*
X80524Y396000D01*
X81569Y395932D01*
X82608Y395795D01*
X83635Y395590D01*
X84647Y395319D01*
X85639Y394983D01*
X86607Y394582D01*
X87546Y394118D01*
X88454Y393595D01*
X89325Y393013D01*
X90156Y392375D01*
X90943Y391684D01*
X91684Y390943D01*
X92375Y390156D01*
X93013Y389325D01*
X93595Y388454D01*
X94118Y387546D01*
X94582Y386607D01*
X94983Y385639D01*
X95319Y384647D01*
X95590Y383635D01*
X95795Y382608D01*
X95932Y381569D01*
X96000Y380524D01*
X96000Y379476D01*
X786000Y379476D02*
X785932Y378431D01*
X785795Y377392D01*
X785590Y376365D01*
X785319Y375353D01*
X784983Y374361D01*
X784582Y373393D01*
X784118Y372454D01*
X783595Y371546D01*
X783013Y370675D01*
X782375Y369844D01*
X781684Y369057D01*
X780943Y368316D01*
X780156Y367625D01*
X779325Y366988D01*
X778454Y366406D01*
X777546Y365882D01*
X776607Y365418D01*
X775639Y365017D01*
X774647Y364681D01*
X773635Y364410D01*
X772608Y364205D01*
X771569Y364069D01*
X770524Y364000D01*
X769476Y364000D01*
X768431Y364069D01*
X767392Y364205D01*
X766365Y364410D01*
X765353Y364681D01*
X764361Y365017D01*
X763393Y365418D01*
X762454Y365882D01*
X761546Y366406D01*
X760675Y366988D01*
X759844Y367625D01*
X759057Y368316D01*
X758316Y369057D01*
X757625Y369844D01*
X756988Y370675D01*
X756406Y371546D01*
X755882Y372454D01*
X755418Y373393D01*
X755017Y374361D01*
X754681Y375353D01*
X754410Y376365D01*
X754205Y377392D01*
X754069Y378431D01*
X754000Y379476D01*
X754000Y380524D01*
X754069Y381569D01*
X754205Y382608D01*
X754410Y383635D01*
X754681Y384647D01*
X755017Y385639D01*
X755418Y386607D01*
X755882Y387546D01*
X756406Y388454D01*
X756988Y389325D01*
X757625Y390156D01*
X758316Y390943D01*
X759057Y391684D01*
X759844Y392375D01*
X760675Y393013D01*
X761546Y393595D01*
X762454Y394118D01*
X763393Y394582D01*
X764361Y394983D01*
X765353Y395319D01*
X766365Y395590D01*
X767392Y395795D01*
X768431Y395932D01*
X769476Y396000D01*
X770524Y396000D01*
X771569Y395932D01*
X772608Y395795D01*
X773635Y395590D01*
X774647Y395319D01*
X775639Y394983D01*
X776607Y394582D01*
X777546Y394118D01*
X778454Y393595D01*
X779325Y393013D01*
X780156Y392375D01*
X780943Y391684D01*
X781684Y390943D01*
X782375Y390156D01*
X783013Y389325D01*
X783595Y388454D01*
X784118Y387546D01*
X784582Y386607D01*
X784983Y385639D01*
X785319Y384647D01*
X785590Y383635D01*
X785795Y382608D01*
X785932Y381569D01*
X786000Y380524D01*
X786000Y379476D01*
M02*
