G04 EAGLE Gerber RS-274X export*
G75*
%MOMM*%
%FSLAX34Y34*%
%LPD*%
%INSilkscreen Bottom*%
%IPPOS*%
%AMOC8*
5,1,8,0,0,1.08239X$1,22.5*%
G01*
%ADD10C,0.508000*%
%ADD11C,0.203200*%
%ADD12C,1.461000*%
%ADD13C,0.152400*%
%ADD14R,2.540000X0.508000*%

G36*
X344869Y153855D02*
X344869Y153855D01*
X346194Y154021D01*
X346264Y154037D01*
X346336Y154044D01*
X346574Y154108D01*
X346582Y154110D01*
X346584Y154111D01*
X346586Y154111D01*
X347850Y154541D01*
X347916Y154571D01*
X347985Y154592D01*
X348205Y154703D01*
X348213Y154706D01*
X348214Y154708D01*
X348217Y154709D01*
X349368Y155385D01*
X349426Y155427D01*
X349490Y155462D01*
X349684Y155615D01*
X349690Y155620D01*
X349691Y155621D01*
X349693Y155623D01*
X350685Y156517D01*
X350733Y156571D01*
X350788Y156617D01*
X350946Y156806D01*
X350952Y156812D01*
X350953Y156814D01*
X350955Y156816D01*
X351746Y157892D01*
X351782Y157954D01*
X351827Y158011D01*
X351944Y158228D01*
X351948Y158235D01*
X351949Y158236D01*
X351950Y158239D01*
X352508Y159452D01*
X352531Y159520D01*
X352563Y159585D01*
X352634Y159821D01*
X352637Y159829D01*
X352637Y159830D01*
X352638Y159833D01*
X352939Y161134D01*
X352948Y161205D01*
X352967Y161275D01*
X352989Y161521D01*
X352990Y161529D01*
X352990Y161531D01*
X352990Y161534D01*
X353023Y162868D01*
X353017Y162940D01*
X353021Y163012D01*
X352993Y163258D01*
X352993Y163265D01*
X352992Y163267D01*
X352992Y163270D01*
X352756Y164576D01*
X343185Y220870D01*
X343167Y220935D01*
X343158Y221001D01*
X343115Y221126D01*
X343079Y221254D01*
X343049Y221314D01*
X343027Y221377D01*
X342959Y221491D01*
X342899Y221609D01*
X342858Y221662D01*
X342823Y221719D01*
X342734Y221817D01*
X342652Y221921D01*
X342601Y221964D01*
X342556Y222014D01*
X342449Y222092D01*
X342347Y222178D01*
X342288Y222210D01*
X342234Y222249D01*
X342114Y222305D01*
X341998Y222368D01*
X341933Y222388D01*
X341873Y222416D01*
X341744Y222446D01*
X341617Y222485D01*
X341550Y222492D01*
X341485Y222507D01*
X341226Y222524D01*
X336578Y222524D01*
X336442Y222511D01*
X336306Y222506D01*
X336245Y222491D01*
X336182Y222484D01*
X336052Y222444D01*
X335919Y222412D01*
X335862Y222385D01*
X335801Y222366D01*
X335682Y222301D01*
X335559Y222243D01*
X335508Y222205D01*
X335452Y222175D01*
X335348Y222087D01*
X335239Y222005D01*
X335180Y221944D01*
X335148Y221917D01*
X335122Y221884D01*
X335059Y221818D01*
X330474Y216382D01*
X330402Y216277D01*
X330322Y216177D01*
X330290Y216113D01*
X330249Y216054D01*
X330199Y215936D01*
X330141Y215822D01*
X330122Y215753D01*
X330094Y215687D01*
X330069Y215562D01*
X330035Y215438D01*
X330030Y215367D01*
X330015Y215296D01*
X330016Y215169D01*
X330007Y215041D01*
X330016Y214943D01*
X330016Y214898D01*
X330024Y214860D01*
X330031Y214783D01*
X339634Y155589D01*
X339647Y155542D01*
X339652Y155494D01*
X339698Y155350D01*
X339737Y155204D01*
X339759Y155161D01*
X339773Y155115D01*
X339847Y154983D01*
X339915Y154848D01*
X339944Y154809D01*
X339968Y154767D01*
X340067Y154653D01*
X340160Y154534D01*
X340196Y154502D01*
X340228Y154466D01*
X340347Y154373D01*
X340462Y154275D01*
X340505Y154251D01*
X340543Y154222D01*
X340678Y154155D01*
X340811Y154082D01*
X340857Y154067D01*
X340900Y154046D01*
X341046Y154007D01*
X341190Y153962D01*
X341238Y153957D01*
X341285Y153944D01*
X341543Y153920D01*
X344569Y153840D01*
X344590Y153842D01*
X344610Y153840D01*
X344869Y153855D01*
G37*
G36*
X469869Y153855D02*
X469869Y153855D01*
X471194Y154021D01*
X471264Y154037D01*
X471336Y154044D01*
X471574Y154108D01*
X471582Y154110D01*
X471584Y154111D01*
X471586Y154111D01*
X472850Y154541D01*
X472916Y154571D01*
X472985Y154592D01*
X473205Y154703D01*
X473213Y154706D01*
X473214Y154708D01*
X473217Y154709D01*
X474368Y155385D01*
X474426Y155427D01*
X474490Y155462D01*
X474684Y155615D01*
X474690Y155620D01*
X474691Y155621D01*
X474693Y155623D01*
X475685Y156517D01*
X475733Y156571D01*
X475788Y156617D01*
X475946Y156806D01*
X475952Y156812D01*
X475953Y156814D01*
X475955Y156816D01*
X476746Y157892D01*
X476782Y157954D01*
X476827Y158011D01*
X476944Y158228D01*
X476948Y158235D01*
X476949Y158236D01*
X476950Y158239D01*
X477508Y159452D01*
X477531Y159520D01*
X477563Y159585D01*
X477634Y159821D01*
X477637Y159829D01*
X477637Y159830D01*
X477638Y159833D01*
X477939Y161134D01*
X477948Y161205D01*
X477967Y161275D01*
X477989Y161521D01*
X477990Y161529D01*
X477990Y161531D01*
X477990Y161534D01*
X478023Y162868D01*
X478017Y162940D01*
X478021Y163012D01*
X477993Y163258D01*
X477993Y163265D01*
X477992Y163267D01*
X477992Y163270D01*
X477756Y164576D01*
X468185Y220870D01*
X468167Y220935D01*
X468158Y221001D01*
X468115Y221126D01*
X468079Y221254D01*
X468049Y221314D01*
X468027Y221377D01*
X467959Y221491D01*
X467899Y221609D01*
X467858Y221662D01*
X467823Y221719D01*
X467734Y221817D01*
X467652Y221921D01*
X467601Y221964D01*
X467556Y222014D01*
X467449Y222092D01*
X467347Y222178D01*
X467288Y222210D01*
X467234Y222249D01*
X467114Y222305D01*
X466998Y222368D01*
X466933Y222388D01*
X466873Y222416D01*
X466744Y222446D01*
X466617Y222485D01*
X466550Y222492D01*
X466485Y222507D01*
X466226Y222524D01*
X461578Y222524D01*
X461442Y222511D01*
X461306Y222506D01*
X461245Y222491D01*
X461182Y222484D01*
X461052Y222444D01*
X460919Y222412D01*
X460862Y222385D01*
X460801Y222366D01*
X460682Y222301D01*
X460559Y222243D01*
X460508Y222205D01*
X460452Y222175D01*
X460348Y222087D01*
X460239Y222005D01*
X460180Y221944D01*
X460148Y221917D01*
X460122Y221884D01*
X460059Y221818D01*
X455474Y216382D01*
X455402Y216277D01*
X455322Y216177D01*
X455290Y216113D01*
X455249Y216054D01*
X455199Y215936D01*
X455141Y215822D01*
X455122Y215753D01*
X455094Y215687D01*
X455069Y215562D01*
X455035Y215438D01*
X455030Y215367D01*
X455015Y215296D01*
X455016Y215169D01*
X455007Y215041D01*
X455016Y214943D01*
X455016Y214898D01*
X455024Y214860D01*
X455031Y214783D01*
X464634Y155589D01*
X464647Y155542D01*
X464652Y155494D01*
X464698Y155350D01*
X464737Y155204D01*
X464759Y155161D01*
X464773Y155115D01*
X464847Y154983D01*
X464915Y154848D01*
X464944Y154809D01*
X464968Y154767D01*
X465067Y154653D01*
X465160Y154534D01*
X465196Y154502D01*
X465228Y154466D01*
X465347Y154373D01*
X465462Y154275D01*
X465505Y154251D01*
X465543Y154222D01*
X465678Y154155D01*
X465811Y154082D01*
X465857Y154067D01*
X465900Y154046D01*
X466046Y154007D01*
X466190Y153962D01*
X466238Y153957D01*
X466285Y153944D01*
X466543Y153920D01*
X469569Y153840D01*
X469590Y153842D01*
X469610Y153840D01*
X469869Y153855D01*
G37*
G36*
X594869Y153855D02*
X594869Y153855D01*
X596194Y154021D01*
X596264Y154037D01*
X596336Y154044D01*
X596574Y154108D01*
X596582Y154110D01*
X596584Y154111D01*
X596586Y154111D01*
X597850Y154541D01*
X597916Y154571D01*
X597985Y154592D01*
X598205Y154703D01*
X598213Y154706D01*
X598214Y154708D01*
X598217Y154709D01*
X599368Y155385D01*
X599426Y155427D01*
X599490Y155462D01*
X599684Y155615D01*
X599690Y155620D01*
X599691Y155621D01*
X599693Y155623D01*
X600685Y156517D01*
X600733Y156571D01*
X600788Y156617D01*
X600946Y156806D01*
X600952Y156812D01*
X600953Y156814D01*
X600955Y156816D01*
X601746Y157892D01*
X601782Y157954D01*
X601827Y158011D01*
X601944Y158228D01*
X601948Y158235D01*
X601949Y158236D01*
X601950Y158239D01*
X602508Y159452D01*
X602531Y159520D01*
X602563Y159585D01*
X602634Y159821D01*
X602637Y159829D01*
X602637Y159830D01*
X602638Y159833D01*
X602939Y161134D01*
X602948Y161205D01*
X602967Y161275D01*
X602989Y161521D01*
X602990Y161529D01*
X602990Y161531D01*
X602990Y161534D01*
X603023Y162868D01*
X603017Y162940D01*
X603021Y163012D01*
X602993Y163258D01*
X602993Y163265D01*
X602992Y163267D01*
X602992Y163270D01*
X602756Y164576D01*
X593185Y220870D01*
X593167Y220935D01*
X593158Y221001D01*
X593115Y221126D01*
X593079Y221254D01*
X593049Y221314D01*
X593027Y221377D01*
X592959Y221491D01*
X592899Y221609D01*
X592858Y221662D01*
X592823Y221719D01*
X592734Y221817D01*
X592652Y221921D01*
X592601Y221964D01*
X592556Y222014D01*
X592449Y222092D01*
X592347Y222178D01*
X592288Y222210D01*
X592234Y222249D01*
X592114Y222305D01*
X591998Y222368D01*
X591933Y222388D01*
X591873Y222416D01*
X591744Y222446D01*
X591617Y222485D01*
X591550Y222492D01*
X591485Y222507D01*
X591226Y222524D01*
X586578Y222524D01*
X586442Y222511D01*
X586306Y222506D01*
X586245Y222491D01*
X586182Y222484D01*
X586052Y222444D01*
X585919Y222412D01*
X585862Y222385D01*
X585801Y222366D01*
X585682Y222301D01*
X585559Y222243D01*
X585508Y222205D01*
X585452Y222175D01*
X585348Y222087D01*
X585239Y222005D01*
X585180Y221944D01*
X585148Y221917D01*
X585122Y221884D01*
X585059Y221818D01*
X580474Y216382D01*
X580402Y216277D01*
X580322Y216177D01*
X580290Y216113D01*
X580249Y216054D01*
X580199Y215936D01*
X580141Y215822D01*
X580122Y215753D01*
X580094Y215687D01*
X580069Y215562D01*
X580035Y215438D01*
X580030Y215367D01*
X580015Y215296D01*
X580016Y215169D01*
X580007Y215041D01*
X580016Y214943D01*
X580016Y214898D01*
X580024Y214860D01*
X580031Y214783D01*
X589634Y155589D01*
X589647Y155542D01*
X589652Y155494D01*
X589698Y155350D01*
X589737Y155204D01*
X589759Y155161D01*
X589773Y155115D01*
X589847Y154983D01*
X589915Y154848D01*
X589944Y154809D01*
X589968Y154767D01*
X590067Y154653D01*
X590160Y154534D01*
X590196Y154502D01*
X590228Y154466D01*
X590347Y154373D01*
X590462Y154275D01*
X590505Y154251D01*
X590543Y154222D01*
X590678Y154155D01*
X590811Y154082D01*
X590857Y154067D01*
X590900Y154046D01*
X591046Y154007D01*
X591190Y153962D01*
X591238Y153957D01*
X591285Y153944D01*
X591543Y153920D01*
X594569Y153840D01*
X594590Y153842D01*
X594610Y153840D01*
X594869Y153855D01*
G37*
G36*
X340254Y225156D02*
X340254Y225156D01*
X340261Y225156D01*
X340452Y225176D01*
X340643Y225196D01*
X340650Y225198D01*
X340657Y225198D01*
X340841Y225257D01*
X341024Y225314D01*
X341030Y225317D01*
X341036Y225319D01*
X341204Y225413D01*
X341373Y225505D01*
X341378Y225510D01*
X341384Y225513D01*
X341528Y225637D01*
X341677Y225763D01*
X341681Y225768D01*
X341686Y225773D01*
X341804Y225924D01*
X341923Y226075D01*
X341926Y226082D01*
X341931Y226087D01*
X342016Y226260D01*
X342102Y226431D01*
X342104Y226438D01*
X342107Y226444D01*
X342157Y226630D01*
X342207Y226815D01*
X342208Y226822D01*
X342209Y226829D01*
X342221Y227021D01*
X342233Y227213D01*
X342232Y227219D01*
X342233Y227226D01*
X342205Y227485D01*
X332175Y284977D01*
X332173Y284984D01*
X332172Y284992D01*
X332109Y285244D01*
X331574Y286904D01*
X331549Y286961D01*
X331532Y287022D01*
X331422Y287257D01*
X330578Y288783D01*
X330542Y288834D01*
X330514Y288890D01*
X330360Y289099D01*
X329238Y290434D01*
X329193Y290478D01*
X329155Y290527D01*
X328964Y290703D01*
X327606Y291797D01*
X327553Y291831D01*
X327506Y291873D01*
X327285Y292008D01*
X325741Y292820D01*
X325683Y292844D01*
X325629Y292875D01*
X325386Y292965D01*
X323715Y293465D01*
X323653Y293477D01*
X323594Y293497D01*
X323338Y293539D01*
X321602Y293708D01*
X321555Y293708D01*
X321410Y293717D01*
X318718Y293717D01*
X318711Y293717D01*
X318703Y293717D01*
X318512Y293697D01*
X318322Y293677D01*
X318315Y293675D01*
X318307Y293674D01*
X318124Y293616D01*
X317941Y293559D01*
X317935Y293556D01*
X317928Y293553D01*
X317761Y293460D01*
X317592Y293368D01*
X317587Y293363D01*
X317580Y293359D01*
X317434Y293234D01*
X317288Y293110D01*
X317284Y293105D01*
X317278Y293100D01*
X317160Y292947D01*
X317042Y292798D01*
X317039Y292791D01*
X317034Y292785D01*
X316949Y292613D01*
X316863Y292442D01*
X316861Y292435D01*
X316857Y292428D01*
X316808Y292243D01*
X316758Y292058D01*
X316757Y292050D01*
X316756Y292043D01*
X316745Y291853D01*
X316732Y291660D01*
X316733Y291653D01*
X316733Y291646D01*
X316761Y291387D01*
X327037Y232671D01*
X327052Y232615D01*
X327060Y232557D01*
X327106Y232424D01*
X327144Y232288D01*
X327171Y232236D01*
X327190Y232181D01*
X327262Y232059D01*
X327326Y231934D01*
X327362Y231888D01*
X327392Y231838D01*
X327559Y231639D01*
X333185Y225768D01*
X333241Y225720D01*
X333290Y225666D01*
X333392Y225591D01*
X333488Y225510D01*
X333552Y225474D01*
X333612Y225431D01*
X333726Y225378D01*
X333837Y225317D01*
X333907Y225295D01*
X333973Y225264D01*
X334096Y225235D01*
X334216Y225197D01*
X334290Y225190D01*
X334361Y225173D01*
X334600Y225157D01*
X334612Y225156D01*
X334616Y225156D01*
X334620Y225156D01*
X340247Y225156D01*
X340254Y225156D01*
G37*
G36*
X465254Y225156D02*
X465254Y225156D01*
X465261Y225156D01*
X465452Y225176D01*
X465643Y225196D01*
X465650Y225198D01*
X465657Y225198D01*
X465841Y225257D01*
X466024Y225314D01*
X466030Y225317D01*
X466036Y225319D01*
X466204Y225413D01*
X466373Y225505D01*
X466378Y225510D01*
X466384Y225513D01*
X466528Y225637D01*
X466677Y225763D01*
X466681Y225768D01*
X466686Y225773D01*
X466804Y225924D01*
X466923Y226075D01*
X466926Y226082D01*
X466931Y226087D01*
X467016Y226260D01*
X467102Y226431D01*
X467104Y226438D01*
X467107Y226444D01*
X467157Y226630D01*
X467207Y226815D01*
X467208Y226822D01*
X467209Y226829D01*
X467221Y227021D01*
X467233Y227213D01*
X467232Y227219D01*
X467233Y227226D01*
X467205Y227485D01*
X457175Y284977D01*
X457173Y284984D01*
X457172Y284992D01*
X457109Y285244D01*
X456574Y286904D01*
X456549Y286961D01*
X456532Y287022D01*
X456422Y287257D01*
X455578Y288783D01*
X455542Y288834D01*
X455514Y288890D01*
X455360Y289099D01*
X454238Y290434D01*
X454193Y290478D01*
X454155Y290527D01*
X453964Y290703D01*
X452606Y291797D01*
X452553Y291831D01*
X452506Y291873D01*
X452285Y292008D01*
X450741Y292820D01*
X450683Y292844D01*
X450629Y292875D01*
X450386Y292965D01*
X448715Y293465D01*
X448653Y293477D01*
X448594Y293497D01*
X448338Y293539D01*
X446602Y293708D01*
X446555Y293708D01*
X446410Y293717D01*
X443718Y293717D01*
X443711Y293717D01*
X443703Y293717D01*
X443512Y293697D01*
X443322Y293677D01*
X443315Y293675D01*
X443307Y293674D01*
X443124Y293616D01*
X442941Y293559D01*
X442935Y293556D01*
X442928Y293553D01*
X442761Y293460D01*
X442592Y293368D01*
X442587Y293363D01*
X442580Y293359D01*
X442434Y293234D01*
X442288Y293110D01*
X442284Y293105D01*
X442278Y293100D01*
X442160Y292947D01*
X442042Y292798D01*
X442039Y292791D01*
X442034Y292785D01*
X441949Y292613D01*
X441863Y292442D01*
X441861Y292435D01*
X441857Y292428D01*
X441808Y292243D01*
X441758Y292058D01*
X441757Y292050D01*
X441756Y292043D01*
X441745Y291853D01*
X441732Y291660D01*
X441733Y291653D01*
X441733Y291646D01*
X441761Y291387D01*
X452037Y232671D01*
X452052Y232615D01*
X452060Y232557D01*
X452106Y232424D01*
X452144Y232288D01*
X452171Y232236D01*
X452190Y232181D01*
X452262Y232059D01*
X452326Y231934D01*
X452362Y231888D01*
X452392Y231838D01*
X452559Y231639D01*
X458185Y225768D01*
X458241Y225720D01*
X458290Y225666D01*
X458392Y225591D01*
X458488Y225510D01*
X458552Y225474D01*
X458612Y225431D01*
X458726Y225378D01*
X458837Y225317D01*
X458907Y225295D01*
X458973Y225264D01*
X459096Y225235D01*
X459216Y225197D01*
X459290Y225190D01*
X459361Y225173D01*
X459600Y225157D01*
X459612Y225156D01*
X459616Y225156D01*
X459620Y225156D01*
X465247Y225156D01*
X465254Y225156D01*
G37*
G36*
X590254Y225156D02*
X590254Y225156D01*
X590261Y225156D01*
X590452Y225176D01*
X590643Y225196D01*
X590650Y225198D01*
X590657Y225198D01*
X590841Y225257D01*
X591024Y225314D01*
X591030Y225317D01*
X591036Y225319D01*
X591204Y225413D01*
X591373Y225505D01*
X591378Y225510D01*
X591384Y225513D01*
X591528Y225637D01*
X591677Y225763D01*
X591681Y225768D01*
X591686Y225773D01*
X591804Y225924D01*
X591923Y226075D01*
X591926Y226082D01*
X591931Y226087D01*
X592016Y226260D01*
X592102Y226431D01*
X592104Y226438D01*
X592107Y226444D01*
X592157Y226630D01*
X592207Y226815D01*
X592208Y226822D01*
X592209Y226829D01*
X592221Y227021D01*
X592233Y227213D01*
X592232Y227219D01*
X592233Y227226D01*
X592205Y227485D01*
X582175Y284977D01*
X582173Y284984D01*
X582172Y284992D01*
X582109Y285244D01*
X581574Y286904D01*
X581549Y286961D01*
X581532Y287022D01*
X581422Y287257D01*
X580578Y288783D01*
X580542Y288834D01*
X580514Y288890D01*
X580360Y289099D01*
X579238Y290434D01*
X579193Y290478D01*
X579155Y290527D01*
X578964Y290703D01*
X577606Y291797D01*
X577553Y291831D01*
X577506Y291873D01*
X577285Y292008D01*
X575741Y292820D01*
X575683Y292844D01*
X575629Y292875D01*
X575386Y292965D01*
X573715Y293465D01*
X573653Y293477D01*
X573594Y293497D01*
X573338Y293539D01*
X571602Y293708D01*
X571555Y293708D01*
X571410Y293717D01*
X568718Y293717D01*
X568711Y293717D01*
X568703Y293717D01*
X568512Y293697D01*
X568322Y293677D01*
X568315Y293675D01*
X568307Y293674D01*
X568124Y293616D01*
X567941Y293559D01*
X567935Y293556D01*
X567928Y293553D01*
X567761Y293460D01*
X567592Y293368D01*
X567587Y293363D01*
X567580Y293359D01*
X567434Y293234D01*
X567288Y293110D01*
X567284Y293105D01*
X567278Y293100D01*
X567160Y292947D01*
X567042Y292798D01*
X567039Y292791D01*
X567034Y292785D01*
X566949Y292613D01*
X566863Y292442D01*
X566861Y292435D01*
X566857Y292428D01*
X566808Y292243D01*
X566758Y292058D01*
X566757Y292050D01*
X566756Y292043D01*
X566745Y291853D01*
X566732Y291660D01*
X566733Y291653D01*
X566733Y291646D01*
X566761Y291387D01*
X577037Y232671D01*
X577052Y232615D01*
X577060Y232557D01*
X577106Y232424D01*
X577144Y232288D01*
X577171Y232236D01*
X577190Y232181D01*
X577262Y232059D01*
X577326Y231934D01*
X577362Y231888D01*
X577392Y231838D01*
X577559Y231639D01*
X583185Y225768D01*
X583241Y225720D01*
X583290Y225666D01*
X583392Y225591D01*
X583488Y225510D01*
X583552Y225474D01*
X583612Y225431D01*
X583726Y225378D01*
X583837Y225317D01*
X583907Y225295D01*
X583973Y225264D01*
X584096Y225235D01*
X584216Y225197D01*
X584290Y225190D01*
X584361Y225173D01*
X584600Y225157D01*
X584612Y225156D01*
X584616Y225156D01*
X584620Y225156D01*
X590247Y225156D01*
X590254Y225156D01*
G37*
G36*
X396808Y225169D02*
X396808Y225169D01*
X396944Y225174D01*
X397005Y225189D01*
X397068Y225196D01*
X397198Y225236D01*
X397331Y225268D01*
X397388Y225295D01*
X397449Y225314D01*
X397568Y225379D01*
X397691Y225437D01*
X397742Y225475D01*
X397798Y225505D01*
X397902Y225593D01*
X398011Y225675D01*
X398070Y225736D01*
X398102Y225763D01*
X398128Y225796D01*
X398191Y225862D01*
X402776Y231298D01*
X402856Y231414D01*
X402942Y231526D01*
X402968Y231578D01*
X403001Y231626D01*
X403056Y231756D01*
X403118Y231883D01*
X403133Y231939D01*
X403156Y231993D01*
X403184Y232132D01*
X403220Y232268D01*
X403223Y232326D01*
X403235Y232384D01*
X403234Y232525D01*
X403242Y232666D01*
X403234Y232743D01*
X403234Y232782D01*
X403225Y232826D01*
X403214Y232924D01*
X392878Y291629D01*
X392869Y291662D01*
X392865Y291697D01*
X392815Y291853D01*
X392770Y292012D01*
X392754Y292043D01*
X392744Y292076D01*
X392663Y292220D01*
X392588Y292366D01*
X392566Y292393D01*
X392549Y292424D01*
X392442Y292548D01*
X392339Y292677D01*
X392312Y292699D01*
X392289Y292725D01*
X392159Y292826D01*
X392033Y292931D01*
X392002Y292948D01*
X391974Y292969D01*
X391827Y293042D01*
X391682Y293120D01*
X391648Y293130D01*
X391617Y293145D01*
X391458Y293187D01*
X391301Y293235D01*
X391266Y293238D01*
X391232Y293247D01*
X390974Y293271D01*
X387948Y293351D01*
X387927Y293349D01*
X387907Y293351D01*
X387648Y293336D01*
X386323Y293170D01*
X386253Y293154D01*
X386181Y293147D01*
X385943Y293083D01*
X385935Y293081D01*
X385933Y293081D01*
X385931Y293080D01*
X384666Y292650D01*
X384601Y292620D01*
X384532Y292599D01*
X384311Y292488D01*
X384304Y292485D01*
X384303Y292484D01*
X384300Y292483D01*
X383149Y291807D01*
X383090Y291764D01*
X383027Y291730D01*
X382834Y291577D01*
X382827Y291572D01*
X382826Y291570D01*
X382823Y291569D01*
X381832Y290674D01*
X381784Y290621D01*
X381729Y290574D01*
X381570Y290386D01*
X381564Y290379D01*
X381563Y290378D01*
X381562Y290376D01*
X380771Y289300D01*
X380734Y289238D01*
X380690Y289181D01*
X380572Y288963D01*
X380568Y288957D01*
X380568Y288955D01*
X380566Y288953D01*
X380009Y287740D01*
X379985Y287671D01*
X379953Y287607D01*
X379882Y287370D01*
X379879Y287363D01*
X379879Y287361D01*
X379878Y287358D01*
X379577Y286057D01*
X379568Y285986D01*
X379550Y285916D01*
X379527Y285670D01*
X379526Y285662D01*
X379526Y285661D01*
X379526Y285658D01*
X379493Y284323D01*
X379499Y284251D01*
X379495Y284179D01*
X379523Y283933D01*
X379523Y283926D01*
X379524Y283924D01*
X379524Y283921D01*
X379761Y282607D01*
X379762Y282604D01*
X379763Y282599D01*
X390070Y226782D01*
X390085Y226731D01*
X390092Y226679D01*
X390140Y226541D01*
X390181Y226400D01*
X390206Y226353D01*
X390223Y226303D01*
X390298Y226177D01*
X390366Y226047D01*
X390400Y226006D01*
X390427Y225961D01*
X390525Y225852D01*
X390618Y225739D01*
X390659Y225705D01*
X390694Y225666D01*
X390813Y225579D01*
X390926Y225487D01*
X390973Y225462D01*
X391016Y225431D01*
X391149Y225369D01*
X391278Y225301D01*
X391329Y225286D01*
X391377Y225264D01*
X391520Y225230D01*
X391661Y225189D01*
X391713Y225185D01*
X391765Y225173D01*
X392024Y225156D01*
X396672Y225156D01*
X396808Y225169D01*
G37*
G36*
X271808Y225169D02*
X271808Y225169D01*
X271944Y225174D01*
X272005Y225189D01*
X272068Y225196D01*
X272198Y225236D01*
X272331Y225268D01*
X272388Y225295D01*
X272449Y225314D01*
X272568Y225379D01*
X272691Y225437D01*
X272742Y225475D01*
X272798Y225505D01*
X272902Y225593D01*
X273011Y225675D01*
X273070Y225736D01*
X273102Y225763D01*
X273128Y225796D01*
X273191Y225862D01*
X277776Y231298D01*
X277856Y231414D01*
X277942Y231526D01*
X277968Y231578D01*
X278001Y231626D01*
X278056Y231756D01*
X278118Y231883D01*
X278133Y231939D01*
X278156Y231993D01*
X278184Y232132D01*
X278220Y232268D01*
X278223Y232326D01*
X278235Y232384D01*
X278234Y232525D01*
X278242Y232666D01*
X278234Y232743D01*
X278234Y232782D01*
X278225Y232826D01*
X278214Y232924D01*
X267878Y291629D01*
X267869Y291662D01*
X267865Y291697D01*
X267815Y291853D01*
X267770Y292012D01*
X267754Y292043D01*
X267744Y292076D01*
X267663Y292220D01*
X267588Y292366D01*
X267566Y292393D01*
X267549Y292424D01*
X267442Y292548D01*
X267339Y292677D01*
X267312Y292699D01*
X267289Y292725D01*
X267159Y292826D01*
X267033Y292931D01*
X267002Y292948D01*
X266974Y292969D01*
X266827Y293042D01*
X266682Y293120D01*
X266648Y293130D01*
X266617Y293145D01*
X266458Y293187D01*
X266301Y293235D01*
X266266Y293238D01*
X266232Y293247D01*
X265974Y293271D01*
X262948Y293351D01*
X262927Y293349D01*
X262907Y293351D01*
X262648Y293336D01*
X261323Y293170D01*
X261253Y293154D01*
X261181Y293147D01*
X260943Y293083D01*
X260935Y293081D01*
X260933Y293081D01*
X260931Y293080D01*
X259666Y292650D01*
X259601Y292620D01*
X259532Y292599D01*
X259311Y292488D01*
X259304Y292485D01*
X259303Y292484D01*
X259300Y292483D01*
X258149Y291807D01*
X258090Y291764D01*
X258027Y291730D01*
X257834Y291577D01*
X257827Y291572D01*
X257826Y291570D01*
X257823Y291569D01*
X256832Y290674D01*
X256784Y290621D01*
X256729Y290574D01*
X256570Y290386D01*
X256564Y290379D01*
X256563Y290378D01*
X256562Y290376D01*
X255771Y289300D01*
X255734Y289238D01*
X255690Y289181D01*
X255572Y288963D01*
X255568Y288957D01*
X255568Y288955D01*
X255566Y288953D01*
X255009Y287740D01*
X254985Y287671D01*
X254953Y287607D01*
X254882Y287370D01*
X254879Y287363D01*
X254879Y287361D01*
X254878Y287358D01*
X254577Y286057D01*
X254568Y285986D01*
X254550Y285916D01*
X254527Y285670D01*
X254526Y285662D01*
X254526Y285661D01*
X254526Y285658D01*
X254493Y284323D01*
X254499Y284251D01*
X254495Y284179D01*
X254523Y283933D01*
X254523Y283926D01*
X254524Y283924D01*
X254524Y283921D01*
X254761Y282607D01*
X254762Y282604D01*
X254763Y282599D01*
X265070Y226782D01*
X265085Y226731D01*
X265092Y226679D01*
X265140Y226541D01*
X265181Y226400D01*
X265206Y226353D01*
X265223Y226303D01*
X265298Y226177D01*
X265366Y226047D01*
X265400Y226006D01*
X265427Y225961D01*
X265525Y225852D01*
X265618Y225739D01*
X265659Y225705D01*
X265694Y225666D01*
X265813Y225579D01*
X265926Y225487D01*
X265973Y225462D01*
X266016Y225431D01*
X266149Y225369D01*
X266278Y225301D01*
X266329Y225286D01*
X266377Y225264D01*
X266520Y225230D01*
X266661Y225189D01*
X266713Y225185D01*
X266765Y225173D01*
X267024Y225156D01*
X271672Y225156D01*
X271808Y225169D01*
G37*
G36*
X521808Y225169D02*
X521808Y225169D01*
X521944Y225174D01*
X522005Y225189D01*
X522068Y225196D01*
X522198Y225236D01*
X522331Y225268D01*
X522388Y225295D01*
X522449Y225314D01*
X522568Y225379D01*
X522691Y225437D01*
X522742Y225475D01*
X522798Y225505D01*
X522902Y225593D01*
X523011Y225675D01*
X523070Y225736D01*
X523102Y225763D01*
X523128Y225796D01*
X523191Y225862D01*
X527776Y231298D01*
X527856Y231414D01*
X527942Y231526D01*
X527968Y231578D01*
X528001Y231626D01*
X528056Y231756D01*
X528118Y231883D01*
X528133Y231939D01*
X528156Y231993D01*
X528184Y232132D01*
X528220Y232268D01*
X528223Y232326D01*
X528235Y232384D01*
X528234Y232525D01*
X528242Y232666D01*
X528234Y232743D01*
X528234Y232782D01*
X528225Y232826D01*
X528214Y232924D01*
X517878Y291629D01*
X517869Y291662D01*
X517865Y291697D01*
X517815Y291853D01*
X517770Y292012D01*
X517754Y292043D01*
X517744Y292076D01*
X517663Y292220D01*
X517588Y292366D01*
X517566Y292393D01*
X517549Y292424D01*
X517442Y292548D01*
X517339Y292677D01*
X517312Y292699D01*
X517289Y292725D01*
X517159Y292826D01*
X517033Y292931D01*
X517002Y292948D01*
X516974Y292969D01*
X516827Y293042D01*
X516682Y293120D01*
X516648Y293130D01*
X516617Y293145D01*
X516458Y293187D01*
X516301Y293235D01*
X516266Y293238D01*
X516232Y293247D01*
X515974Y293271D01*
X512948Y293351D01*
X512927Y293349D01*
X512907Y293351D01*
X512648Y293336D01*
X511323Y293170D01*
X511253Y293154D01*
X511181Y293147D01*
X510943Y293083D01*
X510935Y293081D01*
X510933Y293081D01*
X510931Y293080D01*
X509666Y292650D01*
X509601Y292620D01*
X509532Y292599D01*
X509311Y292488D01*
X509304Y292485D01*
X509303Y292484D01*
X509300Y292483D01*
X508149Y291807D01*
X508090Y291764D01*
X508027Y291730D01*
X507834Y291577D01*
X507827Y291572D01*
X507826Y291570D01*
X507823Y291569D01*
X506832Y290674D01*
X506784Y290621D01*
X506729Y290574D01*
X506570Y290386D01*
X506564Y290379D01*
X506563Y290378D01*
X506562Y290376D01*
X505771Y289300D01*
X505734Y289238D01*
X505690Y289181D01*
X505572Y288963D01*
X505568Y288957D01*
X505568Y288955D01*
X505566Y288953D01*
X505009Y287740D01*
X504985Y287671D01*
X504953Y287607D01*
X504882Y287370D01*
X504879Y287363D01*
X504879Y287361D01*
X504878Y287358D01*
X504577Y286057D01*
X504568Y285986D01*
X504550Y285916D01*
X504527Y285670D01*
X504526Y285662D01*
X504526Y285661D01*
X504526Y285658D01*
X504493Y284323D01*
X504499Y284251D01*
X504495Y284179D01*
X504523Y283933D01*
X504523Y283926D01*
X504524Y283924D01*
X504524Y283921D01*
X504761Y282607D01*
X504762Y282604D01*
X504763Y282599D01*
X515070Y226782D01*
X515085Y226731D01*
X515092Y226679D01*
X515140Y226541D01*
X515181Y226400D01*
X515206Y226353D01*
X515223Y226303D01*
X515298Y226177D01*
X515366Y226047D01*
X515400Y226006D01*
X515427Y225961D01*
X515525Y225852D01*
X515618Y225739D01*
X515659Y225705D01*
X515694Y225666D01*
X515813Y225579D01*
X515926Y225487D01*
X515973Y225462D01*
X516016Y225431D01*
X516149Y225369D01*
X516278Y225301D01*
X516329Y225286D01*
X516377Y225264D01*
X516520Y225230D01*
X516661Y225189D01*
X516713Y225185D01*
X516765Y225173D01*
X517024Y225156D01*
X521672Y225156D01*
X521808Y225169D01*
G37*
G36*
X288802Y153474D02*
X288802Y153474D01*
X288805Y153474D01*
X289001Y153494D01*
X289194Y153514D01*
X289198Y153515D01*
X289201Y153515D01*
X289388Y153574D01*
X289575Y153632D01*
X289578Y153633D01*
X289581Y153635D01*
X289750Y153728D01*
X289924Y153823D01*
X289926Y153826D01*
X289930Y153827D01*
X290074Y153950D01*
X290228Y154081D01*
X290230Y154083D01*
X290233Y154086D01*
X290350Y154236D01*
X290474Y154393D01*
X290476Y154397D01*
X290478Y154399D01*
X290564Y154572D01*
X290653Y154749D01*
X290654Y154752D01*
X290656Y154756D01*
X290706Y154943D01*
X290758Y155133D01*
X290758Y155137D01*
X290759Y155140D01*
X290771Y155336D01*
X290784Y155531D01*
X290784Y155534D01*
X290784Y155538D01*
X290757Y155796D01*
X280971Y213044D01*
X280949Y213124D01*
X280936Y213207D01*
X280896Y213316D01*
X280865Y213428D01*
X280827Y213502D01*
X280798Y213580D01*
X280737Y213679D01*
X280684Y213783D01*
X280632Y213848D01*
X280588Y213919D01*
X280457Y214068D01*
X280437Y214095D01*
X280428Y214101D01*
X280417Y214114D01*
X275035Y219496D01*
X274995Y219529D01*
X274960Y219568D01*
X274841Y219655D01*
X274727Y219748D01*
X274681Y219773D01*
X274638Y219803D01*
X274505Y219865D01*
X274374Y219934D01*
X274324Y219948D01*
X274277Y219970D01*
X274134Y220004D01*
X273992Y220045D01*
X273940Y220049D01*
X273889Y220061D01*
X273630Y220078D01*
X268003Y220078D01*
X267673Y220045D01*
X267607Y220038D01*
X267362Y219962D01*
X267226Y219920D01*
X267080Y219840D01*
X266877Y219729D01*
X266603Y219496D01*
X266573Y219471D01*
X266461Y219329D01*
X266327Y219159D01*
X266148Y218803D01*
X266077Y218543D01*
X266043Y218419D01*
X266017Y218021D01*
X266043Y217763D01*
X275339Y162228D01*
X275343Y162214D01*
X275344Y162199D01*
X275407Y161947D01*
X275942Y160287D01*
X275967Y160230D01*
X275984Y160169D01*
X276094Y159934D01*
X276938Y158408D01*
X276974Y158357D01*
X277003Y158301D01*
X277156Y158091D01*
X278278Y156757D01*
X278323Y156713D01*
X278362Y156663D01*
X278553Y156488D01*
X279911Y155394D01*
X279963Y155360D01*
X280011Y155318D01*
X280232Y155183D01*
X281775Y154371D01*
X281834Y154347D01*
X281888Y154316D01*
X282131Y154225D01*
X283802Y153726D01*
X283864Y153714D01*
X283923Y153694D01*
X284179Y153652D01*
X285915Y153483D01*
X285962Y153483D01*
X286107Y153474D01*
X288798Y153474D01*
X288802Y153474D01*
G37*
G36*
X413802Y153474D02*
X413802Y153474D01*
X413805Y153474D01*
X414001Y153494D01*
X414194Y153514D01*
X414198Y153515D01*
X414201Y153515D01*
X414388Y153574D01*
X414575Y153632D01*
X414578Y153633D01*
X414581Y153635D01*
X414750Y153728D01*
X414924Y153823D01*
X414926Y153826D01*
X414930Y153827D01*
X415074Y153950D01*
X415228Y154081D01*
X415230Y154083D01*
X415233Y154086D01*
X415350Y154236D01*
X415474Y154393D01*
X415476Y154397D01*
X415478Y154399D01*
X415564Y154572D01*
X415653Y154749D01*
X415654Y154752D01*
X415656Y154756D01*
X415706Y154943D01*
X415758Y155133D01*
X415758Y155137D01*
X415759Y155140D01*
X415771Y155336D01*
X415784Y155531D01*
X415784Y155534D01*
X415784Y155538D01*
X415757Y155796D01*
X405971Y213044D01*
X405949Y213124D01*
X405936Y213207D01*
X405896Y213316D01*
X405865Y213428D01*
X405827Y213502D01*
X405798Y213580D01*
X405737Y213679D01*
X405684Y213783D01*
X405632Y213848D01*
X405588Y213919D01*
X405457Y214068D01*
X405437Y214095D01*
X405428Y214101D01*
X405417Y214114D01*
X400035Y219496D01*
X399995Y219529D01*
X399960Y219568D01*
X399841Y219655D01*
X399727Y219748D01*
X399681Y219773D01*
X399638Y219803D01*
X399505Y219865D01*
X399374Y219934D01*
X399324Y219948D01*
X399277Y219970D01*
X399134Y220004D01*
X398992Y220045D01*
X398940Y220049D01*
X398889Y220061D01*
X398630Y220078D01*
X393003Y220078D01*
X392673Y220045D01*
X392607Y220038D01*
X392362Y219962D01*
X392226Y219920D01*
X392080Y219840D01*
X391877Y219729D01*
X391603Y219496D01*
X391573Y219471D01*
X391461Y219329D01*
X391327Y219159D01*
X391148Y218803D01*
X391077Y218543D01*
X391043Y218419D01*
X391017Y218021D01*
X391043Y217763D01*
X400339Y162228D01*
X400343Y162214D01*
X400344Y162199D01*
X400407Y161947D01*
X400942Y160287D01*
X400967Y160230D01*
X400984Y160169D01*
X401094Y159934D01*
X401938Y158408D01*
X401974Y158357D01*
X402003Y158301D01*
X402156Y158091D01*
X403278Y156757D01*
X403323Y156713D01*
X403362Y156663D01*
X403553Y156488D01*
X404911Y155394D01*
X404963Y155360D01*
X405011Y155318D01*
X405232Y155183D01*
X406775Y154371D01*
X406834Y154347D01*
X406888Y154316D01*
X407131Y154225D01*
X408802Y153726D01*
X408864Y153714D01*
X408923Y153694D01*
X409179Y153652D01*
X410915Y153483D01*
X410962Y153483D01*
X411107Y153474D01*
X413798Y153474D01*
X413802Y153474D01*
G37*
G36*
X538802Y153474D02*
X538802Y153474D01*
X538805Y153474D01*
X539001Y153494D01*
X539194Y153514D01*
X539198Y153515D01*
X539201Y153515D01*
X539388Y153574D01*
X539575Y153632D01*
X539578Y153633D01*
X539581Y153635D01*
X539750Y153728D01*
X539924Y153823D01*
X539926Y153826D01*
X539930Y153827D01*
X540074Y153950D01*
X540228Y154081D01*
X540230Y154083D01*
X540233Y154086D01*
X540350Y154236D01*
X540474Y154393D01*
X540476Y154397D01*
X540478Y154399D01*
X540564Y154572D01*
X540653Y154749D01*
X540654Y154752D01*
X540656Y154756D01*
X540706Y154943D01*
X540758Y155133D01*
X540758Y155137D01*
X540759Y155140D01*
X540771Y155336D01*
X540784Y155531D01*
X540784Y155534D01*
X540784Y155538D01*
X540757Y155796D01*
X530971Y213044D01*
X530949Y213124D01*
X530936Y213207D01*
X530896Y213316D01*
X530865Y213428D01*
X530827Y213502D01*
X530798Y213580D01*
X530737Y213679D01*
X530684Y213783D01*
X530632Y213848D01*
X530588Y213919D01*
X530457Y214068D01*
X530437Y214095D01*
X530428Y214101D01*
X530417Y214114D01*
X525035Y219496D01*
X524995Y219529D01*
X524960Y219568D01*
X524841Y219655D01*
X524727Y219748D01*
X524681Y219773D01*
X524638Y219803D01*
X524505Y219865D01*
X524374Y219934D01*
X524324Y219948D01*
X524277Y219970D01*
X524134Y220004D01*
X523992Y220045D01*
X523940Y220049D01*
X523889Y220061D01*
X523630Y220078D01*
X518003Y220078D01*
X517673Y220045D01*
X517607Y220038D01*
X517362Y219962D01*
X517226Y219920D01*
X517080Y219840D01*
X516877Y219729D01*
X516603Y219496D01*
X516573Y219471D01*
X516461Y219329D01*
X516327Y219159D01*
X516148Y218803D01*
X516077Y218543D01*
X516043Y218419D01*
X516017Y218021D01*
X516043Y217763D01*
X525339Y162228D01*
X525343Y162214D01*
X525344Y162199D01*
X525407Y161947D01*
X525942Y160287D01*
X525967Y160230D01*
X525984Y160169D01*
X526094Y159934D01*
X526938Y158408D01*
X526974Y158357D01*
X527003Y158301D01*
X527156Y158091D01*
X528278Y156757D01*
X528323Y156713D01*
X528362Y156663D01*
X528553Y156488D01*
X529911Y155394D01*
X529963Y155360D01*
X530011Y155318D01*
X530232Y155183D01*
X531775Y154371D01*
X531834Y154347D01*
X531888Y154316D01*
X532131Y154225D01*
X533802Y153726D01*
X533864Y153714D01*
X533923Y153694D01*
X534179Y153652D01*
X535915Y153483D01*
X535962Y153483D01*
X536107Y153474D01*
X538798Y153474D01*
X538802Y153474D01*
G37*
G36*
X451354Y216843D02*
X451354Y216843D01*
X451406Y216841D01*
X451552Y216863D01*
X451698Y216878D01*
X451748Y216893D01*
X451800Y216901D01*
X451938Y216952D01*
X452079Y216996D01*
X452124Y217021D01*
X452173Y217039D01*
X452298Y217116D01*
X452428Y217187D01*
X452468Y217221D01*
X452512Y217249D01*
X452707Y217420D01*
X456377Y221090D01*
X456399Y221117D01*
X456426Y221140D01*
X456525Y221271D01*
X456629Y221398D01*
X456645Y221429D01*
X456667Y221457D01*
X456738Y221605D01*
X456815Y221751D01*
X456824Y221784D01*
X456840Y221816D01*
X456880Y221975D01*
X456926Y222133D01*
X456929Y222168D01*
X456937Y222202D01*
X456945Y222366D01*
X456959Y222530D01*
X456955Y222564D01*
X456957Y222599D01*
X456932Y222762D01*
X456912Y222925D01*
X456901Y222958D01*
X456896Y222993D01*
X456839Y223147D01*
X456787Y223303D01*
X456770Y223334D01*
X456758Y223366D01*
X456671Y223506D01*
X456590Y223649D01*
X456567Y223675D01*
X456548Y223705D01*
X456377Y223900D01*
X450261Y230016D01*
X450221Y230049D01*
X450186Y230088D01*
X450067Y230175D01*
X449953Y230268D01*
X449907Y230293D01*
X449864Y230323D01*
X449731Y230385D01*
X449600Y230454D01*
X449550Y230468D01*
X449503Y230490D01*
X449360Y230524D01*
X449218Y230565D01*
X449166Y230569D01*
X449115Y230581D01*
X448856Y230598D01*
X406703Y230598D01*
X406686Y230597D01*
X406669Y230598D01*
X406488Y230577D01*
X406307Y230558D01*
X406291Y230553D01*
X406274Y230551D01*
X406100Y230494D01*
X405926Y230440D01*
X405912Y230432D01*
X405896Y230427D01*
X405738Y230337D01*
X405577Y230249D01*
X405564Y230238D01*
X405550Y230229D01*
X405413Y230110D01*
X405273Y229991D01*
X405263Y229978D01*
X405250Y229967D01*
X405086Y229766D01*
X401416Y224628D01*
X401394Y224590D01*
X401367Y224556D01*
X401295Y224418D01*
X401218Y224282D01*
X401204Y224241D01*
X401185Y224203D01*
X401142Y224052D01*
X401093Y223904D01*
X401088Y223861D01*
X401076Y223819D01*
X401065Y223664D01*
X401046Y223509D01*
X401050Y223465D01*
X401046Y223422D01*
X401066Y223268D01*
X401079Y223112D01*
X401091Y223070D01*
X401096Y223027D01*
X401146Y222880D01*
X401190Y222730D01*
X401210Y222691D01*
X401224Y222650D01*
X401303Y222515D01*
X401375Y222377D01*
X401403Y222343D01*
X401425Y222306D01*
X401590Y222106D01*
X405994Y217458D01*
X406054Y217407D01*
X406107Y217348D01*
X406205Y217277D01*
X406296Y217198D01*
X406365Y217159D01*
X406429Y217113D01*
X406538Y217062D01*
X406643Y217003D01*
X406719Y216979D01*
X406790Y216946D01*
X406907Y216918D01*
X407022Y216881D01*
X407101Y216873D01*
X407178Y216855D01*
X407393Y216841D01*
X407418Y216838D01*
X407425Y216839D01*
X407437Y216838D01*
X451302Y216838D01*
X451354Y216843D01*
G37*
G36*
X576354Y216843D02*
X576354Y216843D01*
X576406Y216841D01*
X576552Y216863D01*
X576698Y216878D01*
X576748Y216893D01*
X576800Y216901D01*
X576938Y216952D01*
X577079Y216996D01*
X577124Y217021D01*
X577173Y217039D01*
X577298Y217116D01*
X577428Y217187D01*
X577468Y217221D01*
X577512Y217249D01*
X577707Y217420D01*
X581377Y221090D01*
X581399Y221117D01*
X581426Y221140D01*
X581525Y221271D01*
X581629Y221398D01*
X581645Y221429D01*
X581667Y221457D01*
X581738Y221605D01*
X581815Y221751D01*
X581824Y221784D01*
X581840Y221816D01*
X581880Y221975D01*
X581926Y222133D01*
X581929Y222168D01*
X581937Y222202D01*
X581945Y222366D01*
X581959Y222530D01*
X581955Y222564D01*
X581957Y222599D01*
X581932Y222762D01*
X581912Y222925D01*
X581901Y222958D01*
X581896Y222993D01*
X581839Y223147D01*
X581787Y223303D01*
X581770Y223334D01*
X581758Y223366D01*
X581671Y223506D01*
X581590Y223649D01*
X581567Y223675D01*
X581548Y223705D01*
X581377Y223900D01*
X575261Y230016D01*
X575221Y230049D01*
X575186Y230088D01*
X575067Y230175D01*
X574953Y230268D01*
X574907Y230293D01*
X574864Y230323D01*
X574731Y230385D01*
X574600Y230454D01*
X574550Y230468D01*
X574503Y230490D01*
X574360Y230524D01*
X574218Y230565D01*
X574166Y230569D01*
X574115Y230581D01*
X573856Y230598D01*
X531703Y230598D01*
X531686Y230597D01*
X531669Y230598D01*
X531488Y230577D01*
X531307Y230558D01*
X531291Y230553D01*
X531274Y230551D01*
X531100Y230494D01*
X530926Y230440D01*
X530912Y230432D01*
X530896Y230427D01*
X530738Y230337D01*
X530577Y230249D01*
X530564Y230238D01*
X530550Y230229D01*
X530413Y230110D01*
X530273Y229991D01*
X530263Y229978D01*
X530250Y229967D01*
X530086Y229766D01*
X526416Y224628D01*
X526394Y224590D01*
X526367Y224556D01*
X526295Y224418D01*
X526218Y224282D01*
X526204Y224241D01*
X526185Y224203D01*
X526142Y224052D01*
X526093Y223904D01*
X526088Y223861D01*
X526076Y223819D01*
X526065Y223664D01*
X526046Y223509D01*
X526050Y223465D01*
X526046Y223422D01*
X526066Y223268D01*
X526079Y223112D01*
X526091Y223070D01*
X526096Y223027D01*
X526146Y222880D01*
X526190Y222730D01*
X526210Y222691D01*
X526224Y222650D01*
X526303Y222515D01*
X526375Y222377D01*
X526403Y222343D01*
X526425Y222306D01*
X526590Y222106D01*
X530994Y217458D01*
X531054Y217407D01*
X531107Y217348D01*
X531205Y217277D01*
X531296Y217198D01*
X531365Y217159D01*
X531429Y217113D01*
X531538Y217062D01*
X531643Y217003D01*
X531719Y216979D01*
X531790Y216946D01*
X531907Y216918D01*
X532022Y216881D01*
X532101Y216873D01*
X532178Y216855D01*
X532393Y216841D01*
X532418Y216838D01*
X532425Y216839D01*
X532437Y216838D01*
X576302Y216838D01*
X576354Y216843D01*
G37*
G36*
X326354Y216843D02*
X326354Y216843D01*
X326406Y216841D01*
X326552Y216863D01*
X326698Y216878D01*
X326748Y216893D01*
X326800Y216901D01*
X326938Y216952D01*
X327079Y216996D01*
X327124Y217021D01*
X327173Y217039D01*
X327298Y217116D01*
X327428Y217187D01*
X327468Y217221D01*
X327512Y217249D01*
X327707Y217420D01*
X331377Y221090D01*
X331399Y221117D01*
X331426Y221140D01*
X331525Y221271D01*
X331629Y221398D01*
X331645Y221429D01*
X331667Y221457D01*
X331738Y221605D01*
X331815Y221751D01*
X331824Y221784D01*
X331840Y221816D01*
X331880Y221975D01*
X331926Y222133D01*
X331929Y222168D01*
X331937Y222202D01*
X331945Y222366D01*
X331959Y222530D01*
X331955Y222564D01*
X331957Y222599D01*
X331932Y222762D01*
X331912Y222925D01*
X331901Y222958D01*
X331896Y222993D01*
X331839Y223147D01*
X331787Y223303D01*
X331770Y223334D01*
X331758Y223366D01*
X331671Y223506D01*
X331590Y223649D01*
X331567Y223675D01*
X331548Y223705D01*
X331377Y223900D01*
X325261Y230016D01*
X325221Y230049D01*
X325186Y230088D01*
X325067Y230175D01*
X324953Y230268D01*
X324907Y230293D01*
X324864Y230323D01*
X324731Y230385D01*
X324600Y230454D01*
X324550Y230468D01*
X324503Y230490D01*
X324360Y230524D01*
X324218Y230565D01*
X324166Y230569D01*
X324115Y230581D01*
X323856Y230598D01*
X281703Y230598D01*
X281686Y230597D01*
X281669Y230598D01*
X281488Y230577D01*
X281307Y230558D01*
X281291Y230553D01*
X281274Y230551D01*
X281100Y230494D01*
X280926Y230440D01*
X280912Y230432D01*
X280896Y230427D01*
X280738Y230337D01*
X280577Y230249D01*
X280564Y230238D01*
X280550Y230229D01*
X280413Y230110D01*
X280273Y229991D01*
X280263Y229978D01*
X280250Y229967D01*
X280086Y229766D01*
X276416Y224628D01*
X276394Y224590D01*
X276367Y224556D01*
X276295Y224418D01*
X276218Y224282D01*
X276204Y224241D01*
X276185Y224203D01*
X276142Y224052D01*
X276093Y223904D01*
X276088Y223861D01*
X276076Y223819D01*
X276065Y223664D01*
X276046Y223509D01*
X276050Y223465D01*
X276046Y223422D01*
X276066Y223268D01*
X276079Y223112D01*
X276091Y223070D01*
X276096Y223027D01*
X276146Y222880D01*
X276190Y222730D01*
X276210Y222691D01*
X276224Y222650D01*
X276303Y222515D01*
X276375Y222377D01*
X276403Y222343D01*
X276425Y222306D01*
X276590Y222106D01*
X280994Y217458D01*
X281054Y217407D01*
X281107Y217348D01*
X281205Y217277D01*
X281296Y217198D01*
X281365Y217159D01*
X281429Y217113D01*
X281538Y217062D01*
X281643Y217003D01*
X281719Y216979D01*
X281790Y216946D01*
X281907Y216918D01*
X282022Y216881D01*
X282101Y216873D01*
X282178Y216855D01*
X282393Y216841D01*
X282418Y216838D01*
X282425Y216839D01*
X282437Y216838D01*
X326302Y216838D01*
X326354Y216843D01*
G37*
G36*
X439077Y279958D02*
X439077Y279958D01*
X439085Y279957D01*
X439276Y279978D01*
X439466Y279997D01*
X439473Y279999D01*
X439481Y280000D01*
X439664Y280058D01*
X439847Y280115D01*
X439853Y280118D01*
X439860Y280121D01*
X440026Y280213D01*
X440196Y280306D01*
X440201Y280311D01*
X440208Y280315D01*
X440352Y280439D01*
X440500Y280564D01*
X440504Y280569D01*
X440510Y280574D01*
X440628Y280726D01*
X440746Y280876D01*
X440749Y280883D01*
X440754Y280889D01*
X440839Y281060D01*
X440925Y281232D01*
X440927Y281239D01*
X440931Y281246D01*
X440979Y281429D01*
X441030Y281616D01*
X441031Y281624D01*
X441032Y281631D01*
X441044Y281822D01*
X441056Y282014D01*
X441055Y282021D01*
X441055Y282028D01*
X441028Y282286D01*
X439316Y292072D01*
X439299Y292133D01*
X439290Y292194D01*
X439245Y292324D01*
X439208Y292456D01*
X439180Y292511D01*
X439159Y292570D01*
X439089Y292688D01*
X439026Y292810D01*
X438987Y292859D01*
X438955Y292912D01*
X438863Y293014D01*
X438777Y293121D01*
X438729Y293161D01*
X438688Y293207D01*
X438577Y293288D01*
X438471Y293376D01*
X438417Y293406D01*
X438366Y293442D01*
X438242Y293500D01*
X438121Y293565D01*
X438061Y293583D01*
X438005Y293609D01*
X437871Y293641D01*
X437740Y293680D01*
X437678Y293686D01*
X437617Y293700D01*
X437358Y293717D01*
X397162Y293717D01*
X397005Y293701D01*
X396847Y293692D01*
X396807Y293681D01*
X396766Y293677D01*
X396615Y293630D01*
X396462Y293590D01*
X396425Y293572D01*
X396385Y293559D01*
X396246Y293483D01*
X396105Y293413D01*
X396073Y293388D01*
X396036Y293368D01*
X395915Y293265D01*
X395791Y293168D01*
X395764Y293137D01*
X395732Y293110D01*
X395634Y292986D01*
X395532Y292866D01*
X395512Y292830D01*
X395486Y292798D01*
X395415Y292656D01*
X395338Y292518D01*
X395325Y292479D01*
X395307Y292442D01*
X395265Y292289D01*
X395217Y292139D01*
X395213Y292098D01*
X395202Y292058D01*
X395192Y291900D01*
X395175Y291743D01*
X395178Y291690D01*
X395176Y291660D01*
X395182Y291613D01*
X395190Y291484D01*
X396413Y281698D01*
X396438Y281590D01*
X396453Y281480D01*
X396482Y281396D01*
X396502Y281309D01*
X396548Y281208D01*
X396584Y281104D01*
X396630Y281028D01*
X396666Y280947D01*
X396731Y280857D01*
X396788Y280762D01*
X396847Y280696D01*
X396900Y280624D01*
X396981Y280549D01*
X397055Y280467D01*
X397127Y280414D01*
X397193Y280354D01*
X397287Y280297D01*
X397377Y280232D01*
X397457Y280194D01*
X397533Y280148D01*
X397638Y280111D01*
X397738Y280065D01*
X397825Y280045D01*
X397909Y280015D01*
X398018Y279999D01*
X398126Y279974D01*
X398255Y279965D01*
X398303Y279958D01*
X398332Y279960D01*
X398385Y279957D01*
X439070Y279957D01*
X439077Y279958D01*
G37*
G36*
X564077Y279958D02*
X564077Y279958D01*
X564085Y279957D01*
X564276Y279978D01*
X564466Y279997D01*
X564473Y279999D01*
X564481Y280000D01*
X564664Y280058D01*
X564847Y280115D01*
X564853Y280118D01*
X564860Y280121D01*
X565026Y280213D01*
X565196Y280306D01*
X565201Y280311D01*
X565208Y280315D01*
X565352Y280439D01*
X565500Y280564D01*
X565504Y280569D01*
X565510Y280574D01*
X565628Y280726D01*
X565746Y280876D01*
X565749Y280883D01*
X565754Y280889D01*
X565839Y281060D01*
X565925Y281232D01*
X565927Y281239D01*
X565931Y281246D01*
X565979Y281429D01*
X566030Y281616D01*
X566031Y281624D01*
X566032Y281631D01*
X566044Y281822D01*
X566056Y282014D01*
X566055Y282021D01*
X566055Y282028D01*
X566028Y282286D01*
X564316Y292072D01*
X564299Y292133D01*
X564290Y292194D01*
X564245Y292324D01*
X564208Y292456D01*
X564180Y292511D01*
X564159Y292570D01*
X564089Y292688D01*
X564026Y292810D01*
X563987Y292859D01*
X563955Y292912D01*
X563863Y293014D01*
X563777Y293121D01*
X563729Y293161D01*
X563688Y293207D01*
X563577Y293288D01*
X563471Y293376D01*
X563417Y293406D01*
X563366Y293442D01*
X563242Y293500D01*
X563121Y293565D01*
X563061Y293583D01*
X563005Y293609D01*
X562871Y293641D01*
X562740Y293680D01*
X562678Y293686D01*
X562617Y293700D01*
X562358Y293717D01*
X522162Y293717D01*
X522005Y293701D01*
X521847Y293692D01*
X521807Y293681D01*
X521766Y293677D01*
X521615Y293630D01*
X521462Y293590D01*
X521425Y293572D01*
X521385Y293559D01*
X521246Y293483D01*
X521105Y293413D01*
X521073Y293388D01*
X521036Y293368D01*
X520915Y293265D01*
X520791Y293168D01*
X520764Y293137D01*
X520732Y293110D01*
X520634Y292986D01*
X520532Y292866D01*
X520512Y292830D01*
X520486Y292798D01*
X520415Y292656D01*
X520338Y292518D01*
X520325Y292479D01*
X520307Y292442D01*
X520265Y292289D01*
X520217Y292139D01*
X520213Y292098D01*
X520202Y292058D01*
X520192Y291900D01*
X520175Y291743D01*
X520178Y291690D01*
X520176Y291660D01*
X520182Y291613D01*
X520190Y291484D01*
X521413Y281698D01*
X521438Y281590D01*
X521453Y281480D01*
X521482Y281396D01*
X521502Y281309D01*
X521548Y281208D01*
X521584Y281104D01*
X521630Y281028D01*
X521666Y280947D01*
X521731Y280857D01*
X521788Y280762D01*
X521847Y280696D01*
X521900Y280624D01*
X521981Y280549D01*
X522055Y280467D01*
X522127Y280414D01*
X522193Y280354D01*
X522287Y280297D01*
X522377Y280232D01*
X522457Y280194D01*
X522533Y280148D01*
X522638Y280111D01*
X522738Y280065D01*
X522825Y280045D01*
X522909Y280015D01*
X523018Y279999D01*
X523126Y279974D01*
X523255Y279965D01*
X523303Y279958D01*
X523332Y279960D01*
X523385Y279957D01*
X564070Y279957D01*
X564077Y279958D01*
G37*
G36*
X314077Y279958D02*
X314077Y279958D01*
X314085Y279957D01*
X314276Y279978D01*
X314466Y279997D01*
X314473Y279999D01*
X314481Y280000D01*
X314664Y280058D01*
X314847Y280115D01*
X314853Y280118D01*
X314860Y280121D01*
X315026Y280213D01*
X315196Y280306D01*
X315201Y280311D01*
X315208Y280315D01*
X315352Y280439D01*
X315500Y280564D01*
X315504Y280569D01*
X315510Y280574D01*
X315628Y280726D01*
X315746Y280876D01*
X315749Y280883D01*
X315754Y280889D01*
X315839Y281060D01*
X315925Y281232D01*
X315927Y281239D01*
X315931Y281246D01*
X315979Y281429D01*
X316030Y281616D01*
X316031Y281624D01*
X316032Y281631D01*
X316044Y281822D01*
X316056Y282014D01*
X316055Y282021D01*
X316055Y282028D01*
X316028Y282286D01*
X314316Y292072D01*
X314299Y292133D01*
X314290Y292194D01*
X314245Y292324D01*
X314208Y292456D01*
X314180Y292511D01*
X314159Y292570D01*
X314089Y292688D01*
X314026Y292810D01*
X313987Y292859D01*
X313955Y292912D01*
X313863Y293014D01*
X313777Y293121D01*
X313729Y293161D01*
X313688Y293207D01*
X313577Y293288D01*
X313471Y293376D01*
X313417Y293406D01*
X313366Y293442D01*
X313242Y293500D01*
X313121Y293565D01*
X313061Y293583D01*
X313005Y293609D01*
X312871Y293641D01*
X312740Y293680D01*
X312678Y293686D01*
X312617Y293700D01*
X312358Y293717D01*
X272162Y293717D01*
X272005Y293701D01*
X271847Y293692D01*
X271807Y293681D01*
X271766Y293677D01*
X271615Y293630D01*
X271462Y293590D01*
X271425Y293572D01*
X271385Y293559D01*
X271246Y293483D01*
X271105Y293413D01*
X271073Y293388D01*
X271036Y293368D01*
X270915Y293265D01*
X270791Y293168D01*
X270764Y293137D01*
X270732Y293110D01*
X270634Y292986D01*
X270532Y292866D01*
X270512Y292830D01*
X270486Y292798D01*
X270415Y292656D01*
X270338Y292518D01*
X270325Y292479D01*
X270307Y292442D01*
X270265Y292289D01*
X270217Y292139D01*
X270213Y292098D01*
X270202Y292058D01*
X270192Y291900D01*
X270175Y291743D01*
X270178Y291690D01*
X270176Y291660D01*
X270182Y291613D01*
X270190Y291484D01*
X271413Y281698D01*
X271438Y281590D01*
X271453Y281480D01*
X271482Y281396D01*
X271502Y281309D01*
X271548Y281208D01*
X271584Y281104D01*
X271630Y281028D01*
X271666Y280947D01*
X271731Y280857D01*
X271788Y280762D01*
X271847Y280696D01*
X271900Y280624D01*
X271981Y280549D01*
X272055Y280467D01*
X272127Y280414D01*
X272193Y280354D01*
X272287Y280297D01*
X272377Y280232D01*
X272457Y280194D01*
X272533Y280148D01*
X272638Y280111D01*
X272738Y280065D01*
X272825Y280045D01*
X272909Y280015D01*
X273018Y279999D01*
X273126Y279974D01*
X273255Y279965D01*
X273303Y279958D01*
X273332Y279960D01*
X273385Y279957D01*
X314070Y279957D01*
X314077Y279958D01*
G37*
G36*
X335511Y153490D02*
X335511Y153490D01*
X335669Y153499D01*
X335709Y153510D01*
X335750Y153514D01*
X335901Y153561D01*
X336054Y153601D01*
X336091Y153620D01*
X336131Y153632D01*
X336270Y153708D01*
X336411Y153778D01*
X336443Y153803D01*
X336480Y153823D01*
X336601Y153926D01*
X336725Y154023D01*
X336752Y154054D01*
X336784Y154081D01*
X336882Y154205D01*
X336984Y154325D01*
X337005Y154361D01*
X337030Y154393D01*
X337101Y154535D01*
X337178Y154673D01*
X337191Y154712D01*
X337209Y154749D01*
X337251Y154902D01*
X337299Y155052D01*
X337303Y155093D01*
X337314Y155133D01*
X337324Y155291D01*
X337341Y155448D01*
X337338Y155501D01*
X337340Y155531D01*
X337334Y155578D01*
X337326Y155707D01*
X336103Y165493D01*
X336078Y165601D01*
X336063Y165711D01*
X336034Y165795D01*
X336014Y165882D01*
X335968Y165983D01*
X335932Y166087D01*
X335887Y166163D01*
X335850Y166244D01*
X335785Y166334D01*
X335728Y166429D01*
X335669Y166495D01*
X335616Y166567D01*
X335535Y166642D01*
X335461Y166724D01*
X335389Y166777D01*
X335323Y166837D01*
X335229Y166894D01*
X335139Y166959D01*
X335059Y166997D01*
X334983Y167043D01*
X334878Y167080D01*
X334778Y167126D01*
X334691Y167146D01*
X334607Y167176D01*
X334498Y167192D01*
X334390Y167217D01*
X334261Y167226D01*
X334213Y167233D01*
X334184Y167231D01*
X334131Y167234D01*
X293446Y167234D01*
X293439Y167234D01*
X293431Y167234D01*
X293240Y167214D01*
X293050Y167194D01*
X293043Y167192D01*
X293035Y167191D01*
X292852Y167133D01*
X292669Y167076D01*
X292663Y167073D01*
X292656Y167070D01*
X292490Y166978D01*
X292320Y166885D01*
X292315Y166880D01*
X292308Y166876D01*
X292164Y166752D01*
X292016Y166627D01*
X292012Y166622D01*
X292006Y166617D01*
X291888Y166465D01*
X291770Y166315D01*
X291767Y166308D01*
X291762Y166302D01*
X291677Y166131D01*
X291591Y165959D01*
X291589Y165952D01*
X291585Y165945D01*
X291537Y165762D01*
X291486Y165575D01*
X291485Y165567D01*
X291484Y165560D01*
X291473Y165369D01*
X291460Y165177D01*
X291461Y165170D01*
X291461Y165163D01*
X291488Y164905D01*
X293200Y155119D01*
X293217Y155058D01*
X293226Y154997D01*
X293271Y154867D01*
X293308Y154735D01*
X293336Y154680D01*
X293357Y154621D01*
X293427Y154503D01*
X293490Y154381D01*
X293529Y154332D01*
X293561Y154279D01*
X293653Y154177D01*
X293739Y154070D01*
X293787Y154030D01*
X293828Y153984D01*
X293939Y153903D01*
X294045Y153815D01*
X294099Y153785D01*
X294150Y153749D01*
X294274Y153691D01*
X294395Y153626D01*
X294455Y153608D01*
X294511Y153582D01*
X294645Y153550D01*
X294776Y153511D01*
X294838Y153505D01*
X294899Y153491D01*
X295158Y153474D01*
X335354Y153474D01*
X335511Y153490D01*
G37*
G36*
X460511Y153490D02*
X460511Y153490D01*
X460669Y153499D01*
X460709Y153510D01*
X460750Y153514D01*
X460901Y153561D01*
X461054Y153601D01*
X461091Y153620D01*
X461131Y153632D01*
X461270Y153708D01*
X461411Y153778D01*
X461443Y153803D01*
X461480Y153823D01*
X461601Y153926D01*
X461725Y154023D01*
X461752Y154054D01*
X461784Y154081D01*
X461882Y154205D01*
X461984Y154325D01*
X462005Y154361D01*
X462030Y154393D01*
X462101Y154535D01*
X462178Y154673D01*
X462191Y154712D01*
X462209Y154749D01*
X462251Y154902D01*
X462299Y155052D01*
X462303Y155093D01*
X462314Y155133D01*
X462324Y155291D01*
X462341Y155448D01*
X462338Y155501D01*
X462340Y155531D01*
X462334Y155578D01*
X462326Y155707D01*
X461103Y165493D01*
X461078Y165601D01*
X461063Y165711D01*
X461034Y165795D01*
X461014Y165882D01*
X460968Y165983D01*
X460932Y166087D01*
X460887Y166163D01*
X460850Y166244D01*
X460785Y166334D01*
X460728Y166429D01*
X460669Y166495D01*
X460616Y166567D01*
X460535Y166642D01*
X460461Y166724D01*
X460389Y166777D01*
X460323Y166837D01*
X460229Y166894D01*
X460139Y166959D01*
X460059Y166997D01*
X459983Y167043D01*
X459878Y167080D01*
X459778Y167126D01*
X459691Y167146D01*
X459607Y167176D01*
X459498Y167192D01*
X459390Y167217D01*
X459261Y167226D01*
X459213Y167233D01*
X459184Y167231D01*
X459131Y167234D01*
X418446Y167234D01*
X418439Y167234D01*
X418431Y167234D01*
X418240Y167214D01*
X418050Y167194D01*
X418043Y167192D01*
X418035Y167191D01*
X417852Y167133D01*
X417669Y167076D01*
X417663Y167073D01*
X417656Y167070D01*
X417490Y166978D01*
X417320Y166885D01*
X417315Y166880D01*
X417308Y166876D01*
X417164Y166752D01*
X417016Y166627D01*
X417012Y166622D01*
X417006Y166617D01*
X416888Y166465D01*
X416770Y166315D01*
X416767Y166308D01*
X416762Y166302D01*
X416677Y166131D01*
X416591Y165959D01*
X416589Y165952D01*
X416585Y165945D01*
X416537Y165762D01*
X416486Y165575D01*
X416485Y165567D01*
X416484Y165560D01*
X416473Y165369D01*
X416460Y165177D01*
X416461Y165170D01*
X416461Y165163D01*
X416488Y164905D01*
X418200Y155119D01*
X418217Y155058D01*
X418226Y154997D01*
X418271Y154867D01*
X418308Y154735D01*
X418336Y154680D01*
X418357Y154621D01*
X418427Y154503D01*
X418490Y154381D01*
X418529Y154332D01*
X418561Y154279D01*
X418653Y154177D01*
X418739Y154070D01*
X418787Y154030D01*
X418828Y153984D01*
X418939Y153903D01*
X419045Y153815D01*
X419099Y153785D01*
X419150Y153749D01*
X419274Y153691D01*
X419395Y153626D01*
X419455Y153608D01*
X419511Y153582D01*
X419645Y153550D01*
X419776Y153511D01*
X419838Y153505D01*
X419899Y153491D01*
X420158Y153474D01*
X460354Y153474D01*
X460511Y153490D01*
G37*
G36*
X585511Y153490D02*
X585511Y153490D01*
X585669Y153499D01*
X585709Y153510D01*
X585750Y153514D01*
X585901Y153561D01*
X586054Y153601D01*
X586091Y153620D01*
X586131Y153632D01*
X586270Y153708D01*
X586411Y153778D01*
X586443Y153803D01*
X586480Y153823D01*
X586601Y153926D01*
X586725Y154023D01*
X586752Y154054D01*
X586784Y154081D01*
X586882Y154205D01*
X586984Y154325D01*
X587005Y154361D01*
X587030Y154393D01*
X587101Y154535D01*
X587178Y154673D01*
X587191Y154712D01*
X587209Y154749D01*
X587251Y154902D01*
X587299Y155052D01*
X587303Y155093D01*
X587314Y155133D01*
X587324Y155291D01*
X587341Y155448D01*
X587338Y155501D01*
X587340Y155531D01*
X587334Y155578D01*
X587326Y155707D01*
X586103Y165493D01*
X586078Y165601D01*
X586063Y165711D01*
X586034Y165795D01*
X586014Y165882D01*
X585968Y165983D01*
X585932Y166087D01*
X585887Y166163D01*
X585850Y166244D01*
X585785Y166334D01*
X585728Y166429D01*
X585669Y166495D01*
X585616Y166567D01*
X585535Y166642D01*
X585461Y166724D01*
X585389Y166777D01*
X585323Y166837D01*
X585229Y166894D01*
X585139Y166959D01*
X585059Y166997D01*
X584983Y167043D01*
X584878Y167080D01*
X584778Y167126D01*
X584691Y167146D01*
X584607Y167176D01*
X584498Y167192D01*
X584390Y167217D01*
X584261Y167226D01*
X584213Y167233D01*
X584184Y167231D01*
X584131Y167234D01*
X543446Y167234D01*
X543439Y167234D01*
X543431Y167234D01*
X543240Y167214D01*
X543050Y167194D01*
X543043Y167192D01*
X543035Y167191D01*
X542852Y167133D01*
X542669Y167076D01*
X542663Y167073D01*
X542656Y167070D01*
X542490Y166978D01*
X542320Y166885D01*
X542315Y166880D01*
X542308Y166876D01*
X542164Y166752D01*
X542016Y166627D01*
X542012Y166622D01*
X542006Y166617D01*
X541888Y166465D01*
X541770Y166315D01*
X541767Y166308D01*
X541762Y166302D01*
X541677Y166131D01*
X541591Y165959D01*
X541589Y165952D01*
X541585Y165945D01*
X541537Y165762D01*
X541486Y165575D01*
X541485Y165567D01*
X541484Y165560D01*
X541473Y165369D01*
X541460Y165177D01*
X541461Y165170D01*
X541461Y165163D01*
X541488Y164905D01*
X543200Y155119D01*
X543217Y155058D01*
X543226Y154997D01*
X543271Y154867D01*
X543308Y154735D01*
X543336Y154680D01*
X543357Y154621D01*
X543427Y154503D01*
X543490Y154381D01*
X543529Y154332D01*
X543561Y154279D01*
X543653Y154177D01*
X543739Y154070D01*
X543787Y154030D01*
X543828Y153984D01*
X543939Y153903D01*
X544045Y153815D01*
X544099Y153785D01*
X544150Y153749D01*
X544274Y153691D01*
X544395Y153626D01*
X544455Y153608D01*
X544511Y153582D01*
X544645Y153550D01*
X544776Y153511D01*
X544838Y153505D01*
X544899Y153491D01*
X545158Y153474D01*
X585354Y153474D01*
X585511Y153490D01*
G37*
D10*
X152400Y238125D02*
X161290Y238125D01*
X219710Y238125D02*
X228600Y238125D01*
D11*
X241625Y316250D02*
X615375Y316250D01*
X241625Y316250D02*
X241625Y128250D01*
X615375Y128250D01*
X615375Y316250D01*
D12*
X504642Y157019D03*
X378392Y156519D03*
X251642Y157769D03*
D10*
X161290Y263525D02*
X152400Y263525D01*
X219710Y263525D02*
X228600Y263525D01*
X161290Y136525D02*
X152400Y136525D01*
X219710Y136525D02*
X228600Y136525D01*
X161290Y161925D02*
X152400Y161925D01*
X219710Y161925D02*
X228600Y161925D01*
X161290Y187325D02*
X152400Y187325D01*
X219710Y187325D02*
X228600Y187325D01*
X161290Y212725D02*
X152400Y212725D01*
X219710Y212725D02*
X228600Y212725D01*
X161290Y111125D02*
X152400Y111125D01*
X219710Y111125D02*
X228600Y111125D01*
X692785Y320675D02*
X701675Y320675D01*
X634365Y320675D02*
X625475Y320675D01*
X692785Y346075D02*
X701675Y346075D01*
X634365Y346075D02*
X625475Y346075D01*
X692785Y193675D02*
X701675Y193675D01*
X634365Y193675D02*
X625475Y193675D01*
X692785Y168275D02*
X701675Y168275D01*
X634365Y168275D02*
X625475Y168275D01*
X692785Y142875D02*
X701675Y142875D01*
X634365Y142875D02*
X625475Y142875D01*
X692785Y244475D02*
X701675Y244475D01*
X634365Y244475D02*
X625475Y244475D01*
X692785Y219075D02*
X701675Y219075D01*
X634365Y219075D02*
X625475Y219075D01*
X228600Y288925D02*
X219710Y288925D01*
X161290Y288925D02*
X152400Y288925D01*
X692785Y269875D02*
X701675Y269875D01*
X634365Y269875D02*
X625475Y269875D01*
X692785Y295275D02*
X701675Y295275D01*
X634365Y295275D02*
X625475Y295275D01*
D13*
X495300Y114935D02*
X495300Y104775D01*
X483108Y104775D01*
X483108Y99695D01*
X507492Y99695D01*
X507492Y104775D01*
X495300Y104775D01*
X495300Y92075D02*
X495300Y81915D01*
D14*
X495300Y93345D03*
D13*
X539750Y94615D02*
X539750Y90805D01*
X539750Y102235D02*
X539750Y106045D01*
M02*
